<svg width="32" height="32" viewBox="0 0 32 32" fill="none" xmlns="http://www.w3.org/2000/svg">
<path d="M0.018116 25.254C0.0944576 24.7821 0.39023 24.3787 0.833202 24.1391L7.38636 20.277L7.44031 20.2468C7.71511 20.1093 8.01854 20.0388 8.3258 20.041C8.87483 20.041 9.39917 20.2491 9.76306 20.614L11.6972 22.5496C11.78 22.6283 12.0497 22.7421 12.1315 22.7463C12.1539 22.7444 14.382 22.5839 18.484 18.4803C22.5786 14.3854 22.7524 12.1498 22.7537 12.1498C22.7514 12.0355 22.639 11.7666 22.559 11.6834L20.9096 10.034C20.3286 9.45143 20.1544 8.48566 20.4991 7.73756L24.1416 0.881627C24.4063 0.336555 24.9206 0 25.4911 0C25.8948 0 26.2842 0.167363 26.5887 0.471451L31.0847 4.9587C31.5158 5.38762 31.887 6.13755 31.9679 6.74116C32.0072 7.0297 32.805 13.9172 23.3649 23.3613C15.3507 31.3769 9.10157 31.9997 7.37585 31.9997C7.1657 32.002 6.95561 31.9912 6.74682 31.9672C6.14522 31.8867 5.39642 31.5163 4.96807 31.087L0.475716 26.5938C0.109087 26.2252 -0.0582275 25.7382 0.018116 25.254Z" fill="#232B65"/>
</svg>
