<svg width="79" height="237" viewBox="0 0 79 237" fill="none" xmlns="http://www.w3.org/2000/svg">
<path d="M44.3 92.1072C44.31 92.1741 44.3301 92.241 44.3601 92.3079C44.3601 92.2697 44.36 92.2793 44.39 92.3748C44.42 92.4322 44.4501 92.4799 44.4901 92.5277C44.5201 92.5468 44.54 92.566 44.55 92.5851C44.59 92.6329 44.63 92.6711 44.67 92.7093C44.72 92.7475 44.7701 92.7762 44.8301 92.7953C44.8501 92.7953 44.87 92.8144 44.91 92.8336C44.98 92.8622 45.05 92.8718 45.12 92.8909C45.19 92.8909 45.27 92.8909 45.34 92.8909C45.31 92.8909 45.33 92.8813 45.43 92.8813C45.5 92.8622 45.5801 92.8431 45.6501 92.824C45.7201 92.7953 45.78 92.7571 45.84 92.7093C45.8 92.7284 45.8001 92.7284 45.8801 92.6806C45.9301 92.6424 45.9801 92.5946 46.0201 92.5373C46.0701 92.4704 46.1101 92.3939 46.1501 92.327C46.1901 92.241 46.2001 92.155 46.2201 92.069C46.2201 92.0308 46.2201 92.0021 46.2201 91.9639C46.2201 91.9448 46.2201 91.9256 46.2201 91.9065C46.2201 91.9065 46.2101 91.8683 46.2201 91.811C46.2001 91.7345 46.18 91.6676 46.16 91.5911C46.12 91.5242 46.08 91.4478 46.03 91.3904C45.97 91.3331 45.9201 91.2853 45.8601 91.228C45.7901 91.1802 45.7201 91.142 45.6501 91.1133C45.5701 91.0846 45.4801 91.0655 45.4001 91.0464C45.3101 91.0464 45.2601 91.0464 45.1501 91.0464C45.0501 91.0655 44.99 91.0751 44.91 91.1037C44.84 91.1515 44.76 91.1802 44.69 91.2184C44.63 91.2566 44.6001 91.2949 44.5601 91.3427C44.5601 91.3522 44.5301 91.3809 44.4901 91.4191C44.4501 91.4765 44.4101 91.5338 44.3801 91.6007C44.3601 91.658 44.3401 91.7058 44.3301 91.7632C44.3301 91.7632 44.3301 91.7918 44.3101 91.8683C44.3101 91.9448 44.3101 92.0212 44.3101 92.0977L44.3 92.1072Z" fill="white"/>
<path d="M44.3999 92.4232C44.3999 92.4232 44.3999 92.3943 44.3899 92.3847C44.3899 92.3751 44.3799 92.3558 44.3699 92.3462C44.3799 92.3751 44.3899 92.404 44.3999 92.4329V92.4232Z" fill="#2CB0E0"/>
<path d="M69.8499 135.947C69.8499 135.927 69.8499 135.908 69.8499 135.888C69.8499 135.85 69.8399 135.908 69.8499 135.947Z" fill="#2CB0E0"/>
<path d="M44.8599 92.8334C44.8599 92.8334 44.8899 92.8429 44.9099 92.8524C44.8899 92.8429 44.8599 92.8239 44.8399 92.8145C44.8099 92.8145 44.8199 92.8239 44.8699 92.8429L44.8599 92.8334Z" fill="#2CB0E0"/>
<path d="M44.46 92.5182L44.48 92.5372C44.48 92.5372 44.47 92.5277 44.46 92.5182Z" fill="#2CB0E0"/>
<path d="M44.52 92.5859C44.52 92.5859 44.57 92.6249 44.54 92.5859C44.52 92.5664 44.5 92.547 44.48 92.5372C44.49 92.5567 44.5 92.5664 44.51 92.5859H44.52Z" fill="#2CB0E0"/>
<path d="M44.9399 92.8621C44.9399 92.8621 44.9199 92.8526 44.9099 92.8431C44.9199 92.8431 44.9399 92.8526 44.9499 92.8621H44.9399Z" fill="#2CB0E0"/>
<path d="M35.6801 43.6814C35.6501 43.7385 35.6601 43.7385 35.6801 43.6814V43.6814Z" fill="#2CB0E0"/>
<path d="M47.1801 226.844C47.1801 226.844 47.1101 226.786 47.0801 226.786C47.0901 226.786 47.1401 226.815 47.1801 226.844Z" fill="#2CB0E0"/>
<path d="M47.28 226.901C47.35 226.938 47.44 226.957 47.34 226.901C47.32 226.901 47.3 226.901 47.28 226.901Z" fill="#2CB0E0"/>
<path d="M51.96 227.904C52.06 227.904 52.16 227.866 51.96 227.904V227.904Z" fill="#2CB0E0"/>
<path d="M44.3201 91.7727C44.3201 91.7727 44.3201 91.7917 44.3101 91.8107C44.3101 91.8012 44.3101 91.7822 44.3201 91.7727Z" fill="#2CB0E0"/>
<path d="M29.2098 219.972C29.0998 220.145 29.1498 220.039 29.2098 219.972V219.972Z" fill="#2CB0E0"/>
<path d="M37.79 216.149C34.62 216.971 31.27 216.627 28.24 215.499C28.12 216.741 27.85 217.965 27.52 219.169C28.62 217.487 31.03 218.041 32.78 218.146C34.86 218.251 37.18 218.853 37.74 221.042C37.82 219.408 37.83 217.783 37.79 216.149Z" fill="white"/>
<path d="M37.0399 224.263C36.4899 223.278 36.1999 222.189 35.7899 221.147C35.7299 221.023 35.6599 220.899 35.5699 220.784C35.5099 220.727 35.4299 220.631 35.3599 220.583C34.9599 220.325 34.6299 220.239 34.0699 220.124C32.6299 219.886 31.1399 219.714 29.6699 219.809C29.5499 219.838 29.4699 219.847 29.3399 219.895C29.3199 219.905 29.2999 219.914 29.2799 219.924C29.3399 219.905 29.2599 219.943 29.2199 219.952C29.2199 219.952 29.2199 219.962 29.2099 219.972C28.7199 220.879 28.1399 221.692 27.2199 222.256C26.9599 222.418 26.7099 222.447 26.4999 222.37C25.7999 224.215 24.6799 225.754 23.6499 227.455C22.8899 228.697 22.3399 230.045 22.7299 231.497C23.9199 235.053 29.0099 235.282 32.1399 234.183C36.1099 232.759 37.2499 228.344 37.6199 224.693C37.3999 224.655 37.1899 224.511 37.0499 224.253L37.0399 224.263ZM34.5499 231.096C31.2599 233.533 27.1499 231.975 23.6799 230.819C22.5299 230.484 23.0199 228.755 24.1799 229.089C27.1999 230.007 30.7299 231.727 33.6099 229.548C34.6799 228.993 35.5999 230.408 34.5599 231.096H34.5499Z" fill="#DCDCDC"/>
<path d="M29.28 219.924C29.28 219.924 29.24 219.933 29.23 219.943C29.25 219.943 29.26 219.933 29.28 219.924Z" fill="#2CB0E0"/>
<path d="M46.24 91.8683C46.24 91.8683 46.24 91.8587 46.24 91.8491C46.24 91.8779 46.24 91.8971 46.24 91.9259C46.24 91.9259 46.25 91.9067 46.24 91.8683Z" fill="#2CB0E0"/>
<path d="M45.9399 92.6711C45.9399 92.6711 45.9099 92.6906 45.8899 92.7003C45.8799 92.7003 45.8699 92.7198 45.8599 92.7295C45.8899 92.7101 45.9099 92.6906 45.9399 92.6809V92.6711Z" fill="#2CB0E0"/>
<path d="M44.3 91.8491C44.3 91.8491 44.3 91.8977 44.29 91.9171C44.29 91.8977 44.29 91.888 44.3 91.8783C44.3 91.8686 44.3 91.8588 44.3 91.8491Z" fill="#2CB0E0"/>
<path d="M44.51 91.4002C44.51 91.4002 44.5 91.4195 44.49 91.4291C44.51 91.4098 44.54 91.3906 44.56 91.3618C44.56 91.3426 44.54 91.3618 44.51 91.4002Z" fill="#2CB0E0"/>
<path d="M41.75 43.0602C40.44 42.5346 39.31 41.7987 38.34 40.9385C38.07 42.525 37.7 44.1401 36.77 45.5068C37.08 45.87 37.23 46.367 37.45 46.7875C37.62 46.711 37.83 46.6823 38.06 46.7301C43.81 48.0299 50.09 48.0968 55.91 47.1124C55.07 46.1471 54.42 45.0003 53.75 43.9394C53.1 42.8882 54.87 42.028 55.42 43.108L54.66 39.9446C51.58 43.6241 46.29 44.9143 41.75 43.0698V43.0602Z" fill="white"/>
<path d="M60.0399 24.1085C60.0099 23.9938 59.9599 23.8504 59.9199 23.7453C59.8799 23.6784 59.8299 23.5828 59.7799 23.5159C59.7799 23.5159 59.7199 23.4681 59.6999 23.4395C59.6899 23.4395 59.6799 23.4395 59.6699 23.4395C59.6499 23.4395 59.3999 23.535 59.4799 23.4968C59.3399 23.5637 59.1899 23.5828 59.0499 23.5924C58.6099 24.1849 58.1799 24.787 57.7399 25.3795C57.4899 25.7236 57.1099 25.8861 56.6799 25.7905C56.2999 25.7045 55.9699 25.3031 55.9899 24.9304C56.0899 23.4968 56.1099 22.0441 56.2599 20.6106C55.8599 19.4159 54.2999 18.5176 53.3899 17.8294C51.7099 16.7208 51.2099 14.7807 51.7499 12.9553C51.3899 13.1178 50.8699 12.9649 50.4899 13.0509C50.3299 13.0796 50.1799 13.1178 50.0299 13.1656C49.9199 13.2229 49.8199 13.2803 49.7199 13.3376C49.6099 13.4236 49.5099 13.5287 49.4099 13.6339C49.2399 13.8728 49.0999 14.1213 48.9699 14.3793C48.3899 15.8129 48.1299 17.3516 47.3399 18.6991C45.9199 21.1744 43.1399 21.9486 40.3399 21.9008C39.5899 21.8912 39.3099 21.2031 39.4799 20.6775C38.6399 21.0502 37.7199 21.2891 36.7599 21.356C36.5599 21.3656 36.3799 21.3082 36.2299 21.2031C36.0199 21.3369 35.8299 21.4994 35.6599 21.6618C35.7099 22.6749 35.7699 23.6879 35.8199 24.701C35.8499 25.198 35.3699 25.5802 34.8799 25.5994C34.3599 25.6185 33.9699 25.1693 33.9399 24.701C33.8999 23.9555 33.8599 23.2005 33.8199 22.4551C33.5299 22.7991 33.0499 22.8278 32.6299 22.6558C32.3999 22.5602 32.0799 22.8374 31.9499 22.9998C31.7099 23.277 31.6499 23.6306 31.5799 23.9842C31.1299 26.0103 32.0999 28.0842 33.8399 29.2311C34.3599 28.8488 35.3699 29.0686 35.4099 29.9096C35.5599 32.7767 36.3299 35.663 38.0999 38.0236C38.2899 38.1287 38.4399 38.2912 38.4999 38.5206C40.9699 41.4259 45.0199 42.8882 48.8299 41.7222C53.6699 40.2408 55.8399 35.3189 56.2399 30.8367C56.2999 30.1963 56.9099 29.9096 57.4299 29.9861C59.7999 29.0781 60.6099 26.3448 60.0399 24.118V24.1085ZM46.3899 23.6784C46.9099 23.6688 47.3199 24.0989 47.3299 24.5768C47.5099 25.953 47.6799 27.3196 47.8599 28.6959C47.9299 29.47 46.7799 29.8809 46.2599 29.3266C46.0699 29.145 46.0199 28.9348 45.9899 28.6959C45.8099 27.3196 45.6399 25.953 45.4599 24.5768C45.3999 24.0798 45.9399 23.6975 46.3999 23.6784H46.3899ZM41.3599 24.9495C40.1499 24.9495 40.1499 23.1527 41.3599 23.1527C42.5699 23.1527 42.5699 24.9495 41.3599 24.9495ZM49.8199 35.7299C47.6799 36.6952 45.2199 36.676 43.0799 35.7299C41.8999 35.3285 42.3799 33.7133 43.5799 34.0001C44.3099 34.2772 45.0699 34.5353 45.8499 34.6404C46.2799 34.6882 46.7099 34.6882 47.1299 34.6404C47.8899 34.5257 48.6099 34.2772 49.3199 34.0001C49.7899 33.8185 50.3499 34.2008 50.4699 34.6308C50.6199 35.1373 50.2799 35.5483 49.8099 35.7299H49.8199ZM51.2899 24.9495C50.0799 24.9495 50.0799 23.1527 51.2899 23.1527C52.4999 23.1527 52.4999 24.9495 51.2899 24.9495Z" fill="white"/>
<path d="M20.2299 87.2235C20.1399 87.4242 20.0099 87.5675 19.8499 87.6631L20.7299 87.3668C20.5499 87.1661 20.4499 86.8985 20.4799 86.6405C20.3999 86.8316 20.3099 87.0323 20.2299 87.2235Z" fill="#2CB0E0"/>
<path d="M71.08 96.9144C66.49 88.0645 62.34 79.014 57.79 70.1545C57.42 69.2179 56.31 70.2883 55.73 70.4986C44.45 76.1946 33.17 81.8906 21.89 87.5867C21.43 87.816 21 87.6631 20.73 87.3669L19.85 87.6631C19.76 87.7205 19.67 87.7587 19.57 87.7778L19.5 88.3512C20.23 88.2461 20.99 89.068 21.64 89.3643C25.17 91.4955 28.7 93.6172 32.22 95.7484C32.68 96.0256 32.74 96.4843 32.58 96.8571L33.53 97.3827C33.65 96.9431 34.05 96.6181 34.61 96.8379C37.1 97.8223 39.65 96.7615 42.2 96.7041C43.3 96.6755 44.48 96.7902 45.37 97.44C46.17 98.0135 46.85 98.7111 47.63 99.3037C48.53 99.9822 49.28 100.823 50.15 101.55C50.94 102.209 51.95 102.563 52.48 103.49C53.05 104.484 52.74 105.535 51.97 106.185C52.47 106.558 52.97 106.921 53.47 107.293C59.54 103.968 65.65 100.689 71.75 97.3827C71.48 97.3731 71.23 97.2393 71.07 96.924L71.08 96.9144ZM48.1 92.1741C47.9 94.8214 44.26 95.6337 42.82 93.3687C41.48 91.247 43.76 88.5424 46.2 89.4121C47.38 89.8326 48.21 90.9412 48.09 92.1645L48.1 92.1741Z" fill="white"/>
<path d="M72.44 97.3164L72.37 97.182C72.37 97.182 72.28 97.2396 72.23 97.2684C72.31 97.2684 72.38 97.2972 72.45 97.3164H72.44Z" fill="#2CB0E0"/>
<path d="M48.37 114.327C52.44 113.802 56.5101 112.942 60.5801 112.435C60.4401 110.428 60.51 108.402 60.41 106.395C60.39 105.965 60.6301 105.697 60.9501 105.592V105.277C59.0001 106.338 57.04 107.399 55.09 108.459C58.5301 110.466 54.79 114.844 51.91 112.33C51.83 112.273 51.74 112.215 51.66 112.158C51.04 113.305 49.4001 113.754 48.18 113.333C48.33 114.509 46.2701 115.13 45.3301 115.082C45.2001 115.388 45.02 115.675 44.8 115.923L47.44 115.34C47.34 114.777 47.8201 114.375 48.3601 114.318L48.37 114.327Z" fill="white"/>
<path d="M48.3701 117.577C52.5901 117.109 56.8201 115.981 61.0401 115.713C60.9201 115.216 60.8301 114.719 60.7601 114.213C56.6301 114.748 52.5101 115.627 48.3701 116.124C47.9101 116.172 47.5101 115.761 47.4501 115.35L44.8101 115.933C45.2501 115.962 45.6501 116.248 45.6301 116.793C45.5901 117.606 45.6101 118.523 45.5501 119.431L47.6701 119.03C47.1501 118.437 47.6401 117.615 48.3901 117.577H48.3701Z" fill="#2CB0E0"/>
<path d="M43.7401 72.84C42.4701 67.9659 41.1101 63.1109 39.6201 58.2941C38.4201 54.4235 37.2601 50.4 35.3901 46.7587C35.0501 46.8638 34.6401 46.7301 34.4101 46.4816C34.4101 47.0837 33.8301 47.227 33.3501 47.4182C30.8801 48.4121 28.4001 49.3965 25.9101 50.3426C23.1801 51.3844 20.3001 52.1872 17.6401 53.3818C15.9401 54.1368 14.6101 55.2168 13.7301 56.8319C13.0501 58.0839 12.8401 59.4506 12.4801 60.7981C9.88009 69.6289 6.78009 78.4023 2.89009 86.803C2.20009 88.2556 1.84009 89.7561 1.89009 91.3521C1.96009 95.2706 4.08009 95.9873 7.25009 97.6694C12.9101 100.795 18.6501 103.786 24.4201 106.72C24.7301 106.882 24.8701 107.131 24.8801 107.379L25.4301 107.274C25.1901 107.054 25.1001 106.72 25.1501 106.385C25.4901 104.197 26.3201 102.075 27.5801 100.221C28.1301 99.4183 28.7501 98.5869 29.4901 97.937C29.8801 97.5929 30.3501 97.6407 30.6801 97.8701L31.2201 97.2584C27.2101 94.8405 23.2101 92.4225 19.2001 90.0142C18.8601 89.8039 18.7401 89.4981 18.7701 89.2018C18.7501 89.4981 18.6001 89.7848 18.3201 89.909C16.0501 90.8552 13.6201 91.4955 11.4701 92.6806C10.3901 93.2445 9.48009 91.7535 10.5201 91.1323C12.6801 89.9377 15.1001 89.3069 17.3701 88.3608C18.0101 88.0454 18.8301 88.4563 18.7701 89.1827C18.8101 88.8004 19.1101 88.4372 19.4901 88.3512L19.5601 87.7778C18.8901 87.9498 18.0801 87.5006 18.4101 86.7456C18.6901 86.0957 18.9801 85.4363 19.2601 84.7864C21.2801 80.1417 23.2901 75.5065 25.3101 70.8617C25.7701 69.8104 27.5801 70.2692 27.1201 71.3396C24.9601 76.3188 22.8001 81.2885 20.6401 86.2678C28.6701 81.8524 37.1001 78.02 45.2401 73.7575C45.1701 73.6333 45.1101 73.4995 45.0601 73.3561C44.5801 73.5951 43.9001 73.4804 43.7301 72.8305L43.7401 72.84ZM23.0601 67.0867C20.6901 63.627 18.3301 60.1769 15.9601 56.7172C15.3001 55.752 16.9201 54.8536 17.5801 55.8093C17.8801 56.2489 18.1801 56.679 18.4801 57.1186L24.6901 66.1787C25.3501 67.144 23.7301 68.0424 23.0701 67.0867H23.0601Z" fill="#DCDCDC"/>
<path d="M75.2701 102.907C75.0701 100.221 74.5101 97.5739 74.1501 94.9075C73.4001 84.0315 73.6901 73.1077 73.1601 62.2127C73.0501 60.2917 73.0701 58.1222 71.8901 56.4688C70.7001 54.7963 68.5001 53.6208 66.6901 52.6651C64.0201 51.1742 61.0601 50.295 58.3101 48.9761C58.3301 49.0812 58.3501 49.1959 58.3601 49.301C58.6901 49.3392 58.9901 49.5304 59.0901 49.9318C60.6401 56.0579 61.3101 62.3369 62.0901 68.5777C62.1501 69.046 61.8601 69.3231 61.5001 69.3996C61.5501 70.9478 61.9101 72.5821 61.8501 74.1686C63.6801 77.8481 65.5001 81.518 67.3301 85.1975C68.1201 77.9914 68.9001 70.7854 69.6901 63.5698C69.8101 62.4325 71.6901 62.4229 71.5701 63.5698C71.4701 64.4586 71.3801 65.3474 71.2801 66.2362C70.5901 72.5726 69.9001 78.9089 69.2101 85.2453C69.1301 86.0003 68.2701 86.2583 67.7401 86.0098C69.4001 89.3453 71.0501 92.6807 72.7101 96.0161C72.9501 96.5035 72.7301 96.9527 72.3701 97.1916L72.4401 97.3254C73.1101 97.5357 73.4601 98.5105 72.6701 98.9501C71.9201 99.3515 71.1701 99.7625 70.4301 100.164C67.2801 101.875 64.1201 103.585 60.9701 105.287V105.602C61.5101 105.411 62.2601 105.678 62.3001 106.405C62.5001 109.864 62.0501 113.448 63.3201 116.765C64.3301 119.708 67.6901 120.845 70.4901 121.801C70.2701 115.522 70.0401 109.253 69.8201 102.974C69.7801 101.817 71.6601 101.827 71.7001 102.974C71.9201 109.272 72.1501 115.56 72.3701 121.859L73.0501 121.82C73.2101 121.505 73.5301 121.371 73.8701 121.342L75.8701 121.094C76.0101 115.035 75.8701 108.937 75.2901 102.907H75.2701Z" fill="#DCDCDC"/>
<path d="M61.5 69.3995C60.98 69.5142 60.3 69.237 60.22 68.5776C59.46 62.4897 58.8 56.3732 57.29 50.4095C57.11 49.6928 57.79 49.234 58.37 49.3009C58.35 49.1958 58.34 49.0811 58.32 48.976C57.96 48.7848 57.6 48.5841 57.27 48.3452C57.18 48.565 56.98 48.7466 56.65 48.804C50.65 49.8457 44.22 49.8361 38.24 48.5841C41.24 56.3349 43.47 64.3534 45.55 72.3622C45.67 72.8305 45.42 73.1937 45.07 73.3657C45.13 73.5091 45.19 73.6429 45.25 73.7671C48.78 71.9799 52.32 70.1927 55.85 68.4151C56.56 68.052 57.27 67.7844 58.1 68.0615C58.93 68.3387 59.27 68.9694 59.61 69.6575C60.36 71.1676 61.11 72.668 61.85 74.1781C61.91 72.5916 61.55 70.9573 61.5 69.4091V69.3995Z" fill="white"/>
<path d="M70.5699 127.22C70.1799 129.82 69.7999 132.429 69.4199 135.028C69.7199 135.21 69.8799 135.544 69.8599 135.898C69.8599 135.907 69.8599 135.927 69.8599 135.955C69.8699 135.993 69.8999 136.06 69.8999 136.099C69.9299 136.137 69.9499 136.175 69.9799 136.223C69.9699 136.194 70.0499 136.28 70.0999 136.337C70.1499 136.366 70.1799 136.385 70.2399 136.414H70.2599C70.3099 136.424 70.3699 136.443 70.4199 136.452C70.3999 136.452 70.6099 136.471 70.6699 136.452C70.7199 136.433 70.7799 136.424 70.8399 136.404C70.8799 136.395 70.9399 136.357 70.9699 136.337C71.0099 136.271 71.1499 136.099 71.0499 136.28C71.0799 136.232 71.1099 136.175 71.1399 136.127C71.6699 133.996 71.8699 131.76 72.1699 129.581C72.2299 129.093 72.5499 128.682 73.1099 128.682C73.5799 128.682 74.1099 129.093 74.0499 129.581C73.8499 131.263 73.6199 132.935 73.3499 134.608C73.1899 135.563 73.1399 136.691 72.4499 137.456C71.6199 138.383 70.0299 138.497 69.0199 137.771C68.5399 141.04 68.0699 144.318 67.5999 147.596C67.9299 147.529 68.2699 147.491 68.5199 147.72C68.5199 146.64 69.5299 146.048 70.1899 145.503C68.4499 144.862 68.5699 143.047 69.0399 141.623C69.2599 140.734 69.3199 139.816 69.5199 138.918C69.7799 137.79 71.5899 138.268 71.3299 139.396C71.1299 140.256 71.0799 141.145 70.8699 142.005C70.7799 142.397 70.1799 143.716 70.9499 143.859C71.5999 143.974 71.8999 142.894 72.0599 142.502C72.7599 140.418 73.4799 138.344 74.2999 136.309C74.6799 135.095 74.7899 133.843 74.8399 132.582C74.9399 129.323 73.2499 126.245 73.3699 122.977C72.9599 122.747 72.8099 122.203 73.0499 121.801L72.3699 121.839C72.3799 122.222 72.3999 122.604 72.4099 122.996C72.4299 123.588 71.7899 123.999 71.2199 123.856C71.0099 123.808 70.8099 123.741 70.5999 123.674L70.2199 126.236C70.5199 126.446 70.6299 126.819 70.5699 127.191V127.22Z" fill="white"/>
<path d="M47.73 214.276C51.52 214.906 55.49 215.661 59.3 214.773C60.49 201.211 61.03 187.592 62.28 174.04C64 158.223 66.46 142.483 68.75 126.733C68.85 126.14 69.75 125.882 70.21 126.255L70.59 123.693C66.92 122.575 62.61 120.979 61.45 117.109C61.28 117.3 61.01 117.424 60.72 117.462C58.72 117.711 56.63 118.083 54.63 118.408C52.55 118.752 50.46 119.125 48.36 119.364C48.07 119.393 47.81 119.24 47.64 119.029L45.52 119.431C45.53 122.661 42.95 124.181 40.43 125.729C35.54 128.711 30.27 131.54 24.48 132.448V133.977C25.03 133.747 25.84 134.005 25.85 134.76C25.98 141.231 26.39 147.691 26.6 154.161C26.92 164.206 26.14 174.241 26.29 184.295C26.44 194.139 26.88 203.973 27.14 213.817C27.38 213.568 27.75 213.415 28.09 213.54C29.64 214.113 31.24 214.639 32.9 214.773C34.98 214.945 37.01 214.581 38.98 213.951C39.39 213.817 39.71 213.951 39.91 214.199C40.03 214.027 40.14 213.845 40.23 213.673C39.81 213.626 39.42 213.339 39.42 212.813C39.2 188.003 42.9 163.441 45.95 138.87C46.08 137.733 47.95 137.723 47.83 138.87C47.47 142.1 47.07 145.331 46.66 148.561L47.87 147.72C47.87 147.385 47.87 147.041 47.87 146.707C47.87 145.55 49.74 145.55 49.75 146.707C49.75 168.64 48.16 190.545 48.16 212.479C48.16 213.043 47.71 213.329 47.25 213.339V214.295C47.41 214.256 47.57 214.237 47.75 214.266L47.73 214.276ZM49.41 137.475C48.52 138.249 47.19 136.987 48.08 136.204C49.26 135.181 50.43 134.168 51.61 133.145C51.98 129.953 53.25 126.905 53.41 123.703C53.48 122.556 55.36 122.547 55.29 123.703C55.19 126.264 54.37 128.711 53.85 131.205C55 130.202 56.16 129.208 57.31 128.204C58.2 127.43 59.53 128.692 58.64 129.475C55.56 132.142 52.48 134.808 49.41 137.465V137.475Z" fill="#2CB0E0"/>
<path d="M48.82 4.00989C45.41 1.76398 40.98 2.71013 38.17 5.42434C36.9 6.64765 35.55 8.00476 33.73 8.40616C34.14 8.70243 34.36 9.30453 33.92 9.79194C31.33 12.6591 30.68 17.1318 33.53 20.0467C33.87 20.3908 33.84 20.8017 33.64 21.1171C33.71 21.1553 33.78 21.2031 33.83 21.27C34.25 20.2952 35.68 20.5819 35.66 21.6427C35.83 21.4707 36.02 21.3178 36.23 21.184C35.35 20.4577 36 19.4542 37.06 19.5211C37.57 19.4446 38.06 19.3204 38.53 19.1292C39.01 18.9285 39.44 18.6609 39.86 18.3742C40.31 18.0302 40.73 17.6192 41.08 17.1987C41.45 16.7304 41.76 16.2239 42.01 15.6982C42.23 15.2395 42.88 15.163 43.29 15.3733C44.91 16.2812 41.49 19.5689 40.52 20.0849C41.95 20.0849 43.39 19.9416 44.58 19.0719C45.21 18.594 45.67 17.9059 45.99 17.1987C47.03 14.5131 47.33 10.9292 51.28 11.2159C51.81 11.2542 52.1 11.6173 52.17 12.0092C52.78 11.5982 53.88 12.0856 53.64 12.9745C53.43 13.739 53.22 14.6278 53.58 15.3828C53.98 16.2048 54.96 16.7017 55.68 17.2369C57.11 18.2882 58.38 19.8365 58.17 21.6141C58.48 21.1171 58.96 20.5723 59.62 20.8304C60.33 19.3204 60.85 17.5236 61.06 15.8511C61.15 14.8859 60.96 14.3029 60.59 13.3185C60.28 12.4966 59.83 11.4835 58.85 11.2828C58.29 11.1682 58.11 10.719 58.2 10.2985C57.9 8.01432 56.7 5.55814 54.38 4.59288C54.13 4.49731 53.88 4.43996 53.61 4.39218C53.36 4.35395 53.14 4.36351 52.9 4.39218C52.63 4.43041 52.37 4.50686 52.12 4.59288C51.43 4.84136 50.69 4.02901 51 3.41735C50.72 3.31222 50.44 3.23577 50.17 3.16887C50.19 3.81875 49.52 4.47819 48.81 4.00989H48.82Z" fill="#747474"/>
<path d="M54.14 227.789C52.07 226.451 49.26 226.518 47.24 225.123C47.22 225.668 47.22 226.212 47.25 226.757C47.25 226.805 47.27 226.853 47.28 226.891C47.3 226.891 47.32 226.891 47.34 226.901C48.65 227.407 50.03 227.636 51.42 227.866C51.58 227.885 51.74 227.894 51.9 227.904C52.39 227.761 52.98 228.038 53.09 228.516C53.7 228.554 54.29 228.563 54.84 228.449C54.62 228.21 54.4 227.98 54.14 227.789Z" fill="#DCDCDC"/>
<path d="M26.9601 106.863C26.9601 106.863 26.9601 106.883 26.9501 106.902C26.9501 106.902 26.9301 106.969 26.9101 107.007C26.6801 107.532 25.8301 107.695 25.4301 107.284L24.8801 107.389C24.9101 108.001 24.2201 108.66 23.4701 108.278C22.8501 107.962 22.2301 107.638 21.6001 107.322L21.5801 108.01C22.1301 107.848 22.8401 108.115 22.8401 108.832V130.766C24.6801 130.861 26.6301 130.25 28.3001 129.686C32.3301 128.329 36.2201 126.331 39.7301 124.018C43.9401 121.495 43.5101 121.132 43.7401 116.669C41.6101 117.606 39.8901 115.838 38.3901 114.652C35.2701 112.292 31.6901 110.552 28.5301 108.249C28.1401 107.972 28.0701 107.552 28.1801 107.188L27.0101 106.567C26.9901 106.663 26.9701 106.758 26.9601 106.863Z" fill="#DCDCDC"/>
<path d="M54.61 110.438C54.61 110.438 54.61 110.409 54.61 110.39C54.6 110.361 54.58 110.342 54.57 110.333C54.47 110.228 54.33 110.142 54.21 110.055C51.43 108.01 48.67 105.908 45.83 103.939C45.42 103.652 45.22 103.165 45.49 102.716C45.73 102.324 46.36 102.114 46.77 102.391C47.99 103.241 49.19 104.121 50.38 105C50.7 105 50.98 104.78 50.9 104.455C50.75 103.834 49.64 103.452 49.16 103.079C47.88 101.989 46.68 100.814 45.33 99.7912C44.68 99.2178 44.22 98.6826 43.31 98.5583C40.24 98.2525 37.12 99.8198 34.12 98.5774C33.57 98.3576 33.42 97.8224 33.54 97.3923L32.59 96.8667C32.39 97.3541 31.79 97.6599 31.23 97.2777L30.69 97.8893C31.12 98.1856 31.33 98.7781 30.82 99.2177C30.47 99.5331 30.16 99.8867 29.86 100.24C28.38 102.104 27.41 104.273 27.01 106.577L28.18 107.198C28.34 106.672 28.9 106.29 29.47 106.711C32.09 108.612 34.97 110.151 37.67 111.938C38.33 112.378 38.98 112.837 39.62 113.314C40.25 113.792 40.83 114.394 41.51 114.805C42.07 115.149 43.11 115.255 43.5 114.681C42.1 113.945 40.91 112.884 39.62 111.976C39.22 111.68 39.3 111.021 39.62 110.705C40.01 110.333 40.55 110.409 40.95 110.705C42.05 111.489 43.1 112.359 44.27 113.056C44.47 113.171 44.71 113.219 44.96 113.276C44.99 113.276 45.02 113.286 45.05 113.295C45.24 113.314 45.44 113.295 45.63 113.295C46.08 113.228 46.4 113.018 46.74 112.712C45.51 112.005 44.37 111.269 43.23 110.457C42.82 110.161 42.61 109.692 42.89 109.234C43.13 108.851 43.77 108.622 44.17 108.909C45.51 109.864 47.15 110.954 48.55 111.556C48.69 111.613 48.84 111.661 49 111.69C49.07 111.69 49.14 111.69 49.21 111.69C49.25 111.69 49.27 111.69 49.29 111.69C49.36 111.68 49.42 111.661 49.48 111.642C49.66 111.604 49.48 111.661 49.62 111.594C49.65 111.575 49.83 111.46 49.84 111.46C49.88 111.413 49.95 111.336 49.97 111.327C50.02 111.26 50.05 111.183 50.09 111.116C48.92 110.333 47.74 109.549 46.57 108.756C46.15 108.479 45.96 107.972 46.23 107.532C46.47 107.141 47.1 106.93 47.51 107.207C49.25 108.373 50.98 109.53 52.72 110.696C53 110.897 53.39 111.25 53.72 111.279C53.73 111.279 53.86 111.269 53.87 111.279C53.94 111.26 54.04 111.231 54.04 111.231C54.1 111.202 54.18 111.145 54.2 111.145C54.27 111.097 54.33 111.03 54.38 110.973C54.42 110.906 54.52 110.791 54.54 110.705C54.54 110.705 54.56 110.629 54.57 110.591C54.57 110.543 54.58 110.505 54.59 110.476C54.59 110.476 54.59 110.466 54.57 110.428L54.61 110.438Z" fill="white"/>
<path d="M44.46 91.4477C44.46 91.4477 44.47 91.4382 44.48 91.4287L44.46 91.4477Z" fill="#2CB0E0"/>
<path d="M49.99 216.875C51.25 217.496 52.02 218.672 52.85 219.714C53.51 220.545 54.51 221.663 55.77 221.396C55.79 221.396 55.81 221.396 55.83 221.396C56.15 219.36 57.97 217.898 59.9 217.248C59.59 217.162 59.3 216.942 59.2 216.617C55.84 217.334 52.41 216.846 49.04 216.311C49.13 216.474 49.23 216.646 49.33 216.808C49.53 216.76 49.76 216.77 49.99 216.885V216.875Z" fill="white"/>
<path d="M76.47 229.318C76.31 228.812 75.95 228.353 75.52 227.952C74.56 230.8 70.34 230.15 67.89 229.739C64.12 229.118 59.72 228.621 57.04 225.744C56.3 224.846 57.62 223.575 58.37 224.473C60.5 226.805 64.02 227.235 67.03 227.808C69.07 228.067 71.37 228.812 73.34 227.942C73.91 227.627 73.81 227.312 73.49 226.805C73.39 226.652 73.35 226.499 73.35 226.356C70.96 224.874 68.38 223.68 66.06 221.931C65.71 222.151 65.31 222.036 64.94 221.969C64.66 221.95 64.38 221.94 64.1 221.969C63.73 222.017 63.38 222.112 63.03 222.246C62.73 222.38 62.43 222.552 62.16 222.724C61.91 222.915 61.67 223.154 61.47 223.374C61.33 223.565 61.19 223.775 61.08 223.986C61.07 224.014 60.97 224.234 61.05 224.033C60.63 225.161 58.94 224.693 59.24 223.556C60.02 221.654 62 220.306 64.13 220.182C63.72 219.723 63.35 219.245 63.04 218.72C61.04 218.347 58.54 219.341 57.78 221.224C57.65 221.587 57.7 221.979 57.51 222.323C57.1 223.059 56 223.231 55.21 223.183C53.73 223.087 52.58 222.246 51.68 221.176C50.88 220.23 50.2 218.987 49.03 218.414C48.19 218.003 48.59 216.961 49.32 216.789C49.22 216.627 49.12 216.455 49.03 216.292C48.59 216.225 48.15 216.149 47.71 216.082C48 217.774 47.59 219.57 47.51 221.271C47.47 222.017 47.5 222.724 48.01 223.345C48.83 224.33 50.32 224.425 51.49 224.779C53.3 225.295 55.26 225.993 56.43 227.484C56.49 227.407 56.56 227.331 56.62 227.235C56.56 227.321 56.49 227.398 56.43 227.484C60.33 231.354 66.63 232.425 72.05 232.042C73.31 231.994 76.88 230.867 76.47 229.309V229.318Z" fill="#DCDCDC"/>
<path d="M32.2199 95.7484C28.6899 93.6172 25.1599 91.4955 21.6399 89.3642C20.9899 89.068 20.2199 88.2461 19.4999 88.3512C19.1199 88.4372 18.8299 88.7908 18.7799 89.1827C18.8399 88.4468 18.0099 88.0454 17.3799 88.3608C15.1099 89.3069 12.6899 89.9377 10.5299 91.1323C9.48987 91.7535 10.3899 93.2444 11.4799 92.6806C13.6399 91.4859 16.0599 90.8552 18.3299 89.909C18.6099 89.7943 18.7599 89.4981 18.7799 89.2018C18.7499 89.4981 18.8699 89.8134 19.2099 90.0141C23.2199 92.4321 27.2199 94.85 31.2299 97.2584C31.7899 97.6407 32.3899 97.3349 32.5899 96.8475C32.7499 96.4747 32.6899 96.016 32.2299 95.7388L32.2199 95.7484Z" fill="#323232"/>
<path d="M23.06 67.0867C23.72 68.052 25.34 67.1536 24.68 66.1788L18.47 57.1187C18.17 56.6791 17.87 56.249 17.57 55.8094C16.91 54.8441 15.29 55.7425 15.95 56.7173C18.32 60.177 20.69 63.6271 23.05 67.0867H23.06Z" fill="#323232"/>
<path d="M62.0901 68.5681C61.3101 62.3273 60.6401 56.0483 59.0901 49.9222C58.8101 48.8041 57.0001 49.2724 57.2801 50.4001C58.7901 56.3733 59.4501 62.4803 60.2101 68.5681C60.3501 69.6959 62.2301 69.715 62.0901 68.5681Z" fill="#323232"/>
<path d="M77.38 105.688C77.15 102.324 76.77 98.9692 76.11 95.6529C75.46 88.0168 75.55 80.3233 75.34 72.6681C75.14 67.9087 75.44 63.0632 74.65 58.3516C73.5 52.4644 64.8 49.9127 59.8 47.6954C57.67 46.8257 56.53 44.9334 55.42 43.0984C54.87 42.0089 53.1 42.8786 53.75 43.9299C54.42 44.9907 55.07 46.1376 55.91 47.1029C50.09 48.0872 43.81 48.0108 38.06 46.7206C37.82 46.6632 37.62 46.7015 37.45 46.7779C37.23 46.3574 37.09 45.8604 36.77 45.4973C37.7 44.1402 38.08 42.5155 38.34 40.929C42.85 45.1723 50.76 44.7709 54.66 39.9255C56.66 37.5553 57.65 34.65 58.03 31.6682C60.29 30.8462 61.82 28.7915 62.01 26.4978C62.16 25.0355 62.15 23.2388 61 22.1397C61.68 21.2605 61.95 20.1041 62.29 19.0815C63.02 16.8642 63.36 14.4558 62.2 12.315C61.75 11.2733 61.07 10.2411 59.98 9.77284C59.67 6.00734 55.97 1.46772 51.64 2.87261C50.45 3.27401 50.95 4.8796 52.14 4.60245C52.39 4.50687 52.65 4.43042 52.92 4.40175C53.17 4.38263 53.38 4.37308 53.63 4.40175C53.89 4.44953 54.15 4.50687 54.4 4.60245C56.72 5.56771 57.92 8.02389 58.22 10.308C58.13 10.7285 58.3 11.1777 58.87 11.2924C59.86 11.4931 60.3 12.5062 60.61 13.3281C60.98 14.3125 61.18 14.8954 61.08 15.8607C60.87 17.5332 60.35 19.3299 59.64 20.84C58.98 20.5819 58.5 21.1267 58.19 21.6236C58.4 19.846 57.13 18.3073 55.7 17.2465C54.98 16.7113 54 16.2143 53.6 15.3924C53.24 14.6374 53.45 13.7486 53.66 12.984C53.9 12.0952 52.8 11.6078 52.19 12.0188C52.13 11.6269 51.83 11.2637 51.3 11.2255C47.35 10.9292 47.06 14.5132 46.01 17.2083C45.69 17.9155 45.24 18.6036 44.6 19.0815C43.41 19.9511 41.97 20.0849 40.54 20.0945C41.5 19.588 44.93 16.3003 43.31 15.3829C42.89 15.1726 42.25 15.2491 42.03 15.7078C41.78 16.2334 41.46 16.74 41.1 17.2083C40.75 17.6192 40.32 18.0397 39.88 18.3838C39.46 18.6801 39.02 18.9381 38.55 19.1388C38.07 19.3299 37.58 19.4542 37.08 19.5306C36.02 19.4637 35.37 20.4672 36.25 21.1936C36.4 21.2987 36.58 21.3656 36.78 21.3465C37.74 21.2891 38.66 21.0502 39.5 20.6679C39.33 21.184 39.61 21.8721 40.36 21.8912C43.16 21.939 45.94 21.1649 47.36 18.6896C48.15 17.3421 48.41 15.7938 48.99 14.3698C49.11 14.1118 49.26 13.8537 49.43 13.6243C49.53 13.5288 49.63 13.4141 49.74 13.3281C49.84 13.2707 49.94 13.2134 50.05 13.156C50.2 13.0987 50.35 13.07 50.51 13.0414C50.89 12.9649 51.41 13.1083 51.77 12.9458C51.23 14.7712 51.73 16.7113 53.41 17.8199C54.32 18.508 55.88 19.4064 56.28 20.601C56.13 22.025 56.11 23.4777 56.01 24.9208C55.99 25.2936 56.32 25.7045 56.7 25.781C57.13 25.8765 57.51 25.7045 57.76 25.37C58.2 24.7775 58.63 24.1754 59.07 23.5828C59.22 23.5828 59.36 23.5446 59.5 23.4873C59.42 23.5255 59.67 23.4299 59.69 23.4299C59.7 23.4299 59.71 23.4299 59.72 23.4299C59.75 23.4682 59.8 23.5159 59.8 23.5064C59.85 23.5733 59.9 23.6689 59.94 23.7358C60.74 26.0295 59.94 29.0208 57.45 29.9765C56.94 29.9001 56.32 30.1772 56.26 30.8271C55.86 35.3094 53.69 40.2313 48.85 41.7127C45.04 42.8786 41 41.4164 38.52 38.511C38.46 38.2817 38.31 38.1096 38.12 38.0141C36.35 35.6535 35.57 32.7672 35.43 29.9001C35.39 29.0591 34.38 28.8297 33.86 29.2215C32.11 28.0747 31.14 26.0103 31.6 23.9747C31.67 23.6306 31.73 23.277 31.97 22.9903C32.11 22.8278 32.42 22.5507 32.65 22.6462C33.07 22.8183 33.55 22.78 33.84 22.4455C33.88 23.191 33.92 23.946 33.96 24.6915C33.99 25.1598 34.37 25.609 34.9 25.5898C35.39 25.5707 35.87 25.198 35.84 24.6915C35.79 23.6784 35.73 22.6654 35.68 21.6523C35.7 20.5915 34.27 20.3048 33.85 21.2796C33.8 21.2222 33.73 21.1745 33.66 21.1267C33.86 20.8113 33.89 20.4003 33.55 20.0563C30.69 17.1318 31.35 12.6686 33.94 9.80151C34.38 9.3141 34.16 8.712 33.75 8.41573C35.56 8.01433 36.92 6.64766 38.19 5.43391C41 2.7197 45.42 1.77354 48.84 4.01946C50 4.71713 50.82 2.84394 49.56 2.33741C45.87 0.0532662 41.15 0.789163 37.79 3.34091C35.7 4.92739 33.74 8.05256 30.75 6.1507C29.74 5.51037 28.8 7.05862 29.8 7.69895C30.68 8.25326 31.63 8.53997 32.6 8.54953C29.45 12.057 28.7 17.2943 31.9 20.9546C29.85 21.5567 29.46 24.0034 29.68 25.781C29.97 28.1703 31.52 30.0817 33.69 31.2476C34.03 34.0574 34.99 36.8481 36.68 39.1036C36.61 40.6423 36.31 42.2001 35.71 43.691C35.55 44.0446 35.35 44.3982 35.11 44.7136C34.99 44.8665 34.85 44.9907 34.7 45.115C34.43 45.2775 34.25 45.5451 34.21 45.8222C33.82 45.3826 33.18 45.5355 32.7 45.7744C28.1 47.6858 23.39 49.3392 18.7 51.0404C10.46 53.7355 11.54 59.0015 9.06997 65.6436C6.91997 72.1425 4.59997 78.6604 1.75997 84.9203C0.229972 87.8448 -0.620028 91.3045 0.639972 94.4583C1.83997 97.4592 5.24997 98.4627 7.85997 100.087C12.41 102.572 17.01 104.981 21.63 107.341C22.25 107.657 22.87 107.982 23.5 108.297C24.25 108.679 24.94 108.02 24.91 107.408C24.9 107.15 24.76 106.902 24.45 106.749C20.18 104.579 15.93 102.372 11.71 100.107C9.03997 98.5965 6.20997 97.2872 3.65997 95.6051C1.18997 93.4835 1.67997 89.4599 2.90997 86.8222C6.78997 78.4215 9.88997 69.6481 12.5 60.8173C13.14 57.5201 14.24 54.8346 17.65 53.4106C20.32 52.2159 23.19 51.4227 25.92 50.3714C28.41 49.4252 30.89 48.4409 33.36 47.4469C33.83 47.2653 34.42 47.1029 34.42 46.5103C34.66 46.7588 35.06 46.8926 35.4 46.7875C37.27 50.4287 38.43 54.4523 39.63 58.3229C41.12 63.1397 42.48 67.9947 43.75 72.8688C44.04 73.987 45.85 73.5187 45.56 72.3909C43.48 64.3821 41.26 56.3541 38.25 48.6129C44.23 49.8553 50.66 49.8744 56.66 48.8327C56.99 48.7754 57.19 48.5938 57.28 48.374C60.2 50.1994 63.72 50.9544 66.71 52.6938C68.52 53.6495 70.72 54.825 71.91 56.4975C73.47 58.8677 73.04 61.8781 73.3 64.5446C73.62 74.6655 73.51 84.8152 74.17 94.9266C74.52 97.593 75.09 100.24 75.28 102.926C75.86 108.966 76 115.054 75.86 121.113L73.86 121.362C73.52 121.39 73.2 121.524 73.04 121.839C72.8 122.241 72.95 122.776 73.36 123.015C73.24 126.283 74.93 129.361 74.83 132.62C74.78 133.881 74.66 135.133 74.29 136.347C73.47 138.383 72.75 140.457 72.05 142.54C71.9 142.932 71.59 144.021 70.94 143.897C70.17 143.754 70.77 142.435 70.86 142.043C71.07 141.183 71.12 140.294 71.32 139.434C71.58 138.306 69.77 137.828 69.51 138.956C69.3 139.855 69.25 140.772 69.03 141.661C68.57 143.075 68.45 144.901 70.18 145.541C70.25 145.484 70.32 145.417 70.39 145.359C70.33 145.417 70.26 145.474 70.18 145.541C73.53 146.525 74.04 142.1 74.87 139.988C75.28 138.755 75.92 137.589 76.24 136.328C76.82 134.063 76.86 131.721 76.38 129.447C75.94 127.392 75.1 125.127 75.25 122.986C76.02 122.833 77.35 123.005 77.39 121.954C77.59 121.811 77.72 121.591 77.73 121.285C77.87 116.096 77.75 110.887 77.38 105.707V105.688ZM51.62 12.6113C52.25 12.6113 52.87 12.6113 52.87 13.2134C52.87 12.6113 52.24 12.6113 51.62 12.6113ZM59.69 23.4204C59.69 23.4204 59.68 23.4204 59.67 23.4204C59.67 23.4204 59.68 23.4204 59.69 23.4204ZM59.7 23.4204C59.7 23.4204 59.71 23.4204 59.72 23.4204C59.72 23.4204 59.71 23.4204 59.7 23.4204ZM35.67 43.6814C35.65 43.7292 35.65 43.7388 35.67 43.6814V43.6814Z" fill="#323232"/>
<path d="M25.8099 107.495C26.2099 107.6 26.7499 107.399 26.9099 107.007L25.4299 107.284C25.5299 107.38 25.6499 107.457 25.8099 107.495Z" fill="#323232"/>
<path d="M30.6801 97.8796C30.3501 97.6503 29.8701 97.6025 29.4901 97.9465C28.7501 98.606 28.1301 99.4279 27.5801 100.231C26.3201 102.085 25.4901 104.206 25.1501 106.395C25.1001 106.73 25.1901 107.064 25.4301 107.284L26.9101 107.007C26.9101 107.007 26.9401 106.94 26.9501 106.902C27.3301 104.464 28.3001 102.19 29.8601 100.24C30.1601 99.8866 30.4701 99.533 30.8201 99.2176C31.3201 98.778 31.1201 98.1855 30.6901 97.8892L30.6801 97.8796Z" fill="#323232"/>
<path d="M72.4399 97.3158C72.3699 97.2967 72.2999 97.2681 72.2199 97.2681C72.2699 97.2394 72.3199 97.2107 72.3599 97.182C72.7199 96.9431 72.9399 96.4844 72.6999 96.0065C71.0399 92.6711 69.3899 89.3357 67.7299 86.0002C68.2599 86.2487 69.1199 86.0002 69.1999 85.2357C69.8899 78.8993 70.5799 72.563 71.2699 66.2266C71.3699 65.3378 71.4599 64.449 71.5599 63.5602C71.6799 62.4133 69.8099 62.4229 69.6799 63.5602C68.8899 70.7662 68.1099 77.9723 67.3199 85.1879C64.7499 80.0079 62.1699 74.828 59.5999 69.6385C59.2599 68.9504 58.9299 68.3196 58.0899 68.0425C57.2599 67.7653 56.5499 68.0424 55.8399 68.3961C54.2199 69.218 52.5899 70.0399 50.9699 70.8522C40.9199 76.0704 30.5799 80.8776 20.6299 86.2583C22.7899 81.279 24.9499 76.3093 27.1099 71.3301C27.5699 70.2693 25.7599 69.801 25.2999 70.8522C23.2799 75.497 21.2699 80.1322 19.2499 84.7769C18.9699 85.4268 18.6799 86.0863 18.3999 86.7361C18.0699 87.4911 18.8899 87.9403 19.5499 87.7683C19.6499 87.7396 19.7399 87.7014 19.8299 87.6536C20.1899 87.4529 20.2899 86.9751 20.4599 86.631C20.4299 86.889 20.5299 87.1471 20.7099 87.3573C20.9699 87.6536 21.4099 87.8161 21.8699 87.5772C33.1499 81.8811 44.4299 76.1851 55.7099 70.4891C56.3099 70.2693 57.3999 69.2084 57.7699 70.145C62.2899 78.928 66.3999 87.9021 70.9499 96.6755C71.0799 97.0291 71.3799 97.3923 71.7399 97.3732C65.6499 100.67 59.5399 103.948 53.4599 107.284C52.9599 106.911 52.4599 106.548 51.9599 106.175C52.7199 105.535 53.0399 104.474 52.4699 103.48C51.9399 102.563 50.9299 102.2 50.1399 101.54C49.2799 100.814 48.5299 99.9727 47.6199 99.2942C46.8399 98.7112 46.1599 98.004 45.3599 97.4305C44.4599 96.7902 43.2799 96.6755 42.1899 96.6946C39.6399 96.752 37.0799 97.8128 34.5999 96.8284C34.0399 96.6086 33.6399 96.9336 33.5199 97.3732C33.3999 97.8033 33.5499 98.348 34.0999 98.5583C37.0999 99.8007 40.2099 98.2333 43.2899 98.5392C44.1899 98.6634 44.6599 99.1986 45.3099 99.772C46.6599 100.795 47.8599 101.97 49.1399 103.06C49.6199 103.432 50.7299 103.815 50.8799 104.436C50.9599 104.761 50.6799 104.971 50.3599 104.981C49.1599 104.101 47.9699 103.222 46.7499 102.372C46.3399 102.085 45.6999 102.305 45.4699 102.696C45.1899 103.146 45.3999 103.643 45.8099 103.92C48.6599 105.889 51.4099 107.991 54.1899 110.036C54.3099 110.132 54.4499 110.208 54.5499 110.313C54.5599 110.323 54.5799 110.352 54.5899 110.371C54.5899 110.4 54.5999 110.457 54.6099 110.457C54.6099 110.495 54.5999 110.524 54.5899 110.572C54.5799 110.61 54.5599 110.686 54.5599 110.686C54.5399 110.772 54.4399 110.887 54.3999 110.954C54.3399 111.011 54.2799 111.078 54.2199 111.126C54.1999 111.126 54.1099 111.183 54.0599 111.212C54.0599 111.212 53.9599 111.241 53.8899 111.26C53.8799 111.26 53.7499 111.26 53.7399 111.26C53.4199 111.231 53.0299 110.877 52.7399 110.677C50.9999 109.511 49.2699 108.354 47.5299 107.188C47.1099 106.911 46.4899 107.112 46.2499 107.513C45.9799 107.962 46.1699 108.459 46.5899 108.737C47.7599 109.52 48.9399 110.304 50.1099 111.097C50.0699 111.164 50.0299 111.241 49.9899 111.307C49.9699 111.307 49.9099 111.393 49.8599 111.441C49.8599 111.441 49.6699 111.556 49.6399 111.575C49.4899 111.651 49.6799 111.585 49.4999 111.623C49.4399 111.642 49.3699 111.651 49.3099 111.671C49.2899 111.671 49.2699 111.671 49.2299 111.671C49.1599 111.671 49.0899 111.671 49.0199 111.671C48.8699 111.642 48.7199 111.594 48.5699 111.537C47.1799 110.925 45.5399 109.836 44.1899 108.889C43.7799 108.603 43.1399 108.823 42.9099 109.214C42.6299 109.673 42.8399 110.151 43.2499 110.438C44.3899 111.25 45.5299 111.986 46.7599 112.693C46.4199 112.999 46.0999 113.209 45.6499 113.276C45.4599 113.276 45.2599 113.286 45.0699 113.276C45.0399 113.276 45.0099 113.267 44.9799 113.257C44.7299 113.2 44.4899 113.152 44.2899 113.037C43.1199 112.34 42.0699 111.479 40.9699 110.686C40.5699 110.39 40.0299 110.313 39.6399 110.686C39.3199 110.992 39.2399 111.651 39.6399 111.957C40.9199 112.865 42.1199 113.917 43.5199 114.662C43.1299 115.235 42.0899 115.13 41.5299 114.786C40.8499 114.375 40.2799 113.764 39.6399 113.295C38.9999 112.817 38.3499 112.359 37.6899 111.919C34.9899 110.122 32.1099 108.593 29.4899 106.691C28.5299 105.994 27.5899 107.551 28.5399 108.24C31.7099 110.543 35.2799 112.282 38.3999 114.643C39.8999 115.828 41.6299 117.596 43.7499 116.659C43.5199 121.132 43.9499 121.486 39.7399 124.009C36.2199 126.312 32.3299 128.319 28.3099 129.676C26.6299 130.24 24.6799 130.852 22.8499 130.756V108.823C22.8499 108.115 22.1399 107.838 21.5899 108.001C21.2499 108.106 20.9699 108.373 20.9699 108.823V128.778C21.0399 132.276 20.2099 132.782 24.4899 132.448C30.2799 131.54 35.5499 128.701 40.4399 125.729C42.9599 124.19 45.5499 122.661 45.5299 119.431C45.5999 118.523 45.5699 117.615 45.6099 116.793C45.6399 116.248 45.2299 115.962 44.7899 115.933C45.0099 115.685 45.1899 115.398 45.3199 115.092C46.2599 115.14 48.3199 114.519 48.1699 113.343C49.3899 113.764 51.0299 113.314 51.6499 112.168C51.7299 112.225 51.8199 112.282 51.8999 112.34C54.7799 114.844 58.5199 110.476 55.0799 108.469C57.0399 107.408 58.9899 106.347 60.9499 105.286C64.0999 103.576 67.2599 101.865 70.4099 100.164C71.1599 99.7625 71.9099 99.3515 72.6499 98.9501C73.4499 98.52 73.0899 97.5357 72.4199 97.3254L72.4399 97.3158ZM45.0499 113.295C44.9799 113.295 44.9899 113.295 45.0499 113.295V113.295ZM49.0399 111.718C49.0899 111.718 49.0999 111.728 49.0399 111.718V111.718Z" fill="#323232"/>
<path d="M44.56 91.3618C44.56 91.3618 44.51 91.4098 44.49 91.429C44.54 91.3906 44.56 91.3618 44.56 91.3522V91.3618Z" fill="#323232"/>
<path d="M45.86 94.6399C47.11 94.4296 47.9899 93.3401 48.0999 92.1646C48.3399 89.6224 44.84 88.2175 43.13 90.1958C41.37 92.1837 43.1899 95.1368 45.8699 94.6399H45.86ZM44.3 91.8492C44.3 91.8492 44.3 91.8683 44.3 91.8779C44.32 91.8014 44.33 91.7727 44.32 91.7727C44.32 91.7823 44.32 91.8014 44.31 91.811C44.31 91.7919 44.32 91.7727 44.32 91.7727C44.34 91.7154 44.3499 91.6676 44.3699 91.6103C44.3999 91.5529 44.44 91.486 44.48 91.4287C44.48 91.4287 44.4699 91.4382 44.4599 91.4478L44.48 91.4287C44.49 91.4 44.55 91.3236 44.55 91.3618C44.59 91.314 44.62 91.2758 44.68 91.2375C44.75 91.1993 44.83 91.1611 44.9 91.1229C44.98 91.0942 45.04 91.0846 45.14 91.0655C45.25 91.0655 45.3 91.0655 45.39 91.0655C45.48 91.0846 45.56 91.1037 45.64 91.1324C45.71 91.1706 45.7799 91.2089 45.8499 91.2471C45.9099 91.3044 45.96 91.3522 46.02 91.4096C46.07 91.4765 46.11 91.5434 46.15 91.6103C46.17 91.6867 46.1999 91.7536 46.2099 91.8301C46.2099 91.811 46.2099 91.8014 46.2099 91.7727C46.2099 91.7919 46.2099 91.8205 46.2099 91.8396C46.2199 91.8588 46.2299 91.9257 46.2099 91.9161C46.2099 91.9352 46.2099 91.9543 46.2099 91.9734C46.2099 92.0117 46.2099 92.0403 46.2099 92.0786C46.1799 92.1646 46.18 92.2602 46.14 92.3366C46.1 92.4035 46.0499 92.48 46.0099 92.5469C45.9599 92.5947 45.9199 92.6424 45.8699 92.6902C45.8899 92.6902 45.8899 92.6711 45.9199 92.6615C45.8899 92.6807 45.86 92.6998 45.84 92.7093C45.85 92.7093 45.8599 92.6902 45.8699 92.6807C45.7899 92.7285 45.79 92.7285 45.83 92.7093C45.77 92.7571 45.7 92.7858 45.64 92.824C45.57 92.8431 45.4999 92.8622 45.4199 92.8814C45.4399 92.8814 45.45 92.8814 45.47 92.8814C45.44 92.8814 45.41 92.8814 45.38 92.8814C45.39 92.8814 45.4099 92.8814 45.4199 92.8814C45.3199 92.8814 45.3 92.8814 45.33 92.8909C45.26 92.8909 45.18 92.8909 45.11 92.8909C45.04 92.8814 44.97 92.8622 44.9 92.8336C44.91 92.8336 44.92 92.8336 44.93 92.8527C44.92 92.8527 44.91 92.8431 44.89 92.8336C44.87 92.8336 44.76 92.7858 44.82 92.7953C44.76 92.7667 44.71 92.7476 44.66 92.7093C44.62 92.6711 44.58 92.6233 44.54 92.5851C44.58 92.6616 44.5 92.566 44.48 92.5373L44.4599 92.5182C44.4599 92.5182 44.47 92.5278 44.48 92.5373C44.44 92.4895 44.41 92.4322 44.38 92.3844C44.38 92.4035 44.38 92.4035 44.39 92.4226C44.39 92.3939 44.37 92.3653 44.36 92.3366C44.36 92.3462 44.36 92.3653 44.38 92.3748C44.36 92.2793 44.3499 92.2793 44.3499 92.3079C44.3199 92.241 44.3 92.1741 44.29 92.1072C44.29 92.0308 44.29 91.9543 44.29 91.8779C44.29 91.8779 44.2899 91.897 44.2799 91.9161C44.2799 91.897 44.28 91.8683 44.29 91.8492H44.3Z" fill="#323232"/>
<path d="M44.49 92.5374C44.49 92.5374 44.53 92.5667 44.55 92.5861C44.54 92.5667 44.52 92.5569 44.49 92.5277V92.5374Z" fill="#323232"/>
<path d="M44.9001 92.8428C44.8601 92.8143 44.8301 92.8048 44.8201 92.8048C44.8501 92.8143 44.8701 92.8333 44.8901 92.8428H44.9001Z" fill="#323232"/>
<path d="M72.36 121.858C72.14 115.56 71.91 109.272 71.69 102.974C71.65 101.827 69.77 101.817 69.81 102.974C70.03 109.253 70.26 115.522 70.48 121.801C67.68 120.845 64.32 119.708 63.31 116.764C62.04 113.439 62.49 109.864 62.29 106.405C62.26 105.678 61.5 105.411 60.96 105.602C60.64 105.716 60.4 105.984 60.42 106.405C60.51 108.412 60.45 110.438 60.59 112.445C56.51 112.942 52.44 113.811 48.38 114.337C47.84 114.385 47.36 114.796 47.46 115.36C47.53 115.771 47.92 116.191 48.38 116.134C52.52 115.637 56.65 114.757 60.77 114.222C60.84 114.729 60.93 115.226 61.05 115.723C57.67 115.895 54.29 116.774 50.92 117.223C50.1 117.347 49.16 117.5 48.37 117.596C47.62 117.634 47.13 118.456 47.65 119.049C47.82 119.268 48.08 119.421 48.37 119.383C50.47 119.144 52.56 118.771 54.64 118.427C56.64 118.102 58.73 117.73 60.73 117.481C61.02 117.453 61.28 117.328 61.46 117.137C62.62 121.008 66.93 122.604 70.6 123.722C70.81 123.779 71.01 123.846 71.22 123.904C71.79 124.047 72.43 123.626 72.41 123.043C72.4 122.661 72.38 122.279 72.37 121.887L72.36 121.858Z" fill="#323232"/>
<path d="M51.2901 24.9494C52.5001 24.9494 52.5001 23.1527 51.2901 23.1527C50.0801 23.1527 50.0801 24.9494 51.2901 24.9494Z" fill="#323232"/>
<path d="M41.3599 23.1624C40.1499 23.1624 40.1499 24.9591 41.3599 24.9591C42.5699 24.9591 42.5699 23.1624 41.3599 23.1624Z" fill="#323232"/>
<path d="M43.58 34C42.39 33.7133 41.9 35.3285 43.08 35.7299C45.23 36.676 47.68 36.6951 49.82 35.7299C50.29 35.5483 50.62 35.1373 50.48 34.6308C50.36 34.2103 49.8 33.8185 49.33 34C48.62 34.2772 47.9 34.5257 47.14 34.6404C46.71 34.6977 46.29 34.6882 45.86 34.6404C45.08 34.5257 44.32 34.2772 43.59 34H43.58Z" fill="#323232"/>
<path d="M46.2599 29.3361C46.7799 29.8905 47.9299 29.4699 47.8599 28.7054C47.6799 27.3292 47.5099 25.9625 47.3299 24.5863C47.3199 24.1084 46.9099 23.6783 46.3899 23.6879C45.9299 23.707 45.3899 24.0893 45.4499 24.5863C45.6299 25.9625 45.7999 27.3292 45.9799 28.7054C46.0099 28.9539 46.0599 29.1546 46.2499 29.3361H46.2599Z" fill="#323232"/>
<path d="M47.86 146.716C47.86 147.051 47.86 147.395 47.86 147.729C47.82 169.329 46.28 190.899 46.28 212.488C46.28 213.071 46.77 213.368 47.25 213.349C47.71 213.339 48.16 213.052 48.16 212.488C48.16 190.555 49.75 168.65 49.75 146.716C49.75 145.56 47.87 145.56 47.87 146.716H47.86Z" fill="#323232"/>
<path d="M57.3201 128.204C56.1701 129.208 55.0101 130.202 53.8601 131.205C54.3801 128.711 55.2001 126.264 55.3001 123.703C55.3701 122.547 53.4901 122.556 53.4201 123.703C53.2501 126.905 51.9901 129.963 51.6201 133.145C50.4401 134.168 49.2701 135.181 48.0901 136.204C47.1901 136.978 48.5201 138.249 49.4201 137.475C52.5001 134.808 55.5801 132.142 58.6501 129.485C59.5501 128.711 58.2201 127.44 57.3201 128.214V128.204Z" fill="#323232"/>
<path d="M45.94 138.88C42.89 163.451 39.19 188.013 39.41 212.823C39.41 213.349 39.79 213.635 40.22 213.683C40.73 213.74 41.28 213.454 41.29 212.823C41.23 191.291 43.72 169.883 46.65 148.571C47.06 145.34 47.46 142.11 47.82 138.88C47.95 137.733 46.07 137.742 45.94 138.88Z" fill="#323232"/>
<path d="M39.1101 215.891C39.1101 215.327 39.5201 214.773 39.9001 214.209C39.7001 213.97 39.3801 213.836 38.9701 213.96C37.0001 214.591 34.9801 214.954 32.8901 214.782C31.2301 214.639 29.6301 214.113 28.0801 213.549C27.7401 213.425 27.3701 213.578 27.1301 213.826C26.8801 203.983 26.4301 194.148 26.2801 184.304C26.1301 174.25 26.9101 164.225 26.5901 154.171C26.3801 147.701 25.9701 141.24 25.8401 134.77C25.8301 134.015 25.0201 133.757 24.4701 133.986C24.1801 134.111 23.9601 134.369 23.9601 134.77C24.1801 146.21 25.1501 157.602 24.5901 169.051C24.1401 178.35 24.4101 187.669 24.7201 196.968C24.9201 203.17 25.1401 209.373 25.2901 215.575C25.3001 216.139 25.7601 216.426 26.2301 216.435C25.9301 218.242 25.3301 220.029 24.7401 221.759C24.0801 223.67 22.7801 225.209 21.7801 226.958C20.2101 229.701 20.3201 233.046 23.1101 235.014C26.7401 237.432 32.2601 236.983 35.6001 234.298C38.8001 231.239 39.4801 226.566 39.5701 222.428C39.6001 220.373 39.7401 218.337 39.6501 216.283C39.6401 216.044 39.5501 215.862 39.4101 215.719C40.1701 215.508 40.2601 214.677 39.8801 214.228C39.5101 214.792 39.0901 215.346 39.0901 215.91L39.1101 215.891ZM37.3001 226.9C36.6301 229.901 35.3701 233.065 32.1301 234.183C29.0101 235.282 23.9201 235.053 22.7201 231.497C22.3301 230.054 22.8801 228.697 23.6401 227.455C24.6801 225.754 25.7901 224.215 26.4901 222.37C26.7101 222.437 26.9601 222.418 27.2101 222.256C28.1301 221.692 28.7101 220.879 29.2001 219.972C29.2001 219.972 29.2001 219.962 29.2101 219.952C29.2101 219.952 29.2101 219.952 29.2201 219.952C29.2301 219.943 29.2601 219.933 29.2701 219.933C29.2901 219.924 29.3101 219.914 29.3301 219.905C29.4601 219.866 29.5401 219.847 29.6601 219.819C31.1201 219.714 32.6101 219.895 34.0601 220.134C34.6101 220.249 34.9501 220.335 35.3501 220.593C35.4201 220.641 35.5001 220.736 35.5601 220.793C35.6401 220.908 35.7101 221.032 35.7801 221.157C36.1901 222.198 36.4801 223.288 37.0301 224.272C37.1701 224.53 37.3801 224.674 37.6001 224.712C37.5401 225.448 37.4501 226.184 37.2901 226.91L37.3001 226.9ZM29.2101 219.972C29.1001 220.144 29.1501 220.038 29.2101 219.972V219.972ZM37.7401 221.042C37.1801 218.853 34.8601 218.261 32.7801 218.146C31.0401 218.031 28.6201 217.477 27.5201 219.159C27.8501 217.955 28.1201 216.732 28.2401 215.489C31.2701 216.617 34.6201 216.971 37.7901 216.139C37.8301 217.773 37.8201 219.398 37.7401 221.032V221.042Z" fill="#323232"/>
<path d="M33.6 229.548C30.73 231.727 27.19 229.997 24.17 229.089C23.01 228.755 22.52 230.484 23.67 230.819C27.14 231.985 31.26 233.533 34.54 231.096C35.58 230.408 34.66 228.984 33.59 229.548H33.6Z" fill="#323232"/>
<path d="M29.28 219.924C29.28 219.924 29.25 219.942 29.23 219.942C29.23 219.942 29.23 219.942 29.22 219.942C29.25 219.933 29.34 219.895 29.28 219.914V219.924Z" fill="#323232"/>
<path d="M76.11 226.059C72.35 222.992 66.77 221.654 64.35 217.248C64.09 216.722 63.54 216.693 63.13 216.932C62.36 216.827 61.57 216.846 60.81 216.99C61.29 215.843 61.16 214.476 61.32 213.253C62.88 191.319 64.01 169.338 67.59 147.596C67.09 147.701 66.63 147.844 66.63 147.127C66.63 147.854 67.09 147.701 67.59 147.596C68.06 144.318 68.53 141.049 69.01 137.771C70.02 138.497 71.61 138.373 72.44 137.456C73.13 136.691 73.19 135.563 73.34 134.608C73.61 132.935 73.83 131.263 74.04 129.581C74.1 129.103 73.57 128.682 73.1 128.682C72 128.711 72.16 129.953 72.02 130.689C71.76 132.495 71.58 134.35 71.13 136.118C71.1 136.165 71.07 136.223 71.04 136.271C71.15 136.089 71.01 136.271 70.96 136.328C70.92 136.357 70.86 136.385 70.83 136.395C70.77 136.414 70.72 136.423 70.66 136.443C70.6 136.452 70.39 136.433 70.41 136.443C70.3601 136.433 70.3 136.414 70.25 136.404C70.25 136.404 70.24 136.404 70.23 136.404C70.17 136.376 70.14 136.357 70.09 136.328C70.05 136.271 69.96 136.185 69.97 136.213C69.95 136.175 69.92 136.127 69.89 136.089C69.89 136.051 69.86 135.984 69.85 135.946C69.85 135.955 69.85 135.965 69.85 135.984C69.85 135.974 69.85 135.955 69.85 135.946C69.84 135.907 69.85 135.85 69.85 135.888C69.87 135.544 69.72 135.2 69.41 135.019C69.67 133.27 69.92 131.511 70.18 129.762C70.31 128.912 70.43 128.061 70.56 127.21C70.62 126.838 70.5 126.475 70.21 126.255C69.76 125.882 68.86 126.14 68.75 126.733C66.45 142.483 64 158.223 62.28 174.04C61.03 187.602 60.5 201.211 59.3 214.773C55.49 215.661 51.52 214.906 47.73 214.276C47.56 214.247 47.39 214.276 47.23 214.304C46.75 214.39 46.42 214.897 46.58 215.365C46.16 215.403 45.79 215.68 45.86 216.206C46.08 217.955 45.55 220.048 45.67 221.893C45.42 223.527 45.23 225.209 45.38 226.853C45.44 227.302 45.52 227.808 45.88 228.133C46.19 228.41 46.59 228.554 46.98 228.688C48.47 229.175 50.03 229.481 51.59 229.662C52.01 229.701 52.56 229.72 52.85 229.376C53.07 229.118 53.16 228.793 53.08 228.497C52.6 228.468 52.1 228.43 51.61 228.43C52.11 228.43 52.6 228.468 53.08 228.497C52.97 228.019 52.38 227.742 51.89 227.885C51.73 227.885 51.57 227.866 51.41 227.847C50.02 227.627 48.64 227.388 47.33 226.881C47.43 226.939 47.34 226.92 47.27 226.881C47.27 226.881 47.27 226.881 47.28 226.881C47.27 226.834 47.26 226.786 47.25 226.748C47.22 226.203 47.22 225.658 47.24 225.113C49.44 226.7 52.98 226.346 54.84 228.439C55.43 228.315 55.97 228.038 56.43 227.483C55.26 225.993 53.3 225.295 51.49 224.779C50.32 224.425 48.83 224.33 48.01 223.345C47.5 222.724 47.47 222.017 47.51 221.271C47.58 219.57 47.99 217.773 47.71 216.082C51.49 216.684 55.39 217.41 59.19 216.607C59.3 216.923 59.58 217.152 59.89 217.238C57.96 217.888 56.14 219.35 55.82 221.386C55.8 221.386 55.78 221.386 55.76 221.386C54.51 221.663 53.51 220.535 52.84 219.704C52.01 218.662 51.24 217.487 49.98 216.866C48.91 216.34 47.96 217.888 49.03 218.414C50.2 218.987 50.88 220.23 51.68 221.176C52.58 222.246 53.72 223.087 55.21 223.183C56 223.231 57.1 223.059 57.51 222.323C57.7 221.979 57.65 221.587 57.78 221.224C58.54 219.331 61.04 218.347 63.04 218.72C63.35 219.245 63.72 219.723 64.13 220.182C62 220.306 60.02 221.654 59.24 223.556C58.94 224.693 60.63 225.161 61.05 224.033C61.02 224.11 61.01 224.129 61.02 224.119C61.13 223.871 61.3 223.603 61.47 223.374C61.67 223.154 61.91 222.915 62.16 222.724C62.43 222.552 62.72 222.37 63.03 222.246C63.37 222.112 63.73 222.026 64.1 221.969C64.38 221.94 64.66 221.95 64.94 221.969C65.31 222.045 65.72 222.151 66.06 221.931C68.38 223.68 70.97 224.874 73.35 226.356C73.35 226.499 73.39 226.652 73.49 226.805C73.81 227.302 73.91 227.627 73.34 227.942C71.37 228.802 69.07 228.066 67.03 227.808C64.02 227.225 60.5 226.805 58.37 224.473C57.62 223.565 56.3 224.846 57.04 225.744C59.72 228.63 64.12 229.118 67.89 229.739C70.34 230.15 74.57 230.79 75.52 227.952C75.94 228.353 76.31 228.812 76.47 229.318C76.89 230.867 73.29 232.004 72.05 232.052C66.63 232.444 60.33 231.364 56.43 227.493C55.96 228.047 55.42 228.324 54.84 228.449C58.69 232.816 65.79 234.154 71.51 233.887C76.5 233.657 81.33 230.226 76.11 226.069V226.059ZM51.96 227.904C52.06 227.904 52.16 227.866 51.96 227.904V227.904ZM47.08 226.786C47.08 226.786 47.15 226.814 47.18 226.843C47.14 226.814 47.09 226.786 47.08 226.786Z" fill="#323232"/>
<path d="M47.34 226.911C47.34 226.911 47.3 226.901 47.28 226.901C47.3 226.901 47.31 226.901 47.34 226.901V226.911Z" fill="#323232"/>
</svg>
