<svg width="227" height="121" viewBox="0 0 227 121" fill="none" xmlns="http://www.w3.org/2000/svg">
<g clip-path="url(#clip0_294_1274)">
<path d="M23.63 25.2998C23.57 25.2998 23.55 25.3298 23.61 25.3298C23.65 25.3298 23.68 25.3098 23.71 25.2998C23.68 25.2998 23.66 25.2998 23.63 25.2998Z" fill="#6EC878"/>
<path d="M55.5198 47.77C55.6298 47.71 55.7398 47.63 55.8398 47.56C55.8698 47.53 55.8798 47.53 55.8998 47.52C55.9398 47.49 55.9798 47.46 56.0098 47.43C56.1098 47.35 56.1998 47.26 56.2998 47.17C56.4898 46.99 56.6698 46.79 56.8498 46.59C56.9298 46.5 56.9998 46.41 57.0698 46.32C57.0898 46.29 57.1898 46.16 57.1998 46.14C57.3398 45.94 57.4798 45.73 57.5998 45.52C57.6298 45.47 57.6498 45.42 57.6698 45.38C57.6698 45.37 57.6798 45.35 57.6898 45.32C57.7098 45.26 57.7298 45.2 57.7398 45.13C57.7398 45.1 57.7398 45.08 57.7398 45.06C57.7398 45.04 57.7398 45.02 57.7198 45.01C57.7098 44.98 57.6898 44.96 57.6798 44.93C57.6298 44.85 57.5798 44.77 57.5298 44.7C57.5198 44.68 57.5198 44.68 57.5098 44.67C57.4898 44.65 57.4698 44.63 57.4598 44.6C57.3798 44.51 57.1998 44.24 57.0798 44.22C57.1998 44.3 57.2098 44.32 57.1198 44.25C57.0998 44.23 57.0698 44.22 57.0498 44.21C56.9998 44.21 56.9498 44.21 56.8998 44.21C56.8798 44.22 56.6498 44.27 56.6198 44.27C56.4698 44.31 56.3298 44.36 56.1798 44.41C55.9798 45.08 55.6198 45.71 55.1698 46.27C54.9398 46.56 54.7298 46.83 54.5298 47.12C54.5798 47.3 54.5898 47.48 54.5298 47.65C54.5298 47.67 54.5198 47.69 54.5098 47.71C54.5198 47.73 54.5298 47.75 54.5398 47.77C54.5698 47.8 54.5998 47.83 54.6298 47.86C54.6698 47.88 54.7098 47.91 54.7498 47.93C54.7798 47.93 54.8098 47.95 54.8398 47.95C54.8498 47.95 54.8598 47.95 54.8698 47.95C54.9198 47.95 54.9698 47.95 55.0198 47.95C55.0298 47.95 55.0398 47.95 55.0598 47.95C55.0798 47.95 55.2198 47.9 55.2798 47.89C55.3198 47.87 55.4798 47.79 55.5098 47.78L55.5198 47.77Z" fill="white"/>
<path d="M23.7099 25.2898C23.7299 25.2898 23.73 25.2898 23.75 25.2798C23.74 25.2798 23.72 25.2798 23.7 25.2898H23.7099Z" fill="#6EC878"/>
<path d="M53.7099 44.8096C53.8799 44.5796 54.0499 44.3096 54.1599 44.0396C54.1599 44.0396 54.2199 43.8396 54.2299 43.8096C54.2299 43.8296 54.2899 43.5496 54.2899 43.5796C54.3299 43.3096 54.3099 43.1496 54.2599 42.9296C54.2299 42.8096 54.0999 42.5795 54.0499 42.5295C54.0199 42.4995 53.9899 42.4696 53.9599 42.4496C53.9499 42.4496 53.9199 42.4295 53.8699 42.3895C53.8499 42.3695 53.8299 42.3595 53.8199 42.3495C53.8199 42.3495 53.7899 42.3495 53.7199 42.3195C53.6799 42.3095 53.6699 42.2996 53.6499 42.2896C53.6499 42.2896 53.6499 42.2896 53.5699 42.2896C53.5299 42.2896 53.4999 42.2896 53.4799 42.2896C53.4299 42.2996 53.3699 42.3196 53.3199 42.3396C53.2699 42.3496 53.2299 42.3595 53.1799 42.3695C52.9099 42.8195 52.5899 43.2496 52.2899 43.6796C51.7799 44.3896 51.2799 45.0895 50.7699 45.7995C50.4199 46.2895 50.0599 46.7996 49.5999 47.1996C49.6999 47.3496 49.7499 47.5296 49.7299 47.7396C49.7599 47.7696 49.7899 47.7996 49.8199 47.8296C49.7999 47.7996 49.9999 47.9595 50.0299 47.9795C50.0899 48.0195 50.1499 48.0496 50.2099 48.0796C50.2099 48.0796 50.3299 48.1295 50.3599 48.1395C50.3799 48.1395 50.4099 48.1495 50.4399 48.1595C50.5499 48.1295 50.5699 48.1595 50.6899 48.1195C51.6599 47.7995 52.1599 46.9296 52.6799 46.1296C52.9899 45.6596 53.3899 45.2395 53.6999 44.8195L53.7099 44.8096Z" fill="white"/>
<path d="M55.4298 49.9695C55.0298 50.0495 54.6198 50.0495 54.2098 49.9195C53.7398 49.7695 53.3098 49.4695 52.9898 49.0795C52.1898 49.7395 51.2598 50.2595 50.2698 50.1695C50.6498 50.7595 51.0298 51.3495 51.4098 51.9295C51.7198 52.4195 51.4898 53.0495 51.0398 53.3495C50.5598 53.6595 49.9198 53.4295 49.6198 52.9795C48.5498 51.3295 47.4898 49.6795 46.4198 48.0395C46.2898 47.8395 46.2598 47.6195 46.2898 47.3995C45.8698 47.1395 45.4998 46.7795 45.2698 46.3295C44.9998 45.7895 44.8598 45.1595 44.8598 44.5195C43.9598 44.7795 43.0598 45.0495 42.2698 45.5595C42.2898 45.5995 42.3098 45.6395 42.3198 45.6795C42.6498 46.9795 42.5898 48.3795 42.6698 49.7095C42.6898 50.0695 42.7098 50.4295 42.7498 50.7895C42.7498 50.8695 42.7698 50.9495 42.7798 51.0295C42.7798 51.0495 42.7798 51.0595 42.7798 51.0695C42.7798 51.0795 42.7798 51.0995 42.7798 51.1195C42.8098 51.2695 42.8298 51.4195 42.8598 51.5595C42.9198 51.8295 42.9898 52.0895 43.0898 52.3495C43.0998 52.3495 43.1998 52.5695 43.2298 52.6195C43.2598 52.6695 43.2998 52.7195 43.3298 52.7695C43.2998 52.7195 43.2898 52.6995 43.2798 52.6795C43.2798 52.6695 43.2698 52.6595 43.2698 52.6595C43.2698 52.6595 43.2698 52.6595 43.2798 52.6795C43.2898 52.6995 43.3198 52.7395 43.3398 52.7595C43.7198 53.1695 43.7498 53.8195 43.3398 54.2195C43.2698 54.2895 43.1798 54.3495 43.0898 54.3895L43.6098 55.3795C47.8498 56.1295 52.2498 56.5195 55.3298 59.6895C55.6798 60.0495 55.9898 60.4395 56.2898 60.8395C56.2798 60.7195 56.2898 60.5795 56.3298 60.4395C57.3598 56.9695 57.0498 53.1895 55.4198 49.9495L55.4298 49.9695Z" fill="white"/>
<path d="M57.2998 62.3596L57.3698 61.7296C57.1698 61.7296 56.9798 61.6896 56.7998 61.5996C56.9698 61.8496 57.1298 62.1096 57.2898 62.3596H57.2998Z" fill="#6EC878"/>
<path d="M12.3699 118.13H59.2899C59.1599 113.76 59.2199 109.37 59.3099 105C53.8899 98.9598 48.6699 92.7298 43.3899 86.5598C42.5299 85.5498 43.9899 84.0798 44.8499 85.0998C47.5999 88.3198 50.3299 91.5598 53.0899 94.7798C55.7099 97.8298 58.3499 100.85 61.0399 103.84C61.1099 103.9 61.1699 103.97 61.2299 104.05C61.8499 104.74 62.4599 105.44 63.0899 106.13C65.8299 109.12 68.8299 113.09 73.2199 113.37C77.0699 113.62 80.4699 111.1 82.1999 107.79C84.0999 104.16 83.6599 99.8398 80.9199 96.7598C80.4599 96.2498 80.6399 95.6098 81.0299 95.2498L80.3799 94.5298C80.0499 95.0998 79.0399 95.3498 78.4999 94.6398C77.1399 92.8698 75.7999 91.0898 74.4499 89.3098C69.2299 82.4098 64.0099 75.4998 58.9899 68.4498C58.0099 67.0798 57.0399 65.6998 56.0999 64.2998C55.0599 62.7498 54.1799 61.1298 52.5799 60.0798C50.3599 58.6198 47.6399 58.2298 45.0699 57.8098C42.1899 57.3298 39.3499 56.7898 36.7099 55.4798C35.9599 55.1098 36.0899 54.2698 36.5999 53.8398C36.4899 53.7898 36.3799 53.7198 36.2799 53.6098C35.1899 52.4898 33.6399 51.7898 32.2199 51.1798C30.2199 50.3298 28.1199 49.6798 26.0099 49.1398C23.8599 48.5898 21.6799 48.1398 19.4699 47.8998C17.9299 47.7398 16.2699 47.5898 14.7599 47.8998C14.6899 48.1198 14.6199 48.3398 14.5499 48.5598C13.9499 50.4598 13.3599 52.3598 12.7599 54.2598C12.5899 54.8098 12.0499 55.1098 11.4899 54.9798C11.2699 54.9298 11.0899 54.7898 10.9599 54.6198L10.1799 56.1098C11.3099 55.8998 12.4599 55.7898 13.6099 55.7298C19.7699 55.4098 25.9899 55.8398 32.1599 55.8398C33.4899 55.8398 33.4899 57.9098 32.1599 57.9098C28.6699 57.9098 25.1799 57.8298 21.6999 57.7698C18.5599 57.7198 15.3699 57.5898 12.2299 57.8898C11.1299 57.9998 10.0099 58.1898 8.91988 58.5198C8.67988 58.5898 8.42988 58.6698 8.18988 58.7498C7.13988 59.1398 6.13988 59.6598 5.29988 60.4098C3.22988 62.2398 2.36988 64.9498 2.15988 67.6398C1.91988 70.5698 2.25988 73.5598 2.56988 76.4798C2.90988 79.6498 3.38988 82.7998 3.96988 85.9298C5.03988 91.7498 6.44988 97.4898 8.21988 103.14C9.77988 108.14 11.6999 113.5 11.4199 118.82C11.4099 119.07 11.3199 119.27 11.1899 119.43H11.4399C11.2899 118.85 11.6099 118.12 12.3999 118.12L12.3699 118.13ZM49.5699 63.5898C50.6099 62.7798 52.0799 64.2298 51.0299 65.0498C46.3799 68.6998 43.7799 74.4698 44.1699 80.3698C44.2599 81.6998 42.1899 81.6898 42.0999 80.3698C41.6799 73.9898 44.5399 67.5298 49.5699 63.5898Z" fill="#2CB0E0"/>
<path d="M10.94 54.6199C10.88 54.5399 10.82 54.4499 10.79 54.3599L9.69995 56.1999C9.84995 56.1699 10.01 56.1399 10.17 56.1199L10.95 54.6299L10.94 54.6199Z" fill="#6EC878"/>
<path d="M31.7598 17.9596C31.3998 17.3296 31.6798 16.3396 32.5998 16.3996C34.7498 16.5196 36.8498 15.2796 37.7298 13.2996C38.5898 11.3696 38.1298 8.92962 36.6798 7.40962C36.1298 6.82962 36.4298 6.07962 36.9598 5.76962C36.3798 5.23962 35.8198 4.72962 35.2098 4.30962C35.0398 4.94962 34.1298 5.45962 33.4098 4.89962C31.2798 3.22962 28.6498 2.26962 25.9498 2.07962C21.5298 1.76962 17.1198 3.21962 13.4298 5.60962C10.5098 7.49962 6.7598 10.8796 9.0698 14.5896C9.4198 15.1496 9.0898 15.9496 8.4498 16.1096C6.3998 16.6296 4.7398 17.8896 3.9698 19.8996C2.5798 23.5296 3.8098 27.9596 5.8498 31.0996C8.4998 35.1796 13.4798 36.6596 17.5398 38.9296C18.5098 36.2496 20.3998 33.8996 22.9998 32.7096C21.3798 30.6896 20.0298 27.5996 21.1098 25.0396C21.5798 23.9296 22.6098 23.2096 23.8298 23.2096C24.6498 23.2096 25.4198 23.4796 26.1498 23.8696C25.7698 22.8396 25.3898 21.8196 25.0098 20.7896C23.9398 20.7196 23.5798 19.0296 24.7698 18.7696C26.6298 18.3596 28.0198 16.9196 28.9698 15.3296C30.1698 13.3196 30.7398 10.9896 30.7298 8.65962C30.7298 7.32962 32.7998 7.32962 32.7998 8.65962C32.7998 11.3896 32.1098 14.1696 30.6698 16.5096C30.1298 17.3896 29.4598 18.2296 28.6898 18.9396C29.7098 18.9996 30.7198 18.4496 31.7398 17.9496L31.7598 17.9596Z" fill="#5A5A5A"/>
<path d="M47.9198 34.4297C47.8298 34.1897 47.7398 33.9397 47.6398 33.6997C47.6198 33.6997 47.6098 33.7097 47.5898 33.7197C47.0698 33.8397 46.5398 33.9597 46.0098 33.9697C45.4798 33.9897 44.9398 33.8897 44.4298 33.7697C43.8698 33.6397 43.5898 33.0297 43.7098 32.4997C43.7698 32.2497 43.9698 32.0097 44.1898 31.8797C44.4298 31.7397 44.7198 31.7097 44.9898 31.7797C45.1698 31.8197 45.3398 31.8497 45.5198 31.8797C45.7798 31.9097 46.0498 31.9097 46.3098 31.8797C46.5198 31.8397 46.7398 31.7997 46.9498 31.7497C46.7598 31.1297 46.6098 30.5097 46.5398 29.8597C46.4598 29.1197 46.5198 28.3597 46.7698 27.6597C47.0798 26.8297 47.6998 26.2297 48.1298 25.4797C48.6598 24.5497 48.4998 23.9297 47.5198 23.5097C46.9098 23.2397 46.2598 23.0997 45.6498 22.8297C44.3798 22.2497 43.3698 21.2297 42.6298 20.0697C41.6998 18.6197 41.1298 16.8897 40.9098 15.1897C40.8398 14.6397 41.4398 14.1497 41.9398 14.1597C42.0698 14.1597 42.1898 14.1897 42.2998 14.2297C41.7298 11.9897 40.9898 9.60973 39.4798 7.96973C40.3898 9.91973 40.4598 12.2197 39.5698 14.2297C38.3998 16.8897 35.4798 18.6497 32.5898 18.4997C32.1898 18.4797 31.9098 18.2697 31.7498 17.9897C30.7298 18.4997 29.7198 19.0397 28.6998 18.9797C28.1798 19.4597 27.5998 19.8797 26.9798 20.1997C27.0198 20.3197 27.0698 20.4297 27.1098 20.5497C27.7498 22.2797 28.3998 24.0197 29.0398 25.7497C29.2398 26.2897 28.8098 26.8597 28.3198 27.0197C28.1098 27.0897 27.8998 27.0697 27.7098 26.9997C27.3598 27.1097 26.9698 26.9997 26.6598 26.7497C26.1498 26.3197 25.4898 25.8597 24.7698 25.5297C24.7398 25.5297 24.4698 25.4197 24.3998 25.3997C24.2798 25.3597 24.1498 25.3397 24.0198 25.3097C24.0198 25.3097 24.0198 25.3097 23.9998 25.3097C23.9398 25.3097 23.8898 25.3097 23.8298 25.3097C23.7898 25.3097 23.7398 25.3097 23.6998 25.3097C23.6498 25.3297 23.6198 25.3397 23.5898 25.3397C23.5298 25.3497 23.4798 25.3697 23.4298 25.3697C23.4198 25.3697 23.4098 25.3797 23.3998 25.3897C23.3698 25.4097 23.3398 25.4297 23.3098 25.4397C23.2598 25.4897 23.2098 25.5397 23.1598 25.5897C23.1398 25.6197 23.1198 25.6397 23.1098 25.6697C23.0598 25.7597 23.0198 25.8497 22.9698 25.9297C22.9898 25.8997 22.9898 25.8997 22.9998 25.8797C22.9898 25.9097 22.9698 25.9397 22.9598 25.9797C22.9298 26.0797 22.8998 26.1897 22.8698 26.2997C22.8498 26.3997 22.8198 26.7697 22.8398 26.4197C22.8398 26.5397 22.8198 26.6597 22.8098 26.7797C22.8098 27.0197 22.8098 27.2497 22.8298 27.4897C22.8298 27.5097 22.8398 27.5897 22.8498 27.6397C22.8498 27.6597 22.8498 27.6797 22.8498 27.6897C22.8798 27.8297 22.8998 27.9697 22.9298 28.1097C22.9898 28.3797 23.0698 28.6397 23.1498 28.8997C23.1998 29.0497 23.2598 29.1897 23.3098 29.3397C23.3098 29.3497 23.3098 29.3597 23.3098 29.3597C23.3098 29.3597 23.3098 29.3697 23.3198 29.3797C23.3498 29.4497 23.3898 29.5297 23.4198 29.5997C23.5498 29.8697 23.6898 30.1397 23.8498 30.3997C24.0198 30.6897 24.2098 30.9597 24.4098 31.2297C24.4398 31.2697 24.4798 31.3097 24.4798 31.3197C24.5398 31.3897 24.5898 31.4597 24.6498 31.5197C24.7498 31.6297 24.8498 31.7497 24.9498 31.8497C25.1998 32.1197 25.4698 32.3697 25.7598 32.6097C25.8198 32.6597 25.8698 32.6997 25.9298 32.7497C25.9598 32.7697 26.0698 32.8497 26.0798 32.8597C26.2098 32.9497 26.3398 33.0497 26.4798 33.1297C26.8098 33.3497 27.1598 33.5397 27.5198 33.7197C27.8898 33.8997 28.0698 33.9697 28.5298 34.1197C29.0598 34.2997 29.4098 34.8297 29.2498 35.3897C29.1098 35.9097 28.5098 36.2897 27.9798 36.1097C26.7398 35.6997 25.5798 35.0897 24.5598 34.2797C24.5398 34.2797 24.5298 34.2997 24.5098 34.2997C24.3198 34.3597 24.1398 34.4197 23.9598 34.4997C23.9398 34.4997 23.9298 34.5097 23.9198 34.5197C23.9098 34.5197 23.8898 34.5397 23.8598 34.5497C23.7698 34.5897 23.6898 34.6297 23.5998 34.6797C23.2898 34.8397 22.9798 35.0197 22.6898 35.2197C22.6098 35.2697 22.5298 35.3297 22.4598 35.3897C22.4398 35.4097 22.4198 35.4097 22.4098 35.4197C22.3998 35.4297 22.3898 35.4397 22.3598 35.4597C22.2098 35.5797 22.0698 35.7097 21.9198 35.8397C21.6598 36.0797 21.4098 36.3297 21.1798 36.5997C21.1198 36.6697 21.0498 36.7497 20.9898 36.8197C20.9898 36.8197 20.9098 36.9197 20.8898 36.9497C20.7898 37.0797 20.6998 37.2097 20.6098 37.3497C20.3998 37.6597 20.2098 37.9797 20.0298 38.3097C19.9398 38.4797 19.8498 38.6597 19.7698 38.8297C19.7398 38.8997 19.6998 38.9797 19.6698 39.0497C19.6598 39.0697 19.6598 39.0797 19.6598 39.0797C19.6498 39.1097 19.6398 39.1297 19.6298 39.1597C19.4898 39.5097 19.3698 39.8597 19.2698 40.2197C19.2098 40.4397 19.0798 40.6097 18.9198 40.7397C18.8198 42.1697 18.7198 43.5897 18.6198 45.0197C18.5998 45.3097 18.4898 45.5597 18.3098 45.7397C18.4498 45.7497 18.5998 45.7597 18.7398 45.7697C22.4098 46.0897 26.0598 46.8997 29.5598 48.0397C32.3298 48.9397 35.5998 50.0197 37.6798 52.1597C38.1698 52.6597 37.9898 53.3097 37.5798 53.6597C37.6198 53.6697 37.6598 53.6797 37.6998 53.6997C37.9998 53.8497 38.2998 53.9797 38.6098 54.0997L38.7898 51.4197C38.1998 51.5497 37.4998 51.2297 37.5098 50.4497C37.5498 48.4697 38.2898 46.5897 39.6098 45.0997C41.0698 43.4597 42.9598 42.9697 44.9698 42.3297C46.7798 41.7597 47.8998 40.5797 48.3298 38.7297C48.6898 37.2097 48.3998 35.8597 47.8698 34.4197L47.9198 34.4297ZM39.8698 21.3597C38.5398 21.3597 38.5398 19.2897 39.8698 19.2897C41.1998 19.2897 41.1998 21.3597 39.8698 21.3597Z" fill="white"/>
<path d="M47.1299 43.78C47.1299 43.78 47.0999 43.81 47.0899 43.82C47.0699 43.85 47.0499 43.88 47.0399 43.91C47.0699 43.87 46.9699 44.14 46.9499 44.18C46.9499 44.23 46.9399 44.26 46.9299 44.27C46.9299 44.32 46.9299 44.38 46.9199 44.43C46.9199 44.56 46.9199 44.7 46.9299 44.83C46.9299 44.85 46.9799 45.08 46.9899 45.11C47.0099 45.17 47.0299 45.23 47.0499 45.29C47.0499 45.3 47.0499 45.3 47.0699 45.32C47.1999 45.53 47.1999 45.56 47.3999 45.67C47.5499 45.76 47.7299 45.8 47.8399 45.79C47.9399 45.79 48.0999 45.75 48.2299 45.65C48.7399 45.26 49.0599 44.64 49.4499 44.1C49.9299 43.44 50.3999 42.77 50.8799 42.11C51.0899 41.81 51.3199 41.51 51.5099 41.2C51.5699 41.1 51.6599 40.95 51.6899 40.86C51.7199 40.78 51.7499 40.7 51.7699 40.61C51.7999 40.47 51.8099 40.44 51.7899 40.51C51.8299 40.13 51.6399 39.75 51.2999 39.57C51.1999 39.52 51.1799 39.51 51.0299 39.48C51.0099 39.48 50.9799 39.48 50.9299 39.48C50.8699 39.48 50.7999 39.48 50.7399 39.48C50.7399 39.49 50.5199 39.54 50.5199 39.53C50.4299 39.57 50.3399 39.62 50.2599 39.68C49.7699 41.32 48.7499 42.78 47.2499 43.62C47.2099 43.67 47.1799 43.72 47.1299 43.77V43.78Z" fill="white"/>
<path d="M51.04 65.0497C52.09 64.2297 50.61 62.7697 49.58 63.5897C44.55 67.5397 41.69 73.9997 42.11 80.3697C42.2 81.6897 44.27 81.6997 44.18 80.3697C43.79 74.4697 46.39 68.6997 51.04 65.0497Z" fill="#323232"/>
<path d="M84.0299 97.68L81.6299 94.98C80.8899 95.03 80.2499 96.03 80.9099 96.77C83.6499 99.85 84.0899 104.17 82.1899 107.8C80.4599 111.11 77.0599 113.63 73.2099 113.38C68.8199 113.09 65.8299 109.13 63.0799 106.14C62.4499 105.45 61.8399 104.75 61.2199 104.06C61.1699 103.98 61.1099 103.91 61.0299 103.85C58.3399 100.86 55.6999 97.84 53.0799 94.79C50.3199 91.58 47.5899 88.33 44.8399 85.11C43.9699 84.1 42.5099 85.57 43.3799 86.57C48.6599 92.74 53.8799 98.96 59.2999 105.01C59.2099 109.38 59.1499 113.77 59.2799 118.14H12.3699C11.5799 118.14 11.2599 118.87 11.4099 119.47C11.5099 119.87 11.8299 120.21 12.3699 120.21H60.0799C60.5199 120.21 60.8199 119.98 60.9699 119.67C61.2199 119.51 61.3899 119.24 61.3799 118.84C61.2399 114.99 61.2699 111.12 61.3399 107.26C61.5099 107.44 61.6699 107.63 61.8399 107.82C64.9699 111.22 68.1999 115.07 73.1399 115.44C77.4699 115.76 81.4899 113.08 83.6499 109.46C85.8699 105.75 85.9899 101.34 84.0399 97.68H84.0299Z" fill="#323232"/>
<path d="M10.3599 119.41L11.1599 119.44C11.2899 119.28 11.3699 119.08 11.3899 118.83C11.6699 113.51 9.74988 108.15 8.18988 103.15C6.42988 97.4999 5.01988 91.7599 3.93988 85.9399C3.35988 82.8099 2.87988 79.6599 2.53988 76.4899C2.22988 73.5799 1.89988 70.5799 2.12988 67.6499C2.34988 64.9599 3.20988 62.2499 5.26988 60.4199C6.10988 59.6699 7.09988 59.1499 8.15988 58.7599L9.68988 56.1899C8.34988 56.4699 7.04988 56.8899 5.83988 57.5399C3.38988 58.8499 1.67988 61.0799 0.809884 63.6999C-0.100116 66.4299 -0.0801156 69.3499 0.0998844 72.1899C0.309884 75.4499 0.689884 78.6999 1.17988 81.9299C2.13988 88.2599 3.45988 94.5999 5.27988 100.75C6.17988 103.77 7.17988 106.75 7.99988 109.8C8.77988 112.74 9.47988 115.78 9.31988 118.84C9.25988 119.92 10.6099 120.12 11.1599 119.45L10.3599 119.42V119.41Z" fill="#323232"/>
<path d="M32.1299 55.85C25.9599 55.85 19.7499 55.42 13.5799 55.74C12.2799 55.81 10.9699 55.94 9.68991 56.21L8.15991 58.78C9.45991 58.3 10.8499 58.05 12.1999 57.92C15.3299 57.62 18.5199 57.75 21.6699 57.8C25.1599 57.85 28.6499 57.94 32.1299 57.94C33.4599 57.94 33.4599 55.87 32.1299 55.87V55.85Z" fill="#323232"/>
<path d="M23.6099 25.3195C23.6099 25.3195 23.6699 25.3096 23.7199 25.2896C23.6899 25.2996 23.6599 25.3095 23.6199 25.3195H23.6099Z" fill="#323232"/>
<path d="M23.0198 25.8698C23.0498 25.7998 23.0698 25.7898 23.0198 25.8698V25.8698Z" fill="#323232"/>
<path d="M39.8698 21.3596C41.1998 21.3596 41.1998 19.2896 39.8698 19.2896C38.5398 19.2896 38.5398 21.3596 39.8698 21.3596Z" fill="#323232"/>
<path d="M39.49 7.92955C39.15 7.20955 38.71 6.52955 38.15 5.93955C37.78 5.54955 37.32 5.55955 36.97 5.76955C37.7 6.43955 38.44 7.13955 39.31 7.70955C39.38 7.77955 39.43 7.85955 39.5 7.92955H39.49Z" fill="#323232"/>
<path d="M39.4898 7.92953C39.4298 7.85953 39.3698 7.77953 39.2998 7.70953C38.4298 7.12953 37.6898 6.42953 36.9598 5.76953C36.4298 6.07953 36.1298 6.82953 36.6798 7.40953C38.1298 8.92953 38.5898 11.3595 37.7298 13.2995C36.8498 15.2795 34.7498 16.5095 32.5998 16.3995C31.6698 16.3495 31.3998 17.3395 31.7598 17.9595C31.9198 18.2395 32.1998 18.4395 32.5998 18.4695C35.4998 18.6295 38.4098 16.8595 39.5798 14.1995C40.4698 12.1895 40.3898 9.88953 39.4898 7.93953V7.92953Z" fill="#323232"/>
<path d="M80.28 93.5998C76.64 88.8398 73.03 84.0498 69.45 79.2498C66.72 75.5898 64 71.9198 61.34 68.2098C60.31 66.7698 59.28 65.3198 58.28 63.8498C57.95 63.3598 57.63 62.8598 57.31 62.3498C57.15 62.0898 56.98 61.8398 56.82 61.5898C56.99 61.6798 57.19 61.7198 57.39 61.7198C57.79 61.7198 58.19 61.4998 58.34 60.9998C59.52 57.0398 59.12 52.7398 57.29 49.0398C57.39 48.9598 57.5 48.8698 57.59 48.7898C58.44 48.0298 59.23 47.0598 59.64 45.9898C59.89 45.3498 59.87 44.6698 59.57 44.0598C59.38 43.6598 59.1 43.2998 58.8 42.9898C58.41 42.5798 57.92 42.2198 57.35 42.1398C56.96 42.0898 56.58 42.1398 56.2 42.2398C55.86 41.1898 54.92 40.3698 53.85 40.2398C53.84 39.9498 53.77 39.6498 53.65 39.3398C53.15 38.0898 51.88 37.3398 50.61 37.4198C50.62 36.7098 50.55 35.9998 50.38 35.3298C50 33.7998 49.27 32.3898 48.84 30.8798C48.66 30.2398 48.5 29.5698 48.58 28.8998C48.68 28.0298 49.31 27.4598 49.76 26.7498C50.74 25.2198 50.9 23.3098 49.31 22.1298C48.13 21.2598 46.56 21.2098 45.45 20.2198C44.48 19.3498 43.85 18.1398 43.45 16.9198C43.3 16.4698 43.18 16.0198 43.08 15.5598C43.04 15.3998 42.91 14.5598 42.99 15.1498C42.93 14.7098 42.7 14.3298 42.32 14.1798C42.48 14.7998 42.62 15.4098 42.77 15.9798C42.63 15.3998 42.48 14.7898 42.32 14.1798C42.21 14.1398 42.09 14.1098 41.96 14.1098C41.46 14.1098 40.85 14.5898 40.93 15.1398C41.15 16.8498 41.72 18.5698 42.65 20.0198C43.39 21.1898 44.4 22.2098 45.67 22.7798C46.28 23.0498 46.93 23.1998 47.54 23.4598C48.52 23.8898 48.68 24.4998 48.15 25.4298C47.72 26.1898 47.1 26.7898 46.79 27.6098C46.53 28.3098 46.48 29.0698 46.56 29.8098C46.63 30.4598 46.78 31.0898 46.97 31.6998C46.76 31.7498 46.55 31.7898 46.33 31.8298C46.07 31.8598 45.8 31.8598 45.54 31.8298C45.36 31.7998 45.18 31.7698 45.01 31.7298C44.74 31.6698 44.45 31.6898 44.21 31.8298C44 31.9598 43.79 32.1998 43.73 32.4498C43.61 32.9798 43.89 33.5898 44.45 33.7198C44.96 33.8398 45.5 33.9398 46.03 33.9198C46.56 33.8998 47.09 33.7898 47.61 33.6698C47.63 33.6698 47.64 33.6598 47.66 33.6498C47.75 33.8898 47.85 34.1398 47.94 34.3798C48.47 35.8098 48.75 37.1698 48.4 38.6898C47.97 40.5498 46.84 41.7198 45.04 42.2898C43.03 42.9198 41.14 43.4198 39.68 45.0598C38.36 46.5398 37.62 48.4198 37.58 50.4098C37.57 51.1898 38.27 51.5098 38.86 51.3798C39.28 51.2898 39.64 50.9698 39.65 50.4098C39.67 49.3498 39.97 48.3098 40.51 47.4098C40.52 47.5598 40.54 47.7098 40.54 47.8698C40.58 48.6098 40.59 49.3398 40.64 50.0798C40.74 51.4898 40.89 53.1098 41.9 54.1998C42.21 54.5298 42.72 54.5698 43.11 54.3698C43.2 54.3198 43.29 54.2698 43.36 54.1998C43.77 53.7898 43.74 53.1498 43.36 52.7398C43.34 52.7098 43.31 52.6798 43.3 52.6598C43.3 52.6798 43.32 52.6998 43.35 52.7498C43.32 52.6998 43.28 52.6498 43.25 52.5998C43.22 52.5498 43.12 52.3398 43.11 52.3298C43.01 52.0698 42.94 51.8098 42.88 51.5398C42.85 51.3898 42.83 51.2398 42.8 51.0998C42.8 51.0798 42.8 51.0598 42.8 51.0498C42.8 51.0398 42.8 51.0298 42.8 51.0098C42.8 50.9298 42.78 50.8498 42.77 50.7698C42.73 50.4098 42.71 50.0498 42.69 49.6898C42.62 48.3598 42.67 46.9598 42.34 45.6598C42.33 45.6198 42.31 45.5798 42.29 45.5398C43.08 45.0398 43.97 44.7598 44.88 44.4998C44.88 45.1298 45.02 45.7698 45.29 46.3098C45.52 46.7698 45.89 47.1198 46.31 47.3798C46.28 47.5998 46.31 47.8198 46.44 48.0198C47.51 49.6698 48.57 51.3198 49.64 52.9598C49.93 53.4098 50.57 53.6398 51.06 53.3298C51.51 53.0398 51.75 52.3998 51.43 51.9098C51.05 51.3198 50.67 50.7298 50.29 50.1498C51.28 50.2298 52.21 49.7198 53.01 49.0598C53.33 49.4398 53.76 49.7498 54.23 49.8998C54.64 50.0298 55.05 50.0298 55.45 49.9498C57.07 53.1898 57.39 56.9598 56.36 60.4398C56.32 60.5798 56.31 60.7198 56.32 60.8398C56.02 60.4398 55.71 60.0398 55.36 59.6898C52.28 56.5198 47.88 56.1298 43.64 55.3798C41.93 55.0798 40.24 54.7098 38.67 54.0798C38.36 53.9598 38.06 53.8298 37.76 53.6798C37.72 53.6598 37.68 53.6498 37.64 53.6398C38.05 53.2798 38.23 52.6398 37.74 52.1398C35.66 49.9998 32.38 48.9198 29.62 48.0198C26.12 46.8898 22.47 46.0698 18.8 45.7498C18.66 45.7398 18.51 45.7298 18.37 45.7198C18.55 45.5398 18.66 45.2898 18.68 44.9998C18.78 43.5698 18.88 42.1498 18.98 40.7198C19.14 40.5898 19.27 40.4198 19.33 40.1998C19.44 39.8398 19.55 39.4898 19.69 39.1398C19.7 39.1098 19.71 39.0898 19.72 39.0598C19.72 39.0598 19.72 39.0598 19.73 39.0298C19.76 38.9598 19.8 38.8798 19.83 38.8098C19.91 38.6298 20 38.4598 20.09 38.2898C20.27 37.9598 20.46 37.6398 20.67 37.3298C20.76 37.1998 20.86 37.0598 20.95 36.9298C20.97 36.8998 21.05 36.7998 21.05 36.7998C21.11 36.7298 21.17 36.6498 21.24 36.5798C21.47 36.3098 21.72 36.0598 21.98 35.8198C22.12 35.6898 22.27 35.5698 22.42 35.4398C22.44 35.4198 22.45 35.4098 22.47 35.3998C22.48 35.3998 22.5 35.3798 22.52 35.3698C22.6 35.3098 22.68 35.2598 22.75 35.1998C23.04 34.9998 23.34 34.8198 23.66 34.6598C23.75 34.6198 23.83 34.5798 23.92 34.5298C23.95 34.5198 23.97 34.5098 23.98 34.4998C23.99 34.4998 24 34.4998 24.02 34.4798C24.2 34.4098 24.38 34.3398 24.57 34.2798C24.59 34.2798 24.6 34.2598 24.62 34.2598C25.64 35.0598 26.8 35.6798 28.04 36.0898C28.57 36.2698 29.17 35.8898 29.31 35.3698C29.46 34.8098 29.12 34.2698 28.59 34.0998C28.12 33.9498 27.95 33.8798 27.58 33.6998C27.22 33.5298 26.87 33.3298 26.54 33.1098C26.4 33.0198 26.27 32.9298 26.14 32.8398C26.14 32.8398 26.02 32.7498 25.99 32.7298C25.93 32.6898 25.88 32.6398 25.82 32.5898C25.54 32.3498 25.27 32.0998 25.01 31.8298C24.91 31.7198 24.81 31.6098 24.71 31.4998C24.65 31.4298 24.6 31.3598 24.54 31.2998C24.54 31.2998 24.5 31.2398 24.47 31.2098C24.27 30.9398 24.08 30.6698 23.91 30.3798C23.75 30.1198 23.61 29.8498 23.48 29.5798C23.45 29.5098 23.41 29.4298 23.38 29.3598C23.38 29.3498 23.38 29.3498 23.37 29.3398C23.37 29.3398 23.37 29.3298 23.37 29.3198C23.32 29.1698 23.26 29.0298 23.21 28.8798C23.12 28.6198 23.05 28.3598 22.99 28.0898C22.96 27.9498 22.93 27.8098 22.91 27.6698C22.91 27.6698 22.91 27.6398 22.91 27.6198C22.91 27.5698 22.89 27.4798 22.89 27.4698C22.87 27.2298 22.86 26.9998 22.87 26.7598C22.87 26.6398 22.89 26.5198 22.9 26.3998C22.88 26.7498 22.9 26.3798 22.93 26.2798C22.95 26.1698 22.98 26.0698 23.02 25.9598C23.03 25.9198 23.05 25.8898 23.06 25.8598C23.06 25.8798 23.05 25.8898 23.03 25.9098C23.08 25.8198 23.12 25.7298 23.17 25.6498C23.19 25.6198 23.2 25.5998 23.22 25.5698C23.27 25.5298 23.32 25.4798 23.37 25.4198C23.4 25.3998 23.43 25.3798 23.46 25.3698C23.47 25.3698 23.48 25.3598 23.49 25.3498C23.54 25.3498 23.59 25.3298 23.65 25.3198C23.59 25.3198 23.61 25.2898 23.67 25.2898C23.69 25.2898 23.72 25.2898 23.75 25.2898C23.76 25.2898 23.78 25.2898 23.8 25.2798C23.78 25.2798 23.77 25.2798 23.76 25.2898C23.8 25.2898 23.85 25.2898 23.89 25.2898C23.95 25.2898 24 25.2898 24.06 25.2898C24.06 25.2898 24.07 25.2898 24.08 25.2898C24.2 25.3198 24.33 25.3398 24.46 25.3798C24.53 25.3998 24.8 25.5098 24.83 25.5098C25.55 25.8398 26.21 26.2998 26.72 26.7298C27.02 26.9798 27.41 27.0798 27.77 26.9798C27.96 27.0498 28.16 27.0698 28.38 26.9998C28.88 26.8398 29.3 26.2698 29.1 25.7298C28.46 23.9998 27.81 22.2598 27.17 20.5298C27.13 20.4098 27.08 20.2998 27.04 20.1798C27.66 19.8498 28.23 19.4298 28.76 18.9598C28.15 18.9298 27.54 18.6798 26.94 18.0698C27.55 18.6798 28.16 18.9198 28.76 18.9598C29.54 18.2498 30.2 17.4098 30.74 16.5298C32.18 14.1898 32.87 11.4098 32.87 8.67977C32.87 7.34977 30.8 7.34977 30.8 8.67977C30.8 11.0098 30.24 13.3398 29.04 15.3498C28.09 16.9398 26.69 18.3898 24.84 18.7898C23.65 19.0498 24.01 20.7398 25.08 20.8098C25.46 21.8398 25.84 22.8598 26.22 23.8898C25.5 23.4998 24.72 23.2298 23.9 23.2298C22.68 23.2298 21.65 23.9498 21.18 25.0598C20.1 27.6098 21.45 30.7098 23.07 32.7298C20.47 33.9198 18.58 36.2698 17.61 38.9498C13.56 36.6798 8.56997 35.1898 5.91997 31.1198C3.87997 27.9798 2.65997 23.5498 4.03997 19.9198C4.80997 17.9098 6.46997 16.6498 8.51997 16.1298C9.15997 15.9698 9.48997 15.1698 9.13997 14.6098C6.82997 10.8998 10.58 7.51977 13.5 5.62977C17.19 3.23977 21.6 1.78977 26.02 2.09977C28.72 2.28977 31.35 3.24977 33.48 4.91977C34.19 5.47977 35.11 4.96977 35.28 4.32977C35.36 4.03977 35.28 3.71977 34.95 3.45977C30.37 -0.100228 24.57 -0.750228 19.13 0.769772C14.79 1.98977 9.93997 4.56977 7.43997 8.46977C6.22997 10.3598 5.95997 12.5098 6.74997 14.5098C5.01997 15.1898 3.53997 16.3598 2.60997 18.0198C1.55997 19.8798 1.24997 22.1098 1.40997 24.2198C1.76997 28.7798 3.91997 33.0198 7.54997 35.7998C10.3 37.9098 13.63 39.0898 16.62 40.7898C16.71 40.8398 16.8 40.8698 16.88 40.8898C16.8 42.0598 16.72 43.2198 16.64 44.3898C16.63 44.5998 16.61 44.8098 16.6 45.0298C16.58 45.2698 16.68 45.4998 16.84 45.6898C15.91 45.6898 14.98 45.7398 14.08 45.9498C13.69 46.0398 13.48 46.2698 13.39 46.5598C13.12 46.6798 12.9 46.9098 12.8 47.2198C12.2 49.1198 11.61 51.0198 11.01 52.9198C10.92 53.1898 10.84 53.4598 10.75 53.7398C10.68 53.9498 10.71 54.1798 10.79 54.3898C10.91 54.6898 11.16 54.9398 11.47 55.0098C12.03 55.1398 12.57 54.8398 12.74 54.2898C13.34 52.3898 13.93 50.4898 14.53 48.5898C14.6 48.3698 14.67 48.1498 14.74 47.9298C16.25 47.6098 17.92 47.7598 19.45 47.9298C21.66 48.1698 23.84 48.6198 25.99 49.1698C28.1 49.7098 30.2 50.3598 32.2 51.2098C33.62 51.8098 35.17 52.5198 36.26 53.6398C36.36 53.7498 36.47 53.8198 36.58 53.8698C36.08 54.2998 35.94 55.1398 36.69 55.5098C39.33 56.8098 42.17 57.3598 45.05 57.8398C47.62 58.2698 50.34 58.6498 52.56 60.1098C54.16 61.1598 55.04 62.7898 56.08 64.3298C57.02 65.7298 57.99 67.1098 58.97 68.4798C64 75.5298 69.21 82.4398 74.43 89.3398C75.78 91.1198 77.13 92.8998 78.48 94.6698C79.28 95.7098 81.08 94.6798 80.27 93.6298L80.28 93.5998ZM48.23 45.6598C48.1 45.7598 47.95 45.7998 47.84 45.7998C47.73 45.7998 47.55 45.7598 47.4 45.6798C47.21 45.5698 47.2 45.5498 47.07 45.3298C47.07 45.3098 47.07 45.3098 47.05 45.2998C47.03 45.2398 47.01 45.1798 46.99 45.1198C46.99 45.0898 46.94 44.8498 46.93 44.8398C46.92 44.7098 46.91 44.5798 46.92 44.4398C46.92 44.3898 46.92 44.3298 46.93 44.2798C46.93 44.2698 46.93 44.2398 46.95 44.1898C46.96 44.1498 47.06 43.8898 47.04 43.9198C47.06 43.8898 47.08 43.8598 47.09 43.8298C47.1 43.8198 47.1 43.8198 47.13 43.7898C47.18 43.7398 47.21 43.6898 47.25 43.6398C48.76 42.7998 49.77 41.3398 50.26 39.6998C50.34 39.6398 50.43 39.5898 50.52 39.5498C50.52 39.5598 50.73 39.5098 50.74 39.4998C50.8 39.4998 50.87 39.4998 50.93 39.4998C50.98 39.4998 51.01 39.4998 51.03 39.4998C51.18 39.5298 51.2 39.5398 51.3 39.5898C51.64 39.7698 51.83 40.1398 51.79 40.5298C51.81 40.4598 51.79 40.4898 51.77 40.6298C51.75 40.7098 51.72 40.7998 51.69 40.8798C51.66 40.9598 51.57 41.1198 51.51 41.2198C51.32 41.5398 51.1 41.8298 50.88 42.1298C50.4 42.7898 49.93 43.4598 49.45 44.1198C49.06 44.6598 48.74 45.2798 48.23 45.6698V45.6598ZM54.29 43.5798C54.29 43.5798 54.23 43.8298 54.23 43.8098C54.23 43.8398 54.16 44.0498 54.16 44.0398C54.05 44.3098 53.88 44.5698 53.71 44.8098C53.4 45.2398 52.99 45.6598 52.69 46.1198C52.17 46.9198 51.67 47.7898 50.7 48.1098C50.58 48.1498 50.56 48.1198 50.45 48.1498C50.42 48.1498 50.4 48.1398 50.37 48.1298C50.34 48.1298 50.23 48.0698 50.22 48.0698C50.16 48.0398 50.1 48.0098 50.04 47.9698C50.01 47.9498 49.8 47.7898 49.83 47.8198C49.8 47.7898 49.77 47.7598 49.74 47.7298C49.75 47.5198 49.7 47.3398 49.61 47.1898C50.07 46.7998 50.43 46.2898 50.78 45.7898C51.29 45.0798 51.79 44.3798 52.3 43.6698C52.6 43.2498 52.92 42.8098 53.19 42.3598C53.24 42.3598 53.28 42.3498 53.33 42.3298C53.38 42.3098 53.44 42.2998 53.49 42.2798C53.51 42.2798 53.53 42.2798 53.58 42.2798C53.65 42.2898 53.66 42.2798 53.66 42.2798C53.67 42.2798 53.69 42.2898 53.73 42.3098C53.8 42.3398 53.82 42.3398 53.83 42.3398C53.84 42.3398 53.86 42.3598 53.88 42.3798C53.93 42.4098 53.96 42.4298 53.97 42.4398C54 42.4698 54.03 42.4898 54.06 42.5198C54.11 42.5698 54.24 42.7998 54.27 42.9198C54.33 43.1398 54.34 43.2998 54.3 43.5698L54.29 43.5798ZM56.85 46.5898C56.68 46.7898 56.49 46.9798 56.3 47.1698C56.21 47.2598 56.11 47.3498 56.01 47.4298C55.97 47.4598 55.93 47.4898 55.9 47.5198C55.89 47.5198 55.88 47.5298 55.84 47.5598C55.73 47.6298 55.63 47.6998 55.52 47.7698C55.49 47.7798 55.33 47.8598 55.29 47.8798C55.23 47.8898 55.09 47.9398 55.07 47.9398C55.05 47.9398 55.04 47.9398 55.03 47.9398C54.98 47.9398 54.93 47.9398 54.88 47.9398C54.87 47.9398 54.86 47.9398 54.85 47.9398C54.82 47.9398 54.79 47.9298 54.76 47.9198C54.72 47.8998 54.68 47.8798 54.64 47.8498C54.61 47.8198 54.58 47.7898 54.55 47.7598C54.54 47.7398 54.53 47.7198 54.52 47.6998C54.52 47.6798 54.53 47.6598 54.54 47.6398C54.6 47.4698 54.59 47.2798 54.54 47.1098C54.74 46.8298 54.95 46.5498 55.18 46.2598C55.62 45.6998 55.99 45.0698 56.19 44.3998C56.33 44.3498 56.48 44.2998 56.63 44.2598C56.66 44.2598 56.89 44.2098 56.91 44.1998C56.96 44.1998 57.01 44.1998 57.06 44.1998C57.08 44.2098 57.11 44.2298 57.13 44.2398C57.22 44.2998 57.21 44.2898 57.09 44.2098C57.21 44.2298 57.39 44.4998 57.47 44.5898C57.49 44.6098 57.51 44.6298 57.52 44.6598C57.52 44.6698 57.52 44.6598 57.54 44.6898C57.59 44.7698 57.64 44.8398 57.69 44.9198C57.7 44.9498 57.72 44.9698 57.73 44.9998C57.73 45.0198 57.74 45.0398 57.75 45.0498C57.75 45.0698 57.75 45.0898 57.75 45.1198C57.74 45.1798 57.72 45.2398 57.7 45.3098C57.7 45.3398 57.68 45.3498 57.68 45.3698C57.66 45.4198 57.63 45.4698 57.61 45.5098C57.49 45.7298 57.36 45.9298 57.21 46.1298C57.19 46.1498 57.09 46.2898 57.08 46.3098C57.01 46.3998 56.93 46.4898 56.86 46.5798L56.85 46.5898Z" fill="#323232"/>
<path d="M204.96 31.8501C204.05 31.1501 202.57 31.9501 201.7 32.4001C201.52 32.5001 201.34 32.5301 201.17 32.5201C200.54 32.4901 200.06 31.8501 200.15 31.2801C199.79 31.2801 199.46 31.0901 199.22 30.7801C197.53 28.5801 196.1 26.2501 195.09 23.6601C194.17 21.3001 193.65 18.8101 193.18 16.3301C193.06 15.7201 193.44 15.2801 193.9 15.1101C193.9 14.9401 193.89 14.7701 193.88 14.5901C193.2 14.7801 192.61 14.2301 192.54 13.6401C191.62 14.1501 190.82 14.9801 190.13 15.8501C190.95 15.9301 191.61 16.9201 190.81 17.5401C188.11 19.6501 187.91 23.4801 186.27 26.2901C185.52 27.5801 184.45 28.6701 183.07 29.2701C182.29 29.6101 181.31 29.7301 180.62 30.2501C179.76 30.9001 180.62 31.9501 181.08 32.5801C182.21 34.1201 182.42 35.6501 181.93 37.4901C181.88 37.6601 181.83 37.8301 181.78 38.0001C181.99 38.0501 182.2 38.0901 182.4 38.1201C182.67 38.1501 182.93 38.1501 183.2 38.1201C183.38 38.0901 183.55 38.0601 183.72 38.0201C184.29 37.8901 184.81 38.1901 184.99 38.7401C185.16 39.2601 184.79 39.8901 184.27 40.0101C183.76 40.1301 183.22 40.2301 182.69 40.2101C182.16 40.1901 181.63 40.0801 181.11 39.9601C181.08 39.9601 181.06 39.9401 181.04 39.9301C180.71 40.7501 180.39 41.5801 180.24 42.4501C179.98 43.9101 180.24 45.6101 181.38 46.6401C182.83 47.9301 185.18 48.2501 186.97 48.8601C188.63 49.4301 190.34 50.0101 191.12 51.7101C191.85 53.3001 191.9 55.1501 192.35 56.8301C192.62 57.8201 191.5 58.3701 190.81 57.9901L191.11 59.6301C192.51 59.3201 193.85 58.9101 195.12 58.2901C195.76 57.9801 196.35 58.3501 196.59 58.8401L198.62 57.7001C199.66 54.0001 200.75 50.3001 201.29 46.4901C201.33 46.2101 201.53 45.9901 201.78 45.8701C201.66 45.3801 201.52 44.8901 201.19 44.5401C200.93 44.6301 200.66 44.7001 200.38 44.7301C199.27 44.8401 198.07 44.1801 197.59 43.1601C197.06 42.0401 197.22 40.7001 198.11 39.8001C198.49 39.4101 199.03 39.1001 199.57 39.0001C200.11 38.9001 200.62 38.9401 201.11 39.1101C201.23 39.1501 201.36 39.1901 201.48 39.2501C201.58 39.2901 201.67 39.3501 201.75 39.4101C203.81 38.6101 205.49 36.9301 205.74 34.7101C205.86 33.6801 205.77 32.4201 204.96 31.7901V31.8501ZM188.84 27.8701C187.51 27.8701 187.51 25.8001 188.84 25.8001C190.17 25.8001 190.17 27.8701 188.84 27.8701Z" fill="white"/>
<path d="M154.33 66.44C154.47 65.22 155 64.14 155.39 62.99C155.81 61.76 155.85 60.49 155.77 59.2C155.59 56.51 154.74 53.91 154.05 51.33C153.85 50.6 153.73 49.13 152.93 48.77C152.33 48.5 151.93 48.85 151.78 49.38C152.11 50.4 152.44 51.42 152.77 52.44C153.18 53.71 151.18 54.25 150.77 52.99C150.13 50.97 149.46 48.95 148.81 46.92C148.54 46.09 148.28 45.25 148.02 44.42C147.83 43.8 147.68 43.01 147.4 42.51C147.36 42.43 147.31 42.35 147.26 42.28C147.26 42.28 147.26 42.28 147.24 42.26C147.2 42.21 147.15 42.17 147.11 42.12C147.1 42.11 147.11 42.12 147.1 42.11C147.06 42.09 146.96 42.03 146.91 42C146.87 42 146.65 41.96 146.75 41.96C146.72 41.96 146.69 41.96 146.66 41.96C146.62 41.96 146.59 41.98 146.55 41.99C146.52 42.01 146.48 42.03 146.45 42.05C146.42 42.08 146.39 42.11 146.36 42.14C146.32 42.21 146.25 42.37 146.25 42.36C146.23 42.44 146.2 42.58 146.19 42.56C146.15 42.87 146.19 43.07 146.26 43.34C146.5 44.28 146.8 45.2 147.03 46.15C147.43 47.77 147.75 49.42 148.29 51.01C148.36 51.21 148.34 51.43 148.27 51.62C148.27 52.94 146.21 52.94 146.2 51.61C146.2 51.15 145.6 50.9 145.24 51.1C145.04 51.21 144.6 51.79 144.58 52.12C144.63 52.25 144.68 52.37 144.71 52.51C144.96 53.63 143.41 54.36 142.82 53.31C142.74 53.17 142.68 53.02 142.64 52.87C142.32 52.21 141.32 52.38 141.51 53.22C141.76 54.35 140.22 55.06 139.62 54.02C139.48 53.79 139.16 53.69 138.99 53.81C138.57 54.1 138.92 54.95 139.06 55.37C139.7 57.29 140.48 59.15 141.09 61.08C142.33 65 143.21 69.14 145.63 72.57C146.19 73.36 145.4 74.12 144.63 74.07L145.25 76.19C148.66 75.04 152.07 73.9 155.48 72.75C154.73 70.74 154.1 68.6 154.34 66.47L154.33 66.44Z" fill="white"/>
<path d="M174.22 118.13H209.44C209.44 118.01 209.45 117.89 209.5 117.75C212.37 109.72 215.24 101.69 218.12 93.6703C218.57 92.4203 220.57 92.9603 220.12 94.2203C217.27 102.19 214.42 110.16 211.57 118.13H219.45C219.59 115.41 219.87 112.7 220.2 110C220.85 104.73 221.55 99.4203 222.51 94.1903C223.48 88.9403 225.2 83.2703 223.32 78.0303C223.13 77.4903 223.38 77.0903 223.77 76.9003L223.15 75.4903C223.21 76.2903 223.22 77.1003 223.13 77.9103C222.77 81.1103 221.12 83.7403 218.44 85.5203C215.54 87.4403 211.93 88.1103 208.54 87.4003C208.39 87.3703 208.26 87.3103 208.16 87.2403C207.1 87.1103 206.07 86.6003 204.95 86.1603C204.72 86.4303 204.38 86.6003 203.95 86.5303C201.42 86.1203 199.48 84.3503 198.31 82.1403C196.2 78.1403 195.87 73.0803 196.31 68.6603C196.67 64.9503 197.63 61.3603 198.63 57.7803L196.6 58.9203C196.8 59.3503 196.74 59.8803 196.18 60.1503C191.82 62.2703 186.8 62.2203 182.13 63.1203C180.2 63.4903 178.25 63.9903 176.56 65.0303C175.32 65.8003 174.43 66.9103 173.58 68.0403C171.53 70.7503 169.62 73.5603 167.72 76.3703C164.83 80.6403 162 84.9503 159.21 89.2903C158.49 90.4103 156.7 89.3703 157.42 88.2503C158.53 86.5203 159.66 84.7903 160.79 83.0703C160.99 82.7703 161.19 82.4603 161.39 82.1603L160.24 79.8203C160.12 79.9403 159.97 80.0303 159.81 80.0803C159.25 80.2303 158.71 79.8903 158.54 79.3603C158.05 77.8803 157.55 76.3903 157.06 74.9103C156.81 74.9103 156.57 74.8203 156.37 74.6503C153.07 75.7603 149.77 76.8703 146.47 77.9803C147.26 81.2103 148.04 84.4503 148.81 87.6803C150.02 92.7503 151.23 97.8203 152.31 102.92C152.82 105.32 153.23 107.83 155.29 109.44C157.24 110.96 159.86 110.87 161.96 109.73C163.74 108.77 165.08 107.19 166.4 105.69C167.95 103.94 169.45 102.15 170.95 100.36C173.09 97.8003 175.22 95.2203 177.32 92.6203C178.16 91.5803 179.62 93.0603 178.78 94.0803C176.87 96.4303 174.94 98.7703 173 101.09C173.29 101.24 173.49 101.53 173.46 101.96C173.17 107.28 173.53 112.61 173.24 117.93C173.21 118.43 172.9 118.74 172.53 118.86C172.77 119.08 173.01 119.28 173.26 119.46C173.13 118.87 173.45 118.16 174.23 118.16L174.22 118.13ZM177.85 67.5803C176.8 66.7603 178.28 65.3003 179.31 66.1203C184.34 70.0703 187.2 76.5303 186.78 82.9003C186.69 84.2203 184.62 84.2303 184.71 82.9003C185.1 77.0003 182.5 71.2303 177.85 67.5803Z" fill="#FFD151"/>
<path d="M219.23 62.2401C218.84 58.4601 218.63 54.6601 218.7 50.8501C218.77 47.0701 219.13 43.2901 219.85 39.5801C220.52 36.1301 221.22 32.7201 221.11 29.1901C221.01 26.0001 220.24 22.7101 218.26 20.1401C216.47 17.8301 213.95 16.1501 211.3 14.9801C206.12 12.7001 199.26 11.8401 194.08 14.5101C194.01 14.5501 193.94 14.5701 193.87 14.5901C193.87 14.7701 193.88 14.9401 193.89 15.1101C194.41 14.9201 195.04 15.0901 195.17 15.7801C195.63 18.2001 196.13 20.6201 197.01 22.9201C197.95 25.3901 199.4 27.6401 201.01 29.7301C201.15 29.9101 201.18 30.1401 201.15 30.3701C202.4 29.7601 203.86 29.2401 205.22 29.6901C207.97 30.6001 208.26 34.1601 207.47 36.5101C206.74 38.6701 205.03 40.2801 202.99 41.2001C203.06 41.4901 203.1 41.7901 203.07 42.0801C202.99 42.7901 202.74 43.4501 202.22 43.9601C201.92 44.2601 201.57 44.4601 201.19 44.6001C201.52 44.9501 201.66 45.4401 201.78 45.9301C202.03 45.8001 202.32 45.7601 202.56 45.8301C203.15 46.0001 203.36 46.5501 203.28 47.1001C202.69 51.2101 201.49 55.1901 200.39 59.1901C198.94 64.4401 197.79 69.6601 198.42 75.1201C198.85 78.8301 200.18 83.8201 204.48 84.5201C205.36 84.6601 205.4 85.6101 204.93 86.1501C206.05 86.5901 207.08 87.1001 208.14 87.2301C207.36 86.6801 207.92 85.1501 209.07 85.3901C212.55 86.1201 216.44 85.0001 218.93 82.4301C221.33 79.9601 221.29 76.6101 220.83 73.4201C220.29 69.6901 219.62 65.9801 219.24 62.2201L219.23 62.2401Z" fill="white"/>
<path d="M146.58 41.9704C146.58 41.9704 146.56 41.9704 146.56 41.9804C146.61 41.9604 146.66 41.9404 146.58 41.9704Z" fill="#6EC878"/>
<path d="M177.3 92.58C175.19 95.17 173.07 97.75 170.93 100.32C169.43 102.11 167.93 103.9 166.38 105.65C165.06 107.15 163.72 108.73 161.94 109.69C159.84 110.83 157.21 110.92 155.27 109.4C153.21 107.79 152.8 105.28 152.29 102.88C151.2 97.78 149.99 92.71 148.79 87.64C148.02 84.4 147.24 81.17 146.45 77.94C149.75 76.83 153.05 75.72 156.35 74.61C156.55 74.78 156.79 74.87 157.04 74.87C157.53 76.35 158.03 77.84 158.52 79.32C158.7 79.85 159.23 80.2 159.79 80.04C159.95 80 160.1 79.9 160.22 79.78C160.49 79.52 160.63 79.13 160.51 78.76C159.76 76.5 159 74.24 158.25 71.98C158.09 71.5 157.64 71.18 157.15 71.23C156.89 70.46 156.67 69.67 156.52 68.87C156.24 67.3 156.44 66.03 157 64.57C157.57 63.09 157.89 61.68 157.88 60.09C157.87 58.57 157.62 57.05 157.3 55.56C156.97 54.04 156.54 52.55 156.13 51.05C155.79 49.79 155.57 48.32 154.57 47.38C153.54 46.41 152.1 46.41 151.05 47.07C150.96 46.8 150.88 46.54 150.79 46.27C150.49 45.33 150.19 44.39 149.9 43.45C149.66 42.68 149.49 41.84 149.02 41.17C148.18 39.99 146.58 39.4 145.3 40.29C144.65 40.74 144.26 41.44 144.15 42.22C144.01 43.21 144.34 44.1 144.61 45.04C144.97 46.31 145.24 47.6 145.55 48.88C145.18 48.87 144.8 48.94 144.44 49.11C143.88 49.39 143.37 49.89 143.02 50.48C142.53 50.28 141.99 50.22 141.45 50.35C140.66 50.54 140.09 51.07 139.75 51.73C138.77 51.5 137.68 51.82 137.1 52.77C136.55 53.66 136.69 54.74 136.99 55.69C137.37 56.89 137.84 58.06 138.27 59.24C140.01 64.02 140.84 69.32 143.83 73.56C144.04 73.86 144.33 73.99 144.62 74.01C145.39 74.06 146.17 73.31 145.62 72.51C143.21 69.09 142.32 64.94 141.08 61.02C140.47 59.09 139.69 57.23 139.05 55.31C138.91 54.89 138.56 54.04 138.98 53.75C139.15 53.63 139.48 53.72 139.61 53.96C140.22 55 141.75 54.29 141.5 53.16C141.32 52.32 142.31 52.15 142.63 52.81C142.68 52.96 142.73 53.11 142.81 53.25C143.41 54.3 144.95 53.58 144.7 52.45C144.67 52.32 144.62 52.19 144.57 52.06C144.59 51.73 145.03 51.15 145.23 51.04C145.59 50.84 146.19 51.09 146.19 51.55C146.19 52.88 148.26 52.88 148.26 51.56C148.33 51.37 148.35 51.15 148.28 50.95C147.74 49.36 147.42 47.72 147.02 46.09C146.79 45.15 146.49 44.22 146.25 43.28C146.18 43.01 146.15 42.81 146.18 42.5C146.18 42.52 146.22 42.39 146.24 42.3C146.24 42.32 146.32 42.15 146.35 42.08C146.38 42.05 146.41 42.02 146.44 41.99C146.47 41.97 146.5 41.95 146.54 41.93C146.57 41.92 146.61 41.91 146.65 41.9C146.68 41.9 146.71 41.9 146.74 41.9C146.65 41.9 146.86 41.94 146.9 41.94C146.95 41.97 147.05 42.03 147.09 42.05C147.09 42.05 147.09 42.05 147.1 42.06C147.15 42.1 147.19 42.15 147.23 42.2C147.24 42.22 147.24 42.21 147.25 42.22C147.3 42.29 147.35 42.37 147.39 42.45C147.67 42.95 147.82 43.74 148.01 44.36C148.27 45.2 148.54 46.03 148.8 46.86C149.45 48.88 150.11 50.9 150.76 52.93C151.16 54.19 153.16 53.65 152.76 52.38C152.43 51.36 152.1 50.34 151.77 49.32C151.92 48.79 152.32 48.45 152.92 48.71C153.72 49.07 153.84 50.54 154.04 51.27C154.73 53.85 155.58 56.46 155.76 59.14C155.85 60.43 155.8 61.7 155.38 62.93C154.99 64.08 154.46 65.16 154.32 66.38C154.08 68.51 154.71 70.65 155.46 72.66C152.05 73.81 148.64 74.95 145.23 76.1C145.13 76.13 145.02 76.17 144.92 76.2C144.38 76.38 144.06 76.9 144.2 77.47C146.26 85.87 148.31 94.28 150.14 102.74C150.71 105.37 151.13 108 153.02 110.06C154.86 112.08 157.59 112.88 160.24 112.4C162.77 111.94 164.81 110.31 166.52 108.48C167.99 106.91 169.38 105.25 170.77 103.61C170.95 103.39 171.13 103.17 171.32 102.96C171.13 107.91 171.41 112.88 171.14 117.83C171.1 118.66 171.89 118.97 172.5 118.76C172.25 118.53 172 118.28 171.76 118.04C172.01 118.29 172.25 118.53 172.5 118.76C172.87 118.64 173.18 118.32 173.21 117.83C173.5 112.51 173.14 107.18 173.43 101.86C173.45 101.43 173.25 101.14 172.97 100.99C174.91 98.66 176.84 96.33 178.75 93.98C179.58 92.95 178.13 91.48 177.29 92.52L177.3 92.58ZM146.46 42.03C146.49 42.01 146.52 41.99 146.46 42.03V42.03ZM146.55 41.99L146.57 41.98C146.64 41.96 146.59 41.98 146.55 41.99Z" fill="#323232"/>
<path d="M225.3 77.4801C225.04 76.7701 224.28 76.6401 223.76 76.9001C223.37 77.0901 223.12 77.5001 223.31 78.0301C225.2 83.2801 223.47 88.9401 222.5 94.1901C221.53 99.4101 220.84 104.73 220.19 110C219.85 112.7 219.58 115.41 219.44 118.13H211.56C214.41 110.16 217.26 102.19 220.11 94.2201C220.56 92.9601 218.56 92.4201 218.11 93.6701C215.24 101.7 212.37 109.73 209.49 117.75C209.44 117.88 209.43 118.01 209.43 118.13H174.21C173.43 118.13 173.11 118.84 173.24 119.43C174.2 120.11 175.25 120.39 176.6 119.49C175.25 120.39 174.19 120.11 173.24 119.43C173.33 119.85 173.65 120.2 174.21 120.2H220.66C221.61 120.2 221.88 119.15 221.47 118.54C221.71 113.21 222.49 107.91 223.27 102.64C223.65 100.1 223.98 97.5401 224.44 95.0201C224.94 92.2601 225.58 89.5301 225.94 86.7501C226.34 83.6501 226.37 80.4501 225.3 77.4801Z" fill="#323232"/>
<path d="M195.45 59.5303L196.58 58.8903C196.35 58.3903 195.75 58.0303 195.11 58.3403C193.85 58.9503 192.5 59.3703 191.1 59.6803C184.62 61.1103 177.11 60.1803 172.64 65.8403C168.55 71.0203 164.96 76.6203 161.36 82.1403C161.16 82.4403 160.96 82.7504 160.76 83.0504C159.63 84.7703 158.51 86.5004 157.39 88.2304C156.67 89.3504 158.46 90.3903 159.18 89.2703C161.97 84.9303 164.8 80.6203 167.69 76.3503C169.59 73.5403 171.5 70.7303 173.55 68.0203C174.4 66.8903 175.29 65.7703 176.53 65.0103C178.21 63.9703 180.17 63.4703 182.1 63.1003C186.78 62.2003 191.8 62.2503 196.15 60.1303C196.71 59.8603 196.77 59.3303 196.57 58.9003L195.44 59.5403L195.45 59.5303Z" fill="#323232"/>
<path d="M223.19 30.7001C223.28 27.1601 222.71 23.4101 220.88 20.3201C219.28 17.6301 216.79 15.5301 214.07 14.0401C211.06 12.3901 207.74 11.4701 204.35 11.0401C200.5 10.5601 196.54 10.9301 193.05 12.7201C192.64 12.9301 192.5 13.2901 192.54 13.6401C193.35 13.1901 194.26 12.9801 195.25 13.2301C194.26 12.9801 193.35 13.1801 192.54 13.6401C192.61 14.2301 193.2 14.7801 193.88 14.5901C193.88 14.1601 193.88 13.7201 193.88 13.2401C193.88 13.7201 193.88 14.1701 193.88 14.5901C193.95 14.5701 194.02 14.5501 194.09 14.5101C199.27 11.8501 206.12 12.7001 211.31 14.9801C213.96 16.1501 216.48 17.8301 218.27 20.1401C220.25 22.7001 221.02 26.0001 221.12 29.1901C221.23 32.7301 220.53 36.1301 219.86 39.5801C219.14 43.2901 218.78 47.0701 218.71 50.8501C218.64 54.6501 218.85 58.4501 219.24 62.2401C219.63 65.9901 220.3 69.7101 220.83 73.4401C221.29 76.6301 221.33 79.9701 218.93 82.4501C216.44 85.0201 212.54 86.1402 209.07 85.4101C207.92 85.1702 207.36 86.7001 208.14 87.2501C208.24 87.3201 208.37 87.3801 208.52 87.4101C211.92 88.1301 215.52 87.4601 218.42 85.5301C221.1 83.7501 222.75 81.1201 223.11 77.9201C223.2 77.1101 223.19 76.3101 223.13 75.5001C223.07 74.6301 222.94 73.7601 222.82 72.8901C222.52 70.7901 222.16 68.7001 221.85 66.6001C221.25 62.5401 220.88 58.4301 220.78 54.3201C220.68 50.2301 220.86 46.1201 221.5 42.0801C222.1 38.2801 223.09 34.5701 223.19 30.7001Z" fill="#323232"/>
<path d="M205.21 29.6901C203.85 29.2401 202.39 29.7601 201.14 30.3701C201.18 30.1401 201.14 29.9101 201 29.7301C199.39 27.6401 197.95 25.4001 197 22.9201C196.12 20.6201 195.62 18.1901 195.16 15.7801C195.03 15.0901 194.4 14.9201 193.88 15.1101C193.93 16.2901 194.08 17.3701 194.54 18.7601C194.08 17.3701 193.93 16.3001 193.88 15.1101C193.42 15.2801 193.05 15.7201 193.16 16.3301C193.64 18.8101 194.15 21.3001 195.07 23.6601C196.08 26.2401 197.52 28.5801 199.2 30.7801C199.44 31.0901 199.77 31.2901 200.13 31.2801C200.04 31.8501 200.52 32.5001 201.15 32.5201C201.32 32.5201 201.5 32.4901 201.68 32.4001C202.55 31.9501 204.03 31.1401 204.94 31.8501C205.75 32.4801 205.84 33.7401 205.72 34.7701C205.47 36.9901 203.79 38.6701 201.73 39.4701C201.64 39.4101 201.55 39.3601 201.46 39.3101C201.34 39.2501 201.21 39.2101 201.09 39.1701C200.59 39.0101 200.08 38.9701 199.55 39.0601C199.01 39.1601 198.48 39.4701 198.09 39.8601C197.2 40.7601 197.04 42.1001 197.57 43.2201C198.05 44.2301 199.24 44.9001 200.36 44.7901C201.06 44.7201 201.7 44.4501 202.2 43.9601C202.72 43.4501 202.97 42.7901 203.05 42.0801C203.07 41.7901 203.05 41.4901 202.97 41.2001C205.01 40.2901 206.72 38.6801 207.45 36.5101C208.24 34.1601 207.95 30.6001 205.2 29.6901H205.21ZM200.96 42.1501C200.96 42.1501 200.96 42.1801 200.95 42.2001C200.91 42.2701 200.87 42.3401 200.83 42.4101C200.81 42.4401 200.78 42.4601 200.76 42.4901C200.74 42.5101 200.72 42.5301 200.69 42.5501C200.63 42.5901 200.58 42.6201 200.51 42.6601C200.53 42.6601 200.54 42.6601 200.56 42.6501C200.54 42.6501 200.52 42.6601 200.5 42.6701C200.45 42.7001 200.41 42.7001 200.41 42.7001C200.38 42.7001 200.35 42.7101 200.32 42.7201C200.23 42.7201 200.14 42.7201 200.05 42.7201C200.01 42.7201 199.97 42.7101 199.93 42.6901C199.92 42.6901 199.9 42.6901 199.88 42.6801C199.81 42.6401 199.74 42.6001 199.67 42.5601C199.64 42.5401 199.62 42.5101 199.59 42.4901C199.57 42.4701 199.55 42.4501 199.53 42.4201C199.49 42.3601 199.46 42.3101 199.42 42.2401C199.42 42.2601 199.42 42.2701 199.43 42.2901C199.43 42.2701 199.42 42.2501 199.41 42.2301C199.38 42.1801 199.38 42.1401 199.38 42.1401C199.38 42.1101 199.37 42.0801 199.36 42.0501C199.36 41.9601 199.36 41.8701 199.36 41.7801C199.36 41.7401 199.37 41.7001 199.39 41.6601C199.39 41.6501 199.39 41.6301 199.4 41.6101C199.44 41.5401 199.48 41.4701 199.52 41.4001C199.54 41.3701 199.57 41.3501 199.59 41.3201C199.61 41.3001 199.63 41.2801 199.66 41.2601C199.72 41.2201 199.77 41.1901 199.84 41.1501C199.82 41.1501 199.81 41.1501 199.79 41.1601C199.81 41.1601 199.83 41.1501 199.85 41.1401C199.9 41.1101 199.94 41.1101 199.94 41.1101C199.97 41.1101 200 41.1001 200.03 41.0901C200.12 41.0901 200.21 41.0901 200.3 41.0901C200.34 41.0901 200.38 41.1001 200.42 41.1201C200.43 41.1201 200.45 41.1201 200.47 41.1301C200.54 41.1701 200.61 41.2101 200.68 41.2501C200.71 41.2701 200.73 41.3001 200.76 41.3201C200.78 41.3401 200.8 41.3601 200.82 41.3901C200.86 41.4501 200.89 41.5001 200.93 41.5701C200.93 41.5501 200.93 41.5401 200.92 41.5201C200.92 41.5401 200.93 41.5601 200.94 41.5801C200.97 41.6301 200.97 41.6801 200.97 41.6701C200.97 41.7001 200.98 41.7401 200.99 41.7701C200.99 41.8501 200.99 41.9301 200.99 42.0101C200.99 42.0601 200.97 42.1101 200.96 42.1501Z" fill="#323232"/>
<path d="M186.78 82.9C187.2 76.52 184.34 70.06 179.31 66.12C178.27 65.31 176.8 66.76 177.85 67.58C182.5 71.23 185.1 77 184.71 82.9C184.62 84.23 186.69 84.22 186.78 82.9Z" fill="#323232"/>
<path d="M204.48 84.5204C200.18 83.8204 198.85 78.8304 198.42 75.1204C197.79 69.6604 198.93 64.4404 200.39 59.1904C201.5 55.1904 202.7 51.2204 203.28 47.1004C203.36 46.5404 203.14 45.9904 202.56 45.8304C202.08 45.6904 201.37 46.0004 201.29 46.5504C200.74 50.3604 199.65 54.0504 198.62 57.7604C197.62 61.3404 196.66 64.9304 196.3 68.6404C195.86 73.0704 196.2 78.1304 198.3 82.1204C199.47 84.3404 201.41 86.1004 203.94 86.5104C204.37 86.5804 204.72 86.4104 204.94 86.1404C204.49 85.9604 204.02 85.8004 203.53 85.6704C204.02 85.7904 204.48 85.9604 204.94 86.1404C205.4 85.6004 205.37 84.6604 204.49 84.5104L204.48 84.5204Z" fill="#323232"/>
<path d="M199.78 41.1501C199.78 41.1501 199.81 41.1501 199.83 41.1401C199.83 41.1401 199.83 41.1401 199.84 41.1401C199.82 41.1401 199.8 41.1601 199.78 41.1601V41.1501Z" fill="white"/>
<path d="M200.99 41.7701C200.99 41.7701 200.98 41.7001 200.97 41.6701C200.97 41.6701 200.95 41.6301 200.93 41.5601C200.9 41.5001 200.86 41.4401 200.82 41.3801C200.8 41.3601 200.78 41.3301 200.76 41.3101C200.73 41.2801 200.71 41.2601 200.68 41.2401C200.61 41.2001 200.54 41.1601 200.47 41.1201C200.45 41.1201 200.43 41.1201 200.42 41.1101C200.38 41.1001 200.34 41.0901 200.3 41.0801C200.21 41.0801 200.12 41.0801 200.03 41.0801C200 41.0801 199.97 41.0901 199.94 41.1001C199.94 41.1001 199.9 41.1201 199.83 41.1401C199.77 41.1701 199.71 41.2101 199.65 41.2501C199.63 41.2701 199.6 41.2901 199.58 41.3101C199.55 41.3401 199.53 41.3601 199.51 41.3901C199.47 41.4601 199.43 41.5301 199.39 41.6001C199.39 41.6201 199.39 41.6401 199.38 41.6501C199.37 41.6901 199.36 41.7301 199.35 41.7701C199.35 41.8601 199.35 41.9501 199.35 42.0401C199.35 42.0701 199.36 42.1001 199.37 42.1301C199.37 42.1301 199.39 42.1701 199.41 42.2401C199.44 42.3001 199.48 42.3601 199.52 42.4201C199.54 42.4401 199.56 42.4701 199.58 42.4901C199.61 42.5201 199.63 42.5401 199.66 42.5601C199.73 42.6001 199.8 42.6401 199.87 42.6801C199.89 42.6801 199.91 42.6801 199.92 42.6901C199.96 42.7001 200 42.7101 200.04 42.7201C200.13 42.7201 200.22 42.7201 200.31 42.7201C200.34 42.7201 200.37 42.7101 200.4 42.7001C200.4 42.7001 200.44 42.6801 200.51 42.6601C200.57 42.6301 200.63 42.5901 200.69 42.5501C200.71 42.5301 200.74 42.5101 200.76 42.4901C200.79 42.4601 200.81 42.4401 200.83 42.4101C200.87 42.3401 200.91 42.2701 200.95 42.2001C200.95 42.1801 200.95 42.1601 200.96 42.1501C200.97 42.1001 200.98 42.0501 200.99 42.0101C200.99 41.9301 200.99 41.8501 200.99 41.7701Z" fill="white"/>
<path d="M199.42 42.29C199.42 42.29 199.42 42.26 199.41 42.24C199.41 42.24 199.41 42.24 199.41 42.23C199.41 42.25 199.43 42.27 199.43 42.29H199.42Z" fill="white"/>
<path d="M200.56 42.6404C200.56 42.6404 200.53 42.6404 200.51 42.6504C200.51 42.6504 200.51 42.6504 200.5 42.6504C200.52 42.6504 200.54 42.6304 200.56 42.6304V42.6404Z" fill="white"/>
<path d="M200.39 42.6902C200.39 42.6902 200.43 42.6902 200.48 42.6602C200.45 42.6602 200.43 42.6802 200.4 42.6902H200.38H200.39Z" fill="white"/>
<path d="M199.94 41.1001C199.94 41.1001 199.9 41.1001 199.85 41.1301C199.88 41.1301 199.9 41.1101 199.93 41.1001H199.95H199.94Z" fill="white"/>
<path d="M199.37 42.1203C199.37 42.1203 199.37 42.1604 199.4 42.2104C199.4 42.1804 199.38 42.1604 199.37 42.1304V42.1104V42.1203Z" fill="white"/>
<path d="M200.96 41.6701C200.96 41.6701 200.96 41.6301 200.93 41.5801C200.93 41.6101 200.95 41.6301 200.96 41.6601V41.6801V41.6701Z" fill="white"/>
<path d="M200.91 41.5103C200.91 41.5103 200.91 41.5403 200.92 41.5603C200.92 41.5603 200.92 41.5603 200.92 41.5703C200.92 41.5503 200.9 41.5303 200.9 41.5103H200.91Z" fill="white"/>
<path d="M199.92 41.1003C199.92 41.1003 199.87 41.1203 199.84 41.1303C199.84 41.1303 199.84 41.1303 199.83 41.1303C199.9 41.1103 199.94 41.1003 199.94 41.0903H199.92V41.1003Z" fill="#323232"/>
<path d="M200.42 42.6902C200.42 42.6902 200.47 42.6702 200.5 42.6602C200.5 42.6602 200.5 42.6602 200.51 42.6602C200.44 42.6802 200.4 42.6902 200.4 42.7002H200.42V42.6902Z" fill="#323232"/>
<path d="M199.37 42.1504C199.37 42.1504 199.39 42.2004 199.4 42.2304C199.4 42.2304 199.4 42.2304 199.4 42.2404C199.38 42.1704 199.37 42.1304 199.36 42.1304V42.1504H199.37Z" fill="#323232"/>
<path d="M200.96 41.6501C200.96 41.6501 200.94 41.6001 200.93 41.5701C200.93 41.5701 200.93 41.5701 200.93 41.5601C200.95 41.6301 200.96 41.6701 200.97 41.6701V41.6501H200.96Z" fill="#323232"/>
<path d="M189.34 16.09C186.77 18.1 186.27 21.44 185 24.26C184.4 25.58 183.58 26.83 182.21 27.43C180.65 28.11 178.7 28.37 178.23 30.31C177.97 31.43 178.49 32.52 179.12 33.41C179.67 34.19 180.16 34.72 180.14 35.72C180.1 37.53 179.07 39.25 178.52 40.94C177.99 42.58 177.9 44.46 178.53 46.09C179.17 47.73 180.48 48.82 182.09 49.47C183.32 49.97 184.61 50.32 185.87 50.73C186.82 51.04 188.06 51.29 188.8 52C189.36 52.53 189.52 53.34 189.66 54.06C189.89 55.19 190.05 56.32 190.35 57.44C190.43 57.74 190.6 57.93 190.81 58.05C191.5 58.43 192.62 57.88 192.35 56.89C191.9 55.21 191.85 53.36 191.12 51.77C190.34 50.07 188.63 49.49 186.97 48.92C185.19 48.31 182.83 47.99 181.38 46.7C180.23 45.67 179.97 43.97 180.24 42.51C180.4 41.64 180.71 40.81 181.04 39.99C181.07 39.99 181.09 40.01 181.11 40.02C181.63 40.14 182.16 40.25 182.69 40.27C183.22 40.29 183.76 40.19 184.27 40.07C184.8 39.95 185.16 39.31 184.99 38.8C184.81 38.25 184.28 37.95 183.72 38.08C183.55 38.12 183.37 38.15 183.2 38.18C182.93 38.21 182.67 38.21 182.4 38.18C182.19 38.15 181.98 38.1 181.78 38.06C181.83 37.89 181.89 37.72 181.93 37.55C182.41 35.7 182.21 34.18 181.08 32.64C180.61 32 179.76 30.96 180.62 30.31C181.31 29.79 182.29 29.67 183.07 29.33C184.45 28.72 185.52 27.64 186.27 26.35C187.91 23.54 188.1 19.71 190.81 17.6C191.61 16.98 190.95 15.99 190.13 15.91C189.73 16.42 189.37 16.94 189.04 17.43C189.36 16.94 189.73 16.42 190.13 15.91C189.87 15.88 189.6 15.95 189.35 16.14L189.34 16.09Z" fill="#323232"/>
<path d="M188.84 27.8703C190.17 27.8703 190.17 25.8003 188.84 25.8003C187.51 25.8003 187.51 27.8703 188.84 27.8703Z" fill="#323232"/>
</g>
<defs>
<clipPath id="clip0_294_1274">
<rect width="226.2" height="120.2" fill="white"/>
</clipPath>
</defs>
</svg>
