<svg width="66" height="232" viewBox="0 0 66 232" fill="none" xmlns="http://www.w3.org/2000/svg">
<path d="M30.39 220.5C28.84 222.55 27.02 224.36 24.62 225.39C22.58 226.23 19.58 227.27 17.8 225.44C16.67 229.12 19.42 230.35 22.46 229.25C24.13 228.66 25.63 227.52 26.86 226.27C28.31 224.77 29.74 223.11 30.5 221.14C30.45 220.93 30.41 220.72 30.39 220.5Z" fill="#2CB0E0"/>
<path d="M42.71 226.42C38.69 226.63 34.9 224.15 32.52 221.07C32.52 221.11 32.5 221.14 32.49 221.17C33.44 223.46 35.14 225.41 36.96 227.05C38.74 228.61 42.22 230.79 44.56 229.06C45.77 228.16 45.48 226.37 45.04 224.99C44.5 225.75 43.7 226.29 42.7 226.41L42.71 226.42Z" fill="#2CB0E0"/>
<path d="M33.5999 73.9C33.1899 73.92 32.8099 73.6 32.6999 73.21H25.8899V81.57H41.5999V73.21H34.4999C34.3899 73.6 34.0299 73.88 33.5999 73.9Z" fill="white"/>
<path d="M44.7199 122.27C44.6899 122.21 44.6599 122.15 44.6199 122.1C44.5599 122.03 44.4899 121.96 44.4199 121.9C44.3699 121.87 44.3199 121.84 44.2699 121.81C44.1499 121.99 44.0399 122.17 43.9199 122.35C44.1899 122.32 44.4499 122.3 44.7099 122.27H44.7199Z" fill="#2CB0E0"/>
<path d="M42.1299 125.11C42.1299 125.11 42.2099 125.11 42.2499 125.11C42.2799 125.11 42.3099 125.09 42.3499 125.08C42.3699 125.07 42.3899 125.06 42.4099 125.05C42.4199 125.05 42.4299 125.03 42.4399 125.02C42.4499 125 42.4599 124.98 42.4699 124.96C42.4699 124.93 42.4899 124.9 42.4999 124.86C42.4999 124.82 42.4999 124.78 42.4999 124.74C42.4999 124.7 42.4799 124.66 42.4699 124.63C42.3599 124.79 42.2499 124.95 42.1299 125.11Z" fill="#2CB0E0"/>
<path d="M33.0801 124.71C33.1201 124.7 33.1301 124.71 33.0801 124.71V124.71Z" fill="#2CB0E0"/>
<path d="M34.3501 123.26C34.3501 123.26 34.3301 123.28 34.3201 123.3C34.3201 123.3 34.3301 123.28 34.3501 123.26Z" fill="#2CB0E0"/>
<path d="M34.3901 123.21C34.3901 123.21 34.3601 123.25 34.3501 123.27C34.3601 123.25 34.3801 123.23 34.3901 123.21Z" fill="#2CB0E0"/>
<path d="M33.5101 65.11C35.8001 59.19 38.0901 53.26 40.3901 47.34C35.7501 48.02 31.0001 48.1 26.3501 47.56C28.4101 53.54 30.9001 59.36 33.5101 65.11Z" fill="white"/>
<path d="M34.1499 110.99C33.1399 110.44 32.1899 109.81 31.2799 109.11C29.1299 107.48 27.3799 105.42 25.6899 103.34C23.7599 105.21 21.8299 107.07 19.8999 108.94C20.1499 108.94 20.3999 109.01 20.5699 109.21C22.8799 111.9 25.5799 114.21 28.5999 116.05C29.4299 116.55 28.9799 117.69 28.2399 117.8C28.6499 118.56 29.0599 119.32 29.4699 120.09C31.1899 117.1 32.5799 113.85 34.6799 111.11C34.5099 111.13 34.3199 111.1 34.1299 111L34.1499 110.99Z" fill="white"/>
<path d="M46.5099 31.1C45.8699 31.21 45.2299 31.12 44.6799 30.85C44.4699 32.23 44.0399 33.59 43.4099 34.85C43.4999 34.78 43.6199 34.72 43.7499 34.69C44.4499 34.52 44.4999 34.44 45.0399 34.03C46.2599 33.21 47.1799 32.04 47.5699 30.61C47.2599 30.85 46.8999 31.02 46.4999 31.09L46.5099 31.1Z" fill="white"/>
<path d="M32 184.41C32.43 188.78 32.73 193.14 32.41 197.53C32.78 197.63 33.1 197.91 33.12 198.39C33.32 201.87 33.49 205.36 33.31 208.84C33.14 211.8 32.51 214.7 32.41 217.67C32.41 217.87 32.44 218.07 32.46 218.27C32.67 218.32 32.87 218.44 33.03 218.66C34.36 220.57 35.92 222.34 38.01 223.42C39.09 223.98 40.31 224.34 41.51 224.52C42.12 224.61 42.77 224.65 43.26 224.22C43.75 223.8 43.85 223.16 43.99 222.57C37.53 212 40.16 208.12 42.62 197.12C43.52 192.12 44.02 187.03 44.75 182.01C40.31 183.02 35.76 183.53 31.22 183.53C31.61 183.62 31.95 183.9 32 184.4V184.41Z" fill="white"/>
<path d="M24.9 37.81C24.82 37.72 24.76 37.62 24.72 37.53C24.72 37.61 24.72 37.69 24.72 37.77C24.78 37.78 24.84 37.8 24.9 37.81Z" fill="#2CB0E0"/>
<path d="M23.8801 37.58C24.1701 37.65 24.4501 37.72 24.7201 37.78C24.7201 37.7 24.7201 37.62 24.7201 37.54C24.5301 37.51 24.3301 37.45 24.1301 37.34C24.0601 37.43 23.9801 37.52 23.8701 37.58H23.8801Z" fill="white"/>
<path d="M47.4001 22.2199C47.3001 21.7399 47.1801 21.2599 47.0701 20.7799C46.4101 19.3099 45.2001 19.8399 44.1801 20.5999C43.6001 20.9999 42.7101 20.4499 42.7701 19.7699C41.5601 16.9099 40.0801 14.1999 37.7701 12.0699C36.6801 16.2399 34.1101 21.3799 29.1301 19.9899C28.5001 19.8199 28.3601 19.2099 28.5401 18.7399C26.9801 19.9499 25.0301 20.7399 22.9601 20.5599C22.0901 24.8799 20.9101 32.7399 26.8301 33.8799C27.7001 34.0399 27.6601 35.0499 27.1201 35.4899C27.7101 35.4899 27.7101 35.4999 27.7101 36.1199C27.3501 36.2999 26.9801 36.5899 26.6001 36.8599C26.7701 37.0299 26.9401 37.2099 27.1201 37.3699C31.6401 41.5699 38.5201 39.8799 41.4001 34.6499C42.3701 32.9399 42.9001 30.9999 42.9701 29.0399C43.0001 28.0499 42.9901 27.0599 42.9901 26.0699C42.9901 24.9699 44.5401 24.8799 44.8201 25.7699C45.3101 25.5699 45.8601 25.4999 46.3801 25.5899C47.0801 24.6299 47.4601 23.4299 47.3901 22.2399L47.4001 22.2199ZM32.6501 22.9899C32.7101 21.7599 34.5001 21.7599 34.5301 22.9899C34.4601 23.8599 34.4201 24.7399 34.5301 25.6099C34.6701 26.3099 34.8901 27.2499 34.0001 27.5099C33.5401 27.6599 32.9401 27.3399 32.8501 26.8499C32.5801 25.5799 32.5201 24.2799 32.6501 22.9799V22.9899ZM28.4701 23.4499C27.2601 23.4499 27.2601 21.5699 28.4701 21.5699C29.6801 21.5699 29.6801 23.4499 28.4701 23.4499ZM36.5001 33.5199C34.6801 34.8599 32.1601 34.8199 30.3301 33.5199C29.3001 32.8499 30.1901 31.2999 31.2801 31.8999C31.5501 32.0799 31.8301 32.2399 32.1301 32.3699C32.4301 32.4899 32.7401 32.5799 33.0501 32.6299C33.0501 32.6299 33.0801 32.6299 33.1301 32.6299C33.3701 32.6399 33.6001 32.6499 33.8401 32.6299C33.8501 32.6299 33.8701 32.6299 33.9101 32.6199C34.1701 32.5599 34.4101 32.4999 34.6601 32.3999C34.9801 32.2599 35.2701 32.0899 35.5501 31.8899C36.6301 31.3099 37.5401 32.7999 36.5001 33.5099V33.5199ZM38.4901 23.4499C37.2801 23.4499 37.2801 21.5699 38.4901 21.5699C39.7001 21.5699 39.7001 23.4499 38.4901 23.4499Z" fill="white"/>
<path d="M27.1301 35.49C26.9301 35.66 26.6601 35.75 26.3401 35.69C19.3401 34.38 19.9801 25.56 21.1401 20.3C21.2701 19.7 21.8001 19.54 22.2601 19.67C22.2301 19.18 22.5301 18.69 23.1601 18.71C24.6901 18.77 26.1501 18.24 27.4001 17.29C28.8001 16.23 29.8401 14.7 30.4401 13.06C30.6101 12.58 31.0701 12.26 31.5901 12.4C32.0501 12.53 32.4201 13.08 32.2501 13.55C31.6301 15.26 30.5901 16.88 29.2501 18.14C29.9201 18.15 30.4201 18.44 31.1501 18.31C31.0601 18.32 31.0701 18.32 31.1901 18.31C31.4701 18.26 31.7201 18.19 31.9901 18.08C34.7301 16.63 35.5901 13.25 36.2401 10.45C36.0601 9.51003 37.1401 8.95003 37.8201 9.57003C40.6901 11.9 42.8601 14.98 44.1901 18.41C44.8801 18.07 45.6301 17.87 46.3601 17.98C45.1701 14.05 43.4601 6.24003 38.7701 5.38003C37.6701 5.22003 38.0201 3.67003 39.0101 3.57003C38.6401 3.14003 38.2401 2.77003 37.7801 2.53003C37.6401 3.06003 37.0401 3.52003 36.3801 3.21003C33.4401 1.90003 28.5301 3.72003 26.0201 5.47003C23.5201 7.33003 21.9801 10.42 20.8501 13.24C19.6601 16.22 18.7301 19.37 17.9701 22.48C17.4101 25.43 16.2801 28.54 17.3101 31.5C18.2401 34.17 20.5601 36.07 23.4601 35.82C24.3501 35.74 24.5701 36.75 24.1401 37.32C24.3401 37.42 24.5401 37.49 24.7301 37.52C24.3501 36.66 25.5001 35.65 26.2301 36.46C26.3501 36.6 26.4901 36.71 26.6201 36.84C27.0001 36.57 27.3601 36.28 27.7301 36.1C27.7301 35.49 27.7301 35.47 27.1401 35.47L27.1301 35.49Z" fill="#747474"/>
<path d="M42.1199 45.17C40.4899 43.68 39.8099 41.63 39.5599 39.51C35.0499 42.89 28.5999 41.98 24.9099 37.81C24.8499 37.8 24.7899 37.78 24.7299 37.77C24.7299 38.41 24.7299 39.09 24.6899 39.8C24.9199 38.83 26.5399 38.91 26.5399 40.03C26.5399 41.68 26.1399 43.26 25.0999 44.56C25.4299 44.67 25.5999 45.09 25.6899 45.45C28.0599 46.14 30.5899 45.98 33.0299 46C35.6399 45.95 38.3999 45.92 40.9499 45.31C41.4199 45.2 41.7699 45.42 41.9599 45.74L42.5299 45.51C42.3999 45.4 42.2599 45.3 42.1299 45.18L42.1199 45.17Z" fill="white"/>
<path d="M45.5899 47.34C44.4899 46.85 43.4399 46.25 42.5199 45.51L41.9499 45.74C42.0499 45.91 42.1099 46.1 42.1099 46.3C42.4199 46.49 42.5999 46.83 42.4299 47.27C39.7699 54.09 37.1799 60.95 34.4799 67.75C34.5899 67.91 33.5999 68.97 32.8899 67.87C32.8799 67.85 32.8599 67.84 32.8499 67.82C32.2599 67.26 32.0799 66.29 31.6799 65.58C28.7799 59.13 25.8099 52.57 23.8199 45.78C22.9299 46.42 21.9199 46.89 20.9099 47.29C22.8499 62.15 24.0999 77.69 22.7199 92.75H25.4599C25.2999 92.21 25.5899 91.51 26.3199 91.5C26.5899 91.5 26.8699 91.5 27.1399 91.5C29.5099 89.76 31.8799 88.03 34.2499 86.29C34.6599 85.99 35.2999 86.22 35.5299 86.63C36.0499 87.58 34.8799 88.11 34.2699 88.59C32.9599 89.55 31.6499 90.51 30.3399 91.47C33.5299 91.44 36.7299 91.4 39.9199 91.37C40.7299 91.37 40.9899 92.2 40.7199 92.76H44.9999C44.4799 84.29 44.1199 75.81 43.5099 67.34C43.0599 60.95 44.0899 54.59 44.6899 48.24C44.7399 47.69 45.1699 47.4 45.5999 47.35L45.5899 47.34Z" fill="white"/>
<path d="M34.09 106.51C35.73 106.01 37.64 106.09 39.06 105.06C39.99 104.3 40.82 103.44 41.65 102.57C41.85 102.36 42.08 102.27 42.3 102.28C42.34 102.16 42.39 102.03 42.44 101.9C41.85 101.49 40.93 100.96 41.41 100.12C41.67 99.67 42.37 99.48 42.78 99.85C42.81 99.71 42.87 99.57 42.98 99.44C43.93 98.25 44.81 96.99 45.66 95.72C45.37 95.59 45.15 95.32 45.12 94.92C45.07 94.19 45.03 93.46 44.98 92.74H40.7C40.26 93.57 38.97 93.13 38.19 93.25C34.7 93.29 31.21 93.32 27.72 93.36C27.46 93.53 27.13 93.51 26.85 93.36C26.26 93.41 25.58 93.36 25.43 92.73H22.69C22.58 93.39 22.72 94.42 21.97 94.7C23.25 96.41 24.54 98.12 25.82 99.84C26.06 100.16 26.04 100.48 25.88 100.73C26.54 100.61 27.2 101.31 26.97 101.96C28.81 104.23 30.73 106.5 33.16 108.16C33.3 108.09 33.44 108.02 33.58 107.95C33.28 107.47 33.37 106.71 34.08 106.51H34.09Z" fill="#2CB0E0"/>
<path d="M49.9499 108.02C47.3799 106.07 45.0399 103.82 42.4399 101.92C42.3899 102.05 42.3499 102.17 42.2999 102.3C42.9899 102.33 43.5999 103.25 42.9699 103.92C42.0499 104.9 41.0999 105.88 40.0199 106.68C38.4699 107.85 36.3799 107.82 34.5799 108.33C34.1299 108.46 33.7799 108.26 33.5899 107.96C33.4499 108.03 33.3099 108.1 33.1699 108.17C33.7899 108.6 34.4199 109.01 35.0999 109.38C35.7799 109.75 35.6399 110.54 35.1599 110.92C36.0699 110.82 36.5299 111.86 35.9499 112.51C33.7599 115.94 31.3099 120.66 29.2799 124.41C29.1599 124.66 29.0399 124.95 29.2799 125.19C29.4999 125.42 29.6699 125.11 29.8499 124.87C31.6799 122.43 33.3499 119.86 35.0999 117.36C35.7899 116.38 37.4099 117.32 36.7199 118.31C35.3099 120.33 33.8999 122.34 32.4899 124.36C32.5599 124.42 32.6099 124.49 32.6599 124.57C32.6699 124.6 32.6899 124.63 32.7099 124.66C32.7199 124.67 32.7299 124.68 32.7099 124.68C32.7599 124.71 32.8699 124.79 32.7699 124.72C32.7899 124.73 32.7999 124.74 32.8099 124.74C32.8499 124.74 33.0799 124.72 32.9799 124.74C33.0099 124.74 33.0199 124.74 33.0399 124.74C33.0499 124.74 33.0699 124.72 33.0799 124.72C33.5399 124.31 33.9199 123.81 34.3099 123.33C35.5299 121.72 36.6799 120.03 37.7899 118.34C38.0699 117.91 38.6199 117.74 39.0699 118C40.0799 118.7 39.1799 119.6 38.7199 120.32C37.5199 122.1 36.3099 123.87 34.9299 125.51C34.9699 125.51 35.0099 125.51 35.0299 125.52C35.0499 125.52 35.0499 125.52 35.0699 125.52C35.0999 125.52 35.1299 125.51 35.1499 125.5C36.1699 125.2 36.7199 124.09 37.4299 123.35C38.1699 122.51 38.9199 121.68 39.6699 120.85C40.0099 120.47 40.6499 120.5 40.9999 120.85C41.7299 121.62 40.8099 122.39 40.2999 122.95C39.4299 123.91 38.5599 124.88 37.7199 125.87C37.8299 126.22 37.7699 126.67 38.2099 126.55C39.0499 126.38 39.8299 125.1 40.2999 124.47C41.5299 122.78 42.5799 120.95 43.7199 119.2C44.2999 118.3 44.8899 117.38 45.2699 116.37C46.1999 113.65 45.5799 110.14 48.3099 108.33C48.8199 107.98 49.2999 108.23 49.5399 108.64C49.6699 108.44 49.7999 108.24 49.9399 108.02H49.9499Z" fill="white"/>
<path d="M47.54 181.31C47.88 181.28 48.2 181.18 48.5 181.02C48.2 181.16 47.86 181.21 47.54 181.31Z" fill="#2CB0E0"/>
<path d="M48.52 181.01C48.52 181.01 48.51 181.01 48.5 181.02C48.5 181.02 48.51 181.02 48.52 181.01Z" fill="#2CB0E0"/>
<path d="M53.9399 106.79C53.5299 107.21 53.2299 107.98 52.6299 108.12C52.6899 108.8 51.7999 109.34 51.2199 108.94C50.7899 108.64 50.3599 108.33 49.9399 108.01C49.7999 108.22 49.6699 108.43 49.5399 108.63C49.7699 109.03 49.7499 109.6 49.2599 109.94C47.3399 111.27 47.8499 114.4 47.2499 116.36C46.8299 117.75 46.0899 119.02 45.2899 120.24C46.2199 120.79 46.8399 121.91 46.6699 122.98C46.4099 124.03 45.1699 124.12 44.2799 124.19C44.8699 126.15 42.6499 127.73 40.9599 126.64C39.7399 128.32 37.2199 129.39 36.1099 127.11C35.1199 127.62 33.8599 127.38 33.1099 126.57C32.4599 126.64 31.7799 126.44 31.3299 125.95C29.5599 128.58 26.3899 126.41 27.4799 123.72C27.7799 123.11 28.1299 122.53 28.4499 121.93C28.3299 121.85 28.2299 121.75 28.1699 121.63C27.4799 120.33 26.7699 119.03 26.0699 117.73C25.8799 117.38 25.9199 116.98 26.1499 116.69C23.5899 114.95 21.2499 112.88 19.2299 110.52C19.0499 110.32 18.9599 110.06 18.9699 109.81C18.7399 110.03 18.5199 110.25 18.2899 110.47C18.3099 110.5 18.3299 110.52 18.3399 110.55C18.3299 110.52 18.3099 110.49 18.2899 110.47C17.2999 111.61 15.7899 109.96 17.0299 109.08C16.8099 108.92 16.5699 108.77 16.3299 108.64C15.9199 108.93 15.2799 108.96 14.8899 108.46C13.4099 106.53 11.9399 104.6 10.4599 102.67C10.2599 103.13 10.1099 103.6 9.99994 104.09C10.6099 103.59 11.7899 104.09 11.5099 105.05C7.56994 118.63 9.93994 132.87 11.6099 146.61C12.8799 158.08 13.7599 169.61 14.4099 181.13C14.7499 181.24 15.0899 181.28 15.4299 181.29C15.0199 180.68 15.5199 179.6 16.4499 179.84C26.7299 182.47 37.6099 182.27 47.7999 179.29C48.8899 178.97 49.3899 180.53 48.5099 181.01C49.1099 180.68 49.5899 180.12 49.7699 179.45C49.4599 179.33 49.2199 179.05 49.2399 178.61C50.6299 156.47 54.2999 134.4 53.1699 112.16C53.1299 111.27 54.1199 111.04 54.6799 111.46C54.5999 109.9 54.3999 108.34 53.9299 106.78L53.9399 106.79Z" fill="#2CB0E0"/>
<path d="M25.2301 101.17C24.8801 101.24 24.4901 101.15 24.2201 100.79C23.7801 100.2 23.3401 99.61 22.8901 99.02C19.7901 94.88 16.6901 90.75 13.5801 86.61C12.8501 85.64 14.4801 84.71 15.2001 85.66C17.0601 88.14 18.9201 90.62 20.7801 93.1C22.4201 78.04 20.5601 62.9 19.3201 47.88C15.2101 49.58 6.80008 51.52 5.94008 56.55C4.66008 67.21 3.39008 77.87 2.11008 88.53C2.07008 88.9 1.85008 89.16 1.58008 89.3C1.69008 89.84 1.87008 90.36 2.12008 90.85C2.46008 90.39 3.31007 90.21 3.77007 90.83C8.02007 96.39 12.2601 101.94 16.5101 107.5C16.8501 107.94 16.6801 108.38 16.3301 108.63C16.5701 108.77 16.8101 108.91 17.0301 109.07C19.7601 106.43 22.4901 103.79 25.2201 101.15L25.2301 101.17ZM11.5601 78.72C11.0601 73.27 10.5001 67.87 10.6401 62.39C10.6701 61.18 12.5501 61.18 12.5201 62.39C12.3801 67.87 12.9301 73.27 13.4401 78.72C13.5501 79.92 11.6701 79.91 11.5601 78.72Z" fill="#FFD151"/>
<path d="M17.7201 182.64C19.5301 188.95 20.3701 195.47 21.7601 201.87C24.2101 211.5 23.3301 214.75 18.6401 223.28C18.9301 224.41 19.8701 224.75 20.9401 224.52C24.5701 224.09 27.4701 221.62 29.4201 218.66C29.7001 218.26 30.1401 218.18 30.5201 218.29C30.5401 218.12 30.5601 217.95 30.5801 217.78C30.4101 216.35 30.6501 214.89 30.6501 213.46C30.3701 210.41 30.0401 207.36 30.2301 204.3C30.3601 200.44 30.6801 196.6 30.6901 192.74C30.6901 189.96 30.3701 187.19 30.1301 184.42C30.0901 183.92 30.3801 183.64 30.7501 183.55C25.9901 183.52 21.2301 182.94 16.6001 181.81C16.6001 181.88 16.6001 181.95 16.6001 182.03C17.0501 181.91 17.5701 182.08 17.7201 182.66V182.64Z" fill="white"/>
<path d="M62.71 83.3499C61.61 74.0299 60.4599 64.7099 59.3999 55.3899C56.6799 50.6999 51.14 49.59 46.45 47.7C46.53 47.84 46.58 48.01 46.56 48.22C46.21 51.86 45.73 55.4799 45.47 59.1299C45.02 65.2099 45.7 71.2499 46.03 77.3099C46.33 82.7999 46.58 88.2899 46.94 93.7799C48.93 90.6199 50.8699 87.4399 52.7299 84.1999C52.8399 84.0099 52.9899 83.8799 53.1499 83.8099C52.8099 83.7099 52.55 83.43 52.59 82.9599C53.11 77.2299 53.52 71.4599 53.5 65.6999C53.5 65.4599 53.58 65.27 53.7 65.12C53.67 64.93 53.7 64.72 53.83 64.51C55.44 61.87 56.8699 58.91 57.5399 55.87C57.7999 54.69 59.61 55.19 59.35 56.37C58.52 59.61 57.1299 62.7299 55.3699 65.57C55.4299 71.3699 54.99 77.1899 54.4799 82.9599C54.4399 83.41 54.15 83.69 53.81 83.8C54.32 83.97 54.71 84.54 54.36 85.15C53.19 87.19 51.9899 89.2099 50.7599 91.2099C48.7199 94.52 46.68 97.8899 44.21 100.89C46.73 102.84 49.05 105.04 51.63 106.91C56.38 100.71 60.05 93.92 63.5 86.91L63.59 84.23C63.18 84.16 62.7899 83.8699 62.7299 83.3499H62.71Z" fill="#FFD151"/>
<path d="M55.0601 112.17C55.0401 111.85 54.9001 111.62 54.6901 111.47C54.1301 111.06 53.1401 111.29 53.1801 112.17C54.3201 134.41 50.6401 156.48 49.2501 178.62C49.2201 179.06 49.4601 179.34 49.7801 179.46C49.9001 179.02 49.9101 178.55 49.7501 178.07C49.9101 178.55 49.9101 179.02 49.7801 179.46C50.3201 179.66 51.0901 179.38 51.1301 178.62C52.4501 156.48 56.2201 134.41 55.0601 112.17Z" fill="#323232"/>
<path d="M63.48 86.9001C60.02 93.9101 56.36 100.7 51.61 106.9C49.03 105.03 46.71 102.83 44.19 100.88C46.67 97.8801 48.7 94.5 50.74 91.2C51.97 89.2 53.17 87.18 54.34 85.14C54.69 84.54 54.29 83.9701 53.79 83.7901C54.13 83.6801 54.42 83.4 54.46 82.95C54.97 77.18 55.42 71.35 55.35 65.56C57.11 62.72 58.51 59.6001 59.33 56.3601C59.59 55.18 57.78 54.68 57.52 55.8601C56.85 58.9001 55.42 61.8601 53.81 64.5C53.68 64.71 53.65 64.9201 53.68 65.1101C53.56 65.2601 53.48 65.4501 53.48 65.6901C53.5 71.44 53.09 77.22 52.57 82.95C52.53 83.42 52.79 83.7001 53.13 83.8C52.97 83.87 52.82 83.9901 52.71 84.19C50.85 87.43 48.92 90.61 46.92 93.7701C46.57 88.2801 46.31 82.79 46.01 77.3C45.68 71.23 45 65.1901 45.45 59.1201C45.72 55.4801 46.2 51.85 46.54 48.21C46.56 48 46.52 47.83 46.43 47.69C51.11 49.57 56.66 50.68 59.38 55.38C60.45 64.7 61.6 74.02 62.69 83.34C62.75 83.86 63.14 84.15 63.55 84.22C64.08 84.31 64.64 84.02 64.56 83.34C63.48 74.29 62.4 65.2401 61.33 56.18C61.29 55.16 60.99 54.24 60.32 53.45C56.7 48.21 49.88 47.71 44.71 44.76C42.15 43.26 41.38 40.78 41.29 37.93C41.57 37.62 41.83 37.3001 42.08 36.9701C42.44 36.4901 42.77 35.98 43.07 35.46C43.05 35.72 43.14 35.99 43.31 36.19C43.36 36.14 43.42 36.1 43.47 36.05C43.42 36.1 43.37 36.14 43.31 36.19C44.27 37.25 46.49 35.35 47.28 34.62C50.62 31.37 50.13 26.1701 49.24 21.9901C49.19 21.4201 49.07 20.84 48.86 20.2901C47.43 15.18 45.33 4.24005 38.97 3.55005C39.98 4.72005 40.8 6.28005 42.21 6.64005C40.79 6.29005 39.98 4.73005 38.97 3.55005C37.98 3.66005 37.63 5.20005 38.73 5.36005C43.42 6.23005 45.12 14.03 46.32 17.96C45.59 17.85 44.84 18.05 44.15 18.39C42.82 14.95 40.65 11.88 37.78 9.55005C37.08 8.93005 36.03 9.48005 36.2 10.43C35.55 13.24 34.69 16.6201 31.95 18.0601C31.68 18.1701 31.43 18.2401 31.15 18.2901C31.04 18.3101 31.02 18.3101 31.11 18.2901C30.37 18.4201 29.88 18.13 29.21 18.12C30.55 16.86 31.59 15.2401 32.21 13.5301C32.38 13.0501 32.02 12.5 31.55 12.38C31.03 12.24 30.57 12.5601 30.4 13.0401C29.81 14.6801 28.76 16.2101 27.36 17.2701C26.11 18.22 24.66 18.75 23.12 18.69C22.49 18.67 22.19 19.1601 22.22 19.6501C21.76 19.5201 21.24 19.68 21.1 20.28C19.95 25.54 19.3 34.36 26.3 35.67C27.48 35.89 27.99 34.08 26.8 33.8601C20.88 32.7301 22.06 24.8601 22.93 20.5401C25.01 20.7201 26.95 19.93 28.51 18.7201C28.33 19.1901 28.47 19.8001 29.1 19.9701C34.08 21.3601 36.65 16.21 37.74 12.05C40.05 14.19 41.53 16.89 42.74 19.75C42.68 20.43 43.56 20.9801 44.15 20.5801C45.16 19.8201 46.38 19.29 47.04 20.76C47.16 21.24 47.27 21.7201 47.37 22.2001C47.44 23.3901 47.06 24.59 46.36 25.55C45.84 25.46 45.29 25.53 44.8 25.73C44.52 24.83 42.98 24.93 42.97 26.03C42.97 27.02 42.98 28.01 42.95 29C42.88 30.96 42.36 32.91 41.38 34.62C38.51 39.85 31.62 41.5401 27.1 37.34C26.27 37.8601 25.57 37.9001 24.87 37.7901C28.56 41.9601 35.01 42.8701 39.52 39.4901C39.86 43.34 42.01 45.8501 45.55 47.3101C45.12 47.3601 44.69 47.6501 44.64 48.2001C44.03 54.55 43.01 60.9101 43.46 67.3001C43.86 73.0401 44.19 78.78 44.48 84.53C44.66 87.99 44.85 91.4501 45.08 94.9001C45.11 95.3001 45.33 95.56 45.62 95.7C44.77 96.97 43.89 98.23 42.94 99.42C42.83 99.55 42.77 99.69 42.74 99.83C41.68 99.08 40.61 100.66 41.71 101.39C44.6 103.39 47.12 105.87 49.91 107.99C50.04 107.79 50.18 107.57 50.33 107.35C50.18 107.57 50.05 107.78 49.91 107.99C50.33 108.31 50.75 108.62 51.19 108.92C51.77 109.32 52.65 108.78 52.6 108.1C53.2 107.96 53.5 107.19 53.91 106.77C53.78 106.34 53.64 105.91 53.47 105.48C53.64 105.91 53.79 106.34 53.91 106.77C58.55 101.04 61.79 94.39 65.07 87.83C65.62 86.76 64 85.8101 63.45 86.8801L63.48 86.9001ZM45 28.2201C45 28.2201 45.02 28.13 45.02 28.14C45.03 28.09 45.05 28.03 45.07 27.98C45.1 27.92 45.14 27.86 45.18 27.8C45.18 27.8 45.17 27.81 45.16 27.82C45.16 27.82 45.18 27.8001 45.19 27.7901C45.2 27.76 45.26 27.68 45.26 27.7201C45.3 27.6701 45.33 27.64 45.38 27.6C45.45 27.56 45.53 27.5201 45.59 27.48C45.67 27.45 45.72 27.44 45.82 27.42C45.93 27.42 45.98 27.42 46.07 27.42C46.15 27.44 46.23 27.4601 46.32 27.4901C46.39 27.5301 46.46 27.5601 46.52 27.6101C46.58 27.67 46.63 27.72 46.69 27.78C46.74 27.84 46.77 27.91 46.81 27.98C46.83 28.05 46.85 28.13 46.87 28.21C46.87 28.19 46.87 28.1801 46.87 28.1501C46.87 28.1701 46.87 28.2001 46.87 28.2201C46.88 28.2401 46.89 28.31 46.87 28.3C46.87 28.32 46.87 28.33 46.87 28.35C46.87 28.39 46.87 28.42 46.87 28.46C46.85 28.55 46.84 28.6401 46.8 28.7201C46.76 28.7901 46.72 28.8601 46.67 28.93C46.63 28.98 46.58 29.03 46.53 29.07C46.55 29.06 46.56 29.0501 46.58 29.0401C46.55 29.0601 46.51 29.09 46.48 29.1101C46.42 29.1501 46.36 29.1901 46.3 29.2201C46.23 29.2401 46.16 29.26 46.09 29.28C46.11 29.28 46.12 29.28 46.14 29.28C46.12 29.28 46.09 29.28 46.06 29.28C46.03 29.28 46.01 29.28 46 29.28C45.93 29.28 45.86 29.28 45.79 29.28C45.72 29.27 45.65 29.2501 45.59 29.2201C45.6 29.2201 45.61 29.2201 45.62 29.2401C45.61 29.2401 45.59 29.2201 45.58 29.2201C45.55 29.2201 45.47 29.18 45.5 29.18C45.45 29.16 45.4 29.13 45.36 29.1C45.32 29.06 45.28 29.0201 45.24 28.9701C45.28 29.0501 45.2 28.95 45.18 28.92C45.18 28.92 45.16 28.9001 45.15 28.9001C45.16 28.9001 45.16 28.91 45.17 28.92C45.14 28.87 45.1 28.82 45.08 28.76C45.08 28.78 45.08 28.7801 45.09 28.8101C45.09 28.7801 45.07 28.76 45.06 28.73C45.06 28.71 45.05 28.7 45.05 28.69C45.02 28.63 45.01 28.5601 44.99 28.4901C44.99 28.4101 44.99 28.34 44.99 28.26C44.99 28.27 44.99 28.29 44.98 28.3C44.98 28.28 44.98 28.25 44.99 28.23L45 28.2201ZM44.68 30.85C45.57 31.29 46.79 31.26 47.59 30.6101C47.2 32.0401 46.27 33.21 45.06 34.03C44.52 34.44 44.47 34.52 43.77 34.69C43.63 34.72 43.52 34.78 43.43 34.85C44.05 33.59 44.48 32.23 44.7 30.85H44.68Z" fill="#323232"/>
<path d="M26.2201 36.48C25.4901 35.67 24.3401 36.67 24.7201 37.53C24.7601 37.63 24.8201 37.72 24.9001 37.81C25.6001 37.93 26.3001 37.88 27.1301 37.36C26.8101 37.08 26.5001 36.79 26.2201 36.47V36.48Z" fill="#323232"/>
<path d="M39.9101 91.35C36.7201 91.38 33.5201 91.42 30.3301 91.45C31.6401 90.49 32.9501 89.53 34.2601 88.57C34.8701 88.08 36.0401 87.56 35.5201 86.61C35.2801 86.21 34.6501 85.97 34.2401 86.27C31.8701 88.01 29.5001 89.74 27.1301 91.48C26.8601 91.48 26.5801 91.48 26.3101 91.48C25.1001 91.49 25.1001 93.37 26.3101 93.36C26.5001 93.36 26.6801 93.36 26.8701 93.36C27.1401 93.5 27.4801 93.52 27.7401 93.36C31.8001 93.32 35.8601 93.28 39.9301 93.23C41.1401 93.22 41.1401 91.34 39.9301 91.35H39.9101Z" fill="#323232"/>
<path d="M24.6499 40.0401C24.6499 40.1901 24.6499 40.34 24.6299 40.48C24.6499 40.25 24.6599 40.03 24.6699 39.8C24.6499 39.87 24.6399 39.95 24.6399 40.03L24.6499 40.0401Z" fill="#323232"/>
<path d="M34.41 67.86C34.41 67.67 34.58 67.9 34.47 67.75C37.18 60.95 39.76 54.09 42.42 47.27C42.59 46.82 42.42 46.48 42.1 46.3C42.1 45.74 41.65 45.15 40.93 45.32C38.38 45.93 35.62 45.97 33.01 46.01C30.57 45.99 28.04 46.15 25.67 45.46C25.59 45.1 25.42 44.68 25.08 44.57C26.12 43.27 26.51 41.69 26.52 40.04C26.52 38.92 24.9 38.84 24.67 39.81C24.6 41.07 24.46 42.45 24.09 43.57C24.39 42.68 24.54 41.65 24.62 40.62C24.56 43.39 22.3 44.85 19.92 45.66C14.91 47.76 6.16999 49.61 4.28999 55.33C2.71999 66.36 1.62999 77.49 0.219995 88.55C0.119995 89.37 0.969991 89.62 1.55999 89.32C1.43999 88.7 1.41999 88.05 1.55999 87.36C1.41999 88.04 1.43999 88.69 1.55999 89.32C1.82999 89.18 2.04999 88.92 2.08999 88.55C3.36999 77.89 4.63999 67.23 5.91999 56.57C6.77999 51.55 15.19 49.61 19.3 47.9C20.54 62.92 22.4 78.06 20.76 93.12C18.9 90.64 17.04 88.16 15.18 85.68C14.46 84.73 12.83 85.66 13.56 86.63C16.66 90.77 19.76 94.9 22.87 99.04C23.31 99.63 23.75 100.22 24.2 100.81C24.47 101.17 24.86 101.26 25.21 101.19C22.42 103.89 19.62 106.59 16.83 109.29C15.96 110.13 17.29 111.46 18.16 110.62L18.97 109.84C18.97 110.09 19.06 110.34 19.23 110.55C21.25 112.9 23.59 114.97 26.15 116.72C25.92 117.01 25.88 117.41 26.07 117.76C26.76 119.06 27.47 120.36 28.17 121.66C28.24 121.78 28.34 121.88 28.45 121.96C28.13 122.56 27.78 123.14 27.48 123.75C26.39 126.43 29.56 128.6 31.33 125.98C31.78 126.47 32.45 126.67 33.11 126.6C33.86 127.41 35.11 127.65 36.11 127.14C37.2 129.42 39.75 128.35 40.96 126.67C42.65 127.76 44.87 126.19 44.28 124.22C45.17 124.15 46.41 124.06 46.67 123.01C46.84 121.93 46.21 120.81 45.29 120.27C46.09 119.04 46.83 117.78 47.25 116.39C47.84 114.43 47.33 111.3 49.26 109.97C49.75 109.63 49.76 109.07 49.54 108.66C48.74 109.88 48.03 110.84 46.61 111.79C48.04 110.84 48.74 109.89 49.54 108.66C49.31 108.24 48.82 108 48.31 108.35C45.58 110.16 46.21 113.67 45.27 116.39C44.89 117.4 44.3 118.32 43.72 119.22C42.58 120.97 41.53 122.8 40.3 124.49C39.83 125.13 39.05 126.41 38.21 126.57C37.77 126.69 37.82 126.25 37.72 125.89C38.56 124.9 39.42 123.93 40.3 122.97C40.81 122.41 41.74 121.63 41 120.87C40.65 120.52 40.02 120.49 39.67 120.87C38.91 121.7 38.16 122.53 37.43 123.37C36.72 124.1 36.17 125.21 35.15 125.52C35.12 125.52 35.09 125.53 35.07 125.54C35.06 125.54 35.05 125.54 35.03 125.54C35.01 125.54 34.97 125.54 34.93 125.53C36.31 123.89 37.52 122.11 38.72 120.34C39.18 119.62 40.09 118.71 39.07 118.02C38.61 117.75 38.06 117.93 37.79 118.36C36.69 120.04 35.56 121.7 34.34 123.31C34.35 123.3 34.36 123.29 34.38 123.26C33.97 123.78 33.57 124.3 33.08 124.75C33.07 124.75 33.05 124.77 33.04 124.77C33.02 124.77 33.01 124.77 32.98 124.77C33.08 124.76 32.85 124.77 32.81 124.77C32.8 124.77 32.78 124.76 32.77 124.75C32.87 124.82 32.76 124.75 32.71 124.71C32.71 124.71 32.71 124.71 32.71 124.69C32.69 124.66 32.67 124.63 32.66 124.6C32.62 124.52 32.56 124.45 32.49 124.39C33.9 122.37 35.31 120.36 36.72 118.34C37.41 117.35 35.79 116.41 35.1 117.39C33.35 119.89 31.68 122.45 29.85 124.9C29.67 125.14 29.5 125.45 29.28 125.22C29.04 124.98 29.16 124.69 29.28 124.44C31.3 120.7 33.77 115.96 35.95 112.54C36.53 111.89 36.07 110.85 35.16 110.95C35.63 110.58 35.78 109.78 35.1 109.41C31.8 107.68 29.28 104.88 26.99 102.01C27.23 101.37 26.57 100.66 25.9 100.78C26.06 100.53 26.08 100.22 25.84 99.89C24.56 98.18 23.27 96.47 21.99 94.75C22.29 94.62 22.53 94.36 22.58 93.96C24.04 82 23.11 69.85 22.08 57.89C21.79 54.58 21.49 51.26 21.21 47.95C21.19 47.68 21.07 47.47 20.9 47.32C21.91 46.92 22.92 46.45 23.81 45.81C25.8 52.61 28.77 59.17 31.67 65.61C32.07 66.32 32.37 66.73 32.84 67.85C32.85 67.87 32.87 67.89 32.88 67.9M28.29 47.77C32.31 47.98 36.39 47.98 40.39 47.34C38.1 53.26 35.81 59.19 33.51 65.11C30.9 59.36 28.4 53.54 26.35 47.56C27 47.67 27.66 47.72 28.29 47.77ZM28.25 117.8C28.99 117.69 29.43 116.55 28.61 116.05C25.59 114.21 22.89 111.9 20.58 109.21C20.41 109.01 20.16 108.93 19.91 108.94C21.84 107.07 23.77 105.21 25.7 103.34C28.08 106.33 30.74 109.19 34.16 110.99C34.35 111.09 34.53 111.12 34.71 111.1C32.61 113.84 31.22 117.09 29.5 120.08C29.09 119.32 28.68 118.56 28.27 117.79L28.25 117.8ZM33.07 124.71C33.1 124.71 33.12 124.71 33.07 124.71V124.71ZM42.5 124.86C42.5 124.86 42.48 124.92 42.47 124.96C42.46 124.98 42.45 125 42.44 125.02C42.44 125.03 42.42 125.04 42.41 125.05C42.39 125.06 42.37 125.07 42.35 125.08C42.32 125.08 42.29 125.1 42.25 125.11C42.21 125.11 42.17 125.11 42.13 125.11C42.24 124.95 42.36 124.79 42.47 124.63C42.48 124.67 42.49 124.71 42.5 124.74C42.5 124.78 42.5 124.82 42.5 124.86ZM43.93 122.35C44.04 122.17 44.16 121.99 44.28 121.81C44.33 121.84 44.38 121.87 44.43 121.9C44.5 121.96 44.57 122.03 44.63 122.1C44.67 122.15 44.7 122.21 44.73 122.27C44.47 122.3 44.2 122.32 43.94 122.35H43.93Z" fill="#323232"/>
<path d="M37.32 1.59C33.85 -0.0399957 29.54 1.42 26.34 3.07C20.18 6.47 18.07 15.09 16.29 21.43C15.61 24.77 14.41 28.26 15.37 31.65C16.43 35.27 19.94 38.45 23.87 37.58C23.35 37.45 22.82 37.32 22.21 37.32C22.81 37.32 23.35 37.45 23.87 37.58C24.62 37.13 24.48 35.75 23.45 35.84C20.56 36.09 18.23 34.19 17.3 31.52C16.27 28.56 17.4 25.45 17.96 22.5C18.72 19.38 19.65 16.24 20.84 13.26C21.97 10.44 23.51 7.35 26.01 5.49C28.52 3.74 33.43 1.92 36.37 3.23C37.02 3.54 37.62 3.08 37.77 2.55C37.27 2.28 36.69 2.16 35.98 2.3C36.69 2.16 37.26 2.28 37.77 2.55C37.87 2.2 37.76 1.82 37.32 1.61V1.59Z" fill="#323232"/>
<path d="M38.49 21.58C37.28 21.58 37.28 23.46 38.49 23.46C39.7 23.46 39.7 21.58 38.49 21.58Z" fill="#323232"/>
<path d="M28.47 21.58C27.26 21.58 27.26 23.46 28.47 23.46C29.68 23.46 29.68 21.58 28.47 21.58Z" fill="#323232"/>
<path d="M32.1301 32.37C31.8401 32.23 31.5501 32.07 31.2801 31.9C30.2001 31.3 29.3001 32.85 30.3301 33.52C32.1601 34.82 34.6801 34.86 36.5001 33.52C37.5501 32.82 36.6301 31.32 35.5501 31.9C35.2701 32.09 34.9701 32.27 34.6601 32.41C34.4101 32.51 34.1701 32.57 33.9101 32.63C33.8701 32.63 33.8501 32.63 33.8401 32.64C33.6101 32.67 33.3701 32.66 33.1301 32.64C33.0801 32.64 33.0601 32.64 33.0501 32.64C32.7301 32.59 32.4201 32.5 32.1301 32.38V32.37Z" fill="#323232"/>
<path d="M33.5899 22.05C33.0499 22.07 32.6899 22.4601 32.6499 22.9901C32.5199 24.2801 32.5799 25.5801 32.8499 26.8601C32.9399 27.3401 33.5499 27.66 33.9999 27.5201C34.8899 27.2501 34.6599 26.31 34.5299 25.62C34.4199 24.75 34.4599 23.87 34.5299 23C34.5699 22.51 34.0699 22.0401 33.5899 22.0601V22.05Z" fill="#323232"/>
<path d="M10.6401 62.4001C10.5001 67.8801 11.0501 73.2801 11.5601 78.7301C11.6701 79.9201 13.5501 79.9301 13.4401 78.7301C12.9401 73.2801 12.3801 67.8801 12.5201 62.4001C12.5501 61.1901 10.6701 61.1901 10.6401 62.4001Z" fill="#323232"/>
<path d="M45.6201 29.24C45.6201 29.24 45.6001 29.23 45.5901 29.22C45.5901 29.22 45.5901 29.22 45.5801 29.22C45.5901 29.22 45.6101 29.23 45.6201 29.24Z" fill="white"/>
<path d="M46.8701 28.24V28.22C46.8701 28.25 46.8701 28.27 46.8701 28.3C46.8701 28.3 46.8801 28.28 46.8701 28.24Z" fill="white"/>
<path d="M45.53 29.2101C45.53 29.2101 45.56 29.2101 45.57 29.2201C45.54 29.2001 45.52 29.1901 45.49 29.1801C45.47 29.1801 45.49 29.2001 45.53 29.2101Z" fill="white"/>
<path d="M46.58 29.04C46.58 29.04 46.55 29.06 46.53 29.07C46.53 29.07 46.51 29.09 46.5 29.09C46.53 29.07 46.55 29.05 46.58 29.04Z" fill="white"/>
<path d="M46.5 29.1C46.5 29.1 46.48 29.1 46.48 29.11C46.48 29.11 46.49 29.11 46.5 29.1Z" fill="white"/>
<path d="M45.1499 28.89C45.1499 28.89 45.1699 28.91 45.1799 28.91C45.1799 28.91 45.1699 28.9 45.1599 28.89H45.1499Z" fill="white"/>
<path d="M45.0901 28.8C45.0901 28.8 45.0901 28.77 45.0801 28.75C45.0801 28.74 45.0801 28.73 45.0701 28.71C45.0701 28.74 45.0901 28.76 45.1001 28.79L45.0901 28.8Z" fill="white"/>
<path d="M45.0701 28.7201C45.0701 28.7201 45.0701 28.6901 45.0601 28.6801C45.0601 28.6901 45.0601 28.7001 45.0701 28.7201Z" fill="white"/>
<path d="M45.2099 28.96C45.2099 28.96 45.2599 29 45.2299 28.96C45.2099 28.94 45.1899 28.92 45.1699 28.91C45.1799 28.93 45.1899 28.94 45.1999 28.96H45.2099Z" fill="white"/>
<path d="M45 28.22C45 28.22 45 28.27 44.99 28.29C44.99 28.27 44.99 28.26 45 28.25C45 28.25 45 28.23 45 28.22Z" fill="white"/>
<path d="M45.1499 27.81C45.1499 27.81 45.1599 27.8 45.1699 27.79C45.1699 27.79 45.1499 27.81 45.1399 27.82L45.1499 27.81Z" fill="white"/>
<path d="M45.32 27.64C45.32 27.64 45.27 27.69 45.25 27.72C45.25 27.73 45.22 27.76 45.18 27.8C45.14 27.86 45.11 27.92 45.07 27.98C45.05 28.03 45.04 28.09 45.02 28.14C45.02 28.14 45.02 28.18 45 28.25C45 28.33 45 28.4 45 28.48C45.01 28.55 45.03 28.61 45.06 28.68C45.06 28.65 45.06 28.66 45.09 28.75C45.12 28.8 45.15 28.86 45.18 28.91C45.21 28.93 45.23 28.95 45.24 28.97C45.28 29.01 45.32 29.06 45.36 29.1C45.4 29.13 45.45 29.16 45.5 29.18C45.51 29.18 45.55 29.2 45.59 29.23C45.66 29.25 45.73 29.27 45.79 29.29C45.86 29.29 45.93 29.29 46 29.29C45.98 29.29 46 29.28 46.09 29.28C46.16 29.26 46.23 29.24 46.3 29.22C46.36 29.19 46.42 29.15 46.48 29.11C46.45 29.13 46.45 29.11 46.53 29.07C46.58 29.03 46.63 28.98 46.67 28.93C46.71 28.86 46.76 28.79 46.8 28.72C46.84 28.64 46.84 28.55 46.87 28.46C46.87 28.42 46.87 28.39 46.87 28.35C46.87 28.33 46.87 28.32 46.87 28.3C46.87 28.3 46.87 28.26 46.87 28.2C46.85 28.12 46.83 28.05 46.81 27.97C46.77 27.9 46.73 27.83 46.69 27.77C46.63 27.71 46.58 27.66 46.52 27.6C46.46 27.56 46.39 27.52 46.32 27.48C46.24 27.45 46.16 27.43 46.07 27.41C45.98 27.41 45.93 27.41 45.82 27.41C45.73 27.43 45.67 27.44 45.59 27.47C45.53 27.51 45.44 27.55 45.38 27.59C45.36 27.6 45.34 27.62 45.33 27.63L45.32 27.64Z" fill="white"/>
<path d="M45.1899 27.76C45.1899 27.76 45.1799 27.78 45.1699 27.79C45.1899 27.77 45.2199 27.74 45.2399 27.72C45.2399 27.7 45.2199 27.72 45.1899 27.76Z" fill="white"/>
<path d="M45.02 28.14C45.02 28.14 45.01 28.17 45 28.22C45 28.19 45.01 28.17 45.02 28.14Z" fill="white"/>
<path d="M45.1699 28.91C45.1899 28.93 45.2099 28.94 45.2299 28.96C45.2199 28.95 45.1999 28.93 45.1699 28.9V28.91Z" fill="#323232"/>
<path d="M46 29.29C46 29.29 46.04 29.29 46.06 29.29C46.06 29.29 46.08 29.29 46.09 29.29C46 29.29 45.98 29.29 46 29.3V29.29Z" fill="#323232"/>
<path d="M45.57 29.22C45.57 29.22 45.57 29.22 45.58 29.22C45.53 29.19 45.5 29.17 45.49 29.17C45.52 29.18 45.54 29.2 45.57 29.21V29.22Z" fill="#323232"/>
<path d="M45.05 28.68C45.05 28.68 45.05 28.71 45.06 28.72C45.06 28.73 45.0601 28.74 45.0701 28.76C45.0501 28.67 45.04 28.66 45.04 28.69L45.05 28.68Z" fill="#323232"/>
<path d="M46.4799 29.1099C46.4799 29.1099 46.5099 29.0899 46.5299 29.0699C46.4499 29.1199 46.4499 29.1199 46.4799 29.1099Z" fill="#323232"/>
<path d="M45.2499 27.72C45.2499 27.72 45.1999 27.77 45.1799 27.79C45.2299 27.75 45.2499 27.72 45.2499 27.71V27.72Z" fill="#323232"/>
<path d="M45.02 28.14C45.02 28.14 45 28.21 45 28.25C45.02 28.18 45.02 28.15 45.02 28.14Z" fill="#323232"/>
<path d="M16.5201 107.52C12.2701 101.96 8.03009 96.4099 3.78009 90.8499C3.31009 90.2399 2.47009 90.4099 2.13009 90.8699C2.90009 92.4199 4.23008 93.7499 5.34009 94.8699C4.23008 93.7599 2.90009 92.4199 2.13009 90.8699C1.94009 91.1199 1.90009 91.4499 2.16009 91.7899C4.93009 95.4199 7.70009 99.0399 10.4801 102.67C11.9601 104.6 13.4301 106.53 14.9101 108.46C15.6301 109.41 17.2601 108.47 16.5301 107.51L16.5201 107.52Z" fill="#323232"/>
<path d="M13.0401 161.44C12.1001 142.72 6.34006 123.59 11.5201 105.06C11.8001 104.1 10.6301 103.6 10.0101 104.1C9.71006 105.45 9.71006 106.85 9.71006 108.01C9.71006 106.85 9.71006 105.44 10.0101 104.1C5.55006 117.14 7.96006 131.47 9.53006 144.86C10.7301 154.36 11.4101 163.94 12.0701 173.5C12.2401 175.97 12.4101 178.44 12.5601 180.91C12.6301 182.03 14.2601 182.11 14.4201 181.14C13.8601 180.96 13.3301 180.61 12.8401 179.96C13.3301 180.62 13.8701 180.97 14.4201 181.14C14.1001 174.57 13.5501 168 13.0401 161.44Z" fill="#323232"/>
<path d="M15.4399 181.29C15.6499 181.65 16.1999 181.69 16.5899 181.8C16.5899 181.6 16.5899 181.4 16.5899 181.21C16.2099 181.26 15.8199 181.3 15.4399 181.29Z" fill="#323232"/>
<path d="M46.62 181.2C46.93 181.3 47.24 181.33 47.54 181.31C47.8 181.24 48.05 181.17 48.31 181.1C49.47 180.76 48.97 178.95 47.81 179.29C37.62 182.27 26.74 182.46 16.46 179.84C15.53 179.6 15.03 180.68 15.44 181.29C15.82 181.29 16.21 181.26 16.59 181.21C17.47 181.1 18.33 180.95 19.09 181.21C18.33 180.96 17.47 181.11 16.59 181.21C16.59 181.4 16.59 181.6 16.59 181.8C21.23 182.93 25.98 183.51 30.74 183.54C30.37 183.63 30.08 183.91 30.12 184.41C30.37 187.18 30.69 189.95 30.68 192.73C30.68 196.59 30.35 200.44 30.22 204.29C30.03 207.36 30.35 210.41 30.64 213.45C30.64 214.88 30.41 216.34 30.57 217.77C30.56 217.94 30.54 218.11 30.51 218.28C30.14 218.17 29.7 218.24 29.42 218.65C27.47 221.61 24.56 224.08 20.94 224.51C19.87 224.74 18.93 224.4 18.64 223.27C23.34 214.73 24.2 211.49 21.76 201.86C20.37 195.46 19.52 188.94 17.72 182.63C17.57 182.05 17.05 181.89 16.6 182C16.62 183.75 16.77 185.83 17.85 187.44C16.77 185.82 16.62 183.74 16.6 182C16.14 182.12 15.75 182.54 15.91 183.13C16.45 185.15 16.94 187.18 17.39 189.21C18.26 193.06 18.75 196.99 19.6 200.84C20.42 204.54 21.49 208.15 21.15 211.98C20.89 215.81 18.69 219.03 17.01 222.36C16.83 222.53 16.7 222.76 16.69 223.04C13.26 230.62 19.49 233.78 25.62 229.71C28.04 228.06 29.94 225.89 31.53 223.42C33.94 227.21 37.63 231.24 42.4 231.5C44.92 231.55 47.04 230.08 47.25 227.49C47.44 225.18 46.34 222.95 45.27 220.99C43.5 217.73 41.83 214.59 41.81 210.78C41.79 207.37 42.9 204.12 43.73 200.85C44.74 196.88 45.18 192.76 45.72 188.71C46.01 186.57 46.29 184.42 46.55 182.27C46.59 181.98 46.5 181.77 46.35 181.62C46.74 181.52 47.13 181.41 47.52 181.3C47.22 181.32 46.91 181.3 46.6 181.19L46.62 181.2ZM30.17 221.94C28.41 225.01 25.83 227.95 22.47 229.25C19.43 230.35 16.67 229.12 17.81 225.44C19.59 227.28 22.58 226.24 24.63 225.39C27.04 224.36 28.86 222.55 30.4 220.5C30.42 220.72 30.46 220.93 30.51 221.14C30.42 221.4 30.31 221.66 30.17 221.93V221.94ZM45.05 225C45.49 226.38 45.78 228.17 44.57 229.07C42.23 230.8 38.75 228.62 36.97 227.06C35.15 225.41 33.45 223.46 32.5 221.18C32.5 221.15 32.52 221.11 32.53 221.08C33.98 222.89 35.68 224.47 37.86 225.41C40.05 226.35 43.44 227.39 45.05 225.01V225ZM44.69 182.28C44.09 187.23 43.49 192.2 42.64 197.12C40.17 208.11 37.56 212.02 44.01 222.57C43.87 223.16 43.77 223.8 43.28 224.22C42.79 224.65 42.14 224.62 41.53 224.52C40.32 224.34 39.11 223.97 38.03 223.42C35.93 222.34 34.38 220.57 33.05 218.66C32.9 218.44 32.69 218.32 32.48 218.27C32.45 218.07 32.43 217.87 32.43 217.67C32.53 214.71 33.16 211.8 33.33 208.84C33.5 205.36 33.34 201.86 33.14 198.39C33.11 197.91 32.79 197.62 32.43 197.53C32.75 193.14 32.45 188.78 32.02 184.41C31.98 183.92 31.63 183.63 31.24 183.54C35.79 183.54 40.33 183.03 44.77 182.02C44.74 182.1 44.71 182.19 44.7 182.29L44.69 182.28Z" fill="#323232"/>
<path d="M39.3701 104.81C39.2601 104.9 39.1801 104.97 39.0601 105.06C37.6401 106.09 35.7301 106.01 34.0901 106.51C32.9301 106.84 33.4201 108.65 34.5901 108.32C36.3901 107.81 38.4801 107.84 40.0301 106.67C41.1001 105.86 42.0601 104.89 42.9801 103.91C43.8101 103.03 42.4801 101.7 41.6501 102.58C40.9201 103.35 40.1701 104.11 39.3601 104.81H39.3701Z" fill="#323232"/>
<path d="M34.36 123.26C34.36 123.26 34.32 123.31 34.33 123.3C34.34 123.29 34.35 123.27 34.36 123.26Z" fill="#323232"/>
</svg>
