<svg width="50" height="50" viewBox="0 0 50 50" fill="none" xmlns="http://www.w3.org/2000/svg">
<g clip-path="url(#clip0_477_868)">
<path d="M19.1696 6.02055L11.8581 37.8927C11.4976 39.4645 12.4795 41.0311 14.0513 41.3917L31.4299 45.3783C33.0018 45.7388 34.5683 44.7569 34.9289 43.1851L42.2403 11.3129C42.6009 9.74109 41.619 8.17455 40.0471 7.81398L22.6685 3.82736C21.0967 3.46678 19.5301 4.44871 19.1696 6.02055Z" fill="#E4E3E4" stroke="#323232" stroke-width="1.5" stroke-linecap="round" stroke-linejoin="round"/>
<path d="M17.59 15.8999L39.06 20.8199" stroke="#323232" stroke-width="1.5" stroke-linecap="round" stroke-linejoin="round"/>
<path d="M14.72 28.4199L36.18 33.3399" stroke="#323232" stroke-width="1.5" stroke-linecap="round" stroke-linejoin="round"/>
<path d="M25.46 14.0301C26.7579 14.0301 27.81 12.9779 27.81 11.6801C27.81 10.3822 26.7579 9.33008 25.46 9.33008C24.1621 9.33008 23.11 10.3822 23.11 11.6801C23.11 12.9779 24.1621 14.0301 25.46 14.0301Z" fill="#FFD151" stroke="#323232" stroke-width="1.5" stroke-linecap="round" stroke-linejoin="round"/>
<path d="M33.57 15.8899C34.8678 15.8899 35.92 14.8378 35.92 13.5399C35.92 12.2421 34.8678 11.1899 33.57 11.1899C32.2721 11.1899 31.22 12.2421 31.22 13.5399C31.22 14.8378 32.2721 15.8899 33.57 15.8899Z" fill="#FFD151" stroke="#323232" stroke-width="1.5" stroke-linecap="round" stroke-linejoin="round"/>
<path d="M22.73 25.9603C24.0279 25.9603 25.08 24.9081 25.08 23.6103C25.08 22.3124 24.0279 21.2603 22.73 21.2603C21.4321 21.2603 20.38 22.3124 20.38 23.6103C20.38 24.9081 21.4321 25.9603 22.73 25.9603Z" fill="#FFD151" stroke="#323232" stroke-width="1.5" stroke-linecap="round" stroke-linejoin="round"/>
<path d="M30.84 27.8201C32.1379 27.8201 33.19 26.768 33.19 25.4701C33.19 24.1722 32.1379 23.1201 30.84 23.1201C29.5421 23.1201 28.49 24.1722 28.49 25.4701C28.49 26.768 29.5421 27.8201 30.84 27.8201Z" fill="#FFD151" stroke="#323232" stroke-width="1.5" stroke-linecap="round" stroke-linejoin="round"/>
<path d="M19.97 37.9998C21.2679 37.9998 22.32 36.9477 22.32 35.6498C22.32 34.3519 21.2679 33.2998 19.97 33.2998C18.6721 33.2998 17.62 34.3519 17.62 35.6498C17.62 36.9477 18.6721 37.9998 19.97 37.9998Z" fill="#FFD151" stroke="#323232" stroke-width="1.5" stroke-linecap="round" stroke-linejoin="round"/>
<path d="M30.36 38.0301C30.07 39.2901 28.81 40.0801 27.55 39.7901C26.29 39.5001 25.5 38.2401 25.79 36.9801C26.08 35.7201 27.34 34.9301 28.6 35.2201C29.86 35.5101 30.65 36.7701 30.36 38.0301Z" fill="#FFD151" stroke="#323232" stroke-width="1.5" stroke-linecap="round" stroke-linejoin="round"/>
<path d="M9.16002 43.5999L3.29002 33.0999C2.15002 31.0699 2.88002 28.4899 4.91002 27.3599C6.94002 26.2199 9.52002 26.9499 10.65 28.9799L16.53 39.4799C17.67 41.5099 16.94 44.0899 14.91 45.2199C12.88 46.3599 10.3 45.6299 9.17002 43.5999H9.16002Z" fill="#FFD151"/>
<path d="M13.72 34.46L16.53 39.48C17.67 41.51 16.94 44.09 14.91 45.22C12.88 46.36 10.3 45.63 9.16998 43.6L6.41998 38.69L13.73 34.46H13.72Z" fill="white" stroke="#323232" stroke-width="1.5" stroke-linecap="round" stroke-linejoin="round"/>
<path d="M9.16002 43.5999L3.29002 33.0999C2.15002 31.0699 2.88002 28.4899 4.91002 27.3599C6.94002 26.2199 9.52002 26.9499 10.65 28.9799L16.53 39.4799C17.67 41.5099 16.94 44.0899 14.91 45.2199C12.88 46.3599 10.3 45.6299 9.17002 43.5999H9.16002Z" stroke="#323232" stroke-width="1.5" stroke-linecap="round" stroke-linejoin="round"/>
</g>
<defs>
<clipPath id="clip0_477_868">
<rect width="41.07" height="43.51" fill="white" transform="translate(2 3)"/>
</clipPath>
</defs>
</svg>
