<svg width="173" height="217" viewBox="0 0 173 217" fill="none" xmlns="http://www.w3.org/2000/svg">
<g clip-path="url(#clip0_441_864)">
<path d="M139.651 163.748L117.799 148.75C116.407 147.794 114.503 148.148 113.547 149.541L82.7502 194.411C81.7945 195.803 82.1485 197.707 83.541 198.663L105.393 213.661C106.785 214.617 108.689 214.263 109.644 212.87L140.441 168C141.397 166.607 141.043 164.704 139.651 163.748Z" fill="white" stroke="#323232" stroke-width="2" stroke-miterlimit="10"/>
<path d="M136.508 169.908L113.175 153.893L85.2375 194.597L108.57 210.612L136.508 169.908Z" fill="#FFD151"/>
<path d="M130.719 160.393L124.141 155.878C123.583 155.495 122.821 155.637 122.438 156.195L122.434 156.201C122.051 156.759 122.193 157.521 122.751 157.904L129.329 162.419C129.887 162.802 130.649 162.66 131.032 162.102L131.036 162.096C131.419 161.538 131.277 160.776 130.719 160.393Z" fill="white" stroke="#323232" stroke-width="2" stroke-miterlimit="10"/>
<path d="M112.392 188.819L112.465 188.869C112.755 189.068 113.066 188.615 112.776 188.415L106.536 184.133C106.5 184.108 106.457 184.079 106.421 184.054C106.24 183.929 106.092 183.73 106.032 183.52C105.964 183.269 106.003 183.055 106.096 182.817C106.155 182.653 106.215 182.489 106.274 182.325C106.508 181.685 106.747 181.04 106.981 180.4C107.311 179.505 107.64 178.611 107.965 177.722C108.309 176.793 108.653 175.864 108.996 174.925C109.281 174.16 109.56 173.39 109.849 172.619C109.996 172.223 110.142 171.816 110.29 171.419C110.302 171.401 110.305 171.385 110.311 171.362C110.434 171.028 109.915 170.851 109.793 171.185C109.687 171.468 109.582 171.751 109.476 172.035C109.212 172.743 108.953 173.445 108.695 174.158C108.355 175.081 108.019 175.998 107.673 176.917C107.333 177.84 106.989 178.769 106.649 179.692L105.859 181.827C105.752 182.127 105.634 182.428 105.526 182.728C105.293 183.377 105.528 184.099 106.092 184.495C106.207 184.574 106.328 184.657 106.442 184.736L112.374 188.807L112.392 188.819Z" fill="#323232"/>
<path d="M108.126 180.092L113.109 183.511C113.683 183.906 114.257 184.3 114.832 184.694C114.862 184.715 114.898 184.74 114.929 184.761C114.981 184.788 115.08 184.811 115.166 184.817C115.235 184.82 115.323 184.809 115.378 184.793C115.512 184.752 115.589 184.68 115.704 184.59C116.043 184.316 116.372 184.044 116.712 183.77C117.514 183.119 118.31 182.465 119.108 181.821C119.223 181.731 119.301 181.669 119.37 181.556C119.442 181.437 119.463 181.264 119.429 181.107C119.396 180.96 119.304 180.835 119.175 180.737C119.066 180.663 118.964 180.592 118.855 180.517L110.051 174.475L107.971 179.994C107.971 179.994 108.012 180.013 108.03 180.025L108.132 180.096L108.126 180.092Z" fill="white"/>
<path d="M119.708 180.48C119.628 180.39 119.535 180.317 119.432 180.247L110.302 173.98C110.012 173.781 109.701 174.234 109.991 174.434L118.855 180.518C118.964 180.592 119.066 180.663 119.175 180.738C119.302 180.825 119.396 180.96 119.429 181.107C119.463 181.264 119.443 181.437 119.37 181.556C119.297 181.675 119.223 181.731 119.108 181.821C118.306 182.471 117.51 183.125 116.712 183.77C116.372 184.044 116.043 184.316 115.704 184.59C115.589 184.68 115.513 184.752 115.378 184.793C115.323 184.809 115.235 184.82 115.166 184.817C115.08 184.811 114.981 184.788 114.929 184.761C114.898 184.74 114.862 184.715 114.832 184.694C114.257 184.3 113.683 183.906 113.109 183.511L108.024 180.021C108.024 180.021 107.987 179.996 107.965 179.99C107.692 179.883 107.44 180.288 107.712 180.475L114.382 185.052C114.43 185.085 114.484 185.123 114.533 185.156C114.865 185.384 115.29 185.427 115.666 185.267C115.814 185.208 115.927 185.108 116.05 185.006C116.188 184.896 116.326 184.786 116.457 184.671C117.332 183.955 118.212 183.243 119.086 182.526C119.347 182.314 119.678 182.105 119.842 181.8C120.07 181.378 120.022 180.838 119.7 180.466L119.708 180.48Z" fill="#323232"/>
<path d="M105.547 187.518C105.887 187.022 105.76 186.339 105.264 185.999C104.768 185.659 104.085 185.786 103.745 186.282C103.404 186.777 103.531 187.46 104.027 187.801C104.523 188.141 105.206 188.014 105.547 187.518Z" fill="white"/>
<path d="M105.575 185.546C104.825 185.031 103.802 185.227 103.291 185.97C102.781 186.714 102.972 187.744 103.716 188.254C104.46 188.765 105.489 188.573 106 187.83C106.51 187.086 106.319 186.056 105.575 185.546ZM103.739 186.277C104.079 185.782 104.762 185.655 105.258 185.995C105.754 186.335 105.881 187.018 105.54 187.514C105.2 188.01 104.517 188.137 104.021 187.797C103.525 187.456 103.398 186.773 103.739 186.277Z" fill="#323232"/>
<path d="M110.542 189.622C110.047 189.282 109.363 189.409 109.023 189.905C108.683 190.4 108.81 191.084 109.306 191.424C109.801 191.764 110.485 191.637 110.825 191.141C111.165 190.645 111.038 189.962 110.542 189.622Z" fill="white"/>
<path d="M110.854 189.168C110.104 188.654 109.08 188.849 108.57 189.593C108.059 190.337 108.251 191.367 108.994 191.877C109.738 192.388 110.768 192.196 111.278 191.452C111.789 190.709 111.597 189.679 110.854 189.168ZM109.302 191.43C108.806 191.089 108.679 190.406 109.019 189.91C109.359 189.415 110.042 189.288 110.538 189.628C111.034 189.968 111.161 190.651 110.821 191.147C110.481 191.643 109.797 191.77 109.302 191.43Z" fill="#323232"/>
<path d="M116.903 174.615C118.843 175.947 121.494 175.454 122.827 173.513C124.159 171.572 123.666 168.921 121.725 167.589C119.784 166.256 117.133 166.75 115.801 168.69C114.469 170.631 114.962 173.282 116.903 174.615ZM117.846 170.13C117.931 170.641 118.011 171.159 118.09 171.667C118.147 171.661 118.208 171.65 118.265 171.645C119.314 171.502 120.364 171.36 121.418 171.211C121.566 171.189 121.71 171.278 121.738 171.431C121.765 171.574 121.667 171.729 121.518 171.752C121.369 171.774 121.214 171.792 121.066 171.815C120.016 171.957 118.967 172.1 117.913 172.248C117.768 172.265 117.615 172.177 117.592 172.028L117.306 170.23C117.251 169.882 117.792 169.781 117.846 170.13Z" fill="white"/>
<path d="M117.597 172.022C117.619 172.171 117.772 172.258 117.917 172.242C118.967 172.1 120.016 171.957 121.07 171.809C121.219 171.786 121.373 171.768 121.522 171.746C121.671 171.723 121.769 171.568 121.742 171.425C121.714 171.272 121.57 171.183 121.422 171.205C120.372 171.348 119.323 171.49 118.269 171.639C118.212 171.644 118.151 171.655 118.094 171.661C118.009 171.149 117.929 170.631 117.85 170.124C117.796 169.775 117.255 169.876 117.31 170.224L117.597 172.022Z" fill="#323232"/>
</g>
<g clip-path="url(#clip1_441_864)">
<path d="M37.4661 136.478L47.1641 124.163L16.9516 63.727C16.9516 63.727 14.8451 59.2039 19.0704 57.0672C23.2957 54.9305 116.835 9.00802 116.835 9.00802C116.835 9.00802 120.892 7.00368 122.902 11.0579C124.912 15.112 153.123 72.4585 153.123 72.4585L168.544 72.7609L171.836 79.2753L39.9885 144.892L37.1928 139.831" fill="white"/>
<path d="M37.4661 136.478L47.1641 124.163L16.9516 63.727C16.9516 63.727 14.8451 59.2039 19.0704 57.0672C23.2957 54.9305 116.835 9.00803 116.835 9.00803C116.835 9.00803 120.892 7.00369 122.902 11.0579C124.912 15.112 153.123 72.4585 153.123 72.4585L168.544 72.7609L171.836 79.2753L39.9885 144.892L37.1928 139.831" stroke="#323232" stroke-width="2" stroke-miterlimit="10" stroke-linecap="round"/>
<path d="M116.448 16.1097L24.7978 61.2293C24.257 61.4956 24.0343 62.1499 24.3006 62.6908L51.7183 118.383C51.9845 118.924 52.6389 119.147 53.1798 118.881L144.83 73.761C145.37 73.4947 145.593 72.8403 145.327 72.2995L117.909 16.607C117.643 16.0661 116.988 15.8435 116.448 16.1097Z" fill="#2CB0E0" stroke="#232B65" stroke-width="2" stroke-miterlimit="10"/>
<path d="M43.2442 135.656L94.3189 110.512" stroke="#323232" stroke-width="2" stroke-miterlimit="10" stroke-linecap="round"/>
<path d="M98.2346 110.706L107.459 106.165C107.459 106.165 108.663 105.537 107.687 103.612C131.817 91.9453 164.273 75.9673 164.273 75.9673" stroke="#323232" stroke-width="2" stroke-miterlimit="10" stroke-linecap="round"/>
<path d="M99.4121 75.8393L99.5659 75.7636C100.169 75.4664 99.7126 74.5241 99.1033 74.8241C98.3517 75.1941 97.6001 75.5641 96.8485 75.9341C95.2371 76.7274 93.6287 77.5122 92.0145 78.2998C90.4942 79.0483 88.9711 79.791 87.448 80.5337L86.1555 81.1701C86.0758 81.2093 85.996 81.2486 85.9163 81.2878C85.5348 81.4756 85.069 81.5352 84.6723 81.4334C84.1877 81.3112 83.8827 81.051 83.5615 80.6715C83.3445 80.4176 83.1275 80.1636 82.9162 79.9069C82.0737 78.9139 81.2312 77.921 80.3887 76.9281C79.2193 75.5443 78.0443 74.1633 76.8749 72.7794C75.6548 71.3357 74.4291 69.8948 73.209 68.4511C72.2002 67.2641 71.1886 66.0714 70.1855 64.8817C69.6614 64.2625 69.1373 63.6434 68.6132 63.0242C68.5907 62.9929 68.5653 62.97 68.5428 62.9386C68.106 62.425 67.3212 63.1156 67.7608 63.6349C68.1327 64.0743 68.5047 64.5137 68.8766 64.9531C69.8037 66.0459 70.7307 67.1387 71.6606 68.2372C72.8695 69.6581 74.0754 71.0876 75.2843 72.5085C76.4988 73.9408 77.7132 75.3732 78.9305 76.8112C79.8632 77.9154 80.8015 79.0168 81.7342 80.121C82.1258 80.586 82.5175 81.0511 82.9148 81.5134C83.7773 82.5036 85.2003 82.7934 86.3789 82.2273C86.6237 82.1068 86.8628 81.989 87.1077 81.8685C88.4571 81.2041 89.8037 80.5483 91.156 79.8896C92.8528 79.0543 94.5467 78.2275 96.2463 77.3978C97.3054 76.8764 98.3587 76.3578 99.4206 75.8422L99.4121 75.8393Z" fill="#232B65"/>
<path d="M80.9471 74.7431C82.3421 74.0564 83.74 73.3753 85.1378 72.6942C87.1876 71.6851 89.2373 70.6901 91.2872 69.681C92.4772 69.0951 93.6728 68.5207 94.8601 67.9291C94.9284 67.8955 94.9967 67.8618 95.0622 67.8225C95.1534 67.7635 95.2877 67.6195 95.3794 67.4895C95.4481 67.385 95.5172 67.2236 95.5377 67.1215C95.599 66.858 95.5462 66.6646 95.5053 66.3947C95.3684 65.585 95.2287 64.7695 95.0918 63.9597C94.7631 62.0277 94.4316 60.0899 94.0973 58.1606C94.0479 57.8878 94.0263 57.7003 93.9 57.4725C93.7709 57.239 93.5025 57.0386 93.2107 56.9488C92.9359 56.8648 92.6348 56.8999 92.3701 57.0231C92.148 57.1324 91.926 57.2418 91.7039 57.3511L87.4051 59.4533C85.3552 60.4624 83.2941 61.463 81.2443 62.4721L75.7156 65.1798L73.438 66.301L80.6481 74.9116C80.6794 74.8891 80.7165 74.8638 80.7563 74.8441L80.967 74.7404L80.9471 74.7431Z" fill="white"/>
<path d="M92.4281 55.9052C92.2036 55.952 91.993 56.0416 91.7823 56.1453C90.6777 56.6891 89.5731 57.2329 88.4656 57.771C86.4728 58.7521 84.48 59.719 82.4871 60.7001C80.4828 61.6869 78.4786 62.6594 76.4744 63.6461C75.3185 64.2151 74.1683 64.7814 73.0096 65.3447L72.8445 65.426C72.241 65.7231 72.6978 66.6654 73.307 66.3655L73.4209 66.3094C74.1782 65.9366 74.9412 65.561 75.6985 65.1882L81.2272 62.4805C83.277 61.4714 85.3382 60.4708 87.388 59.4617L91.6868 57.3595C91.9089 57.2502 92.131 57.1409 92.353 57.0315C92.6206 56.8998 92.9245 56.8704 93.1936 56.9572C93.4854 57.047 93.7538 57.2474 93.8829 57.4809C94.0093 57.7088 94.0365 57.8934 94.0802 58.169C94.4089 60.1011 94.7404 62.0389 95.0747 63.9682C95.2116 64.7779 95.3513 65.5934 95.4883 66.4031C95.5349 66.6702 95.5819 66.8664 95.5207 67.13C95.5002 67.232 95.4311 67.3934 95.3623 67.498C95.2792 67.6308 95.1364 67.7719 95.0452 67.8309C94.9825 67.876 94.9113 67.9039 94.843 67.9375C93.653 68.5234 92.4629 69.1093 91.2701 69.6894C89.2203 70.6986 87.1705 71.6935 85.1207 72.7026C83.7257 73.3894 82.3279 74.0705 80.9301 74.7516L80.7194 74.8553C80.6795 74.8749 80.6397 74.8945 80.6111 74.9227C80.1747 75.272 80.6125 76.0751 81.1762 75.7976L84.2965 74.2615C86.3633 73.2581 88.433 72.2462 90.497 71.2372C92.0002 70.4972 93.5062 69.7628 95.0122 69.0285C95.1204 68.9752 95.2229 68.9248 95.3311 68.8715C96.023 68.5238 96.4897 67.8626 96.5796 67.0968C96.6155 66.7961 96.5634 66.5034 96.514 66.2165C96.4565 65.884 96.4017 65.5573 96.3442 65.2249C95.9798 63.1052 95.6183 60.9771 95.2539 58.8575C95.1442 58.2323 95.1063 57.48 94.7577 56.93C94.263 56.1549 93.329 55.7234 92.4138 55.9193L92.4281 55.9052Z" fill="#232B65"/>
<path d="M90.841 85.973C90.3336 84.9423 89.0815 84.5116 88.0507 85.019C87.02 85.5265 86.5893 86.7785 87.0967 87.8093C87.6042 88.8401 88.8562 89.2708 89.887 88.7633C90.9178 88.2559 91.3485 87.0038 90.841 85.973Z" fill="white"/>
<path d="M87.5936 84.0768C86.0449 84.8392 85.3975 86.7142 86.1571 88.2715C86.9166 89.8287 88.7945 90.4676 90.3517 89.708C91.9005 88.9456 92.5478 87.0706 91.7883 85.5133C91.0258 83.9646 89.1509 83.3172 87.5936 84.0768ZM87.0966 87.8089C86.5892 86.7783 87.0198 85.5265 88.0504 85.0191C89.081 84.5117 90.3329 84.9424 90.8403 85.973C91.3477 87.0036 90.917 88.2554 89.8864 88.7628C88.8558 89.2702 87.6039 88.8395 87.0966 87.8089Z" fill="#232B65"/>
<path d="M99.0057 79.654C97.9749 80.1615 97.5442 81.4136 98.0517 82.4443C98.5591 83.4751 99.8112 83.9058 100.842 83.3984C101.873 82.8909 102.303 81.6388 101.796 80.6081C101.289 79.5773 100.036 79.1466 99.0057 79.654Z" fill="white"/>
<path d="M98.5429 78.7147C96.9941 79.4772 96.3468 81.3522 97.1063 82.9094C97.8659 84.4667 99.7438 85.1055 101.301 84.3459C102.85 83.5835 103.497 81.7085 102.738 80.1513C101.975 78.6025 100.1 77.9552 98.5429 78.7147ZM100.838 83.4065C99.8079 83.9138 98.556 83.4832 98.0486 82.4526C97.5413 81.422 97.9719 80.1701 99.0025 79.6627C100.033 79.1554 101.285 79.586 101.792 80.6166C102.3 81.6472 101.869 82.8991 100.838 83.4065Z" fill="#232B65"/>
<path d="M112.203 54.4889C117.846 51.7251 120.184 44.9077 117.42 39.2651C114.656 33.6225 107.839 31.2842 102.196 34.0479C96.5537 36.8117 94.2154 43.6291 96.9792 49.2717C99.7429 54.9143 106.56 57.2526 112.203 54.4889ZM103.011 46.4082C104.308 46.8873 105.608 47.3722 106.911 47.8486C106.966 47.7013 107.029 47.557 107.084 47.4097C108.13 44.7794 109.177 42.149 110.223 39.5187C110.368 39.1506 110.766 38.926 111.157 39.059C111.523 39.1833 111.761 39.6247 111.617 39.9928C111.464 40.3722 111.317 40.7488 111.164 41.1282C110.118 43.7585 109.071 46.3888 108.025 49.0192C107.878 49.3816 107.479 49.6204 107.091 49.4789C105.576 48.9161 104.055 48.356 102.54 47.7932C101.657 47.4642 102.128 46.0792 103.017 46.4054L103.011 46.4082Z" fill="white"/>
<path d="M107.085 49.4817C107.467 49.6259 107.872 49.3843 108.019 49.0219C109.065 46.3916 110.112 43.7613 111.159 41.1309C111.311 40.7516 111.458 40.375 111.611 39.9956C111.755 39.6275 111.517 39.1861 111.151 39.0618C110.761 38.9288 110.368 39.1506 110.218 39.5215C109.171 42.1518 108.125 44.7822 107.078 47.4125C107.023 47.5597 106.96 47.7041 106.905 47.8514C105.608 47.3722 104.308 46.8873 103.006 46.411C102.116 46.0847 101.645 47.4698 102.529 47.7988C104.044 48.3616 105.564 48.9216 107.079 49.4845L107.085 49.4817Z" fill="#232B65"/>
</g>
<defs>
<clipPath id="clip0_441_864">
<rect width="34.0863" height="62.0051" fill="white" transform="translate(115.088 146) rotate(34.4641)"/>
</clipPath>
<clipPath id="clip1_441_864">
<rect width="148.827" height="89.3214" fill="white" transform="translate(0 65.7339) rotate(-26.2112)"/>
</clipPath>
</defs>
</svg>
