<svg width="103" height="132" viewBox="0 0 103 132" fill="none" xmlns="http://www.w3.org/2000/svg">
<g clip-path="url(#clip0_273_1999)">
<path d="M70.8186 105.847L68.6948 98.5112L64.4431 99.6463L66.5668 106.982H66.5711C66.6597 107.44 66.9891 107.844 67.5253 108.071C68.5301 108.496 69.877 108.134 70.5315 107.268C70.8819 106.806 70.9621 106.293 70.8101 105.847H70.8143H70.8186Z" fill="#FFD151"/>
<path d="M72.0388 105.511C71.3295 103.064 70.6244 100.617 69.915 98.1749C69.725 97.519 69.0242 97.1155 68.357 97.292L64.1053 98.4271C63.4509 98.6037 63.0329 99.3267 63.2187 99.9784C63.928 102.425 64.6331 104.872 65.3424 107.314C65.5324 107.974 66.2291 108.369 66.9004 108.197H66.9046C66.3853 107.903 65.866 107.609 65.3466 107.314C66.7991 111.077 72.6595 109.488 72.0303 105.511L71.1437 107.062H71.1479C72.7143 106.625 72.0515 104.191 70.4724 104.628H70.4681C69.7546 104.826 69.4759 105.502 69.5815 106.179C69.687 106.856 68.0404 107.302 67.7828 106.642C67.5253 105.982 66.9426 105.574 66.2249 105.759H66.2206C66.74 106.053 67.2593 106.347 67.7786 106.642C67.0693 104.195 66.3642 101.748 65.6549 99.3057L64.7682 100.857L69.0199 99.7219L67.4619 98.8391C68.1713 101.286 68.8764 103.732 69.5857 106.175C70.0375 107.73 72.4821 107.07 72.0303 105.502L72.0388 105.511Z" fill="#323232"/>
<path d="M69.4337 115.205C63.2566 111.653 53.2374 111.653 47.0562 115.205C40.8791 118.758 40.8791 124.517 47.0562 128.069C53.2332 131.622 63.2524 131.622 69.4337 128.069C75.6107 124.517 75.6107 118.758 69.4337 115.205Z" fill="#FFD151"/>
<path d="M70.0755 114.116C64.6584 111.132 57.9325 110.598 51.9581 111.993C47.1744 113.112 40.5878 116.475 41.2042 122.314C41.8164 128.124 48.8126 130.861 53.7947 131.639C59.7565 132.563 66.7779 131.849 71.6968 128.074C73.905 126.379 75.5981 123.844 75.2941 120.969C74.9647 117.879 72.6088 115.659 70.0755 114.125C68.6779 113.28 67.4028 115.457 68.7961 116.302C71.1901 117.753 73.6348 120.136 72.5032 123.172C71.4392 126.018 68.0657 127.628 65.3424 128.465C59.7649 130.176 52.8321 129.953 47.6979 126.989C45.4011 125.665 43.0029 123.294 43.8811 120.41C44.7593 117.526 47.9597 115.912 50.5774 115.012C56.3534 113.036 63.4129 113.339 68.7961 116.302C70.2232 117.089 71.5026 114.911 70.0755 114.125V114.116Z" fill="#323232"/>
<path d="M63.6873 115.172C60.6262 113.41 55.6652 113.41 52.6041 115.172C49.543 116.933 49.543 119.783 52.6041 121.545C55.6652 123.306 60.6262 123.306 63.6873 121.545C66.7484 119.783 66.7484 116.933 63.6873 115.172Z" fill="#FFD151"/>
<path d="M64.3291 114.083C60.6516 112.14 55.6272 111.964 51.9666 114.083C48.2468 116.235 48.2722 120.473 51.9666 122.634C55.661 124.794 60.7994 124.698 64.3291 122.634C68.1544 120.397 67.8968 116.365 64.3291 114.083C62.9527 113.204 61.6818 115.386 63.0498 116.26C66.4655 118.446 63.3369 120.763 60.6094 121.351C58.2323 121.868 55.3823 121.692 53.2417 120.456C49.6486 118.375 53.1023 115.924 55.6821 115.365C58.2618 114.806 60.8247 115.087 63.0498 116.26C64.4895 117.021 65.7689 114.844 64.3291 114.083Z" fill="#323232"/>
<path d="M56.3492 117.034C57.8776 118.594 58.95 117.997 59.9422 117.034V110.556H56.3492V117.034Z" fill="#FFD151"/>
<path d="M55.4541 117.925C56.7334 119.119 58.2956 119.699 59.8747 118.707C60.9091 118.06 61.2047 117.408 61.2047 116.29V110.556C61.2047 109.875 60.6262 109.294 59.938 109.294H56.3449C55.6609 109.294 55.0783 109.87 55.0783 110.556V117.034C55.0783 118.657 57.6116 118.661 57.6116 117.034V110.556L56.3449 111.817H59.938L58.6714 110.556V117.034L59.0429 116.143C58.3125 116.824 58.0211 116.87 57.2443 116.143C56.0578 115.033 54.2634 116.811 55.4541 117.925Z" fill="#323232"/>
<path d="M45.3631 12.1662L43.0704 3.64062L38.8187 4.77569L41.1113 13.3013H41.1156C41.2169 13.8016 41.5589 14.2514 42.1035 14.5121C43.1253 14.9997 44.4722 14.6382 45.1097 13.7091C45.4517 13.213 45.5193 12.6539 45.3546 12.1662H45.3588H45.3631Z" fill="#FFD151"/>
<path d="M46.5833 11.8297C45.8191 8.98783 45.0549 6.14595 44.2906 3.30408C44.1133 2.64406 43.3913 2.24889 42.7327 2.42125C41.314 2.79961 39.8996 3.17796 38.4809 3.55632C37.8181 3.73288 37.4212 4.45176 37.5943 5.10758C38.3585 7.94945 39.1227 10.7913 39.8869 13.6332C40.0642 14.2932 40.7862 14.6884 41.4449 14.516H41.4491C40.9298 14.2218 40.4105 13.9275 39.8911 13.6332C41.3731 17.5849 47.2715 15.9874 46.5748 11.8297L45.6882 13.381H45.6924C47.2673 12.9606 46.6002 10.5265 45.0169 10.9469H45.0126C44.3033 11.1361 44.0162 11.8297 44.126 12.4981C43.7629 13.5743 43.1633 13.7257 42.3273 12.9606C42.0867 12.3174 41.4787 11.8886 40.7694 12.0777H40.7651C41.2845 12.372 41.8038 12.6663 42.3231 12.9606C41.5589 10.1187 40.7947 7.27682 40.0305 4.43494L39.1438 5.9862C40.5625 5.60785 41.9769 5.22949 43.3955 4.85114L41.8376 3.96831C42.6018 6.81018 43.366 9.65205 44.1302 12.4939C44.5524 14.062 46.9971 13.3978 46.5748 11.8213L46.5833 11.8297Z" fill="#323232"/>
<path d="M84.2493 20.196C91.541 30.6765 87.3146 47.5974 79.5838 57.1068C79.1109 58.0484 77.2236 56.6359 75.805 56.6359C79.5838 45.8191 67.7744 43.9358 60.2167 40.1774C58.798 39.2357 60.6896 35.944 58.798 35.0024C54.0734 31.2398 47.9344 31.2398 42.2682 31.2398C34.073 30.811 32.9668 24.1057 33.5579 17.5728C23.4246 23.7904 15.9767 33.9177 13.3167 45.8402C15.4785 44.8354 17.9147 44.1502 18.6493 44.8774C22.9011 51.9317 28.0944 50.99 35.1792 52.8734C36.1249 52.8734 36.1249 55.2234 35.1792 56.1651C29.0401 63.2193 30.4546 71.2152 28.0944 79.2111C27.4737 81.0651 24.4084 82.5113 21.5753 82.7551C29.7579 93.2944 42.5806 100.08 56.9909 100.08C81.7033 100.08 101.738 80.1318 101.738 55.5261C101.738 41.1317 94.8807 28.3349 84.2451 20.1918L84.2493 20.196ZM73.9176 88.1488C66.8328 86.2696 61.6353 80.6237 55.4963 75.9194C54.5505 75.4486 53.1361 76.3903 52.6632 75.9194C49.8301 72.1569 54.5505 69.8069 55.9692 66.5152C57.3878 63.2235 63.5269 66.0444 66.3599 62.7527C66.8328 62.2818 66.3599 61.3401 66.3599 60.4026C66.3599 61.8152 68.2473 62.2818 68.2473 62.7527C70.1346 70.2777 73.4448 76.3903 76.7507 82.9737C77.6965 85.3237 75.805 88.1488 73.9176 88.1488Z" fill="#2CB0E0"/>
<path d="M83.1558 20.8307C87.1668 26.7877 87.4286 34.2665 85.8495 41.0811C85.0515 44.5284 83.8018 47.8705 82.1171 50.9856C81.3402 52.4276 80.4747 53.8233 79.5036 55.1476C79.3389 55.3746 78.9294 56.1439 78.6845 56.2112C78.7478 56.1944 78.1905 55.9295 78.1398 55.9211C77.3376 55.7824 76.6325 55.4502 75.8007 55.3704L77.0209 56.9679C78.2411 53.2642 78.0174 49.4722 75.2139 46.5547C72.4103 43.6371 68.5175 42.3297 64.954 40.8793C63.9829 40.4842 63.0118 40.089 62.0575 39.656C60.7993 39.0842 60.9387 38.6302 60.9598 37.3606C60.9978 34.9434 59.7734 33.9428 57.7467 32.7531C55.3485 31.3448 52.6379 30.6511 49.8977 30.3022C47.0182 29.9364 44.0626 30.2854 41.2084 29.865C34.9638 28.9443 34.3896 22.7267 34.8161 17.5684C34.8963 16.6141 33.6803 16.0003 32.9119 16.4796C22.386 23.042 14.8705 33.4383 12.0923 45.4995C11.8263 46.643 12.9579 47.366 13.9543 46.9246C14.8705 46.5168 16.9563 45.4112 17.9105 46.0796C18.6536 46.6009 19.2996 48.005 19.9624 48.6777C21.17 49.9052 22.6013 50.8553 24.1888 51.528C26.0086 52.2973 27.9381 52.6756 29.8719 53.0372C30.8599 53.2222 31.8521 53.3987 32.8316 53.6089C33.2919 53.7056 34.1827 53.7266 34.5501 54.0125C34.8034 54.2059 34.681 54.3782 34.4192 54.9878C33.9716 56.0262 32.9161 56.9469 32.3039 57.9138C31.6283 58.9816 31.0668 60.1124 30.5939 61.2811C29.6397 63.6396 29.1161 66.1199 28.7277 68.6212C28.3392 71.1226 28.0606 73.6996 27.537 76.2094C27.233 77.6639 27.0641 79.0849 25.8059 80.0308C24.6322 80.9136 23.0024 81.3214 21.5753 81.4895C20.4311 81.6241 19.9751 82.7465 20.6802 83.642C33.8576 100.37 57.3625 106.011 76.7001 96.9265C94.4417 88.5942 105.082 69.2476 102.645 49.88C101.125 37.7978 94.771 26.7793 85.1402 19.2962C83.8693 18.3083 82.0622 20.0824 83.35 21.0787C99.3478 33.5098 105.12 55.7445 96.2698 74.12C88.2477 90.7845 70.105 100.71 51.6668 98.4988C40.0853 97.1072 29.6355 90.9484 22.4704 81.8553L21.5753 84.0077C24.1086 83.7092 27.1993 82.8979 28.7361 80.6614C30.3659 78.2861 30.4461 74.3512 30.8346 71.5766C31.3117 68.2093 31.7803 64.762 33.1736 61.6259C33.9252 59.9317 34.9723 58.5317 36.0743 57.0477C36.6865 56.2196 37.096 55.4334 37.1383 54.374C37.2396 51.8096 35.2974 51.5448 33.2201 51.1118C30.729 50.5905 28.1366 50.3172 25.7342 49.4386C24.5688 49.014 23.4753 48.4128 22.5253 47.6141C21.284 46.5757 20.6676 45.0497 19.5402 43.9777C17.7669 42.2919 14.4567 43.9524 12.6707 44.7428L14.5327 46.1679C17.1674 34.7332 24.2015 24.8833 34.1912 18.653L32.287 17.5642C31.9577 21.5033 32.0674 26.0814 34.7865 29.247C38.1389 33.1525 43.3111 32.3033 47.909 32.627C50.9912 32.8456 54.0987 33.4636 56.7545 35.1031C58.1858 35.9859 58.4391 36.4568 58.3885 38.0333C58.3589 38.8951 58.3547 39.8241 58.8656 40.5682C59.7734 41.9009 62.1969 42.4516 63.6282 43.0402C65.5451 43.8263 67.4831 44.5788 69.3324 45.5205C71.1817 46.4622 73.1661 47.6435 74.3145 49.4512C75.6614 51.5742 75.3279 54.0125 74.5805 56.291C74.3019 57.136 75.0323 57.8129 75.8007 57.8885C77.2236 58.0273 78.7563 59.2632 80.1411 58.3215C81.4416 57.4345 82.4802 55.3451 83.2824 54.0377C85.4357 50.519 87.0528 46.6303 88.0746 42.6408C90.0421 34.9686 89.8944 26.3168 85.3429 19.5527C84.4393 18.2116 82.2438 19.4728 83.1558 20.8265V20.8307Z" fill="#323232"/>
<path d="M74.2554 86.9294C69.2395 85.5042 65.1988 82.2672 61.2638 78.9881C59.6889 77.6765 57.7678 75.4147 55.8341 74.7001C55.0572 74.4142 54.2507 74.8977 53.571 74.7001C52.963 74.5235 52.9799 73.2791 53.3303 72.4846C54.065 70.8072 55.6652 69.5881 56.6025 68.0242C57.0416 67.2969 57.1978 66.6075 58.0296 66.2459C58.8614 65.8844 59.976 65.9348 60.8796 65.8802C62.4924 65.7751 64.1771 65.6658 65.6337 64.8922C67.7448 63.774 67.8335 62.5633 67.6266 60.3982L65.1397 60.7345C65.2579 61.5375 65.6548 62.1513 66.2544 62.6978C66.5119 62.9332 66.8962 63.0803 67.1242 63.3368C66.6513 62.8071 67.2424 63.8959 67.3268 64.207C68.0784 66.948 69.0579 69.6133 70.1726 72.2281C71.1563 74.5403 72.2457 76.8063 73.3688 79.0554C74.019 80.3544 74.7325 81.6324 75.3363 82.9524C75.8936 84.18 75.7838 86.6771 73.9261 86.8831C72.3259 87.0639 72.3048 89.5863 73.9261 89.4055C76.2609 89.1449 77.9118 87.2657 78.2158 84.9703C78.5916 82.1369 76.2652 79.2235 75.0745 76.8105C73.4616 73.544 71.9459 70.2271 70.7721 66.7756C70.2823 65.3421 70.067 63.6184 69.4168 62.2564C68.9819 61.3483 67.7406 61.0751 67.5928 60.0619C67.3859 58.6704 64.9708 58.9815 65.106 60.3982C65.2495 61.9243 65.1566 62.5422 63.5353 63.0173C62.446 63.3368 61.2764 63.3158 60.1533 63.3998C58.5785 63.5176 56.8389 63.6479 55.6483 64.8082C54.9685 65.4724 54.6772 66.3973 54.1494 67.175C53.571 68.0284 52.8574 68.7893 52.2325 69.6049C51.177 70.9796 50.2861 72.535 50.5901 74.3259C50.8688 75.9739 51.8188 77.4495 53.6132 77.2561C55.0741 77.1005 55.6821 77.6344 56.8094 78.5509C57.9367 79.4674 58.9458 80.325 60.014 81.212C64.1222 84.6172 68.3739 87.8795 73.5925 89.3593C75.1632 89.8049 75.8345 87.3708 74.2681 86.9252L74.2554 86.9294Z" fill="#323232"/>
<path d="M35.1876 52.8735C28.1028 50.9944 22.9053 51.9318 18.6578 44.8776C17.9231 44.1461 15.487 44.8356 13.3252 45.8403C13.2534 46.1556 13.1816 46.4751 13.1183 46.7946C12.5525 49.6197 12.257 52.5414 12.257 55.5304C12.257 65.7839 15.7361 75.226 21.5838 82.7553C24.4169 82.5114 27.4822 81.0653 28.1028 79.2113C30.463 71.2154 29.0486 63.2195 35.1876 56.1652C36.1334 55.2235 36.1334 52.8735 35.1876 52.8735Z" fill="white"/>
<path d="M35.5212 51.6584C31.0837 50.5192 25.6793 50.5528 22.1411 47.2737C20.6127 45.857 19.9582 43.3262 17.5854 43.3136C16.2385 43.3052 14.8536 43.8307 13.6376 44.3351C12.4216 44.8396 12.1599 45.1843 11.8939 46.4581C11.6659 47.5512 12.7468 48.4004 13.7559 47.8833C14.6636 47.4166 15.5714 46.9458 16.4623 46.4371C17.8767 45.63 16.6016 43.4481 15.183 44.2595C14.1992 44.8228 12.4892 45.2726 11.9614 46.3068C11.3028 47.5974 11.3534 49.6616 11.2141 51.0993C10.8806 54.4457 10.9312 57.8214 11.3492 61.1594C12.0797 67.0113 13.929 72.6908 16.8127 77.8407C17.4672 79.0052 18.1723 80.1402 18.9238 81.2417C19.4727 82.0446 20.2327 83.6421 21.2502 83.97C23.184 84.5922 26.6631 82.7509 28.0141 81.4939C29.9015 79.7409 30.0915 76.6173 30.4672 74.2295C30.9317 71.2909 31.2146 68.3187 31.9323 65.4264C32.363 63.6902 32.9457 61.9918 33.7943 60.4069C34.5923 58.9229 35.8378 57.7416 36.6401 56.2954C37.4423 54.8492 37.5014 52.1797 35.5296 51.6626C33.9505 51.2506 33.2792 53.6805 34.8541 54.0967C34.9639 54.1261 33.3679 56.4131 33.1399 56.72C32.2997 57.8635 31.5819 59.0784 30.995 60.369C29.893 62.7905 29.2681 65.3633 28.8375 67.9824C28.4026 70.6141 28.1324 73.271 27.6088 75.89C27.3428 77.2227 27.1824 78.8538 26.1142 79.7913C24.9066 80.8507 23.1418 81.3215 21.5796 81.5023L22.6731 82.1287C18.9069 77.2017 16.1414 71.6272 14.6974 65.5903C13.9627 62.5257 13.5785 59.4021 13.5236 56.2534C13.4941 54.4036 13.5785 52.5497 13.777 50.7125C13.8276 50.2459 13.8952 48.413 14.1865 47.9127C14.6087 47.1896 15.7445 46.8575 16.458 46.4497C17.8725 45.6426 16.5974 43.4607 15.1787 44.2721C14.2921 44.7808 13.3843 45.2474 12.4723 45.7182L14.3343 47.1434C14.4821 46.4329 16.7874 45.5711 17.5854 45.8528C18.2103 46.0714 18.776 47.3368 19.2109 47.8581C20.4353 49.321 21.9427 50.5107 23.6737 51.3221C27.1613 52.9532 31.1554 53.1592 34.8499 54.1051C36.4289 54.5087 37.1045 52.0788 35.5254 51.671L35.5212 51.6584Z" fill="#323232"/>
<path d="M74.1414 62.1892C74.1414 61.7183 69.2648 60.1461 66.3599 60.3983C63.4551 60.6505 63.2735 61.9075 62.8006 62.3784C59.9676 65.6701 57.3836 63.2192 55.9649 66.5109C54.5463 69.8026 49.8259 72.1526 52.659 75.9151C53.1319 76.386 54.5463 75.4443 55.4921 75.9151C61.6311 80.6193 66.7062 88.384 73.791 90.2632C75.6783 90.2632 77.6923 85.3194 76.7507 82.9693C73.4447 76.386 76.0287 69.7101 74.1414 62.185V62.1892Z" fill="white"/>
<path d="M75.235 61.5504C74.399 59.7889 70.2866 59.4189 68.6653 59.2256C65.8322 58.8935 63.7886 59.3601 61.9351 61.4495C60.7065 62.8284 59.52 62.925 57.8776 63.3581C56.4125 63.7448 55.5807 64.5772 54.8756 65.872C53.5668 68.2809 50.6788 70.4123 50.5268 73.3214C50.4677 74.4607 50.8814 76.0162 51.7681 76.8065C52.9081 77.8239 54.3436 76.7939 55.5638 77.5716C57.0163 78.4965 58.2914 80.0141 59.5116 81.2165C60.9556 82.6416 62.37 84.092 63.8562 85.4709C66.3599 87.7914 69.1001 89.9691 72.3512 91.1336C75.1252 92.1299 76.7465 90.0448 77.6416 87.5981C79.1278 83.5328 76.6241 80.3715 76.2905 76.3231C75.8852 71.4633 76.4805 66.654 75.3616 61.8446C74.9943 60.2639 72.5497 60.9324 72.917 62.5173C74.4032 68.9115 72.5454 75.7723 74.9394 81.9858C75.4123 83.2091 75.8556 84.1466 75.6107 85.4877C75.463 86.3032 74.931 88.4431 74.0148 88.8382C73.0985 89.2334 71.1901 87.8881 70.4428 87.4383C69.1424 86.6606 67.9475 85.7315 66.8075 84.7352C64.5613 82.7761 62.5178 80.6027 60.3771 78.5343C58.8191 77.0293 56.8009 74.3808 54.4281 74.549C54.217 74.5658 53.3092 74.7045 53.4063 74.7718C52.9672 74.4943 53.0179 73.4265 53.115 73.0103C53.4021 71.766 54.5801 70.6855 55.3401 69.727C55.9987 68.8989 56.5138 68.0413 57.05 67.1416C57.9409 65.6576 58.8318 65.8384 60.3307 65.4096C61.6396 65.0354 62.7964 64.2955 63.6831 63.2656C64.27 62.5845 64.4937 62.0885 65.4437 61.811C66.8751 61.3906 68.5259 61.6807 69.9488 61.9834C70.6159 62.1263 71.2788 62.2987 71.929 62.5046C72.2794 62.6182 73.1788 63.1142 73.0352 62.8157C73.7319 64.2829 75.919 63.0049 75.2223 61.5419L75.235 61.5504Z" fill="#323232"/>
<path d="M56.9994 10.9766C48.403 10.9766 40.3767 13.3896 33.5621 17.5726C32.971 24.1055 34.0772 30.8108 42.2724 31.2396C47.9386 31.2396 54.0819 31.2396 58.8022 35.0022C60.6896 35.9439 58.8022 39.2356 60.2209 40.1772C67.7786 43.9398 79.588 45.819 75.8092 56.6357C77.2278 56.6357 79.1151 58.0483 79.588 57.1066C87.3188 47.5972 91.5452 30.6721 84.2535 20.1958C76.7085 14.4154 67.2593 10.9766 56.9994 10.9766Z" fill="white"/>
<path d="M56.9994 9.71519C48.9899 9.78245 41.0987 11.7835 34.1363 15.7647C32.5657 16.6643 32.2954 17.0679 32.2025 18.863C32.1308 20.2881 32.1519 21.7175 32.3377 23.1342C32.6543 25.5557 33.4692 27.9814 35.2383 29.747C37.286 31.7902 40.1191 32.446 42.9269 32.5006C46.7902 32.5805 50.7126 32.5174 54.3816 33.9216C55.9861 34.5353 58.3674 35.4644 58.4349 37.3604C58.4771 38.5207 58.19 39.702 58.9711 40.7025C59.6256 41.5349 60.888 41.8881 61.8296 42.2916C63.0793 42.8297 64.346 43.33 65.6 43.8471C68.2177 44.9275 71.0761 46.0668 73.145 48.0595C75.5432 50.3674 75.577 53.285 74.5848 56.2992C74.3061 57.1442 75.0365 57.8211 75.805 57.8967C77.6416 58.0733 79.1616 59.4816 80.652 57.7832C82.2227 55.9881 83.4893 53.8357 84.5871 51.7337C86.8502 47.3868 88.3702 42.6658 88.995 37.806C89.6199 32.9462 89.2864 27.8889 87.3906 23.336C86.4744 21.1331 85.4738 19.4768 83.5231 18.0979C81.2009 16.4541 78.7225 15.0332 76.1259 13.8561C70.0966 11.1277 63.6113 9.76564 56.9994 9.71098C55.3696 9.69837 55.3654 12.2207 56.9994 12.2334C63.6155 12.288 70.1388 13.7047 76.0921 16.6181C78.4776 17.7868 82.0665 19.338 83.6287 21.5409C85.1909 23.7438 85.9509 26.4091 86.3942 28.9483C87.3568 34.4681 86.4195 40.2569 84.566 45.4951C83.6667 48.03 82.5056 50.4725 81.0996 52.7679C80.7407 53.3565 79.3685 56.0554 78.6929 56.2109C78.7605 56.1941 77.6078 55.7359 77.6501 55.7485C77.0294 55.5551 76.4552 55.4332 75.8092 55.3744L77.0294 56.9719C78.2496 53.2682 78.0258 49.4762 75.2223 46.5587C72.4188 43.6411 68.5259 42.3337 64.9624 40.8833C63.9913 40.4881 63.0202 40.093 62.066 39.66C60.8078 39.0882 60.9471 38.6342 60.9682 37.3646C61.0062 34.9473 59.7818 33.9468 57.7552 32.7571C55.357 31.3487 52.6463 30.6551 49.9061 30.3062C47.0266 29.9404 44.0711 30.2894 41.2169 29.869C34.9723 28.9483 34.3981 22.7306 34.8245 17.5724L34.1954 18.6612C41.1282 14.4825 48.8928 12.3048 56.9952 12.2376C58.6249 12.225 58.6292 9.70258 56.9952 9.71519H56.9994Z" fill="#323232"/>
<path d="M57.0627 105.977C34.4361 105.977 13.6714 90.9188 7.54082 68.146C0.22801 40.9632 16.4834 12.927 43.784 5.64156L42.606 1.25684C12.8777 9.1897 -4.82594 39.723 3.13709 69.3189C6.99616 83.6586 16.2301 95.6398 29.1415 103.064C37.7421 108.008 47.2842 110.534 56.9572 110.534C61.8042 110.534 66.6851 109.9 71.4941 108.617L70.3161 104.233C65.8871 105.414 61.4411 105.977 57.0627 105.977Z" fill="#FFD151"/>
<path d="M57.0628 104.716C38.0334 104.607 20.3256 93.6348 12.0079 76.5457C3.71133 59.4944 6.14331 38.626 18.0203 23.8533C24.6871 15.5589 33.845 9.66496 44.1176 6.85672C44.7804 6.67595 45.1816 5.96548 45.0042 5.30546C44.6116 3.84248 44.2189 2.38371 43.8262 0.920735C43.6489 0.260714 42.9269 -0.138661 42.2682 0.0379048C21.4023 5.73006 5.12576 22.9663 1.00914 44.1752C-3.3777 66.8051 6.7893 90.4019 26.2958 102.816C39.8152 111.422 56.3408 113.843 71.8319 109.833C72.499 109.66 72.8917 108.933 72.7186 108.281C72.3259 106.818 71.9333 105.36 71.5406 103.897C71.3633 103.232 70.6413 102.846 69.9826 103.014C65.7393 104.111 61.4496 104.679 57.067 104.712C55.4372 104.725 55.433 107.247 57.067 107.235C61.6692 107.201 66.2038 106.596 70.6582 105.444L69.1002 104.561C69.4929 106.024 69.8855 107.483 70.2782 108.946L71.1648 107.394C46.3089 113.835 19.6374 102.089 8.18684 79.0975C-1.17795 60.3184 1.35114 37.1967 14.5792 20.8811C21.854 11.9057 31.7846 5.51566 42.9396 2.4762L41.3816 1.59337C41.7743 3.05634 42.1669 4.51512 42.5596 5.97809L43.4462 4.42683C24.4296 9.61872 9.52527 25.228 5.58598 44.5284C1.54536 64.3332 9.6266 85.0419 25.9326 97.0316C34.9174 103.636 45.9078 107.172 57.0585 107.239C58.6883 107.247 58.6925 104.725 57.0585 104.716H57.0628Z" fill="#323232"/>
<path d="M70.6539 94.9717C67.5506 94.7909 62.9273 96.0269 60.3307 97.7252C57.734 99.4236 58.1436 100.95 61.2469 101.126C64.3502 101.307 68.9735 100.071 71.5701 98.3727C74.1668 96.6743 73.7572 95.1482 70.6539 94.9717Z" fill="white"/>
<path d="M70.6539 93.7103C66.7906 93.5884 62.0829 94.6772 59.0176 97.1239C58.0169 97.9227 57.0163 99.1082 57.4807 100.47C57.9874 101.967 59.8789 102.307 61.2469 102.387C65.0426 102.614 69.7124 101.374 72.7565 99.0704C73.8079 98.2758 74.9014 97.0399 74.4201 95.6231C73.9007 94.0929 72.0261 93.8364 70.6539 93.7061C69.0326 93.5506 69.0452 96.073 70.6539 96.2285C72.5876 96.4177 70.8734 97.3678 69.9952 97.8302C69.117 98.2926 68.1544 98.6626 67.1875 98.9653C65.3044 99.5538 63.2313 100.02 61.2469 99.8649C59.4313 99.722 60.7444 98.919 61.6649 98.3977C62.5304 97.9059 63.4635 97.5317 64.4093 97.2206C66.4275 96.5564 68.5259 96.1612 70.6539 96.2285C72.2837 96.2789 72.2837 93.7566 70.6539 93.7061V93.7103Z" fill="#323232"/>
</g>
<defs>
<clipPath id="clip0_273_1999">
<rect width="103" height="132" fill="white"/>
</clipPath>
</defs>
</svg>
