<svg width="50" height="50" viewBox="0 0 50 50" fill="none" xmlns="http://www.w3.org/2000/svg">
<g clip-path="url(#clip0_477_885)">
<path d="M30.6355 22.0912L24.0902 20.646L17.3565 29.0134C15.7542 31.0032 14.6337 33.2966 14.0682 35.7472L14.0054 36.0194C12.8848 40.8472 16.215 45.7168 21.4093 46.8688L21.8282 46.9631C27.1168 48.136 32.2063 45.1199 33.264 40.2712C33.2745 40.2084 33.285 40.156 33.3059 40.0932C33.861 37.5693 33.8191 34.9408 33.1907 32.396L30.6459 22.0807L30.6355 22.0912Z" stroke="#323232" stroke-width="1.5" stroke-linecap="round" stroke-linejoin="round"/>
<path d="M31.6596 1.86041C33.4694 2.26097 34.608 4.04676 34.2074 5.85657L30.6159 22.0835L24.072 20.6352L27.6635 4.40821C28.064 2.59839 29.8498 1.45985 31.6596 1.86041Z" fill="#FFD151" stroke="#323232" stroke-width="1.5" stroke-linecap="round" stroke-linejoin="round"/>
<path d="M28.5096 26.7098L28.2373 21.5573L27.5461 21.4003L27.1377 21.306L26.4465 21.1489L24.0169 25.7044C21.3884 30.6369 19.4405 35.9254 18.2257 41.413C17.6707 43.9054 19.1263 46.3559 21.4721 46.8691L21.8806 46.9633C24.2264 47.4869 26.5722 45.8847 27.1272 43.3818C28.342 37.8942 28.8028 32.2811 28.5096 26.6993V26.7098Z" stroke="#323232" stroke-width="1.5" stroke-linecap="round" stroke-linejoin="round"/>
</g>
<defs>
<clipPath id="clip0_477_885">
<rect width="22.0758" height="47" fill="white" transform="translate(13 1)"/>
</clipPath>
</defs>
</svg>
