<svg width="50" height="50" viewBox="0 0 50 50" fill="none" xmlns="http://www.w3.org/2000/svg">
<g clip-path="url(#clip0_477_890)">
<path d="M27.6331 11.8847L27.9463 11.9505C32.409 12.8877 35.2598 17.267 34.3246 21.7199L30.3581 40.6079C29.6264 44.0919 26.2042 46.3263 22.7202 45.5946L18.8643 44.7849C15.3803 44.0532 13.1459 40.6309 13.8776 37.1469L17.8441 18.2589C18.7813 13.7963 23.1607 10.9455 27.6136 11.8806L27.6331 11.8847Z" fill="white" stroke="#323232" stroke-width="1.5" stroke-linecap="round" stroke-linejoin="round"/>
<path d="M34.41 16.94C34.3 18.27 32.38 20.27 26.41 19.01C20.44 17.75 19.5 15.09 19.89 13.87L20.53 11.89C20.87 10.83 21.93 10.46 23.08 10.1C24.7 9.58 26.58 9.39 28.36 9.76C30.14 10.13 31.83 11.33 32.93 12.09C33.92 12.77 34.7 13.62 34.61 14.74L34.42 16.94H34.41Z" fill="#FFD151" stroke="#323232" stroke-width="1.5" stroke-linecap="round" stroke-linejoin="round"/>
<path d="M32.65 12.51C33.98 11.98 32.08 9.46001 31.29 8.89001C30.5 8.32001 31.86 4.26001 29.63 3.79001C27.4 3.32001 27.01 7.59001 26.06 7.79001C25.11 7.99001 22.35 9.54001 23.35 10.56C23.35 10.56 23.46 12.03 27.66 12.91C31.86 13.79 32.65 12.52 32.65 12.52V12.51Z" fill="white" stroke="#323232" stroke-width="1.5" stroke-linecap="round" stroke-linejoin="round"/>
<path d="M20.69 21.8501C20.69 21.8501 21.69 22.3101 22.25 22.4301" stroke="#C9C6C8" stroke-width="1.5" stroke-linecap="round" stroke-linejoin="round"/>
<path d="M19.66 26.77C19.66 26.77 20.66 27.23 21.22 27.35" stroke="#C9C6C8" stroke-width="1.5" stroke-linecap="round" stroke-linejoin="round"/>
<path d="M18.62 31.7002C18.62 31.7002 19.62 32.1602 20.18 32.2802" stroke="#C9C6C8" stroke-width="1.5" stroke-linecap="round" stroke-linejoin="round"/>
<path d="M17.59 36.6201C17.59 36.6201 18.59 37.0801 19.15 37.2001" stroke="#C9C6C8" stroke-width="1.5" stroke-linecap="round" stroke-linejoin="round"/>
</g>
<defs>
<clipPath id="clip0_477_890">
<rect width="22.36" height="43.48" fill="white" transform="translate(13 3)"/>
</clipPath>
</defs>
</svg>
