<svg width="143" height="203" viewBox="0 0 143 203" fill="none" xmlns="http://www.w3.org/2000/svg">
<g clip-path="url(#clip0_273_2083)">
<path d="M113.645 64.6161C113.645 64.6161 113.658 64.5847 113.658 64.5658V64.5532C113.658 64.5721 113.652 64.5972 113.645 64.6161Z" fill="white"/>
<path d="M117.431 35.8754C117.913 38.4853 120.056 40.3521 121.222 42.6304C121.607 43.484 121.881 44.3928 122.095 45.314C124.873 40.432 129.251 44.1656 128.005 48.6423C128.011 48.6608 128.017 48.673 128.024 48.6792C128.017 48.6669 128.011 48.6546 128.005 48.6485C128.695 50.0732 129.507 51.4303 130.313 52.7936C131.064 52.6892 131.809 52.5848 132.56 52.4804C132.67 52.3085 132.78 52.1365 132.889 51.9646C132.902 51.9462 132.914 51.9277 132.926 51.9093C133.817 50.6197 134.898 49.5082 135.893 48.28C138.183 45.2219 141.101 38.1291 136.04 36.3114C135.808 36.2991 135.582 36.1763 135.448 35.8877C135.063 35.0894 135.1 34.1252 134.746 33.3146C134.111 31.8592 132.835 31.2452 131.418 30.7907C128.805 29.8634 125.929 29.5073 123.274 30.4653C121.033 31.2636 117.058 32.9708 117.431 35.8693V35.8754Z" fill="#323232"/>
<path d="M113.725 64.9283C113.731 64.9593 113.756 64.9841 113.756 64.9717C113.743 64.9469 113.725 64.9159 113.713 64.8911C113.713 64.9035 113.719 64.9159 113.725 64.9283Z" fill="white"/>
<path d="M113.676 64.8236C113.676 64.8236 113.701 64.8669 113.707 64.8855C113.707 64.8855 113.707 64.8731 113.707 64.8669C113.694 64.8484 113.694 64.8422 113.676 64.8174V64.8236Z" fill="white"/>
<path d="M113.645 64.627C113.645 64.627 113.652 64.671 113.658 64.6898C113.658 64.6835 113.658 64.6773 113.658 64.6647C113.658 64.6521 113.658 64.6395 113.645 64.627Z" fill="white"/>
<path d="M113.658 64.7071C113.658 64.7504 113.67 64.769 113.676 64.7752C113.676 64.7442 113.664 64.7195 113.658 64.6885C113.658 64.6947 113.658 64.7009 113.658 64.7071Z" fill="white"/>
<path d="M113.749 64.9771C113.749 64.9771 113.762 64.9902 113.769 64.9968C113.769 64.9968 113.769 64.9968 113.769 64.9902L113.756 64.9836L113.749 64.9771Z" fill="white"/>
<path d="M127.962 48.4889C127.962 48.4889 127.962 48.5141 127.969 48.5392C127.969 48.4952 127.975 48.4638 127.962 48.4889Z" fill="white"/>
<path d="M113.761 65.0015C113.761 65.0015 113.768 65.0015 113.775 65.0148C113.775 65.0148 113.775 65.0148 113.775 65.0081C113.775 65.0081 113.768 65.0081 113.761 65.0081V65.0015Z" fill="white"/>
<path d="M113.737 64.3581C113.737 64.3581 113.737 64.3515 113.744 64.3384C113.744 64.345 113.737 64.3515 113.731 64.3581H113.737Z" fill="white"/>
<path d="M113.745 65.0018C113.726 65.0018 113.707 64.9892 113.682 64.9829C113.707 64.9829 113.726 64.9955 113.751 65.0081L113.745 65.0018Z" fill="white"/>
<path d="M113.767 64.9956C113.767 64.9956 113.767 65.0023 113.774 65.0089C113.774 65.0089 113.774 65.0089 113.781 65.0089C113.781 65.0089 113.774 65.0023 113.767 64.9956Z" fill="white"/>
<path d="M132.859 54.7153C132.841 54.5188 132.828 54.3161 132.81 54.1196C131.913 54.2731 130.991 54.3653 130.093 54.4881C129.721 54.5372 129.373 54.4574 129.165 54.1073C128.249 52.4063 126.998 50.7974 126.375 48.9551C126.229 48.3595 126.564 47.7024 126.564 47.0883C126.625 45.9952 125.997 44.374 124.659 44.724C123.725 45.5838 123.042 46.9286 122.388 48.034C121.955 48.8262 120.953 48.3656 120.856 47.6226C120.862 47.6594 120.874 47.7454 120.856 47.6226C120.52 45.6636 120.178 43.5818 118.847 42.0527C117.712 40.493 116.625 38.7612 116.002 36.9189C115.245 39.0621 115.965 41.3527 115.569 43.5511C115.685 43.2993 115.917 43.109 116.277 43.109C117.339 43.109 117.339 44.767 116.277 44.767C115.788 44.767 115.526 44.4109 115.489 44.0301C115.074 46.0566 114.683 48.2366 114.97 50.3123C115.282 52.2528 117.016 57.4848 119.818 55.9803C120.264 55.7408 120.911 55.9312 121.027 56.4777C121.173 57.1287 121.314 57.7735 121.46 58.4244C125.136 56.8523 128.933 55.4952 132.871 54.7767C132.871 54.7583 132.871 54.746 132.865 54.7276L132.859 54.7153Z" fill="white"/>
<path d="M129.757 175.789C132.364 176.459 135.313 177.202 137.933 176.238C137.981 170.76 138.336 165.282 138.775 159.823C138.989 157.244 139.343 154.677 139.282 152.086C139.141 142.862 136.022 133.798 136.699 124.55C136.882 122.732 137.572 121.062 137.792 119.256C137.981 117.703 138.049 116.13 138.079 114.565C130.258 120.607 122.162 120.626 112.962 118.274C111.93 118.028 112.369 116.425 113.401 116.677C118.731 117.967 124.434 118.832 129.776 117.15C132.908 116.229 135.429 114.337 138.103 112.612C138.103 112.268 138.097 111.924 138.116 111.58C128.304 117.672 121.839 118.482 111.044 114.227C112.797 139.822 114.634 165.411 116.472 191C116.558 191.105 116.655 191.203 116.735 191.314C119.409 193.868 123.292 193.494 126.167 191.492C126.485 178.7 127.859 165.952 128.17 153.166C128.262 145.533 124.837 138.784 128.182 131.274C129.116 128.388 131.229 126.085 132.163 123.211C132.462 122.185 134.05 122.628 133.75 123.653C133.201 125.538 132.09 127.098 131.137 128.787C125.917 138.219 129.556 143.022 129.831 152.466C129.605 161.082 128.915 169.685 128.433 178.289C128.646 177.828 129.159 177.761 129.58 177.945C132.273 179.13 135.68 180.635 138.274 178.424C138.244 178.246 138.207 178.068 138.177 177.89C135.277 178.792 132.236 178.154 129.312 177.404C128.28 177.14 128.72 175.544 129.751 175.808L129.757 175.789Z" fill="#2CB0E0"/>
<path d="M113.804 65.0259C113.804 65.0259 113.842 65.0636 113.854 65.0825C113.835 65.0573 113.823 65.0447 113.81 65.0322L113.804 65.0259Z" fill="white"/>
<path d="M113.792 65.0137H113.78C113.78 65.0137 113.78 65.0137 113.792 65.02C113.799 65.02 113.805 65.02 113.811 65.0264C113.811 65.0264 113.805 65.02 113.799 65.0137H113.792Z" fill="white"/>
<path d="M113.676 64.4671C113.676 64.4671 113.67 64.4733 113.664 64.4733C113.658 64.4857 113.658 64.5229 113.658 64.5477C113.664 64.5167 113.67 64.4919 113.676 64.4609V64.4671Z" fill="white"/>
<path d="M94.0471 88.5214C94.7004 87.8213 95.3659 87.2073 96.1596 86.6546C94.7309 85.758 93.693 84.45 93.2351 82.8104C92.8627 81.8647 92.8871 80.8023 92.5208 79.875C91.8858 78.7881 90.6587 78.1801 89.7917 77.3081C89.3826 76.9397 88.9064 76.7063 88.4302 76.4361C88.2287 76.3194 87.8136 75.9141 87.5999 75.9755C86.7207 76.608 88.0272 77.5292 88.4485 78.0327C88.9858 78.7635 89.7062 79.4206 90.0542 80.2557C90.2557 81.0356 89.4925 81.4962 88.8271 81.269C88.5218 81.1646 88.2593 80.9742 87.9784 80.833C86.4887 80.3663 85.1089 79.5741 83.7352 78.8188C83.552 78.7819 83.3872 78.6898 83.2651 78.5486C82.4775 78.0941 81.696 77.6336 80.9084 77.1976C80.2917 76.8537 79.4553 76.2457 78.8448 76.2887C78.2648 76.3317 78.2709 76.4975 78.625 76.9888C79.9437 78.6038 81.8303 79.6724 83.2773 81.1769C85.0845 82.8963 86.7879 84.7263 88.6988 86.3352C90.1153 87.5266 91.7027 88.3863 93.229 89.3934C93.4977 89.0864 93.7785 88.7916 94.041 88.5091L94.0471 88.5214Z" fill="white"/>
<path d="M79.6629 73.4943C79.6629 73.4943 79.6629 73.4943 79.669 73.4943C79.6751 73.4943 79.6812 73.4943 79.6873 73.4882C79.73 73.4391 79.6873 73.4882 79.6629 73.5005V73.4943Z" fill="white"/>
<path d="M79.5591 73.6541C79.5591 73.6541 79.5408 73.7094 79.5408 73.7339C79.5408 73.7339 79.5408 73.7523 79.5469 73.7585C79.5469 73.7278 79.5469 73.6909 79.553 73.6479L79.5591 73.6541Z" fill="white"/>
<path d="M87.8393 80.7476C87.7265 80.6596 87.833 80.7476 87.8393 80.7476V80.7476Z" fill="white"/>
<path d="M79.6323 73.5191C79.6079 73.5621 79.5835 73.6112 79.5652 73.642C79.5835 73.7279 79.5652 73.7648 79.553 73.7648C79.553 73.7648 79.553 73.7648 79.553 73.7771C79.5957 73.9674 79.6507 74.1517 79.7239 74.3359C79.8033 74.514 79.8888 74.6859 79.9743 74.8579C80.5543 75.0912 81.0915 75.4228 81.6349 75.7176C81.1892 75.0114 80.8351 74.2131 80.2307 73.6235C80.1635 73.5744 80.1147 73.5498 80.0231 73.5069C79.9865 73.4946 79.9498 73.4823 79.9498 73.4823C79.9254 73.4823 79.901 73.47 79.8766 73.4639C79.901 73.47 79.8399 73.4639 79.7789 73.4639C79.7545 73.4639 79.7117 73.47 79.6812 73.4762C79.614 73.5437 79.6507 73.5069 79.6812 73.4762H79.669C79.669 73.4762 79.669 73.4762 79.6568 73.4762C79.6446 73.4823 79.6384 73.4946 79.6323 73.4946V73.5191Z" fill="white"/>
<path d="M80.2253 73.6175C80.1814 73.5798 80.2002 73.5986 80.2253 73.6175V73.6175Z" fill="white"/>
<path d="M113.798 65.014C113.798 65.014 113.829 65.0263 113.835 65.0324C114.415 65.2167 115.007 65.3763 115.599 65.536C115.849 65.3149 116.106 65.0938 116.368 64.8851C115.63 64.6701 114.879 64.4798 114.115 64.3569C114.048 64.3569 113.993 64.3569 113.914 64.3631C113.902 64.3692 113.871 64.3754 113.829 64.3631C113.804 64.3692 113.78 64.3754 113.755 64.3815C113.755 64.3815 113.749 64.3815 113.743 64.3876C113.731 64.4061 113.725 64.4183 113.713 64.4306C113.7 64.449 113.694 64.4613 113.682 64.4675C113.682 64.4798 113.682 64.5105 113.664 64.5657C113.664 64.5964 113.664 64.6333 113.664 64.664C113.688 64.7438 113.688 64.7745 113.682 64.7745C113.682 64.8114 113.7 64.8421 113.713 64.8728C113.743 64.928 113.761 64.9649 113.761 64.971C113.761 64.971 113.761 64.9833 113.767 64.9833C113.78 64.9833 113.786 64.9956 113.804 65.0079L113.798 65.014Z" fill="white"/>
<path d="M123.628 201.262C122.327 201.151 121.149 200.672 119.983 200.15C120.935 201.139 122.425 201.575 123.762 201.268C123.719 201.268 123.67 201.268 123.628 201.268V201.262Z" fill="white"/>
<path d="M113.72 64.3945C113.72 64.3945 113.72 64.3879 113.72 64.3813H113.713C113.713 64.3879 113.707 64.3945 113.7 64.4011C113.7 64.4011 113.713 64.4011 113.713 64.3945H113.72Z" fill="white"/>
<path d="M113.804 65.02C113.804 65.02 113.804 65.0262 113.81 65.0324C113.829 65.0386 113.841 65.0386 113.829 65.0324C113.817 65.0324 113.81 65.0262 113.798 65.02H113.804Z" fill="white"/>
<path d="M113.707 64.4058C113.707 64.4058 113.7 64.4121 113.694 64.4183C113.694 64.4183 113.694 64.4246 113.694 64.4309C113.694 64.4309 113.694 64.4309 113.7 64.4246C113.7 64.4246 113.7 64.4121 113.713 64.4121L113.707 64.4058Z" fill="white"/>
<path d="M113.744 64.3813C113.744 64.3813 113.744 64.388 113.731 64.3947C113.731 64.3947 113.737 64.3947 113.744 64.388V64.3813Z" fill="white"/>
<path d="M137.823 187.464C135.899 188.52 133.531 188.145 131.662 187.138C132.242 187.74 132.853 188.231 133.561 188.655C135.008 189.349 137.865 189.392 138.03 187.329C137.963 187.372 137.896 187.427 137.823 187.464Z" fill="white"/>
<path d="M113.841 64.357C113.841 64.357 113.835 64.357 113.829 64.357C113.853 64.357 113.877 64.357 113.908 64.357C113.926 64.3447 113.908 64.3324 113.841 64.357Z" fill="white"/>
<path d="M138.574 180.192C135.545 182.274 131.778 180.708 128.756 179.363C128.573 179.284 128.457 179.124 128.402 178.934C128.329 180.168 128.262 181.396 128.194 182.63C128.463 182.501 128.787 182.526 129.043 182.833C129.519 183.41 130.075 183.932 130.643 184.411C135.313 188.298 139.563 186.597 138.58 180.192H138.574Z" fill="white"/>
<path d="M113.677 64.4683C113.677 64.4619 113.677 64.4492 113.677 64.4429C113.677 64.4556 113.664 64.4619 113.658 64.4746C113.658 64.4619 113.664 64.4619 113.67 64.4683H113.677Z" fill="white"/>
<path d="M104.133 191.289C104.078 191.326 104.084 191.307 104.133 191.289V191.289Z" fill="white"/>
<path d="M101.569 90.3144C100.604 89.3442 99.6336 88.3678 98.6689 87.3975C98.5163 87.4036 98.3698 87.4221 98.2232 87.4589C98.1316 87.5142 98.0279 87.5449 97.918 87.5572C96.4282 88.2081 95.3903 89.4977 94.3585 90.6767C93.8762 91.2601 93.7663 91.7207 94.2364 92.3593C96.068 94.8526 97.9119 97.3335 99.7129 99.8513C100.916 101.54 102.1 103.419 103.92 104.5C108.804 107.134 112.266 101.78 114.213 97.9906C116.063 94.5701 118.469 91.5119 120.331 88.0976C122.474 84.1367 127.041 79.8073 122.242 75.8403C120.465 74.1577 118.414 72.7637 116.448 71.3145C115.599 70.6881 116.423 69.2511 117.278 69.8836C118.768 70.9828 120.264 72.0636 121.711 73.2181C129.941 79.3529 124.415 83.8419 120.825 90.5662C119.171 93.305 117.272 95.8719 115.721 98.6783C114.384 101.098 112.986 103.646 110.745 105.341C111.228 107.705 111.142 110.113 111.209 112.514C121.466 116.714 128.14 116.1 137.462 110.033C137.212 107.276 137.108 104.494 137.169 101.73C137.053 91.0943 146.798 68.2931 136.956 60.9977C136.29 60.8012 135.551 60.4942 134.904 60.1687C130.661 61.0039 126.302 61.7653 122.498 63.9331C121.576 64.4612 120.746 63.0304 121.668 62.5023C125.478 60.3284 129.788 59.4932 134.037 58.6519C133.872 57.872 133.708 57.0921 133.543 56.3184C129.147 57.086 124.904 58.6519 120.856 60.5187C120.905 61.1881 120.954 61.8575 120.996 62.5268C121.027 62.9321 121.094 63.3067 120.795 63.6383C120.465 64.0006 119.946 64.2586 119.555 64.5472C116.979 66.2912 114.634 68.4712 112.681 70.903C111.502 72.4812 110.642 74.3972 110.507 76.3746C110.3 77.9098 109.707 79.402 109.146 80.8329C107.693 84.4928 105.989 88.0484 104.182 91.5426C103.584 92.6848 102.973 93.8209 102.332 94.9385C101.801 95.8597 100.378 95.0245 100.91 94.1034C101.661 92.8015 102.363 91.4689 103.053 90.1302L102.924 89.9767C102.729 90.4741 102.064 90.8057 101.575 90.3144H101.569Z" fill="white"/>
<path d="M118.646 197.792C120.984 198.726 123.634 200.507 126.167 199.143C126.271 198.984 126.43 198.855 126.613 198.781C127.468 197.885 127.248 196.398 127.144 195.262C127.065 194.538 126.906 193.819 126.699 193.119C123.237 195.33 118.701 195.404 115.611 192.499C115.129 192.045 114.787 191.541 114.799 190.859C112.809 191.173 110.782 191.013 108.792 191.332C107.332 191.566 105.556 191.111 104.139 191.277C103.834 191.486 103.639 191.83 103.565 192.192C103.181 195.017 106.838 195.999 108.908 196.718C111.966 197.578 115.245 196.466 118.255 197.633C118.395 197.651 118.53 197.7 118.646 197.78V197.792Z" fill="white"/>
<path d="M113.689 64.4243C113.689 64.4243 113.676 64.4369 113.67 64.4495C113.67 64.4495 113.682 64.4495 113.682 64.4432C113.682 64.4432 113.682 64.4369 113.682 64.4306L113.689 64.4243Z" fill="white"/>
<path d="M113.804 65.02C113.804 65.02 113.822 65.0261 113.835 65.0322C113.835 65.0322 113.816 65.02 113.798 65.0138C113.786 65.0015 113.774 64.9954 113.761 64.9893C113.761 64.9893 113.761 64.9893 113.761 64.9954C113.761 64.9954 113.767 65.0015 113.774 65.0077C113.774 65.0077 113.774 65.0077 113.767 65.0077C113.767 65.0077 113.767 65.0077 113.767 65.0138H113.78C113.78 65.0138 113.786 65.02 113.792 65.0261C113.792 65.0261 113.792 65.02 113.786 65.0138L113.804 65.02Z" fill="#323232"/>
<path d="M113.658 64.6636C113.658 64.6636 113.658 64.6759 113.658 64.6881C113.658 64.7188 113.67 64.7434 113.676 64.7741C113.682 64.7741 113.682 64.7434 113.658 64.6636Z" fill="#323232"/>
<path d="M113.908 64.3628C113.908 64.3628 113.853 64.3628 113.829 64.3628C113.829 64.3628 113.829 64.3628 113.822 64.3628C113.865 64.3751 113.896 64.3689 113.908 64.3628Z" fill="#323232"/>
<path d="M113.713 64.8848C113.713 64.8848 113.737 64.9406 113.756 64.9653C113.756 64.9591 113.744 64.922 113.706 64.8662C113.706 64.8662 113.706 64.8786 113.706 64.8848H113.713Z" fill="#323232"/>
<path d="M113.677 64.4673C113.677 64.4673 113.67 64.4673 113.664 64.4739C113.664 64.4739 113.67 64.4739 113.677 64.4673Z" fill="#323232"/>
<path d="M113.658 64.5477V64.5601C113.676 64.5043 113.682 64.4733 113.676 64.4609C113.676 64.4919 113.664 64.5167 113.658 64.5477Z" fill="#323232"/>
<path d="M113.676 64.4619C113.676 64.4619 113.694 64.4433 113.707 64.4247C113.719 64.4185 113.725 64.3999 113.738 64.3813C113.738 64.3813 113.732 64.3813 113.725 64.3875C113.725 64.3875 113.713 64.3875 113.713 64.3937C113.713 64.3937 113.707 64.4061 113.701 64.4061C113.701 64.4061 113.701 64.4061 113.694 64.4123C113.694 64.4123 113.694 64.4185 113.694 64.4247C113.694 64.4309 113.694 64.4433 113.694 64.4495L113.676 64.4619Z" fill="#323232"/>
<path d="M102.332 94.9382C102.973 93.8206 103.59 92.6845 104.182 91.5423L103.046 90.1299C102.363 91.4686 101.654 92.8012 100.903 94.1031C100.372 95.0303 101.795 95.8655 102.326 94.9382H102.332Z" fill="#323232"/>
<path d="M140.503 90.2037C141.315 86.1753 142.072 82.1284 142.585 78.0508C143.043 74.4277 143.269 70.6756 142.469 67.0832C141.663 63.4539 139.489 59.7202 135.716 58.7254C135.521 57.5402 135.222 56.3611 134.99 55.1821C134.941 54.961 134.739 54.7338 134.507 54.6294C134.446 53.9908 134.41 53.346 134.416 52.7012C135.051 51.5774 136.003 50.7422 136.815 49.7658C138.219 48.1139 139.178 46.1427 139.837 44.0793C141.058 40.5729 140.747 36.3725 136.864 34.868C136.663 34.1433 136.571 33.3819 136.278 32.6879C135.655 31.294 134.568 30.2868 133.189 29.6973C128.878 27.7322 123.725 27.7629 119.653 30.293C118.285 31.0913 116.838 32.123 116.155 33.6091C114.915 34.782 114.17 36.5936 114.018 38.2577C113.902 39.5105 114.073 40.7755 114.048 42.0283C113.804 44.982 112.833 47.9542 113.413 50.9387C114.042 53.9416 115.929 58.4245 119.635 57.7858C119.732 58.2341 119.836 58.6885 119.934 59.1368C119.555 59.2719 119.146 59.5606 119.177 60.015C119.238 60.8931 119.299 61.7774 119.366 62.6556C118.914 62.981 118.462 63.3065 118.011 63.6381C116.49 63.2635 114.909 62.5266 113.328 62.7907C111.997 63.1591 111.667 64.8663 112.406 65.9225C112.803 66.5428 113.523 66.684 114.183 66.8744C113.255 67.7894 112.345 68.7351 111.521 69.7422C110.318 71.3634 109.329 73.2486 108.969 75.2506C108.81 76.663 108.468 77.9587 107.98 79.2974C106.618 83.025 104.866 86.6174 103.053 90.1423L104.188 91.5547C105.995 88.0544 107.699 84.5049 109.152 80.8449C109.714 79.4141 110.3 77.9219 110.513 76.3866C110.642 74.4093 111.502 72.4933 112.687 70.9151C114.317 68.9316 116.197 66.9911 118.273 65.4927C119.085 64.8479 120.038 64.332 120.801 63.6504C121.106 63.3188 121.033 62.9442 121.002 62.5389C120.953 61.8695 120.905 61.2002 120.862 60.5308C124.904 58.664 129.153 57.0981 133.549 56.3304C133.714 57.1103 133.879 57.8841 134.043 58.664C129.794 59.5053 125.484 60.3405 121.674 62.5143C120.752 63.0425 121.582 64.4733 122.504 63.9452C126.308 61.7713 130.667 61.0159 134.91 60.1808C135.551 60.5063 136.29 60.8133 136.962 61.0098C146.798 68.2868 137.059 91.1003 137.175 101.742C137.114 104.506 137.218 107.288 137.469 110.045C128.14 116.112 121.466 116.72 111.215 112.526C111.148 110.125 111.234 107.718 110.751 105.353C112.992 103.658 114.39 101.11 115.727 98.6904C117.284 95.884 119.177 93.3171 120.831 90.5783C124.415 83.8601 129.947 79.365 121.717 73.2302C120.27 72.0757 118.774 70.9949 117.284 69.8957C116.429 69.2632 115.605 70.7002 116.454 71.3265C118.42 72.7758 120.465 74.1698 122.248 75.8524C125.435 78.5974 124.598 81.3055 122.59 84.4619C121.039 86.7709 119.775 89.2396 118.243 91.5608C116.838 93.6795 115.446 95.7796 114.213 98.0026C112.272 101.785 108.804 107.146 103.92 104.512C102.1 103.431 100.922 101.552 99.7129 99.8633C97.9118 97.3456 96.068 94.8646 94.2364 92.3714C93.7663 91.7328 93.8762 91.2661 94.3585 90.6888C95.3903 89.5098 96.4282 88.2202 97.9179 87.5692C98.0278 87.557 98.1316 87.5263 98.2232 87.471C98.3697 87.4341 98.5163 87.4157 98.6689 87.4096C99.6335 88.3798 100.604 89.3562 101.569 90.3265C102.057 90.8178 102.723 90.4923 102.918 89.9888C103.022 89.7247 102.998 89.4115 102.735 89.1536C102.198 88.6132 101.661 88.0667 101.117 87.5263C100.22 86.6235 99.3588 85.2173 97.8691 85.8007C96.4771 85.033 95.2377 83.9891 94.8164 82.3863C94.5172 81.4652 94.4989 80.4396 94.1631 79.5431C93.8884 78.8 93.3328 78.1921 92.7528 77.6762C91.4279 76.4972 90.0664 75.4041 88.5156 74.5505C87.0748 73.7522 85.5912 75.1953 85.6522 76.6691C85.6889 77.4674 86.2383 77.9894 86.7207 78.5667C85.9514 78.1982 85.2004 77.7929 84.4617 77.3631C83.9183 76.3928 83.3749 75.4225 82.8071 74.4645C82.3248 73.6478 81.8425 72.7328 81.0427 72.1924C79.2294 71.0256 77.2268 72.8126 78.1243 74.7716C77.5382 74.9435 77.0131 75.2997 76.8117 75.9077C76.1401 77.928 79.034 79.7027 80.2917 80.7406C82.4408 82.5091 84.3029 84.6093 86.3482 86.4884C88.1432 88.2202 90.2252 89.5835 92.362 90.8301C91.9286 92.2118 92.9237 93.3478 93.7357 94.4348C94.8774 95.9516 96.0008 97.4868 97.0998 99.0282C99.9876 103.296 103.303 108.663 109.213 106.238C109.292 106.741 109.372 107.245 109.451 107.748C109.457 109.48 109.536 111.23 109.561 112.974C109.414 113.109 109.323 113.306 109.341 113.576C111.02 138.797 112.955 163.999 114.641 189.22C112.65 189.557 110.397 189.306 108.444 189.736C106.875 189.815 105.171 189.392 103.602 189.717C101.331 190.7 101.502 194.01 103.053 195.582C104.042 196.669 105.598 197.295 106.936 197.811C108.358 198.364 109.891 198.836 111.435 198.8C113.511 198.75 115.501 198.554 117.486 199.15C118.664 202.877 122.974 203.878 126.235 202.263C127.187 201.852 128.017 200.881 127.883 199.856C128.854 198.812 128.921 197.264 128.836 195.907C128.762 194.599 128.506 193.31 128.085 192.069C128.024 191.897 127.926 191.768 127.81 191.676C127.871 189.207 127.969 186.739 128.103 184.276C128.353 184.565 128.622 184.847 128.909 185.124C128.756 186.997 130.539 188.403 131.827 189.496C135.173 192.069 140.851 190.7 139.508 185.689C140.863 182.938 140.289 179.615 139.575 176.766C139.532 169.004 140.436 161.279 140.93 153.553C141.083 144.281 138.03 135.223 138.25 125.944C138.213 123.96 138.903 122.118 139.306 120.208C139.74 117.383 139.746 114.497 139.746 111.648C139.746 111.163 139.404 110.899 139.031 110.856C139.105 110.739 139.147 110.604 139.135 110.456C138.891 107.92 138.781 105.366 138.793 102.817C138.683 98.543 139.66 94.3734 140.497 90.2098L140.503 90.2037ZM113.743 64.3382C113.743 64.3382 113.743 64.3505 113.737 64.3566C113.737 64.3505 113.749 64.3443 113.749 64.3382H113.743ZM113.676 64.9768C113.676 64.9768 113.719 64.9891 113.737 64.9953C113.713 64.9891 113.694 64.9768 113.67 64.9707L113.676 64.9768ZM115.599 65.5357C115.007 65.376 114.415 65.2225 113.835 65.0321C113.847 65.0382 113.835 65.0382 113.816 65.0321C113.829 65.0444 113.841 65.0567 113.859 65.0812C113.847 65.069 113.829 65.0444 113.81 65.026C113.81 65.026 113.804 65.026 113.792 65.0198C113.792 65.0198 113.792 65.0198 113.78 65.0137C113.78 65.0137 113.774 65.0075 113.767 65.0014C113.767 65.0014 113.774 65.0014 113.78 65.0014C113.78 65.0014 113.78 64.9953 113.774 64.9891C113.767 64.9891 113.761 64.9768 113.755 64.9707C113.755 64.9707 113.761 64.9707 113.767 64.9768C113.767 64.9768 113.767 64.9646 113.761 64.9646C113.749 64.983 113.725 64.9093 113.719 64.8847C113.706 64.8602 113.7 64.8417 113.688 64.8233C113.7 64.8417 113.706 64.854 113.719 64.8724C113.706 64.8417 113.694 64.8049 113.688 64.7742C113.676 64.7742 113.67 64.7189 113.67 64.6882C113.67 64.6698 113.67 64.6452 113.658 64.6268C113.664 64.6452 113.664 64.6514 113.67 64.6637C113.67 64.6329 113.67 64.5961 113.67 64.5654C113.67 64.5838 113.664 64.59 113.658 64.6145C113.664 64.5961 113.67 64.5715 113.67 64.5531C113.67 64.5286 113.67 64.4917 113.676 64.4794C113.676 64.4671 113.688 64.461 113.694 64.4487L113.682 64.4549C113.682 64.4487 113.694 64.4364 113.7 64.4303C113.7 64.4303 113.7 64.4242 113.7 64.418C113.7 64.418 113.706 64.418 113.713 64.4057C113.713 64.3996 113.719 64.3935 113.725 64.3873H113.731C113.731 64.3873 113.731 64.3935 113.731 64.3996C113.731 64.3996 113.737 64.3935 113.743 64.3873C113.743 64.3873 113.749 64.3873 113.755 64.3812C113.78 64.3812 113.804 64.3689 113.829 64.3627C113.822 64.3627 113.816 64.3627 113.81 64.3627C113.816 64.3627 113.829 64.3627 113.835 64.3627C113.883 64.3505 113.945 64.3443 113.914 64.3627C113.993 64.3566 114.042 64.3566 114.115 64.3566C114.879 64.4794 115.63 64.6637 116.368 64.8847C116.106 65.0935 115.856 65.3146 115.599 65.5357ZM126.57 56.4471C124.843 57.0305 123.127 57.6814 121.454 58.4183C121.308 57.7674 121.167 57.1226 121.021 56.4717C120.899 55.9313 120.257 55.7348 119.812 55.9743C117.009 57.4788 115.275 52.2406 114.964 50.3062C114.677 48.2306 115.068 46.0567 115.483 44.0241C115.52 44.4048 115.782 44.761 116.271 44.761C117.333 44.761 117.333 43.1029 116.271 43.1029C115.91 43.1029 115.678 43.2933 115.562 43.5451C115.953 41.3466 115.239 39.0561 115.996 36.9129C116.619 38.7552 117.699 40.493 118.841 42.0528C120.178 43.5819 120.52 45.6637 120.85 47.6226C120.856 47.6656 120.868 47.7516 120.85 47.6226C120.947 48.3718 121.949 48.8262 122.382 48.0341C123.042 46.9287 123.719 45.5839 124.653 44.7241C125.99 44.3741 126.613 45.9891 126.558 47.0884C126.558 47.7025 126.222 48.3595 126.369 48.9552C126.992 50.7975 128.237 52.4064 129.159 54.1074C129.367 54.4575 129.715 54.5373 130.087 54.4882C130.991 54.3653 131.907 54.2732 132.804 54.1197C132.822 54.3346 132.828 54.5557 132.859 54.7645C130.716 55.133 128.622 55.7471 126.564 56.4471H126.57ZM127.962 48.4885C127.962 48.4885 127.975 48.4885 127.969 48.5376C127.962 48.5131 127.956 48.4946 127.962 48.4885ZM132.926 51.9151C132.926 51.9151 132.902 51.952 132.889 51.9704C132.773 52.1362 132.664 52.3081 132.56 52.4862C131.809 52.5906 131.064 52.695 130.313 52.7994C129.507 51.4361 128.695 50.079 128.005 48.6543C128.005 48.6604 128.011 48.6666 128.024 48.685C128.024 48.685 128.017 48.6666 128.005 48.6482C129.257 44.1653 124.873 40.4439 122.095 45.3198C121.882 44.3987 121.607 43.4959 121.222 42.6362C119.702 39.664 114.94 35.5742 119.067 32.6572C122.669 29.8693 127.169 29.1631 131.418 30.8027C132.835 31.2571 134.111 31.8712 134.746 33.3266C135.1 34.1372 135.063 35.1013 135.448 35.8996C135.588 36.1883 135.808 36.3111 136.04 36.3234C141.089 38.1165 138.177 45.2522 135.893 48.292C134.898 49.5263 133.818 50.6317 132.926 51.9213V51.9151ZM80.2246 73.6171C80.2246 73.6171 80.2001 73.5987 80.2001 73.5925C80.2001 73.5925 80.2123 73.6048 80.2246 73.6171ZM79.6384 73.5004C79.614 73.5004 79.614 73.5004 79.6384 73.5004V73.5004ZM79.5652 73.6355C79.5652 73.6355 79.5652 73.6355 79.5652 73.6417C79.5652 73.6294 79.5652 73.6171 79.5652 73.6048C79.5652 73.6171 79.5652 73.6232 79.5652 73.6355ZM79.5469 73.7215C79.5469 73.7215 79.5591 73.6785 79.5652 73.6539C79.5652 73.6539 79.5652 73.6539 79.5652 73.6478C79.5835 73.6171 79.6079 73.568 79.6323 73.525C79.6323 73.525 79.6507 73.5127 79.6568 73.5066C79.6568 73.5066 79.6445 73.5066 79.6384 73.5066C79.6445 73.5066 79.6445 73.5066 79.6568 73.5066C79.6751 73.4943 79.73 73.4452 79.6812 73.4943C79.6812 73.4943 79.669 73.4943 79.6629 73.5004C79.6629 73.5004 79.669 73.5004 79.6751 73.5004C79.614 73.568 79.6445 73.5311 79.6751 73.5004C79.7056 73.5004 79.7483 73.4881 79.7728 73.4881C79.8338 73.4881 79.8888 73.4881 79.8705 73.4881C79.8949 73.4881 79.9193 73.5004 79.9437 73.5066C79.9437 73.5066 79.9803 73.5188 80.017 73.5311C80.1086 73.5741 80.1574 73.5925 80.2246 73.6478C80.829 74.2373 81.1831 75.0356 81.6288 75.7419C81.0854 75.4471 80.5481 75.1093 79.9681 74.8821C79.8765 74.7102 79.7911 74.5382 79.7178 74.3601C79.6507 74.1759 79.5957 73.9917 79.5469 73.8013C79.5469 73.8013 79.5469 73.8013 79.5469 73.789C79.5469 73.7768 79.5469 73.7706 79.5408 73.7645C79.5408 73.7645 79.5408 73.7583 79.5408 73.7461L79.5469 73.7215ZM93.2351 89.4054C91.7027 88.3983 90.1153 87.5385 88.7049 86.3472C86.7939 84.7383 85.0905 82.9083 83.2834 81.1888C81.8364 79.6843 79.9498 78.6158 78.6311 77.0007C78.2769 76.5095 78.2708 76.3437 78.8508 76.3007C79.4614 76.2515 80.2978 76.8656 80.9145 77.2095C81.7021 77.6455 82.4835 78.1061 83.2711 78.5605C83.3932 78.6956 83.5581 78.7877 83.7413 78.8307C85.1089 79.5861 86.4948 80.3782 87.9845 80.8449C88.2714 80.9923 88.534 81.1766 88.8331 81.281C89.4986 81.5082 90.2557 81.0476 90.0603 80.2677C89.7123 79.4325 88.9858 78.7755 88.4546 78.0447C88.0394 77.5411 86.7268 76.6139 87.606 75.9875C87.8257 75.9199 88.2409 76.3314 88.4363 76.4481C88.9125 76.7183 89.3826 76.9516 89.7978 77.3201C90.6647 78.1921 91.8919 78.8 92.5269 79.887C92.8871 80.8204 92.8627 81.8766 93.2412 82.8223C93.6991 84.4619 94.737 85.77 96.1657 86.6665C95.0362 87.4464 94.1509 88.3983 93.2412 89.4115L93.2351 89.4054ZM104.133 191.289C104.133 191.289 104.097 191.314 104.097 191.308C104.097 191.308 104.109 191.308 104.133 191.289ZM121.967 201.268C121.21 201.084 120.514 200.691 119.983 200.151C121.192 200.685 122.419 201.194 123.762 201.268C123.17 201.379 122.565 201.416 121.967 201.268ZM127.022 198.161C126.925 198.413 126.778 198.609 126.613 198.787C126.43 198.861 126.271 198.984 126.167 199.15C123.64 200.507 120.99 198.732 118.646 197.799C118.53 197.719 118.389 197.67 118.255 197.651C115.245 196.484 111.966 197.596 108.908 196.736C106.838 196.012 103.181 195.035 103.565 192.21C103.633 191.848 103.834 191.504 104.139 191.295C105.562 191.13 107.332 191.584 108.792 191.351C110.782 191.025 112.815 191.191 114.799 190.878C114.787 191.559 115.123 192.063 115.611 192.517C118.701 195.422 123.237 195.348 126.699 193.138C127.12 194.734 127.517 196.552 127.022 198.173V198.161ZM136.962 188.808C135.857 189.287 134.648 189.103 133.567 188.655C132.853 188.231 132.248 187.74 131.668 187.138C133.598 188.176 136.119 188.569 138.036 187.322C137.963 187.967 137.707 188.526 136.968 188.808H136.962ZM138.677 182.44C138.494 187.74 133.665 187.132 130.637 184.411C130.069 183.926 129.519 183.404 129.037 182.833C128.781 182.526 128.457 182.502 128.188 182.631C128.256 181.396 128.323 180.168 128.396 178.934C128.451 179.124 128.567 179.284 128.75 179.364C131.772 180.702 135.533 182.274 138.567 180.193C138.665 180.936 138.714 181.685 138.671 182.44H138.677ZM139.282 152.086C139.343 154.677 138.989 157.25 138.775 159.823C138.335 165.282 137.981 170.76 137.933 176.238C135.307 177.202 132.364 176.459 129.757 175.79C128.732 175.525 128.292 177.122 129.318 177.386C132.248 178.141 135.283 178.774 138.183 177.871C138.213 178.049 138.25 178.227 138.281 178.406C135.686 180.616 132.279 179.112 129.586 177.927C129.165 177.742 128.652 177.816 128.439 178.27C128.921 169.661 129.605 161.064 129.837 152.448C129.562 142.991 125.923 138.219 131.149 128.769C132.108 127.08 133.219 125.526 133.763 123.635C134.062 122.609 132.468 122.167 132.175 123.193C131.235 126.067 129.129 128.363 128.194 131.256C124.849 138.778 128.274 145.509 128.182 153.148C127.865 165.94 126.497 178.682 126.174 191.473C123.298 193.475 119.409 193.85 116.741 191.295C116.661 191.185 116.564 191.087 116.478 190.982C114.641 165.393 112.797 139.804 111.051 114.209C121.857 118.464 128.317 117.647 138.122 111.562C138.103 111.906 138.122 112.25 138.11 112.593C135.435 114.319 132.92 116.21 129.782 117.132C124.44 118.814 118.743 117.948 113.407 116.659C112.375 116.413 111.936 118.01 112.968 118.255C122.168 120.607 130.264 120.589 138.085 114.546C138.055 116.118 137.987 117.684 137.798 119.238C137.578 121.043 136.889 122.714 136.705 124.531C136.028 133.78 139.154 142.844 139.288 152.067L139.282 152.086Z" fill="#323232"/>
<path d="M79.5652 73.6416C79.5652 73.6416 79.5652 73.6477 79.5652 73.6539C79.5652 73.6907 79.5652 73.7276 79.5591 73.7644C79.5774 73.7644 79.5896 73.7276 79.5713 73.6416H79.5652Z" fill="#323232"/>
<path d="M87.3802 41.8323C87.3802 41.8323 87.3802 41.8137 87.3864 41.8013C87.3864 41.7704 87.3864 41.7642 87.3864 41.7703C87.3802 41.7456 87.3616 41.7704 87.374 41.8261L87.3802 41.8323Z" fill="white"/>
<path d="M84.6632 45.2892C84.1503 45.5287 83.7962 45.9524 83.4238 46.3577C82.6484 47.199 81.5616 48.0096 80.5054 48.4702C80.0353 48.6728 79.4797 48.593 78.973 48.6298C76.9582 48.7588 74.4367 49.2685 73.1484 50.9941C72.5196 51.8354 71.0848 51.0125 71.7259 50.1589C73.6063 47.6473 76.9155 47.0025 79.8705 46.9288C80.1574 46.7753 80.4321 46.6279 80.7008 46.4498C80.1879 46.0445 79.3881 45.7006 79.3271 44.9698C79.3088 44.454 79.8521 44.0241 80.3467 44.1715C81.6593 42.8389 82.9109 41.445 84.2114 40.1001C82.7522 41.0949 81.7265 42.6056 80.3528 43.7048C78.625 44.7242 76.7018 45.3751 74.8946 46.241C74.4916 46.4191 74.0093 46.37 73.7651 45.9462C73.5636 45.5901 73.6491 44.9944 74.0581 44.8102C75.1937 44.3066 76.3354 43.8031 77.471 43.2934C77.6237 42.8881 78.3319 42.1634 77.471 42.2003C76.7628 42.2494 76.1218 43.1521 75.5784 43.5451C74.0398 44.6505 72.1472 45.1111 70.6819 46.3331C69.1861 47.4569 68.6915 49.2746 68.4595 51.0493C68.0749 52.953 67.2445 54.6602 66.1028 56.2016C66.9942 59.0509 69.2105 59.0264 71.6343 58.0438C74.107 50.1466 75.847 53.6531 81.2625 50.2265C81.8425 49.815 82.2332 49.0965 82.6789 48.5438C83.4299 47.5981 84.5594 46.6893 85.0539 45.5594C85.2676 45.0681 85.1333 45.0742 84.6571 45.2953L84.6632 45.2892Z" fill="white"/>
<path d="M47.1762 22.7153C47.1887 22.7405 47.195 22.7531 47.1762 22.7153V22.7153Z" fill="white"/>
<path d="M87.3867 41.839C87.3867 41.839 87.3867 41.839 87.3801 41.8257C87.3801 41.8257 87.3801 41.8323 87.3867 41.839Z" fill="white"/>
<path d="M87.3865 41.8886C87.3865 41.8886 87.3865 41.8823 87.3865 41.876C87.3865 41.8697 87.3865 41.8634 87.3865 41.8508C87.3865 41.8445 87.3802 41.832 87.374 41.8257C87.374 41.8445 87.374 41.8634 87.374 41.8823L87.3865 41.8886Z" fill="white"/>
<path d="M87.9173 39.5104C87.9173 39.5104 87.8868 39.4735 87.8746 39.449C87.8624 39.4367 87.838 39.4183 87.8196 39.3999C87.8013 39.3876 87.7708 39.3753 87.7525 39.3691C87.7159 39.3569 87.6792 39.3507 87.6426 39.3384C87.5876 39.3262 87.4289 39.3569 87.4716 39.3384C87.4594 39.3384 87.4411 39.3507 87.3984 39.3753C87.374 39.3814 87.3679 39.3814 87.3679 39.3814C87.3312 39.3999 87.2946 39.4183 87.2641 39.4367C87.1358 39.5104 87.2763 39.4121 87.1481 39.5165C86.6657 39.928 86.22 40.4008 85.7744 40.8491C86.3177 40.407 87.0504 40.1552 87.7464 40.3026C87.838 40.1368 87.9112 39.9648 87.9479 39.7806C87.9479 39.7192 87.9479 39.6578 87.9479 39.5964C87.9479 39.5779 87.9356 39.5411 87.9234 39.5104H87.9173Z" fill="white"/>
<path d="M31.2961 32.2826C33.6894 35.8014 37.5847 37.7112 41.1441 39.8053C41.4982 38.356 41.8523 36.9129 42.2064 35.4636C38.1769 34.7083 34.7029 32.2397 31.5403 29.728C31.4243 30.5448 31.3694 31.3492 31.2717 32.1721C31.3083 32.1844 31.3083 32.2335 31.29 32.2826H31.2961Z" fill="white"/>
<path d="M31.2961 16.9796C32.389 16.4207 33.8115 16.6971 34.4648 17.784C34.6297 18.0604 34.6113 18.3306 34.5014 18.5455C34.593 19.092 34.8556 19.6079 35.1975 20.0807C35.2402 19.4543 35.2829 18.8341 35.3318 18.2077C35.3562 17.8393 35.5699 17.5077 35.9362 17.4094C37.5175 16.9796 37.3099 14.7995 37.2 13.5468C36.62 13.2336 36.1194 12.7607 35.7469 12.0668C35.2402 11.1273 36.6689 10.2921 37.1695 11.2317C37.7983 12.3984 39.2453 12.5949 40.4237 12.3002C41.9195 11.9194 43.1833 10.9737 44.5753 10.3412C46.352 9.53063 48.8674 9.11919 50.2411 10.5009C50.528 9.18674 50.5891 7.82346 49.8565 6.65055C49.0444 5.34867 47.0846 5.24428 45.772 4.71616C44.0197 4.1819 42.9513 2.58526 41.2784 1.92205C39.5506 1.26497 37.9205 1.86064 36.8276 3.32831C36.736 3.45113 36.6261 3.53711 36.5101 3.59237C36.5834 4.21261 35.9667 4.88196 35.3135 4.43982C33.7505 3.38972 31.7784 4.64247 30.6673 5.80924C27.3337 9.1806 29.0127 14.1977 30.0384 18.2077C30.3498 17.6919 30.7772 17.2559 31.2961 16.9918V16.9796Z" fill="#323232"/>
<path d="M49.1177 89.5776C49.887 89.2583 50.6624 88.9636 51.3767 88.5337C51.4194 87.9073 51.4317 87.2748 51.3828 86.6484C49.8931 87.7599 48.2447 88.5214 46.5168 89.0188C46.4802 89.5101 46.4558 90.0014 46.4802 90.4865C47.3716 90.2163 48.2508 89.9154 49.1116 89.5776H49.1177Z" fill="white"/>
<path d="M37.1451 91.6349C38.6836 91.7454 40.2649 91.77 41.773 91.4199C41.7363 90.8734 41.7363 90.3207 41.773 89.768C38.6043 89.9277 35.3257 89.5347 32.2425 89.0127C32.041 89.6452 31.9372 90.3084 31.986 90.9655C33.7017 91.2418 35.4173 91.512 37.1451 91.6349Z" fill="white"/>
<path d="M46.7305 36.9067C46.9991 36.311 47.2678 35.7215 47.5364 35.1258C47.2128 34.61 46.8892 34.1003 46.5657 33.5845C46.1871 34.1433 45.7414 34.6591 45.2225 35.0522C45.6682 35.8689 46.0711 36.7163 46.4191 37.5822C46.5229 37.355 46.6267 37.1339 46.7305 36.9067Z" fill="white"/>
<path d="M41.7363 42.0283C41.5104 42.0652 41.2723 42.0099 41.0586 41.8072C39.343 40.4808 37.1329 39.5597 35.344 38.2762C39.1721 44.411 41.7302 51.2274 45.0332 57.6385C45.7353 51.3993 47.5364 45.2584 47.5853 38.964C47.2739 39.7132 46.6878 41.1686 45.7109 40.315C45.3995 39.9527 45.3202 39.3447 45.1675 38.9026C44.8012 37.8586 44.325 36.8638 43.7999 35.8936C43.3481 37.742 42.8963 39.5904 42.4445 41.4388C42.3469 41.838 42.0538 42.016 41.7424 42.0283H41.7363Z" fill="white"/>
<path d="M17.443 68.293C15.7335 70.6081 14.7506 73.4329 13.151 75.8217C14.3476 76.6385 15.526 77.4798 16.6799 78.3518C17.9803 75.8033 19.3479 73.2917 20.7766 70.8169C19.6471 70.0001 18.5481 69.1466 17.443 68.293Z" fill="white"/>
<path d="M31.229 32.3624C31.1862 32.4913 31.2656 32.3808 31.2961 32.2825C31.2839 32.2641 31.2717 32.2457 31.2595 32.2334C31.2473 32.2764 31.2412 32.3194 31.229 32.3624Z" fill="white"/>
<path d="M31.261 32.2352C31.261 32.2352 31.2735 32.1975 31.2735 32.1724C31.261 32.1724 31.2359 32.1724 31.2046 32.1724C31.2046 32.1724 31.2296 32.1975 31.2547 32.2289L31.261 32.2352Z" fill="white"/>
<path d="M87.3129 41.9178C87.3129 41.9178 87.2885 41.9178 87.2763 41.9178C87.2763 41.9178 87.2641 41.9178 87.258 41.9178C87.1908 41.9362 87.1236 41.9546 87.0565 41.9792C86.9649 42.0099 86.8977 42.0774 86.8123 42.1204C86.3666 42.5687 86.0002 43.0968 85.5912 43.5819C85.811 43.6311 86.0186 43.7478 86.1895 43.8829C86.5619 43.2626 87.0504 42.6424 87.3495 42.0037C87.3068 42.1143 87.3007 42.1327 87.3312 42.0467C87.3495 42.0037 87.3617 41.9607 87.374 41.9116C87.3617 41.9116 87.3556 41.9116 87.3495 41.9116C87.3373 41.9116 87.3251 41.9116 87.3129 41.9116V41.9178Z" fill="white"/>
<path d="M87.3808 41.9116C87.3808 41.9116 87.3432 41.9116 87.3557 41.9179C87.362 41.9179 87.3682 41.9179 87.3808 41.9179C87.3808 41.9179 87.3808 41.9179 87.3808 41.9116Z" fill="white"/>
<path d="M22.8951 94.4351C22.8097 92.906 23.1394 91.4567 23.1027 89.9276C23.0539 87.7169 24.7756 85.7273 25.8318 83.9218C25.9051 83.7929 26.0028 83.7008 26.1066 83.6393C26.1554 83.492 26.2042 83.3446 26.2592 83.2033C26.6438 82.2208 28.2373 82.6507 27.8466 83.6455C27.3765 84.8614 27.2544 86.1571 26.8819 87.3976C26.7354 87.8889 25.6059 89.9645 26.5645 90.2654C27.175 90.4558 27.5291 89.0004 27.7062 88.6196C28.6891 86.5072 29.5317 84.3333 30.4597 82.1962C30.8749 81.2444 31.406 80.1943 30.8871 79.1749C29.9102 77.4309 27.7184 77.0993 26.2226 75.9571C24.6413 74.8579 23.2859 73.4884 21.961 72.1006C20.9414 73.8876 19.9523 75.693 18.9938 77.5169C19.8302 78.5424 21.0086 79.1995 21.8633 80.2066C24.1101 82.7858 22.077 85.8746 20.862 88.3863C20.9842 90.5909 21.3322 92.7893 21.6496 94.9632C22.016 95.0062 22.4555 94.9755 22.773 94.7176C22.7975 94.607 22.8402 94.5088 22.9012 94.4289L22.8951 94.4351Z" fill="white"/>
<path d="M29.8553 168.175C27.5902 168.943 25.0137 169.109 22.773 168.206C22.596 171.516 19.6349 178.59 22.4067 181.028C23.988 182.311 26.6316 182.324 28.4632 181.673C30.9725 180.917 31.174 178.424 31.0092 176.171C30.8871 173.469 30.2643 170.834 29.8553 168.169V168.175Z" fill="#FFD151"/>
<path d="M52.3108 155.893C48.8918 157.797 45.8574 157.913 42.4018 155.991C42.469 157.226 42.2919 158.466 42.4629 159.694C42.53 160.21 42.6582 160.763 43.0978 161.082C43.6839 161.506 44.4776 161.635 45.1553 161.825C46.6267 162.132 47.7623 163.121 48.9284 164.005C50.2167 164.951 51.5415 165.86 52.9519 166.615C55.3269 167.831 58.5933 169.133 61.0354 167.45C63.3188 165.596 60.3211 162.943 58.8191 161.825C56.5663 160.149 54.0325 158.749 52.4451 156.354C52.3414 156.194 52.2986 156.04 52.3047 155.893H52.3108Z" fill="#FFD151"/>
<path d="M53.0679 87.7597C53.0557 88.5765 52.9946 89.3994 52.8542 90.2038C52.7748 90.6582 52.2375 90.8732 51.8407 90.7811C51.6209 90.7319 51.4622 90.5907 51.3706 90.4187C49.8076 91.0942 48.2324 91.7759 46.5779 92.1566C46.4497 92.654 45.8086 92.8813 45.3873 92.6172C45.2286 92.5251 45.0393 92.3163 45.0088 92.1198C44.8684 91.2232 44.8134 90.3205 44.8562 89.4116C44.386 89.4976 43.9159 89.5713 43.4397 89.6266C43.3603 90.5784 43.4153 91.5364 43.5008 92.4821C43.5557 93.2067 42.5239 93.5936 42.0782 93.0471C38.8546 93.7287 35.5455 93.1576 32.334 92.6847C32.2241 93.2313 31.5709 93.5752 31.0946 93.2681C30.8932 93.1515 30.8016 92.9795 30.7161 92.7707C30.2033 91.4995 30.246 90.0257 30.6245 88.7116C30.2643 88.644 29.9102 88.5765 29.5561 88.5151C29.4401 88.7791 29.3241 89.0493 29.202 89.3134C29.2386 89.4669 29.2264 89.6327 29.202 89.7985C29.1348 90.388 29.1348 90.9899 29.202 91.5794C29.2142 91.6715 29.2142 91.6592 29.1959 91.5364C29.2325 91.8496 29.3058 92.1566 29.3851 92.4637C29.5073 92.912 29.2386 93.3418 28.8112 93.4831C27.7733 93.7348 27.6634 92.433 27.578 91.7083C26.479 92.2917 25.1297 91.6346 24.7512 90.474C24.7512 91.7697 24.507 93.0593 24.5253 94.3551C24.5314 94.6621 24.507 94.9262 24.4093 95.1902C24.6046 104.383 23.524 113.539 23.6644 122.726C23.701 125.164 23.7865 127.602 23.7255 130.04C23.3836 142.015 20.9048 153.897 21.9122 165.903C24.6535 167.727 28.1335 167.315 31.0153 165.995C32.2119 148.831 35.344 131.827 39.0011 115.038C39.8253 111.457 40.6251 107.779 41.9805 104.352C42.3224 103.259 43.0001 102.369 43.7267 101.515C44.9661 99.7161 45.833 97.5975 46.5473 95.5403C46.8953 94.5393 48.4888 94.9753 48.1347 95.9824C47.109 98.58 46.1688 101.411 44.2273 103.48C43.9892 103.824 43.8121 104.205 43.6473 104.586C41.718 109.634 40.6923 115.025 39.5262 120.294C39.6849 120.429 39.7948 120.62 39.8131 120.878C39.9169 122.247 40.0207 123.616 40.1245 124.986C40.851 134.67 41.5837 144.354 42.3102 154.039C45.772 156.133 48.3545 156.317 51.8895 154.253C52.8359 130.992 53.4525 107.718 53.7578 84.4375C53.4769 84.763 53.1839 85.0762 52.8786 85.3709C53.0618 86.1447 53.0923 86.9614 53.0801 87.7536L53.0679 87.7597Z" fill="white"/>
<path d="M82.0684 45.3753C82.3187 45.1419 82.5385 44.884 82.7827 44.6506C83.3078 43.5821 84.5716 42.3355 85.3165 41.3223C84.1015 42.5812 82.9293 43.883 81.7082 45.1358C81.8303 45.2156 81.9463 45.2954 82.0684 45.3753Z" fill="white"/>
<path d="M61.3162 55.0965C60.1013 53.4446 59.3564 51.4242 58.636 49.5205C57.3905 46.0018 56.0961 42.5076 54.7591 39.0196C54.2401 37.5028 53.6784 35.6605 52.3047 34.6964C51.2546 33.9533 50.003 34.1375 48.788 34.0209C49.1055 34.4753 49.4535 34.985 49.1482 35.5377C48.8979 36.1088 48.6354 36.6737 48.379 37.2448C48.7941 37.2387 49.2276 37.5028 49.2337 38.0432C49.3925 45.6272 46.8038 52.9594 46.4497 60.5005C46.4375 60.7399 46.3276 60.9303 46.1749 61.0777C46.1749 62.6068 46.1871 64.1297 46.1871 65.6588C47.5853 64.9219 48.9834 64.185 50.3815 63.4481C50.9249 63.1595 51.6209 63.5156 51.6209 64.1666V73.7648C51.6209 74.0473 51.4683 74.3482 51.2118 74.4833C47.4876 76.4484 43.7633 78.4073 40.039 80.3724C39.7948 80.5014 39.5567 80.4953 39.3613 80.4154C39.0499 80.3233 38.7935 80.0531 38.7996 79.6355C38.7996 79.6048 38.7996 79.5741 38.7996 79.5434V70.0618C38.8424 69.1776 40.0085 69.0425 40.6068 68.6126C41.9195 67.9187 43.2321 67.2309 44.5448 66.537C44.5448 64.4306 44.5082 62.3243 44.5387 60.2241C40.3748 52.5173 37.5786 43.9753 32.3707 36.8764C32.1204 36.5632 32.1326 36.1947 32.2852 35.9061C31.6014 35.2736 30.9542 34.592 30.3742 33.8428C27.4375 35.986 24.0063 37.4229 20.5324 38.3932C18.6275 38.909 17.266 40.1863 16.2464 41.8198C11.588 49.2872 6.9357 56.7606 2.2773 64.228C1.2516 65.8737 1.50802 67.9862 3.15037 69.1469C5.97105 71.1426 8.90773 72.9849 11.7834 74.9132C13.4074 72.4814 14.3415 69.632 16.1304 67.3169C15.819 67.0835 15.4954 66.8563 15.1779 66.6352C14.3293 67.1572 13.3463 66.1808 14.1339 65.3272C14.1645 65.0939 14.311 64.8789 14.5186 64.7561C17.1011 60.8628 19.8913 57.123 22.6998 53.3893C22.9684 53.0331 23.408 52.8366 23.8293 53.0945C24.1773 53.3033 24.3971 53.8683 24.1223 54.2306C23.7438 54.728 23.3714 55.2316 22.9989 55.7351C23.1943 55.8149 23.3469 55.9869 23.3897 56.2755C24.2017 61.7102 25.0198 67.1511 25.8318 72.5858C25.8807 72.9112 25.7586 73.1814 25.5632 73.3657C26.7293 74.4587 28.0908 75.2202 29.5134 75.9203C31.7662 77.0318 33.3781 79.0828 32.45 81.6804C31.7846 83.4797 30.9359 85.2115 30.2155 86.9923C38.2501 88.4846 48.8247 89.8356 53.7517 81.6436C54.2706 68.7354 53.8799 55.7842 53.1656 42.8945C53.1045 41.826 54.753 41.8321 54.814 42.8945C55.3208 51.9277 55.5772 60.9794 55.6199 70.0311C56.9143 71.5848 58.0438 73.3165 59.3137 74.8825C59.9608 75.3553 61.2491 75.7483 62.1344 75.5887C64.5643 75.2693 65.4374 72.8498 66.3898 70.9154C68.1726 67.28 69.7478 63.5463 71.4451 59.8679C68.6244 60.8935 65.9441 60.2303 64.7841 57.3072C63.9721 58.7994 63.1601 60.2917 62.348 61.7839C61.8352 62.7235 60.4126 61.8822 60.9255 60.9487C61.7925 59.3521 62.6655 57.7555 63.5325 56.1588L62.7754 55.0965C62.4763 55.514 61.7314 55.6737 61.3223 55.121L61.3162 55.0965Z" fill="#FFD151"/>
<path d="M44.7157 28.0088C44.6913 28.0211 44.6608 28.0272 44.6364 28.0334C44.5875 28.0518 44.6547 28.0334 44.7157 28.0088Z" fill="white"/>
<path d="M44.5454 28.0518C44.5454 28.0518 44.5517 28.0518 44.558 28.0518C44.5705 28.0518 44.5768 28.0518 44.5893 28.0518C44.5705 28.0518 44.5454 28.0518 44.5204 28.0518C44.5266 28.0518 44.5329 28.0518 44.5454 28.058V28.0518Z" fill="white"/>
<path d="M44.7844 27.9902C44.7844 27.9902 44.7468 28.0028 44.728 28.0091C44.7468 28.0028 44.7718 27.9965 44.7907 27.9902H44.7844Z" fill="white"/>
<path d="M49.4657 17.9256C49.6122 16.3842 49.6916 14.8244 49.5207 13.283C49.4535 12.8163 49.3558 12.3496 49.1849 11.9075C49.1604 11.8645 49.136 11.7969 49.1238 11.7539C47.2678 10.1573 44.4227 12.4049 42.6216 13.2216C41.5043 13.7559 40.1428 14.112 38.8851 14.0199C39.0805 15.7885 38.6592 17.9256 36.9375 18.7853C36.8581 19.8784 36.7849 20.9714 36.7055 22.0645C36.6566 22.7707 35.8385 23.1699 35.3013 22.6479C34.1412 21.5303 32.9751 20.0994 32.8347 18.4291C31.7418 17.9808 30.9054 19.6266 31.1435 20.5539C31.3328 21.3829 31.8456 22.1566 32.2547 22.8935C32.5844 23.4769 32.8103 23.8515 33.4635 23.9866C34.4953 24.2384 34.0558 25.835 33.024 25.5833C32.5844 25.4727 32.2119 25.2824 31.8945 25.0306C31.8945 25.9763 31.8945 26.922 31.9128 27.8738C35.3318 30.7293 39.1843 33.462 43.6656 34.0577C43.9526 33.9103 44.2334 33.7445 44.4715 33.5112C41.9744 34.027 39.4224 32.6392 37.9021 30.6864C37.6274 30.3363 37.5541 29.8573 37.9021 29.5134C38.1952 29.2248 38.7874 29.1634 39.0683 29.5134C40.0146 30.6986 41.2723 31.675 42.7987 31.9207C44.3067 32.1663 45.7659 31.4908 46.761 30.3609C49.1543 27.665 49.4169 23.7594 49.4352 20.3266C49.4352 19.8292 49.7954 19.5652 50.18 19.5345L50.235 18.7362C49.8381 18.7054 49.423 18.337 49.4657 17.9133V17.9256ZM47.9699 17.0044C49.0322 17.0044 49.0322 18.6625 47.9699 18.6625C46.9076 18.6625 46.9076 17.0044 47.9699 17.0044ZM42.1881 18.3247C43.2505 18.3247 43.2505 19.9828 42.1881 19.9828C41.1258 19.9828 41.1258 18.3247 42.1881 18.3247ZM47.0358 26.9895C47.0358 28.58 45.308 30.2872 43.7145 29.495C42.7193 29.0099 42.4323 27.751 42.3957 26.7439C42.3774 26.3018 42.7864 25.9026 43.2199 25.9149C44.2945 25.9149 45.3507 25.6877 46.3947 25.4727C47.3105 25.2517 47.8478 26.4737 47.0358 26.9834V26.9895ZM48.556 23.6427C48.1164 24.4288 46.1444 25.5157 45.7231 24.2323C45.6071 23.8024 45.8697 23.3296 46.297 23.2129C46.6573 23.1023 46.8709 23.0716 47.1152 22.8321C47.1274 22.8076 47.1579 22.7584 47.1701 22.7277C47.1701 22.7277 47.1701 22.7216 47.1701 22.7155C47.1701 22.7155 47.1701 22.7093 47.1701 22.7032C47.1701 22.7032 47.1701 22.697 47.164 22.6909C45.9612 21.5855 45.1187 20.0933 45.0699 18.4291C45.1004 17.3422 46.6695 17.336 46.7183 18.4291C46.7427 19.0555 46.8893 19.5468 47.1579 20.0626C47.4632 20.6398 47.7684 20.9469 48.2324 21.4197C48.8308 22.0277 48.9956 22.8813 48.5499 23.6366L48.556 23.6427Z" fill="white"/>
<path d="M45.1248 27.64C45.1798 27.5541 45.2286 27.4681 45.2713 27.376C44.905 27.4374 44.5326 27.4927 44.1602 27.5295C44.1785 27.5848 44.1907 27.6339 44.209 27.6892C44.2456 27.7629 44.2823 27.8365 44.3311 27.898C44.3616 27.9287 44.3922 27.9655 44.4227 27.9962C44.441 28.0085 44.4593 28.0208 44.4776 28.0269C44.4898 28.0269 44.5021 28.0331 44.5143 28.0392C44.5387 28.0392 44.5631 28.0392 44.5875 28.0392C44.6058 28.0392 44.6181 28.0331 44.6364 28.0269C44.6547 28.0269 44.6791 28.0085 44.7218 27.9962C44.7707 27.9716 44.8134 27.9409 44.8562 27.9102C44.9294 27.8427 45.0027 27.7751 45.0699 27.6953C45.0882 27.6707 45.1126 27.6339 45.1187 27.6216L45.1248 27.64Z" fill="white"/>
<path d="M31.2961 32.2829C31.3083 32.2338 31.3145 32.1846 31.2778 32.1724C31.2778 32.1908 31.2656 32.2154 31.2656 32.2338C31.2778 32.2461 31.29 32.2645 31.3022 32.2829H31.2961Z" fill="#323232"/>
<path d="M44.6852 68.3176C43.2749 69.0606 41.8645 69.8036 40.4481 70.5467V78.272C43.6229 76.5955 46.7977 74.9252 49.9725 73.2487V65.5234C48.7148 66.1867 47.451 66.8499 46.1932 67.5131C46.3642 68.6123 45.2774 69.0238 44.6791 68.3114L44.6852 68.3176Z" fill="white"/>
<path d="M47.9699 18.6624C49.0322 18.6624 49.0322 17.0044 47.9699 17.0044C46.9076 17.0044 46.9076 18.6624 47.9699 18.6624Z" fill="#323232"/>
<path d="M42.1881 18.3247C41.1258 18.3247 41.1258 19.9828 42.1881 19.9828C43.2504 19.9828 43.2504 18.3247 42.1881 18.3247Z" fill="#323232"/>
<path d="M47.164 20.0687C46.9564 19.6941 46.8343 19.2826 46.7549 18.8405C46.7427 18.7607 46.7305 18.6256 46.7244 18.4413C46.7122 17.993 46.3581 17.6123 45.9002 17.6123C45.4423 17.6123 45.0637 17.993 45.0759 18.4413C45.1187 20.1055 45.9673 21.5978 47.1701 22.7031C47.1701 22.7031 47.1701 22.7093 47.1762 22.7154C47.1762 22.7154 47.1762 22.7215 47.1762 22.7277C47.1762 22.7277 47.1762 22.7338 47.1762 22.74C47.164 22.7645 47.1334 22.8198 47.1212 22.8444C46.877 23.0839 46.6633 23.1146 46.3031 23.2251C45.2713 23.5444 45.6926 25.0858 46.7427 24.8217C48.3667 24.5208 49.5939 22.8321 48.2446 21.4381C47.7806 20.9652 47.4754 20.6582 47.1701 20.081L47.164 20.0687Z" fill="#323232"/>
<path d="M88.7354 38.0307C87.7219 37.3306 86.5192 37.785 85.7316 38.5833C83.3688 37.2262 81.1892 40.9844 79.5102 42.2372C79.4675 41.5064 79.0462 40.8555 78.1548 40.616C76.427 40.1554 75.4257 41.7459 74.1253 42.5197C71.0481 44.1347 67.8795 45.3199 67.1285 49.1825C66.8171 51.0494 66.402 52.9285 65.2908 54.5067C64.2651 54.0646 63.9598 55.4893 63.5263 56.134C62.6594 57.7307 61.7863 59.3273 60.9193 60.924C60.4126 61.8574 61.8351 62.6987 62.3419 61.7591C63.1539 60.2669 63.9659 58.7746 64.7779 57.2824C65.938 60.2055 68.6182 60.8687 71.4389 59.8432C69.7416 63.5216 68.1664 67.2552 66.3837 70.8906C65.4312 72.8312 64.5642 75.2446 62.1282 75.5639C61.2429 75.7235 59.9547 75.3305 59.3075 74.8577C58.0376 73.2917 56.9142 71.56 55.6138 70.0064C55.571 60.9547 55.3085 51.903 54.8079 42.8697C54.7468 41.8073 53.0984 41.8012 53.1594 42.8697C53.8737 55.7594 54.2706 68.7106 53.7455 81.6188C48.8124 89.8108 38.2501 88.4598 30.2093 86.9675C30.9298 85.1867 31.7723 83.4549 32.4439 81.6557C33.3719 79.0581 31.7601 77.007 29.5072 75.8955C28.0847 75.1954 26.7232 74.4401 25.557 73.3409C25.7524 73.1566 25.8745 72.8926 25.8257 72.561C25.0137 67.1263 24.1955 61.6854 23.3835 56.2507C23.3408 55.9621 23.1881 55.7902 22.9928 55.7103C23.3713 55.2068 23.7437 54.7094 24.1162 54.2058C24.3848 53.8435 24.1711 53.2847 23.8231 53.0697C23.4018 52.818 22.9623 53.0145 22.6936 53.3645C19.8851 57.092 17.095 60.838 14.5124 64.7313C14.3048 64.848 14.1583 65.0691 14.1278 65.3024C13.3402 66.156 14.317 67.1324 15.1718 66.6104C15.4893 66.8377 15.8129 67.0587 16.1242 67.2921C14.3354 69.6133 13.3951 72.4566 11.7772 74.8884C8.90158 72.9663 5.9649 71.1179 3.14422 69.1221C1.50187 67.9614 1.24545 65.8428 2.27115 64.2032C6.92955 56.7359 11.5818 49.2624 16.2402 41.795C17.2598 40.1615 18.6213 38.8842 20.5262 38.3684C24.0063 37.3981 27.4314 35.9612 30.3681 33.818C30.9481 34.5672 31.5891 35.2488 32.279 35.8813C32.1264 36.17 32.1142 36.5323 32.3645 36.8516C37.5724 43.9505 40.3687 52.4925 44.5325 60.1993C44.502 62.2995 44.5447 64.4059 44.5386 66.5122C43.226 67.2061 41.9133 67.8939 40.6007 68.5878C40.0023 69.0177 38.8362 69.1589 38.7935 70.0371C38.7935 73.1996 38.7935 76.3561 38.7935 79.5186C38.7935 79.5493 38.7935 79.58 38.7935 79.6107C38.7813 80.0283 39.0438 80.2985 39.3552 80.3906C39.5566 80.4705 39.7887 80.4766 40.0329 80.3476C43.7571 78.3826 47.4814 76.4236 51.2057 74.4585C51.4621 74.3234 51.6148 74.0225 51.6148 73.74V64.1418C51.6148 63.4909 50.9187 63.1408 50.3754 63.4233C48.9772 64.1602 47.5791 64.8971 46.181 65.634C46.181 64.1049 46.1688 62.582 46.1688 61.0529C46.3214 60.9117 46.4374 60.7152 46.4435 60.4757C46.7976 52.9346 49.3863 45.6024 49.2276 38.0184C49.2153 37.478 48.788 37.2139 48.3728 37.2201C48.6292 36.6551 48.8918 36.084 49.1421 35.5129C49.4473 34.9602 49.0993 34.4505 48.7819 33.9961C49.9968 34.1128 51.2484 33.9285 52.2986 34.6716C53.6723 35.6357 54.234 37.478 54.7529 38.9948C56.0839 42.4828 57.3843 45.9708 58.6298 49.4957C59.3503 51.4055 60.0951 53.4198 61.3101 55.0717C61.7191 55.6244 62.4701 55.4647 62.7632 55.0471C62.9219 54.826 62.9524 54.5313 62.7326 54.2365C61.6703 52.7995 60.9926 51.0801 60.3576 49.422C59.0694 45.8419 57.769 42.2679 56.3953 38.7184C55.5832 36.1085 54.2767 32.9583 51.2484 32.4977C50.1006 32.3073 48.5376 32.6512 47.5486 31.902C50.5768 28.9421 51.1202 24.3671 51.0714 20.3264C51.0714 19.7553 50.6074 19.4974 50.1678 19.5342C49.7831 19.5649 49.4229 19.829 49.4229 20.3264C49.4107 23.7592 49.1421 27.6648 46.7488 30.3607C44.4715 33.0074 40.9609 32.074 39.056 29.5071C38.7752 29.157 38.1829 29.2184 37.8899 29.5071C37.5419 29.851 37.6151 30.33 37.8899 30.68C39.4101 32.6328 41.9622 34.0206 44.4593 33.5048C44.2211 33.732 43.9403 33.904 43.6534 34.0513C39.172 33.4557 35.3134 30.7168 31.9005 27.8674C31.8822 26.9217 31.8822 25.976 31.8822 25.0242C32.1997 25.276 32.5721 25.4664 33.0117 25.5769C34.0435 25.8287 34.4831 24.232 33.4513 23.9803C32.798 23.8452 32.5721 23.4706 32.2424 22.8872C31.8334 22.1503 31.3205 21.3765 31.1312 20.5475C30.8931 19.6141 31.7296 17.9683 32.8224 18.4227C32.9628 20.0992 34.1229 21.5239 35.289 22.6415C35.8263 23.1635 36.6444 22.7644 36.6932 22.0581C36.7726 20.9651 36.8459 19.872 36.9252 18.7789C38.6408 17.9192 39.0621 15.7821 38.8728 14.0136C40.1306 14.1057 41.4982 13.7495 42.6093 13.2152C44.4104 12.3985 47.2555 10.1509 49.1116 11.7414C49.1238 11.7905 49.1543 11.8581 49.1726 11.8949C49.3436 12.3371 49.4412 12.8038 49.5084 13.2705C49.6793 14.8119 49.6061 16.3717 49.4535 17.913C49.4107 18.3613 49.8625 18.7298 50.2777 18.7421C50.76 18.7421 51.0592 18.3613 51.1019 17.913C51.2545 16.3103 51.3339 14.6952 51.1385 13.0924C52.4756 10.0772 52.7015 5.32417 48.9833 4.01002C47.5181 3.45734 45.8452 3.26083 44.6241 2.18617C41.6935 -0.607946 37.78 -1.01325 35.3256 2.59147C31.4548 1.51681 27.8343 5.47155 27.1811 9.05784C26.7171 11.5388 27.3459 14.118 27.9137 16.5313C28.2678 18.0481 28.6708 19.5588 29.1165 21.051C29.2203 21.3949 29.4706 21.573 29.7392 21.616C29.8735 21.9599 30.0384 22.2976 30.2154 22.6231C30.2215 24.2996 30.2399 25.9822 30.246 27.6587C30.1605 27.7815 30.0994 27.935 30.0811 28.1069C29.9346 29.5255 29.6965 30.9379 29.5927 32.3565C27.059 34.211 24.1162 35.5252 21.1367 36.4831C18.6702 37.0972 16.3257 38.3131 15.0314 40.616C13.4196 43.189 11.82 45.7682 10.2081 48.3474C7.84535 52.1425 5.48258 55.9314 3.11369 59.7265C1.61177 62.3302 -1.03185 65.0629 0.415119 68.2746C1.0745 69.8099 2.40547 70.602 3.73644 71.4863C5.13457 72.4197 6.52659 73.3532 7.91862 74.2927C10.6905 76.1718 13.4867 78.0141 16.1792 80.0038C16.5089 80.2555 16.8264 80.188 17.0523 79.9792C17.6506 80.1573 17.9253 79.5186 18.1573 79.0458C20.3308 81.0784 22.138 81.6679 20.6483 85.027C20.2576 86.1754 19.2929 87.0904 19.1891 88.3247C19.2441 90.4924 19.6837 92.6479 19.9584 94.7972C20.0866 96.2772 21.381 96.8974 22.7425 96.4982C22.7791 104.647 21.9732 112.765 21.9793 120.914C22.9623 136.052 18.951 151.072 20.3003 166.185C20.1294 166.756 20.7338 167.162 21.1978 167.401C21.033 171.767 17.7055 178.443 21.1429 182.078C22.9256 183.761 25.96 183.988 28.2251 183.435C35.3317 181.808 32.047 172.633 31.4182 167.567C31.9249 167.358 32.6454 167.205 32.566 166.498C33.494 152.645 35.8568 138.901 38.4699 125.268C39.227 134.946 39.8741 144.643 40.6861 154.315C40.619 154.554 40.6495 154.812 40.8205 155.021C40.735 155.144 40.6922 155.31 40.7167 155.512C40.9609 159.762 39.8802 162.458 45.1064 163.502C45.9245 163.753 46.5351 164.232 47.2067 164.742C48.6598 165.829 50.1311 166.898 51.7185 167.788C54.4538 169.323 58.1902 170.723 61.2368 169.231C64.143 167.813 64.0148 164.404 61.9084 162.304C59.5273 159.707 55.858 158.466 53.8676 155.482C53.7577 155.316 53.6112 155.205 53.4586 155.15C53.6051 154.935 53.6051 154.671 53.5074 154.438C54.4232 130.519 55.2474 106.545 55.339 82.6259C55.3512 82.4601 55.3573 82.2943 55.3696 82.1224C55.6504 81.7723 55.7298 81.2688 55.4306 80.9802C55.5649 78.2106 55.6138 75.4349 55.6199 72.6592C56.383 73.6541 57.1096 74.6734 57.885 75.656C59.4907 77.4491 62.4457 77.6579 64.4482 76.442C65.5594 75.7727 66.2249 74.7778 66.8171 73.6541C68.1176 71.1793 69.2776 68.6369 70.4254 66.0885C71.5305 63.6444 72.5806 61.1757 73.7406 58.7624C73.9116 58.4062 73.7956 57.9149 73.5086 57.6631C74.1008 55.999 74.6625 54.1751 76.5613 53.7637C78.9058 53.2048 81.5494 52.5539 83.1368 50.5949C84.1747 49.0106 85.7743 47.8438 86.6107 46.1121C87.1908 45.3752 87.7036 44.5769 88.2042 43.7785C88.656 43.0601 89.2422 42.2249 88.9674 41.3345C89.7672 40.3765 89.8527 38.7614 88.7354 37.9938V38.0307ZM46.1993 67.8632C46.1993 67.7465 46.1993 67.636 46.1993 67.5193C47.457 66.8561 48.7208 66.1929 49.9785 65.5296V73.2549C46.8037 74.9314 43.6289 76.6017 40.4541 78.2782V70.5529C41.8645 69.8099 43.2748 69.0668 44.6913 68.3238C45.082 68.901 46.2054 68.7536 46.2054 67.8693L46.1993 67.8632ZM46.5595 33.5846C46.8831 34.1005 47.2067 34.6102 47.5303 35.126C47.1578 35.9489 46.7915 36.7656 46.413 37.5824C46.065 36.7165 45.662 35.869 45.2163 35.0523C45.7353 34.6593 46.181 34.1496 46.5595 33.5846ZM43.7999 35.8936C44.3249 36.8639 44.8012 37.8587 45.1675 38.9027C45.3262 39.3448 45.3995 39.9589 45.7109 40.3151C46.6877 41.1687 47.2738 39.7133 47.5852 38.9641C47.5364 45.2585 45.7353 51.3994 45.0332 57.6386C41.7302 51.2275 39.1659 44.4111 35.3439 38.2763C37.1328 39.5536 39.343 40.4809 41.0586 41.8073C41.2723 42.0161 41.5104 42.0714 41.7363 42.0284C42.0476 42.0161 42.3407 41.838 42.4384 41.4389C42.8902 39.5904 43.342 37.742 43.7938 35.8936H43.7999ZM31.2717 32.1722C31.3693 31.3493 31.4304 30.5449 31.5403 29.7281C34.6968 32.2398 38.1768 34.7084 42.2064 35.4637C41.8523 36.913 41.4982 38.3561 41.144 39.8054C37.5846 37.7175 33.6894 35.8015 31.2961 32.2828C31.2656 32.381 31.1862 32.4854 31.2289 32.3626C31.2411 32.3257 31.2472 32.2766 31.2595 32.2336C31.235 32.1968 31.2167 32.1722 31.2106 32.1784C31.2411 32.1722 31.2595 32.1722 31.2778 32.1784L31.2717 32.1722ZM30.0384 18.2017C29.0127 14.1916 27.3337 9.17452 30.6672 5.80316C31.7845 4.63639 33.7504 3.38365 35.3134 4.43374C35.9667 4.86974 36.5894 4.20039 36.5101 3.58629C36.6261 3.53103 36.736 3.44505 36.8275 3.32224C37.9204 1.8607 39.5505 1.25889 41.2784 1.91597C42.9512 2.57919 44.0258 4.17582 45.7719 4.71008C47.0785 5.2382 49.0383 5.34259 49.8564 6.64447C50.5891 7.81738 50.528 9.18066 50.241 10.4948C48.8673 9.11311 46.3458 9.52455 44.5753 10.3352C43.1893 10.9677 41.9194 11.9134 40.4236 12.2941C39.2453 12.595 37.7983 12.3985 37.1694 11.2256C36.6627 10.286 35.2402 11.1212 35.7469 12.0607C36.1193 12.7485 36.62 13.2275 37.2 13.5407C37.3099 14.7935 37.5113 16.9796 35.9362 17.4033C35.5637 17.5016 35.3562 17.8393 35.3317 18.2017C35.289 18.828 35.2463 19.4483 35.1974 20.0746C34.8555 19.6018 34.593 19.0859 34.5014 18.5394C34.6174 18.3245 34.6357 18.0543 34.4648 17.7779C33.433 16.0646 30.8992 16.5375 30.0384 18.1894V18.2017ZM46.5168 89.0186C48.2507 88.5212 49.893 87.7659 51.3828 86.6482C51.4255 87.2746 51.4194 87.9071 51.3766 88.5335C49.8381 89.3932 48.1591 89.9643 46.4801 90.4863C46.4496 89.995 46.4801 89.5038 46.5168 89.0186ZM31.9982 90.124C32.0287 89.7494 32.1325 89.3748 32.2424 89.0125C35.3256 89.5344 38.5981 89.9275 41.7729 89.7678C41.7363 90.3205 41.7363 90.8732 41.7729 91.4197C38.5371 92.0952 35.2035 91.4443 31.986 90.9653C31.9677 90.6828 31.9738 90.4003 32.0043 90.124H31.9982ZM21.8816 57.2148C22.6142 62.1214 23.353 67.028 24.0856 71.9408C23.7498 71.603 23.4202 71.2591 23.0905 70.9091C23.0905 70.6205 22.9439 70.338 22.6875 70.166C20.4346 68.6369 18.3649 66.8684 16.1487 65.284C17.9803 62.539 19.9096 59.8616 21.8816 57.2148ZM16.6798 78.358C15.5259 77.486 14.3476 76.6447 13.1509 75.8279C14.7505 73.4391 15.7335 70.6143 17.443 68.2992C18.5481 69.1528 19.647 70.0064 20.7765 70.8231C19.3479 73.2979 17.9864 75.8157 16.6798 78.358ZM22.0587 94.9814C21.9121 94.9999 21.7778 94.9691 21.6374 94.9691C21.3138 92.7953 20.9719 90.5907 20.8498 88.3922C22.0648 85.8806 24.104 82.7856 21.8511 80.2125C21.0024 79.2054 19.818 78.5484 18.9816 77.5228C19.9401 75.699 20.9231 73.8936 21.9488 72.1066C23.2736 73.4944 24.629 74.87 26.2103 75.963C27.7122 77.1052 29.898 77.4307 30.8809 79.1809C31.3999 80.1941 30.8687 81.2504 30.4535 82.2022C29.5255 84.3392 28.683 86.5131 27.7 88.6256C27.523 89.0125 27.1689 90.4617 26.5583 90.2714C25.6059 89.9705 26.7354 87.8948 26.8758 87.4036C27.2421 86.1631 27.3642 84.8674 27.8404 83.6515C28.2251 82.6566 26.6316 82.2268 26.253 83.2093C26.1981 83.3505 26.1493 83.4979 26.1004 83.6453C25.9966 83.7129 25.905 83.7988 25.8257 83.9278C24.7694 85.7271 23.0477 87.7229 23.0966 89.9336C23.1332 91.4566 22.8035 92.9058 22.889 94.441C22.8279 94.5209 22.7852 94.613 22.7608 94.7297C22.5898 94.8893 22.2479 94.9692 22.0525 94.9876L22.0587 94.9814ZM30.6245 179.861C29.3485 182.502 24.5191 182.717 22.4128 181.028C19.6409 178.59 22.602 171.516 22.7791 168.206C25.0198 169.108 27.5962 168.943 29.8613 168.175C30.2704 170.84 30.8931 173.475 31.0152 176.177C31.0702 177.368 31.1068 178.743 30.6245 179.867V179.861ZM58.8252 161.825C60.3271 162.943 63.3249 165.596 61.0415 167.45C60.0402 168.267 58.6054 168.316 57.3843 168.156C54.2156 167.708 51.4804 165.841 48.9345 164.005C47.7684 163.121 46.6328 162.132 45.1614 161.825C44.4837 161.635 43.69 161.506 43.1039 161.082C42.6643 160.763 42.5361 160.21 42.4689 159.694C42.3041 158.466 42.4811 157.226 42.4079 155.991C45.8635 157.913 48.8979 157.797 52.3169 155.893C52.3108 156.04 52.3474 156.194 52.4573 156.354C54.0508 158.749 56.5845 160.149 58.8313 161.825H58.8252ZM53.5563 94.5331C53.3487 114.454 52.616 134.357 51.8712 154.26C48.3362 156.323 45.7536 156.139 42.2919 154.045C41.5592 144.36 40.8327 134.676 40.1061 124.992C40.0023 123.623 39.8985 122.253 39.7948 120.884C39.7764 120.626 39.6665 120.435 39.5078 120.3C40.6739 115.025 41.6996 109.634 43.6289 104.592C43.7938 104.211 43.9708 103.83 44.2089 103.487C46.1566 101.417 47.0907 98.5923 48.1164 95.9885C48.4705 94.9814 46.877 94.5454 46.529 95.5464C45.8085 97.6036 44.9416 99.7222 43.7083 101.522C42.9757 102.375 42.3041 103.259 41.9622 104.359C40.6068 107.779 39.807 111.464 38.9827 115.044C35.3256 131.833 32.1936 148.837 30.9969 166.001C28.1213 167.321 24.6351 167.733 21.8938 165.909C20.8864 153.903 23.3652 142.021 23.7071 130.046C23.7743 127.608 23.6827 125.17 23.6461 122.732C23.5117 113.545 24.5924 104.383 24.3909 95.1964C24.4825 94.9384 24.513 94.6683 24.5069 94.3612C24.4886 93.0655 24.7267 91.7759 24.7328 90.4801C25.1113 91.6346 26.4606 92.2917 27.5596 91.7145C27.639 92.4391 27.755 93.741 28.7929 93.4892C29.2203 93.348 29.4889 92.9181 29.3668 92.4698C29.2874 92.1628 29.2142 91.8557 29.1775 91.5425C29.1958 91.6653 29.1958 91.6776 29.1836 91.5855C29.1165 90.996 29.1165 90.3942 29.1836 89.8046C29.208 89.6388 29.2264 89.473 29.1836 89.3195C29.3057 89.0555 29.4217 88.7914 29.5377 88.5212C29.8918 88.5887 30.246 88.6563 30.6062 88.7177C30.2276 90.0319 30.1849 91.5057 30.6978 92.7768C30.7832 92.9856 30.8748 93.1514 31.0763 93.2743C31.5586 93.5752 32.2058 93.2374 32.3157 92.6909C35.5271 93.1637 38.8423 93.7348 42.0598 93.0532C42.5055 93.5936 43.5373 93.2129 43.4824 92.4882C43.3969 91.5364 43.342 90.5784 43.4213 89.6327C43.8976 89.5774 44.3677 89.5037 44.8378 89.4178C44.7951 90.3205 44.85 91.2232 44.9904 92.1259C45.021 92.3163 45.2102 92.5251 45.369 92.6233C45.7963 92.8874 46.4313 92.6602 46.5595 92.1628C48.2141 91.782 49.7892 91.1004 51.3522 90.4249C51.6453 91.0267 52.7137 90.8916 52.8358 90.2099C53.0739 88.6195 53.1838 86.9614 52.848 85.3832C53.1533 85.0823 53.4464 84.7691 53.7272 84.4498C53.6662 87.815 53.6051 91.1802 53.544 94.5393L53.5563 94.5331ZM85.0539 45.5533C84.5593 46.6832 83.436 47.592 82.6789 48.5377C82.2332 49.0966 81.8425 49.8151 81.2624 50.2204C75.847 53.647 74.1008 50.1467 71.6343 58.0377C69.2104 59.0203 66.9942 59.0387 66.1028 56.1955C67.2445 54.6541 68.0748 52.9469 68.4595 51.0432C68.6915 49.2685 69.1799 47.4508 70.6818 46.327C72.1471 45.105 74.0459 44.6444 75.5783 43.539C76.1217 43.146 76.7628 42.2433 77.471 42.1942C78.3319 42.1573 77.6236 42.882 77.471 43.2873C76.3354 43.797 75.1937 44.3005 74.0581 44.8041C73.649 44.9883 73.5575 45.5778 73.765 45.9401C74.0032 46.3639 74.4855 46.4191 74.8945 46.2349C76.7017 45.369 78.631 44.712 80.3588 43.6987C81.7264 42.5995 82.7522 41.0888 84.2174 40.094C82.917 41.4389 81.6654 42.8328 80.3527 44.1654C79.8582 44.018 79.3148 44.4479 79.3331 44.9637C79.3942 45.6945 80.2001 46.0384 80.7069 46.4437C80.4382 46.6218 80.1635 46.7692 79.8765 46.9227C76.9215 47.0025 73.6124 47.6473 71.7319 50.1528C71.097 51.0064 72.5257 51.8354 73.1545 50.988C74.4427 49.2624 76.9582 48.7527 78.979 48.6237C79.4858 48.593 80.0414 48.6728 80.5115 48.4641C81.5616 48.0035 82.6545 47.1929 83.4298 46.3516C83.8023 45.9463 84.1564 45.5226 84.6692 45.2831C85.1455 45.062 85.2798 45.0559 85.0661 45.5471L85.0539 45.5533ZM84.8219 41.924C84.1747 42.8451 83.2589 43.6373 82.7827 44.6506C82.5385 44.8839 82.3126 45.1418 82.0683 45.3752C81.9462 45.2953 81.8302 45.2155 81.7081 45.1357C82.9292 43.8829 84.1014 42.5811 85.3164 41.3222C85.1516 41.5187 84.9867 41.7213 84.8219 41.924ZM87.3739 41.924C87.3617 41.967 87.3495 42.0161 87.3312 42.0591C87.3006 42.1389 87.3068 42.1266 87.3495 42.0161C87.0503 42.6548 86.5619 43.275 86.1895 43.8952C86.0185 43.7601 85.817 43.6434 85.5911 43.5943C85.9941 43.1092 86.3604 42.5811 86.8122 42.1328C86.8977 42.0898 86.9649 42.0222 87.0564 41.9915C87.1236 41.9731 87.1908 41.9485 87.2579 41.9301C87.2579 41.9301 87.2701 41.9301 87.2762 41.9301C87.3006 41.9301 87.3251 41.9301 87.3495 41.9301C87.3373 41.9301 87.3495 41.924 87.3739 41.924C87.3739 41.924 87.3739 41.924 87.3739 41.9301C87.3922 41.9301 87.4105 41.9301 87.4289 41.9301C87.4289 41.9301 87.435 41.9301 87.4411 41.9301C87.4166 41.9301 87.3922 41.9301 87.38 41.9301L87.3739 41.924ZM87.3861 41.8012V41.795C87.3861 41.8073 87.3861 41.8196 87.3861 41.8319C87.3861 41.8319 87.3861 41.8319 87.3861 41.838C87.3861 41.838 87.3861 41.8442 87.3861 41.8503C87.3861 41.8503 87.3861 41.8503 87.3861 41.8442C87.3861 41.8564 87.3861 41.8626 87.3861 41.8687C87.3861 41.8687 87.3861 41.8749 87.3861 41.881C87.3861 41.8564 87.38 41.838 87.3861 41.8257C87.3678 41.7643 87.3861 41.7398 87.3983 41.7705C87.3983 41.7643 87.3922 41.7705 87.3983 41.8012H87.3861ZM87.4777 41.924C87.4838 41.924 87.496 41.924 87.5021 41.924C87.4899 41.924 87.4899 41.924 87.4777 41.924ZM87.8929 39.965C87.8562 40.0879 87.7952 40.1922 87.7402 40.3089C87.0442 40.1554 86.3116 40.4133 85.7682 40.8555C86.2139 40.4072 86.6596 39.9343 87.1419 39.5229C87.2701 39.4124 87.1297 39.5168 87.2579 39.4431C87.2945 39.4246 87.3312 39.4062 87.3617 39.3878C87.3617 39.3878 87.3678 39.3878 87.3922 39.3816C87.435 39.3632 87.4594 39.3509 87.4655 39.3448C87.4228 39.3694 87.5815 39.3387 87.6364 39.3448C87.6731 39.3509 87.7097 39.3632 87.7463 39.3755C87.7647 39.3817 87.7891 39.3939 87.8135 39.4062C87.8318 39.4246 87.8501 39.4431 87.8684 39.4553C87.8807 39.4738 87.899 39.4983 87.9112 39.5168C87.9173 39.5475 87.9295 39.5843 87.9356 39.6027C87.9356 39.6641 87.9356 39.7255 87.9356 39.7869C87.9295 39.8115 87.899 39.9528 87.8929 39.9712V39.965Z" fill="#323232"/>
<path d="M87.3863 41.8511C87.3863 41.8511 87.3863 41.8448 87.3863 41.8386C87.3863 41.8386 87.3801 41.8323 87.3801 41.826C87.3801 41.826 87.3801 41.826 87.3863 41.8386C87.3863 41.826 87.3863 41.8134 87.3863 41.8071C87.3863 41.8134 87.3863 41.826 87.3801 41.8386C87.3801 41.8448 87.3863 41.8511 87.3926 41.8637L87.3863 41.8511Z" fill="#323232"/>
<path d="M44.7218 28.0088C44.6791 28.0211 44.6547 28.0334 44.6364 28.0395C44.6608 28.0334 44.6913 28.0211 44.7157 28.0149L44.7218 28.0088Z" fill="#323232"/>
<path d="M46.3947 25.4788C45.3507 25.6938 44.2884 25.921 43.2199 25.921C42.7864 25.9087 42.3774 26.3078 42.3957 26.75C42.4323 27.7571 42.7193 29.016 43.7145 29.5011C45.308 30.2933 47.0419 28.58 47.0358 26.9956C47.8478 26.4859 47.3166 25.2639 46.3947 25.485V25.4788ZM44.4593 28.0396C44.4593 28.0396 44.4471 28.0396 44.441 28.0396C44.4471 28.0396 44.4532 28.0396 44.4593 28.0396ZM44.5814 28.058C44.5814 28.058 44.6058 28.058 44.6181 28.058C44.6364 28.058 44.6181 28.0641 44.5814 28.058ZM44.8623 27.9229C44.8195 27.9536 44.7707 27.9782 44.728 28.0089C44.7463 28.0089 44.7646 27.9966 44.7829 27.9905C44.7646 27.9966 44.7402 28.0027 44.7218 28.0089C44.6669 28.0396 44.5936 28.0519 44.6425 28.0334C44.6242 28.0334 44.612 28.0457 44.5936 28.0457C44.5753 28.0457 44.557 28.0457 44.5387 28.0457C44.557 28.0457 44.5753 28.0457 44.5875 28.0457C44.5753 28.0457 44.5692 28.0457 44.557 28.0457C44.5448 28.0457 44.5326 28.0457 44.5204 28.0396C44.5143 28.0396 44.5082 28.0396 44.5021 28.0396C44.5021 28.0396 44.5143 28.0396 44.5204 28.0396C44.5082 28.0396 44.496 28.0334 44.4837 28.0273C44.4654 28.015 44.4471 28.0089 44.4288 27.9966C44.3983 27.9659 44.3677 27.929 44.3372 27.8983C44.2945 27.8308 44.2517 27.7571 44.2151 27.6895C44.1968 27.6343 44.1846 27.5852 44.1663 27.5299C44.5387 27.493 44.9111 27.4378 45.2774 27.3764C45.2164 27.4992 45.1614 27.6036 45.076 27.7141C45.0088 27.7939 44.9355 27.8615 44.8623 27.929V27.9229Z" fill="#323232"/>
</g>
<defs>
<clipPath id="clip0_273_2083">
<rect width="143" height="203" fill="white"/>
</clipPath>
</defs>
</svg>
