<svg width="124" height="105" viewBox="0 0 124 105" fill="none" xmlns="http://www.w3.org/2000/svg">
<g clip-path="url(#clip0_279_4122)">
<path d="M26.9927 97.9836L33.9278 89.1769L12.3225 45.9586C12.3225 45.9586 10.8161 42.7241 13.8377 41.1961C16.8592 39.6681 83.7505 6.82835 83.7505 6.82835C83.7505 6.82835 86.6517 5.39502 88.0891 8.29421C89.5265 11.1934 109.7 52.2026 109.7 52.2026L120.728 52.4189L123.083 57.0774L28.7965 104.001L26.7973 100.382" fill="white"/>
<path d="M26.9927 97.9836L33.9278 89.1769L12.3225 45.9586C12.3225 45.9586 10.8161 42.7241 13.8377 41.1961C16.8592 39.6681 83.7505 6.82835 83.7505 6.82835C83.7505 6.82835 86.6517 5.39502 88.0891 8.29422C89.5265 11.1934 109.7 52.2026 109.7 52.2026L120.728 52.4189L123.083 57.0774L28.7965 104.001L26.7973 100.382" stroke="#323232" stroke-width="2" stroke-miterlimit="10" stroke-linecap="round"/>
<path d="M83.4734 11.907L17.9334 44.1725C17.5467 44.363 17.3875 44.8309 17.5779 45.2177L37.1846 85.0441C37.375 85.4309 37.8429 85.5901 38.2297 85.3997L103.77 53.1341C104.157 52.9437 104.316 52.4758 104.125 52.089L84.5186 12.2625C84.3281 11.8757 83.8602 11.7165 83.4734 11.907Z" fill="#2CB0E0" stroke="#232B65" stroke-width="2" stroke-miterlimit="10"/>
<path d="M31.1247 97.3962L67.6489 79.4152" stroke="#323232" stroke-width="2" stroke-miterlimit="10" stroke-linecap="round"/>
<path d="M70.4491 79.5542L77.0454 76.3068C77.0454 76.3068 77.9068 75.8574 77.2089 74.481C94.4644 66.1379 117.674 54.7118 117.674 54.7118" stroke="#323232" stroke-width="2" stroke-miterlimit="10" stroke-linecap="round"/>
<path d="M71.2911 54.6203L71.4011 54.5661C71.8327 54.3537 71.506 53.6798 71.0703 53.8943C70.5328 54.1589 69.9953 54.4235 69.4579 54.6881C68.3055 55.2554 67.1553 55.8166 66.001 56.3798C64.9138 56.9151 63.8246 57.4462 62.7354 57.9774L61.8111 58.4324C61.7541 58.4605 61.6971 58.4885 61.6401 58.5166C61.3673 58.6509 61.0342 58.6935 60.7504 58.6207C60.4039 58.5333 60.1858 58.3473 59.9561 58.0759C59.801 57.8943 59.6458 57.7127 59.4947 57.5291C58.8922 56.819 58.2897 56.1089 57.6872 55.3989C56.851 54.4093 56.0107 53.4217 55.1745 52.4322C54.302 51.3997 53.4254 50.3693 52.5529 49.3369C51.8315 48.4881 51.1081 47.6352 50.3908 46.7844C50.016 46.3416 49.6412 45.8988 49.2664 45.4561C49.2503 45.4336 49.2321 45.4173 49.216 45.3949C48.9037 45.0276 48.3425 45.5214 48.6568 45.8927C48.9228 46.207 49.1888 46.5212 49.4548 46.8354C50.1177 47.6169 50.7807 48.3984 51.4456 49.1839C52.3101 50.2 53.1725 51.2223 54.037 52.2384C54.9055 53.2627 55.774 54.287 56.6444 55.3153C57.3114 56.1049 57.9824 56.8926 58.6494 57.6822C58.9295 58.0147 59.2095 58.3473 59.4937 58.6779C60.1104 59.386 61.1281 59.5932 61.9709 59.1884C62.1459 59.1022 62.317 59.0181 62.4921 58.9319C63.4571 58.4568 64.42 57.9878 65.3871 57.5168C66.6005 56.9194 67.8118 56.3281 69.0272 55.7348C69.7846 55.362 70.5378 54.9911 71.2972 54.6223L71.2911 54.6203Z" fill="#232B65"/>
<path d="M58.0866 53.8364C59.0842 53.3453 60.0838 52.8582 61.0834 52.3712C62.5492 51.6495 64.015 50.938 65.4809 50.2164C66.3319 49.7974 67.1869 49.3866 68.0359 48.9636C68.0848 48.9395 68.1336 48.9155 68.1805 48.8874C68.2457 48.8451 68.3417 48.7422 68.4072 48.6492C68.4564 48.5744 68.5058 48.4591 68.5205 48.3861C68.5643 48.1976 68.5266 48.0593 68.4973 47.8663C68.3994 47.2873 68.2995 46.7041 68.2016 46.125C67.9666 44.7434 67.7295 43.3576 67.4904 41.978C67.4551 41.7829 67.4397 41.6489 67.3493 41.4859C67.257 41.3189 67.0651 41.1756 66.8564 41.1114C66.6599 41.0514 66.4446 41.0764 66.2553 41.1646C66.0965 41.2427 65.9377 41.3209 65.7789 41.3991L62.7047 42.9024C61.2389 43.624 59.7649 44.3395 58.2991 45.0612L54.3454 46.9975L52.7167 47.7993L57.8727 53.9568C57.8951 53.9408 57.9216 53.9226 57.9501 53.9086L58.1008 53.8344L58.0866 53.8364Z" fill="white"/>
<path d="M66.2968 40.3652C66.1362 40.3987 65.9856 40.4627 65.835 40.5369C65.045 40.9257 64.2551 41.3146 63.4632 41.6995C62.038 42.4011 60.6129 43.0925 59.1878 43.7941C57.7545 44.4997 56.3213 45.1952 54.888 45.9008C54.0615 46.3077 53.2389 46.7126 52.4104 47.1155L52.2923 47.1736C51.8607 47.3861 52.1873 48.06 52.623 47.8455L52.7045 47.8054C53.246 47.5388 53.7916 47.2702 54.3332 47.0036L58.2869 45.0673C59.7527 44.3456 61.2267 43.6301 62.6925 42.9085L65.7667 41.4052C65.9255 41.327 66.0843 41.2488 66.2431 41.1706C66.4345 41.0764 66.6518 41.0554 66.8442 41.1175C67.0529 41.1817 67.2448 41.325 67.3371 41.492C67.4275 41.6549 67.447 41.787 67.4782 41.9841C67.7132 43.3657 67.9503 44.7514 68.1894 46.1311C68.2873 46.7102 68.3872 47.2933 68.4851 47.8724C68.5184 48.0634 68.5521 48.2037 68.5083 48.3921C68.4936 48.4651 68.4442 48.5805 68.395 48.6553C68.3356 48.7503 68.2335 48.8512 68.1683 48.8934C68.1234 48.9256 68.0725 48.9456 68.0237 48.9697C67.1727 49.3886 66.3217 49.8076 65.4687 50.2225C64.0028 50.9441 62.537 51.6556 61.0712 52.3772C60.0736 52.8684 59.074 53.3554 58.0744 53.8425L57.9237 53.9166C57.8952 53.9307 57.8667 53.9447 57.8463 53.9649C57.5342 54.2146 57.8473 54.7889 58.2504 54.5905L60.4817 53.492C61.9597 52.7745 63.4398 52.0509 64.9158 51.3293C65.9908 50.8001 67.0677 50.2749 68.1447 49.7498C68.2221 49.7117 68.2954 49.6756 68.3727 49.6376C68.8675 49.3889 69.2013 48.916 69.2655 48.3684C69.2912 48.1534 69.2539 47.9441 69.2187 47.7389C69.1775 47.5012 69.1384 47.2675 69.0972 47.0298C68.8366 45.514 68.5781 43.9921 68.3175 42.4764C68.2391 42.0293 68.212 41.4913 67.9627 41.098C67.6089 40.5438 66.941 40.2352 66.2866 40.3752L66.2968 40.3652Z" fill="#232B65"/>
<path d="M65.1618 61.8671C64.7989 61.13 63.9036 60.822 63.1664 61.1849C62.4293 61.5478 62.1213 62.4431 62.4842 63.1803C62.8471 63.9174 63.7425 64.2254 64.4796 63.8625C65.2167 63.4996 65.5247 62.6042 65.1618 61.8671Z" fill="white"/>
<path d="M62.8395 60.5111C61.732 61.0564 61.2691 62.3972 61.8122 63.5108C62.3554 64.6244 63.6983 65.0813 64.8119 64.5381C65.9194 63.9929 66.3824 62.6521 65.8392 61.5384C65.294 60.4309 63.9531 59.968 62.8395 60.5111ZM62.4841 63.1801C62.1213 62.4431 62.4292 61.5478 63.1662 61.185C63.9032 60.8222 64.7985 61.1301 65.1613 61.8671C65.5241 62.6041 65.2162 63.4994 64.4792 63.8622C63.7422 64.225 62.8469 63.9171 62.4841 63.1801Z" fill="#232B65"/>
<path d="M71.0005 57.3484C70.2634 57.7113 69.9554 58.6067 70.3182 59.3438C70.6811 60.0809 71.5765 60.3889 72.3136 60.0261C73.0507 59.6632 73.3587 58.7678 72.9959 58.0307C72.633 57.2936 71.7376 56.9856 71.0005 57.3484Z" fill="white"/>
<path d="M70.6695 56.6767C69.562 57.2219 69.099 58.5627 69.6422 59.6763C70.1854 60.79 71.5283 61.2468 72.6419 60.7036C73.7494 60.1584 74.2123 58.8176 73.6692 57.704C73.1239 56.5964 71.7831 56.1335 70.6695 56.6767ZM72.3111 60.0318C71.5741 60.3946 70.6789 60.0867 70.3161 59.3497C69.9532 58.6127 70.2612 57.7174 70.9982 57.3546C71.7352 56.9918 72.6304 57.2997 72.9932 58.0367C73.3561 58.7737 73.0481 59.669 72.3111 60.0318Z" fill="#232B65"/>
<path d="M80.438 39.3523C84.4731 37.3759 86.1452 32.5007 84.1689 28.4656C82.1925 24.4305 77.3173 22.7583 73.2822 24.7347C69.2471 26.7111 67.5749 31.5863 69.5513 35.6214C71.5277 39.6565 76.4029 41.3287 80.438 39.3523ZM73.8649 33.5737C74.7924 33.9163 75.7219 34.2631 76.6535 34.6037C76.6927 34.4984 76.738 34.3952 76.7772 34.2899C77.5256 32.4089 78.274 30.5279 79.0224 28.6469C79.1255 28.3837 79.4107 28.2231 79.6902 28.3182C79.9515 28.4071 80.122 28.7227 80.0189 28.9859C79.9097 29.2573 79.8045 29.5266 79.6953 29.7979C78.9469 31.6789 78.1984 33.5598 77.45 35.4408C77.3449 35.7 77.0597 35.8707 76.7823 35.7696C75.6988 35.3671 74.6114 34.9666 73.528 34.5641C72.8961 34.3288 73.2331 33.3384 73.869 33.5717L73.8649 33.5737Z" fill="white"/>
<path d="M76.7782 35.7716C77.0515 35.8747 77.3408 35.702 77.4459 35.4428C78.1943 33.5618 78.9427 31.6808 79.6911 29.7999C79.8004 29.5286 79.9056 29.2592 80.0148 28.9879C80.1179 28.7247 79.9474 28.4091 79.6861 28.3202C79.4066 28.2251 79.1255 28.3837 79.0183 28.6489C78.2699 30.5299 77.5215 32.4109 76.7731 34.2919C76.7339 34.3972 76.6886 34.5004 76.6494 34.6057C75.7219 34.2631 74.7924 33.9163 73.8608 33.5757C73.2249 33.3424 72.888 34.3328 73.5198 34.5681C74.6032 34.9706 75.6907 35.3711 76.7741 35.7736L76.7782 35.7716Z" fill="#232B65"/>
</g>
<defs>
<clipPath id="clip0_279_4122">
<rect width="106.428" height="63.8749" fill="white" transform="translate(0.200195 47.3938) rotate(-26.2112)"/>
</clipPath>
</defs>
</svg>
