<svg width="50" height="50" viewBox="0 0 50 50" fill="none" xmlns="http://www.w3.org/2000/svg">
<g clip-path="url(#clip0_477_874)">
<path d="M22.98 44.6802C30.2867 44.6802 36.21 38.7569 36.21 31.4502C36.21 24.1435 30.2867 18.2202 22.98 18.2202C15.6733 18.2202 9.75 24.1435 9.75 31.4502C9.75 38.7569 15.6733 44.6802 22.98 44.6802Z" fill="white" stroke="#323232" stroke-width="1.5" stroke-miterlimit="10"/>
<path d="M27.1815 40.375C32.1129 38.0523 34.2278 32.1717 31.9051 27.2402C29.5824 22.3088 23.7018 20.1939 18.7704 22.5166C13.8389 24.8393 11.7241 30.7199 14.0467 35.6513C16.3694 40.5828 22.25 42.6976 27.1815 40.375Z" fill="#FFD151" stroke="#323232" stroke-width="1.5" stroke-miterlimit="10"/>
<path d="M31.71 29.21C39.0167 29.21 44.94 23.2867 44.94 15.98C44.94 8.67327 39.0167 2.75 31.71 2.75C24.4033 2.75 18.48 8.67327 18.48 15.98C18.48 23.2867 24.4033 29.21 31.71 29.21Z" fill="white" stroke="#323232" stroke-width="1.5" stroke-miterlimit="10"/>
</g>
<defs>
<clipPath id="clip0_477_874">
<rect width="36.69" height="43.43" fill="white" transform="translate(9 2)"/>
</clipPath>
</defs>
</svg>
