<svg width="50" height="50" viewBox="0 0 50 50" fill="none" xmlns="http://www.w3.org/2000/svg">
<g clip-path="url(#clip0_477_888)">
<path d="M42.24 16.2699L38.21 9.65994V7.18994H32.89V9.65994L28.86 16.2699C28.74 16.4599 28.68 16.6799 28.68 16.8999V25.6499C28.68 25.7299 28.68 25.8099 28.7 25.8899L30.16 33.0599C30.32 33.8299 30.22 34.6299 29.88 35.3399L29.02 37.1599C28.79 37.6399 28.67 38.1699 28.67 38.7099V43.7199C28.67 43.8699 28.7 44.0199 28.76 44.1699L29.58 46.2399H41.51L42.33 44.1699C42.39 44.0299 42.42 43.8799 42.42 43.7199V38.7099C42.42 38.1699 42.3 37.6399 42.07 37.1599L41.21 35.3399C40.87 34.6299 40.78 33.8299 40.93 33.0599L42.39 25.8899C42.41 25.8099 42.41 25.7299 42.41 25.6499V16.8999C42.41 16.6799 42.35 16.4599 42.23 16.2699H42.24Z" fill="white" stroke="#323232" stroke-width="1.5" stroke-linecap="round" stroke-linejoin="round"/>
<path d="M42.19 17.0298H28.82V24.8998H42.19V17.0298Z" fill="#FFD151"/>
<path d="M23.49 25.9699V14.6199C23.49 14.3099 23.37 14.0199 23.16 13.7899L19.28 9.65994V7.18994H13.96V9.65994L10.08 13.7899C9.87 14.0099 9.75 14.3099 9.75 14.6199V25.9699L10.87 26.5699V28.1199L9.75 28.7199V42.9099C9.75 43.0199 9.77 43.1399 9.8 43.2399L10.41 45.3499C10.56 45.8699 11.03 46.2199 11.57 46.2199H21.68C22.22 46.2199 22.69 45.8599 22.84 45.3499L23.45 43.2399C23.48 43.1299 23.5 43.0199 23.5 42.9099V28.7199L22.38 28.1199V26.5699L23.5 25.9699H23.49Z" fill="white" stroke="#323232" stroke-width="1.5" stroke-linecap="round" stroke-linejoin="round"/>
<path d="M23.18 14.98H9.87V23.71H23.18V14.98Z" fill="#FFD151"/>
<path d="M38.76 2.75H32.32V7.19H38.76V2.75Z" fill="white" stroke="#323232" stroke-width="1.5" stroke-linecap="round" stroke-linejoin="round"/>
<path d="M42.24 16.2699L38.21 9.65994V7.18994H32.89V9.65994L28.86 16.2699C28.74 16.4599 28.68 16.6799 28.68 16.8999V25.6499C28.68 25.7299 28.68 25.8099 28.7 25.8899L30.16 33.0599C30.32 33.8299 30.22 34.6299 29.88 35.3399L29.02 37.1599C28.79 37.6399 28.67 38.1699 28.67 38.7099V43.7199C28.67 43.8699 28.7 44.0199 28.76 44.1699L29.58 46.2399H41.51L42.33 44.1699C42.39 44.0299 42.42 43.8799 42.42 43.7199V38.7099C42.42 38.1699 42.3 37.6399 42.07 37.1599L41.21 35.3399C40.87 34.6299 40.78 33.8299 40.93 33.0599L42.39 25.8899C42.41 25.8099 42.41 25.7299 42.41 25.6499V16.8999C42.41 16.6799 42.35 16.4599 42.23 16.2699H42.24Z" stroke="#323232" stroke-width="1.5" stroke-linecap="round" stroke-linejoin="round"/>
<path d="M42.41 16.98H28.67" stroke="#323232" stroke-width="1.5" stroke-linecap="round" stroke-linejoin="round"/>
<path d="M42.41 25.3198H28.67" stroke="#323232" stroke-width="1.5" stroke-linecap="round" stroke-linejoin="round"/>
<path d="M32.88 9.66016H38.2" stroke="#323232" stroke-width="1.5" stroke-linecap="round" stroke-linejoin="round"/>
<path d="M19.84 2.75H13.4V7.19H19.84V2.75Z" fill="white" stroke="#323232" stroke-width="1.5" stroke-linecap="round" stroke-linejoin="round"/>
<path d="M23.49 25.9699V14.6199C23.49 14.3099 23.37 14.0199 23.16 13.7899L19.28 9.65994V7.18994H13.96V9.65994L10.08 13.7899C9.87 14.0099 9.75 14.3099 9.75 14.6199V25.9699L10.87 26.5699V28.1199L9.75 28.7199V42.9099C9.75 43.0199 9.77 43.1399 9.8 43.2399L10.41 45.3499C10.56 45.8699 11.03 46.2199 11.57 46.2199H21.68C22.22 46.2199 22.69 45.8599 22.84 45.3499L23.45 43.2399C23.48 43.1299 23.5 43.0199 23.5 42.9099V28.7199L22.38 28.1199V26.5699L23.5 25.9699H23.49Z" stroke="#323232" stroke-width="1.5" stroke-linecap="round" stroke-linejoin="round"/>
<path d="M23.49 14.6201H9.75" stroke="#323232" stroke-width="1.5" stroke-linecap="round" stroke-linejoin="round"/>
<path d="M23.49 23.8799H9.75" stroke="#323232" stroke-width="1.5" stroke-linecap="round" stroke-linejoin="round"/>
<path d="M13.96 9.66016H19.28" stroke="#323232" stroke-width="1.5" stroke-linecap="round" stroke-linejoin="round"/>
<path d="M13.37 30.46H19.87V38.85" fill="white"/>
<path d="M13.37 30.46H19.87V38.85" stroke="#323232" stroke-width="1.5" stroke-linecap="round" stroke-linejoin="round"/>
<path d="M19.87 41.87H13.37V33.48" fill="white"/>
<path d="M19.87 41.87H13.37V33.48" stroke="#323232" stroke-width="1.5" stroke-linecap="round" stroke-linejoin="round"/>
</g>
<defs>
<clipPath id="clip0_477_888">
<rect width="34.16" height="44.98" fill="white" transform="translate(9 2)"/>
</clipPath>
</defs>
</svg>
