<svg width="54" height="60" viewBox="0 0 54 60" fill="none" xmlns="http://www.w3.org/2000/svg">
<g clip-path="url(#clip0_279_4108)">
<path d="M50.1739 15.1812L31.7939 2.56596C30.6226 1.76205 29.0214 2.05985 28.2175 3.23112L2.31329 40.9727C1.50938 42.1439 1.80718 43.7451 2.97845 44.549L21.3584 57.1643C22.5297 57.9682 24.1309 57.6704 24.9348 56.4991L50.839 18.7576C51.643 17.5863 51.3452 15.9851 50.1739 15.1812Z" fill="white" stroke="#323232" stroke-width="2" stroke-miterlimit="10"/>
<path d="M47.5306 20.3623L27.9046 6.89185L4.40541 41.1293L24.0314 54.5998L47.5306 20.3623Z" fill="#FFD151"/>
<path d="M42.6615 12.3593L37.1281 8.56146C36.6591 8.23951 36.0178 8.35877 35.6959 8.82784L35.6924 8.83293C35.3704 9.30199 35.4897 9.94324 35.9588 10.2652L41.4921 14.063C41.9612 14.385 42.6024 14.2657 42.9243 13.7967L42.9278 13.7916C43.2498 13.3225 43.1305 12.6813 42.6615 12.3593Z" fill="white" stroke="#323232" stroke-width="2" stroke-miterlimit="10"/>
<path d="M27.2459 36.269L27.3069 36.3109C27.551 36.4784 27.8128 36.097 27.5687 35.9294L22.3202 32.3271C22.2897 32.3061 22.2541 32.2817 22.2236 32.2608C22.071 32.156 21.9467 31.9884 21.896 31.8115C21.839 31.6003 21.8722 31.421 21.9502 31.2202C22 31.0823 22.0497 30.9444 22.0995 30.8065C22.2967 30.2685 22.4974 29.7254 22.6945 29.1874C22.9716 28.4348 23.2487 27.6823 23.5223 26.9349C23.8117 26.1535 24.1012 25.3721 24.389 24.5821C24.6287 23.9385 24.8633 23.2915 25.1065 22.6429C25.2307 22.3093 25.3534 21.967 25.4777 21.6333C25.4882 21.6181 25.4901 21.6044 25.4955 21.5857C25.5985 21.3048 25.1625 21.1551 25.0595 21.4361C24.9707 21.6744 24.8819 21.9127 24.7932 22.1511C24.5712 22.7469 24.3528 23.3377 24.136 23.937C23.85 24.7134 23.5676 25.4846 23.2765 26.2575C22.9906 27.0338 22.7011 27.8152 22.4152 28.5916L21.751 30.3877C21.6603 30.6397 21.5611 30.8933 21.4704 31.1453C21.2748 31.6919 21.4719 32.2985 21.9465 32.6317C22.0431 32.698 22.1449 32.7678 22.2415 32.8342L27.2306 36.2585L27.2459 36.269Z" fill="#323232"/>
<path d="M23.6579 28.9282L27.8486 31.8045C28.3317 32.1362 28.8149 32.4678 29.298 32.7994C29.3235 32.8168 29.354 32.8378 29.3794 32.8552C29.4236 32.8781 29.5071 32.898 29.5789 32.9024C29.6371 32.9049 29.7108 32.8956 29.7572 32.8826C29.8705 32.8482 29.9347 32.7875 30.0315 32.7118C30.3169 32.4812 30.5938 32.2523 30.8792 32.0217C31.5539 31.4748 32.2235 30.9243 32.8946 30.3825C32.9915 30.3068 33.0572 30.2546 33.115 30.1596C33.1762 30.0595 33.1935 29.9143 33.1645 29.7821C33.1371 29.6586 33.0598 29.5532 32.9514 29.4713C32.8599 29.4084 32.7734 29.3491 32.6819 29.2863L25.277 24.2039L23.5273 28.8461C23.5273 28.8461 23.5613 28.8619 23.5765 28.8724L23.663 28.9317L23.6579 28.9282Z" fill="white"/>
<path d="M33.3992 29.2549C33.3318 29.1787 33.2539 29.1178 33.1675 29.0584L25.488 23.7875C25.2438 23.62 24.982 24.0014 25.2262 24.169L32.6819 29.2863C32.7734 29.3491 32.8599 29.4085 32.9515 29.4713C33.0583 29.5446 33.1371 29.6586 33.1645 29.7821C33.1936 29.9143 33.1762 30.0595 33.115 30.1596C33.0537 30.2597 32.9915 30.3068 32.8947 30.3825C32.22 30.9294 31.5504 31.4799 30.8792 32.0217C30.5938 32.2523 30.3169 32.4812 30.0315 32.7118C29.9347 32.7875 29.8706 32.8482 29.7572 32.8826C29.7108 32.8957 29.6371 32.9049 29.579 32.9024C29.5072 32.898 29.4236 32.8781 29.3794 32.8552C29.354 32.8378 29.3235 32.8168 29.298 32.7994C28.8149 32.4678 28.3317 32.1362 27.8486 31.8046L23.5715 28.8689C23.5715 28.8689 23.5409 28.848 23.5222 28.8426C23.2924 28.7522 23.0808 29.0933 23.3097 29.2503L28.9193 33.1005C28.9599 33.1285 29.0057 33.1599 29.0464 33.1878C29.3261 33.3798 29.6832 33.4154 29.9999 33.2811C30.1237 33.2315 30.219 33.1472 30.3228 33.0613C30.4387 32.9688 30.5546 32.8763 30.6654 32.7802C31.4007 32.1776 32.1411 31.5785 32.8764 30.9759C33.0961 30.7975 33.3739 30.6216 33.5126 30.3652C33.7038 30.0101 33.6638 29.5562 33.3925 29.2428L33.3992 29.2549Z" fill="#323232"/>
<path d="M21.4878 35.1747C21.7741 34.7577 21.6672 34.1831 21.2502 33.8968C20.8331 33.6106 20.2585 33.7175 19.9723 34.1345C19.686 34.5515 19.7929 35.1261 20.2099 35.4124C20.627 35.6986 21.2016 35.5917 21.4878 35.1747Z" fill="white"/>
<path d="M21.512 33.5156C20.8813 33.0827 20.0202 33.2473 19.5908 33.8729C19.1615 34.4984 19.3226 35.3646 19.9481 35.794C20.5737 36.2233 21.4399 36.0622 21.8693 35.4367C22.2986 34.8111 22.1375 33.9449 21.512 33.5156ZM19.9672 34.1312C20.2534 33.7141 20.828 33.6073 21.2451 33.8935C21.6621 34.1797 21.769 34.7544 21.4827 35.1714C21.1965 35.5884 20.6219 35.6953 20.2049 35.4091C19.7878 35.1228 19.6809 34.5482 19.9672 34.1312Z" fill="#323232"/>
<path d="M25.69 36.9442C25.273 36.6579 24.6984 36.7648 24.4121 37.1819C24.1259 37.5989 24.2328 38.1735 24.6498 38.4597C25.0668 38.746 25.6415 38.6391 25.9277 38.2221C26.2139 37.805 26.1071 37.2304 25.69 36.9442Z" fill="white"/>
<path d="M25.9518 36.5629C25.3212 36.1301 24.4601 36.2947 24.0307 36.9202C23.6014 37.5458 23.7625 38.412 24.388 38.8413C25.0136 39.2707 25.8798 39.1096 26.3091 38.484C26.7385 37.8585 26.5774 36.9923 25.9518 36.5629ZM24.6463 38.465C24.2293 38.1788 24.1224 37.6041 24.4087 37.1871C24.6949 36.7701 25.2695 36.6632 25.6865 36.9494C26.1036 37.2357 26.2105 37.8103 25.9242 38.2273C25.638 38.6444 25.0634 38.7512 24.6463 38.465Z" fill="#323232"/>
<path d="M31.0397 24.321C32.6722 25.4416 34.9021 25.0268 36.0226 23.3943C37.1431 21.7618 36.7284 19.5319 35.0959 18.4114C33.4633 17.2909 31.2334 17.7056 30.1129 19.3381C28.9924 20.9707 29.4072 23.2005 31.0397 24.321ZM31.8332 20.5488C31.9044 20.9792 31.9721 21.4147 32.0382 21.8416C32.0862 21.8372 32.1376 21.8276 32.1856 21.8231C33.0684 21.7033 33.9511 21.5835 34.8374 21.4586C34.9626 21.4397 35.083 21.5149 35.1069 21.6436C35.1293 21.7636 35.0471 21.8943 34.9219 21.9131C34.7968 21.932 34.6665 21.9473 34.5414 21.9661C33.6586 22.086 32.7758 22.2058 31.8896 22.3307C31.7679 22.3444 31.6389 22.2708 31.62 22.1457L31.3787 20.6333C31.333 20.3401 31.7876 20.2556 31.8332 20.5488Z" fill="white"/>
<path d="M31.6235 22.1407C31.6424 22.2658 31.7714 22.3395 31.8931 22.3257C32.7759 22.2059 33.6586 22.0861 34.5449 21.9612C34.67 21.9423 34.8003 21.927 34.9254 21.9081C35.0506 21.8893 35.1328 21.7586 35.1104 21.6386C35.0865 21.5099 34.9661 21.4347 34.8409 21.4536C33.9581 21.5734 33.0754 21.6932 32.1891 21.8181C32.1411 21.8226 32.0897 21.8322 32.0417 21.8367C31.9705 21.4062 31.9028 20.9707 31.8367 20.5438C31.7911 20.2506 31.3365 20.3352 31.3822 20.6283L31.6235 22.1407Z" fill="#323232"/>
</g>
<defs>
<clipPath id="clip0_279_4108">
<rect width="28.671" height="52.1543" fill="white" transform="translate(29.5136 0.252686) rotate(34.4641)"/>
</clipPath>
</defs>
</svg>
