<svg width="50" height="50" viewBox="0 0 50 50" fill="none" xmlns="http://www.w3.org/2000/svg">
<g clip-path="url(#clip0_477_892)">
<path d="M37.14 1.75023C37.14 1.75023 31.32 3.30023 31.32 12.3502C31.32 16.2602 29.74 19.7902 27.18 22.3502C22.73 26.8002 15.83 25.8902 15.83 44.1002H37.67C37.67 44.1002 34.07 38.4002 39.3 30.2902C41.57 26.7602 42.67 25.6202 42.8 22.2502C42.97 17.8702 39.93 14.1202 37.26 12.3402C41.17 12.3402 44.33 9.17023 44.33 5.27023H37.14V1.74023V1.75023Z" fill="white" stroke="#323232" stroke-width="1.5" stroke-linecap="round" stroke-linejoin="round"/>
<path d="M31.3199 12.3501L42.7999 22.2601C42.9699 17.8801 39.9299 14.1301 37.2599 12.3501H31.3299H31.3199Z" fill="#FFD151" stroke="#323232" stroke-width="1.5" stroke-linecap="round" stroke-linejoin="round"/>
<path d="M28.7501 11.2998C27.6401 11.2998 26.6801 11.7198 26.1801 12.3498C26.6801 12.9698 27.6401 13.3998 28.7501 13.3998C29.8601 13.3998 30.8201 12.9798 31.3201 12.3498C30.8201 11.7298 29.8601 11.2998 28.7501 11.2998Z" fill="#FFD151" stroke="#323232" stroke-width="1.5" stroke-linecap="round" stroke-linejoin="round"/>
<path d="M32.88 31.9301C32.88 36.4901 29.18 40.1801 24.63 40.1801C24.63 40.1801 32.88 39.9501 32.88 44.1001V29.3101" stroke="#323232" stroke-width="1.5" stroke-linecap="round" stroke-linejoin="round"/>
<path d="M16.32 36.31C15.01 37.84 13.07 38.8 10.9 38.8C6.95 38.8 3.75 35.6 3.75 31.65C3.75 27.7 6.95 24.5 10.9 24.5C9.98 25.42 9.41 26.7 9.41 28.11C9.41 30.93 11.69 33.21 14.51 33.21C15.57 33.21 16.56 32.88 17.38 32.33" fill="white"/>
<path d="M16.32 36.31C15.01 37.84 13.07 38.8 10.9 38.8C6.95 38.8 3.75 35.6 3.75 31.65C3.75 27.7 6.95 24.5 10.9 24.5C9.98 25.42 9.41 26.7 9.41 28.11C9.41 30.93 11.69 33.21 14.51 33.21C15.57 33.21 16.56 32.88 17.38 32.33" stroke="#323232" stroke-width="1.5" stroke-linecap="round" stroke-linejoin="round"/>
</g>
<defs>
<clipPath id="clip0_477_892">
<rect width="42.07" height="43.85" fill="white" transform="translate(3 1)"/>
</clipPath>
</defs>
</svg>
