<svg width="114" height="112" viewBox="0 0 114 112" fill="none" xmlns="http://www.w3.org/2000/svg">
<path d="M109.012 46.0429C107.807 45.7901 106.531 45.8744 105.323 46.0632C103.934 46.2823 102.835 46.9565 101.63 47.6409C101.296 47.8297 100.808 47.5937 100.831 47.179C100.915 45.6721 101.225 44.1887 101.66 42.7459C102.554 39.7657 104.07 37.0316 104.985 34.0649C105.894 31.115 105.793 28.1079 104.424 25.3232C102.314 21.0215 97.883 18.5875 93.3485 17.7514C90.9744 17.3132 88.5969 17.4379 86.1994 17.5154C83.4547 17.6031 80.7099 17.6806 77.9618 17.7413C73.474 17.8458 68.9896 17.8762 64.4985 17.8762C59.2594 17.8762 54.0169 17.8323 48.7745 17.8762C43.1314 17.9267 37.4816 17.7885 31.8418 17.6334C26.9901 17.4986 22.0582 16.9187 17.3968 18.6347C12.8889 20.2933 9.22591 23.9242 8.47127 28.8361C7.96373 32.1332 9.38285 35.2549 10.6384 38.2048C11.8538 41.0602 12.9924 44.0438 13.1627 47.179C13.1861 47.5971 12.6986 47.8331 12.3647 47.6409C11.6368 47.2262 10.9289 46.7543 10.1509 46.4407C9.42626 46.1508 8.64491 46.0362 7.87023 45.9553C6.43107 45.8103 4.88171 45.844 3.5661 46.5216C2.14363 47.2532 1.18864 48.6759 0.631006 50.1491C0.0767114 51.6156 -0.157027 53.2641 0.130137 54.8183C0.417302 56.3792 1.1853 57.7816 1.91657 59.1706C2.6278 60.5224 3.35573 61.9148 3.64624 63.4318C3.77312 64.096 3.84658 64.7702 3.93006 65.4411C4.18717 67.4908 4.41423 69.5439 4.65799 71.5936C4.92178 73.8186 5.18557 76.0437 5.51281 78.2619C5.63969 79.1149 5.76992 79.9678 5.94355 80.8106C6.00366 81.0972 6.06376 81.3837 6.1439 81.6669C6.24741 82.0378 6.24074 82.0276 6.41771 82.331C7.83684 84.7718 11.3095 84.2897 13.7671 84.2897H64.8858C64.9526 84.2897 65.0193 84.2897 65.0895 84.2897C69.1866 84.2189 73.2904 84.2897 77.3908 84.2897H101.232C103.529 84.2897 106.488 84.4988 107.713 82.1153C107.74 82.0613 107.753 82.0411 107.757 82.0378C107.757 82.031 107.763 82.0074 107.784 81.9568C107.814 81.8692 107.84 81.7815 107.864 81.6939C107.924 81.4882 107.971 81.2792 108.014 81.0702C108.151 80.4431 108.258 79.8094 108.358 79.1789C108.628 77.4832 108.845 75.7807 109.056 74.0782C109.456 70.8284 109.78 67.5684 110.228 64.3286C110.512 62.2688 111.393 60.509 112.348 58.6885C112.939 57.5625 113.517 56.4163 113.807 55.1689C114.098 53.9215 114.044 52.6068 113.751 51.3661C113.16 48.8782 111.627 46.5823 109.026 46.0362L109.012 46.0429ZM21.7443 67.1739C21.6508 67.2683 21.5039 67.3324 21.367 67.3324C20.9997 67.3256 20.6324 67.3223 20.2651 67.3155C19.0496 67.2987 17.8342 67.2818 16.6187 67.2616C16.6121 67.5684 16.6087 67.8785 16.6121 68.1853C16.6187 68.5764 16.6321 68.9708 16.6621 69.3619C16.6755 69.5608 16.6955 69.7597 16.7156 69.9552C16.7222 70.0091 16.7289 70.0631 16.7356 70.117C16.7356 70.144 16.7423 70.171 16.7456 70.1979C16.7456 70.2114 16.7556 70.2822 16.7456 70.208C16.7456 70.1912 16.7423 70.1811 16.7423 70.1777C16.7423 70.1844 16.7456 70.2114 16.749 70.2182C16.7523 70.2451 16.7556 70.2721 16.759 70.2991C16.7657 70.3463 16.7723 70.3935 16.779 70.4407C16.8992 71.2194 17.0829 71.9847 17.35 72.723C17.4502 73.0062 17.2365 73.2995 16.9794 73.3838C16.6922 73.4782 16.4217 73.2725 16.3249 73.0095C16.2614 72.8275 16.198 72.6455 16.1446 72.4634C15.6804 70.9295 15.5369 69.3045 15.5469 67.7066C15.5569 66.0783 15.7339 64.4567 15.8841 62.8351C16.0377 61.1731 16.1646 59.4976 16.0544 57.8288C16.0411 57.6299 16.0244 57.431 16.0043 57.2321C15.9943 57.1445 15.9843 57.0568 15.9743 56.9692C15.9743 56.9523 15.9609 56.8748 15.9609 56.8714C15.9609 56.8545 15.9576 56.8377 15.9543 56.8343C15.9075 56.5005 15.8474 56.1702 15.7773 55.8431C15.6337 55.1891 15.44 54.5418 15.1863 53.9215C15.1729 53.8946 15.1662 53.8743 15.1696 53.8811C15.1529 53.844 15.1395 53.8103 15.1228 53.7732C15.0894 53.699 15.056 53.6249 15.0226 53.5507C14.9525 53.4024 14.8791 53.2574 14.8023 53.1124C14.6453 52.8158 14.4683 52.5292 14.278 52.2528C14.2313 52.1853 14.1845 52.1213 14.1378 52.0572C14.1311 52.0471 14.0777 51.9763 14.081 51.9797C14.071 51.9662 14.0576 51.9494 14.0543 51.946C13.9508 51.8145 13.8439 51.6864 13.7304 51.5617C13.51 51.3156 13.2729 51.0863 13.0192 50.8739C12.7921 50.6818 12.8388 50.3143 13.0192 50.1154C13.2262 49.8895 13.5568 49.9334 13.7705 50.1154C13.8974 50.2233 14.0242 50.3379 14.1444 50.4559C15.1529 51.4369 15.8674 52.6775 16.3483 53.9957C16.8458 55.3543 17.0729 56.804 17.1363 58.2468C17.2098 59.9358 17.0595 61.6215 16.9026 63.3004C16.8124 64.2612 16.7189 65.2253 16.6621 66.1895C16.9159 66.1929 17.173 66.1963 17.4268 66.1996C18.7391 66.2199 20.0514 66.2367 21.367 66.2569C21.6642 66.2603 21.8845 66.4997 21.8979 66.793C21.9046 66.9278 21.8344 67.0795 21.741 67.1739H21.7443ZM100.087 50.8773C99.9633 50.9818 99.8431 51.0897 99.7262 51.2043C99.4858 51.4369 99.2621 51.6864 99.055 51.9494C99.0317 51.9797 98.9482 52.1011 99.0317 51.9763C99.0116 52.0033 98.9916 52.0303 98.9682 52.0606C98.9215 52.1247 98.8747 52.1921 98.828 52.2561C98.7312 52.3944 98.641 52.536 98.5542 52.6775C98.3839 52.9607 98.2269 53.254 98.0867 53.5507C98.05 53.6282 98.0132 53.7091 97.9765 53.7901C97.9598 53.8271 97.9431 53.8642 97.9298 53.9013C97.9298 53.9013 97.9298 53.9013 97.9298 53.9047C97.8663 54.0631 97.8062 54.2216 97.7461 54.38C97.5191 55.0172 97.3488 55.678 97.2285 56.3455C97.1985 56.5073 97.1718 56.6725 97.1517 56.8343C97.1517 56.8444 97.1517 56.8579 97.1484 56.868C97.1517 56.9051 97.1384 56.9523 97.1317 56.9894C97.1217 57.0703 97.1117 57.1512 97.105 57.2355C97.0649 57.6367 97.0382 58.0412 97.0249 58.4458C96.9681 60.1179 97.125 61.79 97.282 63.4554C97.4356 65.0635 97.5892 66.675 97.5591 68.2898C97.5291 69.8878 97.3254 71.506 96.7844 73.0129C96.6843 73.2961 96.4305 73.4579 96.13 73.3871C95.8662 73.3264 95.6658 72.9927 95.7593 72.7264C95.8261 72.5409 95.8896 72.3522 95.9463 72.16C96.0599 71.7858 96.15 71.4082 96.2268 71.0273C96.2669 70.8317 96.3003 70.6362 96.3303 70.4407C96.337 70.3867 96.347 70.3328 96.3537 70.2788C96.3537 70.2654 96.357 70.2519 96.3604 70.2384C96.3537 70.2316 96.3904 69.9754 96.3938 69.9518C96.4806 69.1663 96.5073 68.3707 96.4973 67.5818C96.4973 67.474 96.4939 67.3661 96.4906 67.2582C96.2201 67.2616 95.9497 67.2649 95.6792 67.2683C94.3669 67.2885 93.0546 67.3054 91.739 67.3256C91.5954 67.3256 91.4652 67.2649 91.3617 67.1672C91.2582 67.0694 91.2114 66.9278 91.2048 66.7862C91.1981 66.6514 91.2682 66.4997 91.3617 66.4053C91.4585 66.3075 91.5988 66.2502 91.739 66.2468C92.1063 66.2401 92.4736 66.2367 92.8409 66.23C94.043 66.2131 95.2418 66.1963 96.4438 66.1794C96.3737 65.0096 96.2535 63.8431 96.1467 62.6733C95.9931 60.9944 95.8762 59.3054 96.0064 57.6232C96.1199 56.1735 96.4205 54.7542 96.9848 53.4159C97.5124 52.1584 98.2937 50.9919 99.3355 50.1087C99.5626 49.9165 99.8598 49.8996 100.087 50.1087C100.287 50.2941 100.301 50.6851 100.087 50.8672V50.8773Z" fill="#232B65"/>
<path d="M74.4291 61.0046C74.4291 61.0046 74.4157 61.0282 74.4123 61.0383C74.4022 61.0551 74.4224 61.0248 74.4291 61.0046Z" fill="white"/>
<path d="M70.5824 60.8999H40.8676C40.8676 60.8999 40.8742 60.9235 40.8776 60.9337C40.8842 60.9573 40.9243 61.0451 40.9143 61.035C40.931 61.0654 40.951 61.0992 40.9677 61.1296C40.9677 61.1296 40.9677 61.133 40.9711 61.1363C40.9911 61.16 41.0145 61.1836 41.0378 61.2073C41.0512 61.2208 41.1013 61.2613 41.1046 61.2647C41.1447 61.2917 41.1848 61.3187 41.2282 61.339C41.2482 61.3491 41.2683 61.3593 41.2916 61.3694C41.2983 61.3694 41.305 61.3728 41.3117 61.3761C41.3718 61.393 41.4285 61.4099 41.4886 61.4234C41.4986 61.4234 41.5053 61.4268 41.5087 61.4268C41.5354 61.4268 41.5621 61.4302 41.5888 61.4336C41.6088 61.4336 41.6255 61.4336 41.6456 61.4336C41.6522 61.4336 41.6589 61.4336 41.6656 61.4336C41.7624 61.4336 41.8593 61.4336 41.9561 61.4336H73.05C73.3038 61.4336 73.5776 61.4572 73.8314 61.4268C73.8114 61.4268 73.9249 61.4032 73.9483 61.3964C73.9683 61.3897 74.0752 61.3491 74.0618 61.3593C74.0985 61.3424 74.1353 61.3221 74.172 61.2985C74.1954 61.285 74.2187 61.2681 74.2388 61.2546C74.2621 61.2343 74.2855 61.2106 74.3089 61.187C74.3122 61.1836 74.3289 61.1634 74.3423 61.1498C74.3556 61.1296 74.389 61.0789 74.399 61.0688C74.4057 61.062 74.4091 61.0519 74.4124 61.0418C74.4124 61.035 74.4191 61.0249 74.4291 61.008C74.4291 61.008 74.4291 61.008 74.4291 61.0046C74.4391 60.9708 74.4491 60.9371 74.4558 60.9033C74.1052 60.9033 73.7513 60.9033 73.4007 60.9033H70.5791L70.5824 60.8999Z" fill="white"/>
<path d="M41.2826 61.3688C41.2309 61.355 41.2585 61.3619 41.2826 61.3688V61.3688Z" fill="white"/>
<path d="M61.7403 23.7151C61.4632 23.1993 61.2996 22.6295 61.1092 22.0767C60.5683 22.4778 59.9706 22.7981 59.3395 23.0375C58.9522 23.1824 58.5515 23.2903 58.1441 23.3476C57.907 23.3813 57.6699 23.4117 57.4329 23.4184C57.2959 23.4218 57.1624 23.4184 57.0255 23.4184C56.8886 23.4184 56.755 23.4184 56.6181 23.4184C56.391 23.4117 56.164 23.3847 55.9403 23.351C55.5496 23.2937 55.1656 23.1892 54.7949 23.0476C54.2039 22.8217 53.6463 22.5217 53.1354 22.1508C53.1187 22.2452 53.0987 22.3396 53.0786 22.434C52.8749 23.2768 52.4008 24.0556 51.7797 24.6557C51.576 24.8512 51.3556 25.0265 51.1252 25.1816C52.1036 25.5052 53.1154 25.721 54.1371 25.8659C54.5345 25.9199 54.9352 25.9603 55.3359 25.9907C56.1005 26.048 56.8685 26.0682 57.6332 26.048C58.3711 26.0278 59.1091 25.9705 59.8437 25.8727C60.1275 25.8322 60.4114 25.7884 60.6952 25.7345C61.5133 25.5828 62.3213 25.3737 63.1027 25.0906C63.0526 25.0602 63.0025 25.0265 62.9524 24.9928C62.4549 24.659 62.0241 24.2477 61.7403 23.7117V23.7151Z" fill="white"/>
<path d="M40.9711 61.1323C40.9915 61.1663 41.0052 61.1697 40.9711 61.1323V61.1323Z" fill="white"/>
<path d="M65.6271 12.327C65.5803 12.2225 65.5236 12.1213 65.4568 12.0269C65.4201 11.9831 65.38 11.9426 65.3399 11.9056C65.3099 11.8853 65.2765 11.8651 65.2431 11.8482C65.2097 11.8381 65.1763 11.828 65.1463 11.8213C65.016 11.8112 64.8891 11.8179 64.7589 11.8314C64.5051 11.8718 64.2514 11.9325 64.0076 12.0202C63.9575 13.1799 63.9041 14.3396 63.844 15.4993C63.9542 15.4993 64.061 15.4959 64.1712 15.4825C64.3282 15.4555 64.4818 15.415 64.632 15.3611C64.7623 15.3004 64.8858 15.2296 65.0027 15.1453C65.1195 15.0476 65.2264 14.9397 65.3199 14.8217C65.4201 14.6801 65.5069 14.525 65.5803 14.3632C65.6672 14.1373 65.7306 13.9013 65.7673 13.662C65.7974 13.399 65.7974 13.1361 65.7673 12.8731C65.7373 12.6877 65.6905 12.5023 65.6271 12.327Z" fill="white"/>
<path d="M49.0985 11.899C48.9683 11.8855 48.8347 11.8788 48.7045 11.8889C48.6711 11.8956 48.6377 11.9058 48.6043 11.9159C48.571 11.9327 48.5376 11.953 48.5075 11.9732C48.4641 12.0103 48.424 12.0507 48.3873 12.0945C48.3205 12.1889 48.2671 12.2867 48.2203 12.3912C48.1569 12.5632 48.1102 12.7418 48.0834 12.9205C48.0534 13.1733 48.0567 13.4296 48.0834 13.6858C48.1202 13.9117 48.1769 14.1342 48.2571 14.3499C48.3339 14.5218 48.424 14.6837 48.5342 14.8354C48.6244 14.9466 48.7279 15.0511 48.8381 15.1422C48.9549 15.2264 49.0785 15.3006 49.2121 15.3613C49.3623 15.4186 49.5193 15.4591 49.6762 15.486C49.8265 15.5029 49.9801 15.5063 50.1337 15.4995C50.0201 14.3533 49.8465 13.2138 49.7797 12.0608C49.5593 11.99 49.3289 11.9327 49.1019 11.899H49.0985Z" fill="white"/>
<path d="M63.7205 6.35976C63.637 5.91476 63.5135 5.4765 63.3432 5.05509C63.3131 4.98429 63.2831 4.91687 63.2497 4.84944C63.1195 4.58312 62.9692 4.32353 62.7922 4.08417C62.6286 3.87852 62.445 3.68636 62.2413 3.52117C62.0977 3.41666 61.9474 3.32227 61.7872 3.2481C61.667 3.2009 61.5434 3.16382 61.4165 3.14022C61.3598 3.13685 61.2997 3.13348 61.2429 3.13685C61.1026 3.14359 60.9691 3.0728 60.8656 2.9784C60.7854 2.90423 60.7387 2.79972 60.722 2.69184C60.6151 2.58734 60.5049 2.48957 60.3914 2.39855C60.0475 2.13896 59.6702 1.92657 59.2761 1.75127C58.7252 1.52202 58.1475 1.37032 57.5598 1.28266C57.0055 1.21187 56.4412 1.20512 55.8869 1.27592C55.6832 1.30626 55.4796 1.34672 55.2792 1.40403C54.9653 1.49168 54.6548 1.60967 54.3543 1.73778C54.2541 1.78161 54.1539 1.82543 54.0571 1.87263C53.8434 1.97377 53.6364 2.08502 53.4327 2.20638C53.2257 2.33112 53.0253 2.46934 52.8316 2.61431C52.7682 2.66487 52.7047 2.71544 52.6446 2.76938C52.3541 3.02223 52.0903 3.30204 51.8499 3.60208C51.7932 3.67625 51.7397 3.75042 51.6863 3.82796C51.4559 4.16845 51.2589 4.53255 51.0953 4.91013C51.0452 5.02812 51.0018 5.14948 50.9584 5.27085C50.7714 5.81362 50.6445 6.37662 50.5644 6.94299C50.5377 7.15538 50.5176 7.36777 50.5043 7.58353C50.4809 7.93414 50.4742 8.28475 50.4776 8.63535C50.6478 8.60164 50.8181 8.56456 50.9851 8.5241C51.6028 8.37577 52.2072 8.18024 52.7916 7.93414C52.9518 7.86334 53.1088 7.79254 53.2657 7.715C53.8401 7.43182 54.391 7.10144 54.8986 6.71037C55.2458 6.43393 55.5697 6.13389 55.8602 5.80014C55.9537 5.69226 56.1006 5.64843 56.2375 5.64169C56.3778 5.63494 56.5114 5.70574 56.6149 5.80014C56.7117 5.89116 56.7718 6.04624 56.7718 6.18109C56.7718 6.32605 56.7084 6.45416 56.6149 6.56204C56.3277 6.89242 56.0071 7.19246 55.6666 7.46216C55.3961 7.67792 55.1123 7.8802 54.8251 8.06898C55.1423 7.97796 55.4562 7.87008 55.7634 7.74197C56.2943 7.50936 56.8019 7.2228 57.2627 6.86882C57.5632 6.62946 57.8403 6.35976 58.0774 6.05635C58.1141 6.00578 58.1509 5.95184 58.1876 5.90127C58.2577 5.79676 58.3412 5.7226 58.4547 5.6754C58.4981 5.6046 58.5582 5.54055 58.635 5.49335C58.7486 5.41918 58.9189 5.40233 59.0457 5.43941C59.1726 5.47312 59.2995 5.57089 59.363 5.68551C59.5232 5.97881 59.7069 6.262 59.9072 6.52833C60.2478 6.95985 60.6352 7.35091 61.0626 7.69478C61.283 7.86334 61.5134 8.01842 61.7504 8.16001C61.9942 8.30497 62.248 8.43308 62.4951 8.57467C62.7789 8.73649 63.0494 8.91517 63.2965 9.12756C63.4734 9.28263 63.6337 9.46131 63.7639 9.66021C63.7906 9.4512 63.8107 9.24218 63.8274 9.03316C63.8875 8.26452 63.8875 7.4925 63.7906 6.72723C63.7739 6.60249 63.7539 6.47776 63.7305 6.35302L63.7205 6.35976Z" fill="#232B65"/>
<path d="M63.0393 10.6749C63.0259 10.6041 63.0059 10.5333 62.9825 10.4659C62.9357 10.3681 62.8823 10.2771 62.8189 10.1861C62.7154 10.058 62.5985 9.94334 62.4716 9.83884C62.1577 9.60622 61.8071 9.42754 61.4665 9.23875C60.8321 8.88814 60.2377 8.45662 59.7235 7.9442C59.3862 7.61044 59.079 7.23623 58.8086 6.8418C58.645 7.0407 58.4713 7.22949 58.281 7.40142C57.6967 7.93408 57.0188 8.35886 56.2976 8.67238C55.8902 8.85106 55.4761 9.00614 55.0487 9.12413C54.6046 9.2455 54.1572 9.32978 53.6997 9.38709C53.5628 9.40394 53.4192 9.31966 53.3224 9.22864C53.2389 9.1511 53.1922 9.04322 53.1755 8.93197C52.3774 9.2691 51.5527 9.52531 50.7045 9.68713C50.6411 9.70062 50.581 9.70399 50.5209 9.70061C50.5442 9.99054 50.5743 10.2838 50.6144 10.5738C50.6544 10.8772 50.7045 11.1806 50.7579 11.4806C50.7947 11.5548 50.8147 11.6391 50.8181 11.72C50.8348 12.1549 50.8681 12.5898 50.9082 13.0213C50.9783 13.7427 51.0785 14.4608 51.1553 15.1823C51.1954 15.5565 51.2288 15.9341 51.2555 16.3083C51.2755 16.6184 51.2855 16.9286 51.3189 17.2387C51.3924 17.7579 51.5293 18.2636 51.723 18.749C51.9233 19.2109 52.1771 19.6492 52.4776 20.0537C52.8015 20.465 53.1688 20.8392 53.5795 21.1629C53.9902 21.4764 54.4377 21.7427 54.9118 21.9517C55.3292 22.1237 55.7666 22.2484 56.2141 22.3158C56.3376 22.3293 56.4645 22.3394 56.5914 22.3462C57.0121 22.3597 57.4429 22.363 57.8636 22.3125C58.3378 22.2417 58.8019 22.1068 59.246 21.9248C59.7235 21.7157 60.1743 21.4494 60.5883 21.1325C60.969 20.8291 61.3163 20.4819 61.6201 20.0975C61.8906 19.7334 62.121 19.3424 62.3013 18.9243C62.4749 18.4962 62.5918 18.0512 62.6586 17.5927C62.7087 17.178 62.7154 16.7566 62.7354 16.342C62.7788 15.4587 62.8222 14.5754 62.8656 13.6922C62.9057 12.846 62.9424 11.9998 62.9758 11.1536C62.9791 11.0559 63.0059 10.9682 63.0493 10.8907C63.0426 10.857 63.0393 10.8232 63.0393 10.7929C63.0393 10.7524 63.0393 10.712 63.0359 10.6749H63.0393ZM54.9452 13.2472C54.9218 13.2775 54.8951 13.3079 54.8718 13.3416C54.8116 13.3989 54.7449 13.4393 54.6647 13.4596C54.6213 13.4663 54.5812 13.4697 54.5378 13.4764C54.4711 13.4764 54.411 13.4663 54.3542 13.436C54.2941 13.4191 54.244 13.3854 54.2006 13.3416C54.1538 13.3011 54.1204 13.2505 54.1038 13.1932C54.0737 13.1393 54.0603 13.0786 54.0637 13.0146C54.0637 13.0044 54.0637 12.9943 54.0637 12.9842C54.0637 12.8999 54.0837 12.8224 54.1271 12.7516C54.1505 12.7213 54.1772 12.6909 54.2006 12.6572C54.2607 12.5999 54.3275 12.5594 54.4076 12.5392C54.451 12.5325 54.4911 12.5291 54.5345 12.5223C54.6013 12.5223 54.6614 12.5325 54.7182 12.5628C54.7783 12.5797 54.8283 12.6134 54.8718 12.6572C54.9185 12.6977 54.9519 12.7482 54.9686 12.8055C54.9986 12.8595 55.012 12.9202 55.0087 12.9842C55.0087 12.9943 55.0087 13.0044 55.0087 13.0146C55.0087 13.0988 54.9886 13.1764 54.9452 13.2472ZM56.4712 17.0803C56.4912 17.0129 56.528 16.9555 56.5814 16.9083C56.6281 16.8544 56.6849 16.8207 56.7517 16.7971C56.8151 16.7634 56.8819 16.7465 56.9554 16.7499C57.0789 16.7499 57.2058 16.7499 57.3293 16.7499C57.4262 16.7499 57.513 16.7735 57.5965 16.8241C57.6332 16.851 57.6666 16.8814 57.7033 16.9083C57.7701 16.9758 57.8135 17.0533 57.8402 17.1443C57.8469 17.1915 57.8536 17.2387 57.8603 17.2859C57.8603 17.3601 57.8469 17.4275 57.8135 17.4916C57.7935 17.559 57.7568 17.6163 57.7033 17.6635C57.6566 17.7174 57.5998 17.7512 57.533 17.7748C57.4696 17.8085 57.4028 17.8253 57.3293 17.822C57.2058 17.822 57.0789 17.822 56.9554 17.822C56.8585 17.822 56.7717 17.7984 56.6882 17.7478C56.6515 17.7208 56.6181 17.6905 56.5814 17.6635C56.5146 17.5961 56.4712 17.5185 56.4445 17.4275C56.4378 17.3803 56.4311 17.3331 56.4244 17.2859C56.4244 17.2118 56.4378 17.1443 56.4712 17.0803ZM58.8987 19.5784C58.8653 19.6997 58.7685 19.8413 58.655 19.8986C58.448 19.9998 58.2309 20.0908 58.0072 20.1515C57.6733 20.2425 57.3127 20.2796 56.9687 20.2459C56.5981 20.2088 56.2408 20.1245 55.8902 19.9964C55.7533 19.9458 55.6498 19.8717 55.573 19.7503C55.4962 19.6289 55.4895 19.4739 55.5195 19.3356C55.5496 19.2075 55.6531 19.0794 55.7633 19.0154C55.8735 18.9513 56.0505 18.9142 56.174 18.9614C56.4211 19.0525 56.6749 19.1266 56.9353 19.1705C57.1156 19.1907 57.296 19.1907 57.4729 19.1705C57.6532 19.1401 57.8302 19.0895 58.0005 19.0221C58.0406 19.0053 58.0773 18.9884 58.1174 18.9682C58.2009 18.921 58.291 18.894 58.3845 18.894C58.4313 18.9008 58.478 18.9075 58.5248 18.9142C58.6617 18.9446 58.7685 19.0457 58.842 19.1603C58.9154 19.275 58.9321 19.4469 58.8954 19.575L58.8987 19.5784ZM59.9739 13.2472C59.9506 13.2775 59.9238 13.3079 59.9005 13.3416C59.8404 13.3989 59.7736 13.4393 59.6935 13.4596C59.65 13.4663 59.61 13.4697 59.5666 13.4764C59.4998 13.4764 59.4397 13.4663 59.3829 13.436C59.3228 13.4191 59.2727 13.3854 59.2293 13.3416C59.1826 13.3011 59.1492 13.2505 59.1325 13.1932C59.1024 13.1393 59.0891 13.0786 59.0924 13.0146C59.0924 13.0044 59.0924 12.9943 59.0924 12.9842C59.0924 12.8999 59.1124 12.8224 59.1559 12.7516C59.1792 12.7213 59.2059 12.6909 59.2293 12.6572C59.2894 12.5999 59.3562 12.5594 59.4363 12.5392C59.4797 12.5325 59.5198 12.5291 59.5632 12.5223C59.63 12.5223 59.6901 12.5325 59.7469 12.5628C59.807 12.5797 59.8571 12.6134 59.9005 12.6572C59.9472 12.6977 59.9806 12.7482 59.9973 12.8055C60.0274 12.8595 60.0407 12.9202 60.0374 12.9842C60.0374 12.9943 60.0374 13.0044 60.0374 13.0146C60.0374 13.0988 60.0173 13.1764 59.9739 13.2472Z" fill="white"/>
<path d="M79.8118 65.9232C79.7784 65.5759 79.7617 65.4377 79.7016 65.0939C79.6014 64.5275 79.4345 63.8971 79.2308 63.4082C79.1473 63.206 78.9937 62.9025 78.8501 62.6767C78.8134 62.616 78.7733 62.5587 78.7299 62.5014C78.7166 62.4845 78.7066 62.4677 78.6932 62.4508C78.6865 62.4407 78.6765 62.4306 78.6732 62.4272C78.5897 62.3328 78.5096 62.235 78.4194 62.1474C78.3726 62.1002 78.3226 62.0564 78.2758 62.0159C78.2758 62.0159 78.2391 61.9856 78.219 61.9687C78.209 61.962 78.199 61.9552 78.1957 61.9519C78.1022 61.8844 78.0053 61.8204 77.9052 61.7664C77.8417 61.7293 77.7749 61.699 77.7115 61.6653C77.6915 61.6552 77.6781 61.6484 77.6748 61.6451C77.6681 61.6451 77.6547 61.6383 77.6347 61.6316C77.5112 61.5844 77.3876 61.5439 77.2607 61.5102C77.1272 61.4731 76.9936 61.4462 76.8567 61.4226C76.85 61.4226 76.82 61.4158 76.7999 61.4124C76.7799 61.4124 76.7498 61.4057 76.7432 61.4057C76.663 61.3956 76.5829 61.3889 76.5061 61.3821C76.1755 61.3585 75.8449 61.3619 75.5144 61.3787C75.4843 61.3787 75.4543 61.3787 75.4242 61.372C75.4075 61.4158 75.3908 61.4596 75.3708 61.5035C75.1404 61.999 74.6262 62.3631 74.0986 62.4643C73.7647 62.5283 73.4174 62.5081 73.0768 62.5081H58.408C58.408 62.9599 58.408 63.4116 58.4147 63.8633C58.4147 64.2173 58.4214 64.5747 58.4247 64.9287C58.4314 65.5793 58.4314 66.2333 58.4347 66.884C58.4347 67.0289 58.3746 67.1571 58.2778 67.2649C58.181 67.3694 58.0407 67.4166 57.9005 67.4234C57.7669 67.4301 57.6166 67.3593 57.5232 67.2649C57.4297 67.1705 57.3696 67.0222 57.3662 66.884C57.3662 66.4154 57.3662 65.9502 57.3595 65.4815C57.3595 65.1276 57.3529 64.7702 57.3495 64.4162C57.3428 63.7791 57.3428 63.1419 57.3395 62.5047H41.876C41.7992 62.5047 41.7224 62.5047 41.6423 62.5047C41.2616 62.498 40.8743 62.4002 40.5571 62.1845C40.2732 61.9889 40.0662 61.7395 39.9427 61.4495C39.9059 61.4495 39.8692 61.4394 39.8325 61.4293C39.5286 61.3248 39.2247 61.2169 38.9209 61.1023C38.8842 61.1124 38.8474 61.1192 38.8107 61.1259C38.9009 61.1124 38.7172 61.1394 38.6905 61.1461C38.6237 61.1562 38.5569 61.1697 38.4901 61.1832C38.3699 61.2102 38.2497 61.2371 38.1329 61.2709C38.0126 61.3046 37.8924 61.345 37.7756 61.3889C37.7455 61.399 37.7188 61.4124 37.6921 61.4226C37.6453 61.4428 37.6019 61.463 37.5585 61.4866C37.3548 61.5878 37.1578 61.7024 36.9775 61.8372C36.9642 61.8473 36.9508 61.8575 36.9374 61.8676C36.9308 61.8709 36.9274 61.8777 36.9208 61.8811C36.8807 61.9181 36.8373 61.9519 36.7972 61.9889C36.7237 62.0564 36.6503 62.1272 36.5802 62.2013C36.5067 62.2789 36.4399 62.3631 36.3698 62.4441C36.3698 62.4441 36.3698 62.4441 36.3698 62.4474C36.3631 62.4575 36.3531 62.4677 36.3464 62.4778C36.3164 62.5216 36.283 62.5654 36.2563 62.6092C36.1394 62.7845 36.0359 62.9666 35.9457 63.1554C35.919 63.2093 35.8956 63.2666 35.8689 63.3239C35.8689 63.3273 35.8656 63.3307 35.8623 63.3374C35.8556 63.3543 35.8489 63.3711 35.8422 63.388C35.8055 63.4858 35.7688 63.5835 35.7354 63.6813C35.5951 64.1061 35.505 64.541 35.4382 64.9826C35.4382 64.9826 35.4382 64.986 35.4382 64.9893C35.4382 64.9893 35.4382 64.9927 35.4382 64.9961C35.4348 65.0264 35.4315 65.0534 35.4282 65.0837C35.4215 65.1444 35.4148 65.2017 35.4081 65.2624C35.3981 65.3669 35.3881 65.4714 35.3814 65.5759C35.3647 65.8187 35.3547 66.058 35.3514 66.3008C35.3447 66.7727 35.3614 67.2447 35.3948 67.7133C35.4282 68.1752 35.4749 68.6404 35.5283 69.0989C35.5417 69.2101 35.5584 69.3214 35.5717 69.436C35.5717 69.4495 35.5751 69.463 35.5784 69.4765C35.5918 69.5675 35.6051 69.6619 35.6152 69.7529C35.6719 70.1608 35.7287 70.5688 35.7855 70.9767C36.2596 74.2805 36.8005 77.5742 37.3214 80.8679C37.8424 84.1684 38.3466 87.4688 38.8541 90.7693C39.345 93.9416 39.8358 97.114 40.3267 100.286C40.6071 100.286 40.8843 100.28 41.1648 100.276C43.0213 100.256 44.8779 100.232 46.7344 100.212C47.7095 100.202 48.6812 100.189 49.6562 100.178C49.6495 100.017 49.6462 99.8548 49.6361 99.6963C49.5994 98.9951 49.566 98.2973 49.5326 97.5961C49.4258 95.3677 49.3323 93.1426 49.2521 90.9142C49.1486 88.0858 49.0685 85.2573 49.0184 82.4288C48.9683 79.6037 48.9483 76.7752 49.005 73.9501C49.0284 72.7264 49.0685 71.4992 49.1353 70.2755C49.1753 69.5574 49.2321 68.8393 49.2555 68.1179C49.2855 67.1705 49.2455 66.2266 49.152 65.286C49.1219 64.9961 49.4191 64.75 49.6829 64.75C49.9901 64.75 50.1838 64.9995 50.2138 65.286C50.2606 65.7647 50.2973 66.2468 50.3173 66.7289C50.3707 68.1617 50.2305 69.5911 50.1637 71.0205C50.1737 71.0205 50.1838 71.0205 50.1938 71.0205C51.0453 71.0475 51.8967 71.0711 52.7482 71.0947C53.79 71.1216 54.8318 71.1419 55.877 71.1587C56.9722 71.1756 58.0708 71.1857 59.166 71.1891C60.1911 71.1891 61.2196 71.1823 62.2447 71.1554C63.0628 71.1351 63.8808 71.1048 64.6989 71.0374C64.7423 71.034 64.7857 71.0374 64.8292 71.0508C64.9393 70.798 65.0829 70.5586 65.2632 70.3328C65.5537 69.9754 65.9411 69.6922 66.3418 69.4697C67.1699 69.0112 68.0881 68.7651 68.9597 68.4112C68.9864 68.401 69.0131 68.3876 69.0398 68.3774C69.0398 68.3774 69.0465 68.3775 69.0498 68.3741C69.0932 68.3539 69.1366 68.337 69.1767 68.3168C69.2735 68.2729 69.3704 68.2257 69.4639 68.1752C69.554 68.128 69.6442 68.074 69.731 68.0201C69.7744 67.9931 69.8145 67.9662 69.8579 67.9358C69.8779 67.9223 69.9213 67.8886 69.9347 67.8785C69.9981 67.8246 70.0616 67.7706 70.1217 67.7099C70.1551 67.6762 70.1851 67.6391 70.2185 67.6054C70.2285 67.5953 70.2352 67.5886 70.2419 67.5818C70.2419 67.5818 70.2452 67.5751 70.2486 67.5684C70.302 67.4874 70.3521 67.4065 70.3955 67.3222C70.4055 67.3054 70.4122 67.2885 70.4189 67.2717C70.4355 67.2245 70.4522 67.1807 70.4656 67.1335C70.6659 66.4727 71.6911 66.7559 71.4907 67.42C71.4239 67.6358 71.3338 67.8515 71.2102 68.0437C70.696 68.8326 69.8178 69.227 68.973 69.5506C68.5423 69.7158 68.1048 69.8608 67.6741 70.0294C67.6207 70.0496 67.5672 70.0732 67.5138 70.0934C67.4971 70.1002 67.4203 70.1339 67.4103 70.1372C67.3168 70.1777 67.2233 70.2215 67.1298 70.2653C66.9328 70.3631 66.7425 70.4676 66.5588 70.589C66.5154 70.6193 66.472 70.6497 66.4286 70.68C66.4286 70.68 66.4219 70.6834 66.4219 70.6868C66.4052 70.7002 66.3919 70.7104 66.3785 70.7238C66.305 70.7879 66.2316 70.8519 66.1648 70.9227C66.0045 71.0879 65.8676 71.2936 65.7841 71.4925C65.5604 72.0083 65.5638 72.5814 65.6105 73.168C65.6606 73.8288 65.7775 74.4457 65.8409 75.1166C65.9144 75.8785 65.9244 76.6471 65.8943 77.4124C65.7808 80.2038 65.1631 82.9581 64.6989 85.7023C64.2849 88.1532 63.8942 90.6075 63.5236 93.0651C63.3366 94.299 63.1563 95.5362 62.9826 96.7735C62.9058 97.3331 62.8257 97.9096 62.7589 98.4119C62.7055 98.8097 62.6554 99.2075 62.6086 99.602C62.7823 99.6559 62.9559 99.7065 63.1262 99.757C64.7657 100.249 66.4086 100.725 68.0548 101.18C69.8312 101.669 71.6176 102.144 73.4174 102.542C73.4808 102.245 73.5443 101.945 73.6111 101.648C74.3423 98.2265 75.0268 94.7945 75.7014 91.3592C76.3558 88.0285 77.0036 84.6943 77.6814 81.3669C78.2391 78.6463 78.8769 75.9392 79.341 73.1983C79.5847 71.7689 79.7684 70.4036 79.8552 68.9404C79.8953 68.2561 79.912 67.5717 79.8886 66.8874C79.8786 66.5637 79.8586 66.2401 79.8285 65.9164L79.8118 65.9232ZM63.8308 69.5338C63.7373 69.6282 63.587 69.6956 63.4534 69.6922C62.7322 69.6653 62.0109 69.6248 61.2897 69.5709C59.9674 69.4731 58.6518 69.3281 57.3362 69.1427C56.0573 68.964 54.7817 68.7449 53.5162 68.482C53.3826 68.455 53.2724 68.3471 53.199 68.2359C53.1222 68.1145 53.1155 67.9594 53.1456 67.8212C53.1756 67.6931 53.2791 67.565 53.3893 67.5009C53.5162 67.4268 53.6564 67.4166 53.8 67.447C54.0972 67.5077 54.3911 67.5683 54.6882 67.6223C55.7067 67.8178 56.7318 67.983 57.7602 68.1246C58.1609 68.1785 58.5616 68.2291 58.9657 68.2763C59.7103 68.3606 60.4582 68.4314 61.2062 68.4887C61.9542 68.546 62.7021 68.5898 63.4534 68.6168C63.7506 68.6269 63.971 68.8528 63.9844 69.1528C63.991 69.2877 63.9209 69.4394 63.8274 69.5338H63.8308ZM76.7298 67.2177C76.6931 67.356 76.5996 67.4571 76.486 67.538C76.3825 67.6088 76.279 67.6796 76.1788 67.7504C75.511 68.2156 74.8465 68.6809 74.1887 69.1596C73.7045 69.5102 73.2204 69.8675 72.7395 70.2249C72.3121 70.5452 71.8847 70.8688 71.4573 71.1857C70.9598 71.5565 70.4623 71.924 69.958 72.2847C69.2669 72.7837 68.569 73.2725 67.8644 73.758C67.7476 73.8389 67.5873 73.8422 67.4537 73.8119C67.3168 73.7816 67.21 73.6804 67.1365 73.5658C67.063 73.4512 67.0463 73.2792 67.0831 73.1511C67.1198 73.0129 67.2133 72.9118 67.3268 72.8309C67.4303 72.7601 67.5339 72.6893 67.634 72.6185C68.3018 72.1532 68.9663 71.688 69.6241 71.2093C70.1083 70.8587 70.5925 70.5013 71.0733 70.144C71.5007 69.8237 71.9281 69.5001 72.3555 69.1832C72.8531 68.8123 73.3506 68.4449 73.8548 68.0842C74.546 67.5852 75.2439 67.0964 75.9484 66.6109C76.0653 66.53 76.2256 66.5266 76.3592 66.557C76.4961 66.5873 76.6029 66.6885 76.6764 66.8031C76.7498 66.9177 76.7665 67.0896 76.7298 67.2177Z" fill="#FFD151"/>
<path d="M80.9703 42.2871C80.8935 42.1084 80.8134 41.9331 80.7266 41.7578C80.6598 41.623 80.6398 41.4915 80.6732 41.3432C80.7032 41.2049 80.8034 41.0971 80.9169 41.0229C81.0304 40.9487 81.2007 40.9319 81.3276 40.969C81.3677 40.9791 81.4078 40.9993 81.4478 41.0195C80.8067 39.789 80.002 38.6394 79.1939 37.5101C79.1939 37.6955 79.0871 37.8775 78.9301 37.9787C78.683 38.1405 78.3525 38.0225 78.2022 37.7865C77.9785 37.4325 77.7514 37.0785 77.5244 36.7246C76.7196 35.4671 75.8915 34.2265 74.9866 33.0364C74.7495 32.7262 74.5058 32.4228 74.2587 32.1228C73.3371 31.0137 72.3253 29.9787 71.19 29.0887C70.983 28.9302 70.7726 28.7751 70.5589 28.6268C70.1683 28.3537 69.7642 28.0975 69.3435 27.8683C68.9929 27.6795 68.6323 27.5109 68.2683 27.3559C67.6372 27.0895 66.9961 26.8468 66.3583 26.5973C65.7339 26.3546 65.1095 26.1051 64.4984 25.8287C64.425 25.795 64.3548 25.7613 64.2814 25.7275C64.2513 25.7613 64.2146 25.7882 64.1779 25.8017C64.0443 25.859 63.9107 25.9163 63.7738 25.9703C62.9324 26.3074 62.0542 26.5501 61.166 26.7254C60.191 26.9176 59.1959 27.039 58.2042 27.0895C57.2358 27.1401 56.2641 27.13 55.2958 27.0558C54.3275 26.9816 53.3591 26.8468 52.4075 26.6378C51.5794 26.4557 50.7613 26.2164 49.9766 25.8927C49.9365 25.8826 49.8964 25.8658 49.8597 25.8422C49.823 25.859 49.7862 25.8725 49.7462 25.8894C48.2235 26.513 46.5807 26.7827 44.9879 27.1569C44.2633 27.3289 43.5321 27.5143 42.8409 27.7975C42.8342 27.7975 42.754 27.8346 42.7474 27.8379C42.7073 27.8548 42.6672 27.875 42.6272 27.8953C42.5403 27.9357 42.4535 27.9795 42.3667 28.0234C42.2131 28.1043 42.0628 28.1885 41.9159 28.2796C41.7556 28.3773 41.602 28.4818 41.4484 28.5931C41.4151 28.6167 41.3817 28.6437 41.3449 28.6673C41.3349 28.674 41.3115 28.6909 41.2982 28.7044C41.2381 28.7515 41.178 28.8021 41.1179 28.8527C40.8507 29.0786 40.597 29.3247 40.3599 29.5842C40.2297 29.7258 40.1061 29.8742 39.9859 30.0225C39.9592 30.0562 39.9325 30.0899 39.9091 30.1203C39.9058 30.127 39.9024 30.1304 39.8991 30.1338C39.8991 30.1338 39.8924 30.1439 39.8857 30.1506C39.829 30.2248 39.7755 30.299 39.7221 30.3765C39.3081 30.9597 38.9541 31.5868 38.6436 32.234C38.5601 32.406 38.48 32.5779 38.4032 32.7532C38.3698 32.8341 38.333 32.9117 38.2997 32.9926C38.293 33.0061 38.2896 33.0162 38.2863 33.0263C38.2863 33.033 38.2796 33.0431 38.2729 33.0566C38.2562 33.0971 38.2396 33.1375 38.2229 33.178C38.0826 33.5252 37.949 33.8758 37.8255 34.2298C37.5851 34.9142 37.368 35.6053 37.1577 36.2964C36.6434 38.0056 36.1259 39.7115 35.5983 41.414C35.2644 42.4995 34.9271 43.5817 34.5932 44.6672C34.2793 45.6887 33.9755 46.7102 33.6115 47.7148C32.9604 49.5083 32.1857 51.4299 32.523 53.3279C32.8435 55.1383 33.8753 56.7127 35.2644 57.8825C36.5633 58.9782 38.1527 59.6861 39.7455 60.2491C39.7321 60.0873 39.7188 59.9289 39.7088 59.767C39.642 58.8871 39.5752 58.0072 39.5084 57.124C39.4149 55.8935 39.3214 54.6596 39.2279 53.4291C39.1244 52.0502 39.0176 50.6714 38.9141 49.2926C38.8105 47.9474 38.7104 46.6023 38.6069 45.2572C38.5234 44.1514 38.4399 43.0456 38.3531 41.9399C38.303 41.2589 38.2496 40.5813 38.1995 39.9003C38.1895 39.7789 38.1761 39.6575 38.1728 39.5395C38.1427 38.5315 39.101 37.8539 40.016 37.8371H74.793C74.8764 37.8371 74.9599 37.8371 75.0467 37.8371C75.8414 37.8472 76.6629 38.3259 76.8599 39.1485C76.96 39.5631 76.8732 40.025 76.8465 40.443C76.7897 41.296 76.7363 42.1523 76.6796 43.0052C76.5994 44.2222 76.5226 45.4426 76.4425 46.6596C76.369 47.7991 76.2956 48.9352 76.2188 50.0747C76.359 50.0646 76.4959 50.0511 76.6361 50.0342C77.0702 49.9702 77.4976 49.8589 77.9084 49.6937C78.3157 49.5151 78.6931 49.2791 79.047 49.0094C79.1639 48.9184 79.2774 48.824 79.3876 48.7262C79.6313 48.5104 79.8651 48.2846 80.0955 48.0519C80.3159 47.8294 80.5363 47.6069 80.7299 47.3608C80.9236 47.1013 81.0839 46.8181 81.2141 46.5214C81.3477 46.1876 81.4378 45.8404 81.4912 45.4831C81.5447 45.0279 81.538 44.5661 81.4812 44.111C81.3877 43.4772 81.2041 42.8602 80.9637 42.2703L80.9703 42.2871Z" fill="white"/>
<path d="M50.4041 106.681C50.2038 105.798 49.9633 104.922 49.7329 104.045C49.4892 103.121 49.2655 102.194 49.0885 101.257C49.0351 101.257 48.985 101.257 48.9316 101.257C47.1785 101.277 45.4221 101.298 43.6691 101.318C43.6624 101.392 43.639 101.463 43.6023 101.513C43.1883 102.073 42.7341 102.602 42.2333 103.088C41.4786 103.819 40.6372 104.443 39.8258 105.104C38.9709 105.798 38.1729 106.547 37.4951 107.423C37.2346 107.77 36.9775 108.128 36.8005 108.525C36.7471 108.66 36.707 108.799 36.6803 108.944C36.6703 109.048 36.6703 109.153 36.6803 109.257C36.697 109.341 36.7204 109.426 36.7471 109.507C36.7872 109.591 36.8339 109.668 36.8873 109.746C36.9575 109.83 37.0376 109.911 37.1244 109.982C37.2313 110.059 37.3448 110.127 37.465 110.184C37.5986 110.235 37.7355 110.272 37.8724 110.295C38.0427 110.312 38.213 110.322 38.3833 110.329C38.8541 110.349 39.3249 110.356 39.7957 110.349C40.2498 110.343 40.7106 110.326 41.1614 110.268C41.2549 110.255 41.3517 110.238 41.4452 110.214C41.5855 110.181 41.719 110.127 41.8559 110.083C42.5772 109.85 43.3385 109.739 44.0932 109.753C44.751 109.766 45.3988 109.871 46.0499 109.958C46.2536 109.985 46.4606 110.012 46.6643 110.032C47.4623 110.117 48.2704 110.123 49.0685 110.022C49.379 109.978 49.6862 109.908 49.9767 109.796C50.1036 109.739 50.2271 109.668 50.3407 109.584C50.4074 109.527 50.4676 109.466 50.5243 109.399C50.5711 109.331 50.6145 109.257 50.6512 109.183C50.6879 109.085 50.7146 108.984 50.7313 108.879C50.748 108.677 50.738 108.475 50.7146 108.276C50.6378 107.74 50.5176 107.207 50.3974 106.681H50.4041Z" fill="white"/>
<path d="M69.0173 68.3774C68.9656 68.4015 68.9932 68.3877 69.0173 68.3774V68.3774Z" fill="white"/>
<path d="M72.0115 108.782C71.9547 108.66 71.8846 108.542 71.8078 108.434C71.5073 108.06 71.1266 107.757 70.756 107.453C70.5823 107.308 70.4054 107.164 70.2518 106.998C70.0815 106.816 69.9279 106.617 69.801 106.405C69.5806 106.038 69.4337 105.619 69.3602 105.195C69.2066 104.338 69.2467 103.469 69.1866 102.606C67.6539 102.198 66.1279 101.766 64.6053 101.321C64.4517 101.277 64.3014 101.233 64.1478 101.186C63.9608 101.726 63.7739 102.265 63.5869 102.804C63.2162 103.873 62.8456 104.942 62.4783 106.011C62.2913 106.55 62.1043 107.086 61.9206 107.625C61.7704 108.06 61.6134 108.499 61.5433 108.957C61.53 109.102 61.5233 109.25 61.5366 109.395C61.5533 109.486 61.5767 109.577 61.6068 109.665C61.6368 109.729 61.6735 109.79 61.7136 109.85C61.7604 109.904 61.8104 109.958 61.8672 110.005C61.9574 110.07 62.0509 110.123 62.1477 110.167C62.3547 110.245 62.5684 110.295 62.7888 110.329C63.2696 110.39 63.7605 110.39 64.2447 110.41C65.3065 110.45 66.3717 110.494 67.4335 110.535C67.9611 110.555 68.4887 110.575 69.0163 110.595C69.4838 110.612 69.9546 110.626 70.4187 110.568C70.6591 110.531 70.8929 110.474 71.1199 110.386C71.2702 110.319 71.4104 110.235 71.5407 110.137C71.6509 110.046 71.751 109.945 71.8445 109.834C71.9113 109.743 71.9681 109.645 72.0148 109.54C72.0449 109.456 72.0682 109.372 72.0849 109.284C72.0916 109.203 72.0916 109.126 72.0849 109.045C72.0682 108.954 72.0449 108.866 72.0115 108.778V108.782Z" fill="white"/>
<path d="M39.2782 39.3554C39.2883 39.3345 39.3051 39.2614 39.2782 39.3554V39.3554Z" fill="white"/>
<path d="M75.8282 39.4045C75.8282 39.4045 75.8182 39.3708 75.8115 39.3539C75.8048 39.3438 75.7948 39.3236 75.7915 39.3135C75.7714 39.2831 75.7548 39.2494 75.7347 39.2191C75.7347 39.2258 75.6713 39.155 75.6579 39.1382C75.6446 39.1247 75.6312 39.1112 75.6145 39.1011C75.5577 39.064 75.501 39.0303 75.4409 38.9999C75.4409 38.9999 75.4409 38.9999 75.4375 38.9999C75.4108 38.9898 75.3808 38.9797 75.3541 38.9696C75.3106 38.9561 75.2672 38.946 75.2205 38.9359C75.2505 38.9426 75.1203 38.9258 75.0969 38.9258C75.0736 38.9258 75.0535 38.9258 75.0302 38.9258C74.9266 38.9258 74.8265 38.9258 74.723 38.9258H40.0228C39.986 38.9258 39.9493 38.9258 39.9126 38.9292C39.9059 38.9292 39.8859 38.9325 39.8725 38.9359C39.8291 38.946 39.7824 38.9561 39.739 38.9696C39.7156 38.9763 39.6889 38.9865 39.6655 38.9932H39.6588C39.6588 38.9932 39.6555 38.9932 39.6521 38.9932C39.6087 39.0168 39.5653 39.0404 39.5219 39.0674C39.5152 39.0707 39.4885 39.091 39.4718 39.1011C39.4618 39.1078 39.4551 39.1146 39.4551 39.1179C39.4284 39.1449 39.4017 39.1719 39.375 39.1989C39.3883 39.1887 39.3249 39.2663 39.3115 39.2865C39.2982 39.3067 39.2882 39.327 39.2782 39.3472C39.2681 39.3809 39.2581 39.4146 39.2514 39.4483C39.2514 39.4584 39.2414 39.509 39.2448 39.5326C39.2448 39.5326 39.2448 39.5326 39.2448 39.536C39.2448 39.5461 39.2448 39.5562 39.2448 39.5663C39.2514 39.7045 39.2648 39.8394 39.2748 39.9776C39.3282 40.6788 39.3817 41.3801 39.4351 42.0846C39.5186 43.1938 39.6054 44.3063 39.6889 45.4154C39.789 46.7471 39.8926 48.0787 39.9927 49.4104C40.0962 50.7825 40.1998 52.1546 40.3066 53.5267C40.4001 54.7369 40.4903 55.9506 40.5838 57.1609C40.6505 58.0306 40.7173 58.9038 40.7808 59.7736C40.7808 59.7871 40.7808 59.8006 40.7808 59.814C41.1547 59.814 41.5287 59.814 41.9027 59.814H74.5293C74.566 59.2308 74.6061 58.6442 74.6428 58.061C74.7163 56.9282 74.7897 55.7955 74.8632 54.6661C74.95 53.3244 75.0368 51.9826 75.1237 50.6409C75.2138 49.2789 75.3006 47.9169 75.3908 46.5515C75.4676 45.3548 75.5477 44.158 75.6245 42.9612L75.7881 40.4327C75.8015 40.2035 75.8182 39.9742 75.8316 39.745C75.8349 39.6877 75.8416 39.6304 75.8416 39.5731C75.8416 39.5596 75.8416 39.5461 75.8416 39.536C75.8416 39.536 75.8416 39.5326 75.8416 39.5292C75.8416 39.509 75.8416 39.4888 75.8416 39.4686C75.8416 39.482 75.8316 39.4146 75.8215 39.3876L75.8282 39.4045Z" fill="white"/>
<path d="M35.8524 63.3408C35.8353 63.3817 35.8421 63.3613 35.8524 63.3408V63.3408Z" fill="white"/>
<path d="M54.9686 12.8094C54.9486 12.752 54.9152 12.7014 54.8718 12.6609C54.8284 12.617 54.7783 12.5833 54.7182 12.5664C54.6614 12.536 54.6013 12.5259 54.5345 12.5259C54.4911 12.5326 54.4511 12.536 54.4077 12.5428C54.3275 12.5664 54.2574 12.6035 54.2006 12.6609C54.1773 12.6913 54.1505 12.7217 54.1272 12.7554C54.0838 12.8263 54.0637 12.9039 54.0637 12.9883C54.0637 12.9984 54.0637 13.0086 54.0637 13.0187C54.0637 13.0828 54.0737 13.1402 54.1038 13.1976C54.1238 13.255 54.1572 13.3056 54.2006 13.3461C54.244 13.39 54.2941 13.4237 54.3542 13.4406C54.411 13.471 54.4711 13.4811 54.5379 13.4811C54.5813 13.4744 54.6214 13.471 54.6648 13.4642C54.7449 13.4406 54.815 13.4035 54.8718 13.3461C54.8952 13.3157 54.9219 13.2853 54.9452 13.2516C54.9887 13.1807 55.0087 13.1031 55.0087 13.0187C55.0087 13.0086 55.0087 12.9984 55.0087 12.9883C55.0087 12.9242 54.9987 12.8668 54.9686 12.8094Z" fill="#232B65"/>
<path d="M59.9974 12.8094C59.9773 12.752 59.9439 12.7014 59.9005 12.6609C59.8571 12.617 59.807 12.5833 59.7469 12.5664C59.6902 12.536 59.6301 12.5259 59.5633 12.5259C59.5199 12.5326 59.4798 12.536 59.4364 12.5428C59.3563 12.5664 59.2861 12.6035 59.2294 12.6609C59.206 12.6913 59.1793 12.7217 59.1559 12.7554C59.1125 12.8263 59.0925 12.9039 59.0925 12.9883C59.0925 12.9984 59.0925 13.0086 59.0925 13.0187C59.0925 13.0828 59.1025 13.1402 59.1325 13.1976C59.1526 13.255 59.186 13.3056 59.2294 13.3461C59.2728 13.39 59.3229 13.4237 59.383 13.4406C59.4397 13.471 59.4998 13.4811 59.5666 13.4811C59.61 13.4744 59.6501 13.471 59.6935 13.4642C59.7737 13.4406 59.8438 13.4035 59.9005 13.3461C59.9239 13.3157 59.9506 13.2853 59.974 13.2516C60.0174 13.1807 60.0374 13.1031 60.0374 13.0187C60.0374 13.0086 60.0374 12.9984 60.0374 12.9883C60.0374 12.9242 60.0274 12.8668 59.9974 12.8094Z" fill="#232B65"/>
<path d="M57.7067 16.9085C57.6699 16.8815 57.6365 16.8512 57.5998 16.8242C57.5163 16.777 57.4262 16.75 57.3327 16.75C57.2091 16.75 57.0823 16.75 56.9587 16.75C56.8852 16.75 56.8185 16.7635 56.755 16.7972C56.6882 16.8175 56.6315 16.8546 56.5847 16.9085C56.5313 16.9557 56.4979 17.0131 56.4745 17.0805C56.4411 17.1446 56.4244 17.2121 56.4278 17.2863C56.4345 17.3335 56.4411 17.3807 56.4478 17.4279C56.4745 17.519 56.5179 17.5966 56.5847 17.664C56.6215 17.691 56.6548 17.7214 56.6916 17.7484C56.7751 17.7956 56.8652 17.8226 56.9587 17.8226C57.0823 17.8226 57.2091 17.8226 57.3327 17.8226C57.4061 17.8226 57.4729 17.8091 57.5364 17.7753C57.6032 17.7551 57.6599 17.718 57.7067 17.664C57.7601 17.6168 57.7935 17.5595 57.8169 17.492C57.8503 17.4279 57.8669 17.3605 57.8636 17.2863C57.8569 17.2391 57.8503 17.1918 57.8436 17.1446C57.8169 17.0536 57.7735 16.976 57.7067 16.9085Z" fill="#232B65"/>
<path d="M74.4294 61.0046C74.4192 61.0222 74.4124 61.0363 74.4124 61.0398C74.4192 61.0292 74.426 61.0152 74.4294 61.0046Z" fill="#232B65"/>
<path d="M76.3591 66.5569C76.2255 66.5266 76.0686 66.53 75.9484 66.6109C75.2472 67.0963 74.5493 67.5852 73.8547 68.0841C73.3505 68.4448 72.853 68.8123 72.3555 69.1831C71.9281 69.5034 71.5007 69.8237 71.0733 70.1439C70.5924 70.5047 70.1116 70.8586 69.6241 71.2092C68.9663 71.6846 68.3018 72.1532 67.634 72.6184C67.5304 72.6892 67.4303 72.76 67.3268 72.8308C67.2099 72.9117 67.1197 73.0129 67.083 73.1511C67.0496 73.2792 67.063 73.4511 67.1364 73.5658C67.2099 73.6804 67.3201 73.7815 67.4536 73.8118C67.5872 73.8422 67.7441 73.8388 67.8644 73.7579C68.5656 73.2725 69.2634 72.7836 69.958 72.2847C70.4622 71.924 70.9597 71.5565 71.4573 71.1856C71.8847 70.8654 72.3121 70.5451 72.7395 70.2248C73.2203 69.8641 73.7011 69.5101 74.1887 69.1595C74.8465 68.6842 75.5109 68.2156 76.1788 67.7503C76.2823 67.6795 76.3825 67.6088 76.486 67.538C76.6028 67.457 76.693 67.3559 76.7297 67.2177C76.7631 67.0896 76.7498 66.9176 76.6763 66.803C76.6028 66.6884 76.4926 66.5873 76.3591 66.5569Z" fill="#232B65"/>
<path d="M63.4567 68.6165C62.7087 68.5861 61.9574 68.5457 61.2095 68.4884C60.4615 68.4311 59.7135 68.3603 58.9689 68.276C58.5682 68.2288 58.1642 68.1783 57.7635 68.1244C56.7351 67.9828 55.7099 67.8143 54.6915 67.6222C54.3943 67.5649 54.0971 67.5076 53.8033 67.4469C53.6631 67.4166 53.5195 67.4267 53.3926 67.5008C53.2824 67.5649 53.1789 67.6929 53.1488 67.821C53.1188 67.9592 53.1255 68.1109 53.2023 68.2356C53.2757 68.3502 53.3859 68.4547 53.5195 68.4816C54.785 68.7412 56.0572 68.9636 57.3394 69.1422C58.6517 69.3243 59.9707 69.4692 61.293 69.5703C62.0142 69.6242 62.7355 69.6647 63.4567 69.6916C63.5903 69.6984 63.7405 69.6276 63.834 69.5332C63.9275 69.4388 63.9943 69.2872 63.991 69.1524C63.9776 68.8524 63.7572 68.6266 63.46 68.6165H63.4567Z" fill="#232B65"/>
<path d="M58.5281 18.9211C58.4813 18.9144 58.4346 18.9076 58.3878 18.9009C58.291 18.9009 58.2042 18.9245 58.1207 18.9751C58.084 18.9954 58.0439 19.0123 58.0038 19.0291C57.8335 19.0966 57.6566 19.1473 57.4762 19.1777C57.2959 19.1945 57.1156 19.1945 56.9386 19.1777C56.6782 19.1371 56.4244 19.0595 56.1773 18.9684C56.0538 18.9211 55.8768 18.9583 55.7666 19.0224C55.6564 19.0865 55.5529 19.2148 55.5229 19.343C55.4928 19.4814 55.4995 19.6333 55.5763 19.7582C55.6531 19.8797 55.7566 19.954 55.8935 20.0046C56.2441 20.1329 56.598 20.2206 56.972 20.2544C57.3193 20.2881 57.6766 20.2544 58.0105 20.1599C58.2342 20.0991 58.4513 20.008 58.6583 19.9067C58.7718 19.8493 58.8687 19.7076 58.902 19.5861C58.9354 19.4578 58.9221 19.2857 58.8486 19.1709C58.7752 19.0561 58.665 18.9549 58.5314 18.9245L58.5281 18.9211Z" fill="#232B65"/>
<path d="M81.8152 41.5759C81.7618 41.4545 81.705 41.3332 81.6449 41.2152C81.6048 41.1376 81.5314 41.0668 81.4479 41.0196C81.5781 41.2691 81.7017 41.522 81.8186 41.7815C81.7017 41.5253 81.5781 41.2691 81.4479 41.0196C81.4078 40.996 81.3678 40.9792 81.3277 40.9691C81.2008 40.9354 81.0305 40.9488 80.917 41.023C80.8035 41.0972 80.7033 41.2084 80.6732 41.3433C80.6398 41.4882 80.6599 41.6231 80.7267 41.7579C80.8135 41.9332 80.8936 42.1086 80.9704 42.2872C81.2108 42.8772 81.3945 43.4941 81.488 44.1279C81.5447 44.583 81.5514 45.0449 81.498 45.5C81.4446 45.854 81.3511 46.2046 81.2209 46.5384C81.0906 46.835 80.927 47.1149 80.7367 47.3778C80.543 47.6239 80.3226 47.8464 80.1022 48.0689C79.8752 48.3015 79.6381 48.5274 79.3944 48.7432C79.2842 48.8409 79.1706 48.9353 79.0538 49.0264C78.6998 49.2961 78.3225 49.532 77.9151 49.7107C77.5077 49.8759 77.0803 49.9872 76.6429 50.0512C76.506 50.0681 76.3658 50.0816 76.2255 50.0917C76.299 48.9522 76.3724 47.8161 76.4492 46.6766C76.5294 45.4596 76.6062 44.2392 76.6863 43.0222C76.7431 42.1692 76.7965 41.3129 76.8533 40.46C76.88 40.042 76.9635 39.5801 76.8666 39.1655C76.6696 38.3429 75.8515 37.8642 75.0535 37.854C74.97 37.854 74.8865 37.854 74.7997 37.854H40.0227C39.1045 37.8709 38.1495 38.5485 38.1795 39.5565C38.1829 39.6779 38.1996 39.7992 38.2062 39.9172C38.2563 40.5982 38.3098 41.2759 38.3598 41.9568C38.4433 43.0626 38.5268 44.1684 38.6136 45.2742C38.7171 46.6193 38.8173 47.9644 38.9208 49.3095C39.0243 50.6884 39.1312 52.0672 39.2347 53.4461C39.3282 54.6766 39.4217 55.9104 39.5152 57.1409C39.582 58.0208 39.6487 58.9007 39.7155 59.784C39.7289 59.9458 39.7422 60.1043 39.7523 60.2661C38.1595 59.7031 36.5701 58.9951 35.2712 57.8995C33.8821 56.7263 32.8503 55.1519 32.5297 53.3449C32.1925 51.4469 32.9672 49.5253 33.6183 47.7318C33.9823 46.7272 34.2861 45.7023 34.6 44.6842C34.9339 43.5986 35.2712 42.5165 35.6051 41.4309C36.1326 39.7251 36.6502 38.0192 37.1644 36.3134C37.3748 35.6189 37.5885 34.9278 37.8323 34.2468C37.9558 33.8928 38.0894 33.5422 38.2296 33.195C38.2463 33.1545 38.263 33.1141 38.2797 33.0736C38.2864 33.0601 38.2897 33.05 38.2931 33.0433C38.2964 33.0365 38.2997 33.0264 38.3064 33.0096C38.3398 32.9286 38.3732 32.8511 38.4099 32.7702C38.4867 32.5949 38.5669 32.423 38.6503 32.251C38.9609 31.6037 39.3148 30.9801 39.7289 30.3935C39.7823 30.3193 39.8357 30.2418 39.8925 30.1676C39.8992 30.1575 39.9025 30.1541 39.9059 30.1507C39.9092 30.1474 39.9125 30.144 39.9159 30.1372C39.9426 30.1035 39.9693 30.0698 39.9927 30.0395C40.1129 29.8878 40.2364 29.7428 40.3667 29.6012C40.6037 29.3416 40.8542 29.0955 41.1246 28.8697C41.1847 28.8191 41.2448 28.7685 41.305 28.7213C41.3216 28.7112 41.345 28.691 41.3517 28.6842C41.3851 28.6606 41.4185 28.6337 41.4552 28.6101C41.6055 28.4988 41.7624 28.3943 41.9227 28.2965C42.0696 28.2055 42.2199 28.1212 42.3735 28.0403C42.4603 27.9965 42.5471 27.9527 42.6339 27.9122C42.674 27.892 42.7141 27.8751 42.7541 27.8549C42.7608 27.8549 42.841 27.8178 42.8476 27.8145C43.5388 27.5279 44.2701 27.3459 44.9947 27.1739C46.5875 26.7963 48.2303 26.5266 49.7529 25.9063C49.7897 25.8895 49.8297 25.876 49.8665 25.8591C49.9032 25.8794 49.9433 25.8962 49.9833 25.9097C50.768 26.2333 51.5861 26.4761 52.4142 26.6547C53.3659 26.8638 54.3309 26.9952 55.3026 27.0728C56.2709 27.1469 57.2426 27.1604 58.2109 27.1065C59.206 27.0526 60.1977 26.9346 61.1727 26.7424C62.061 26.5671 62.9391 26.3244 63.7806 25.9872C63.9175 25.9333 64.0511 25.876 64.1846 25.8187C64.2214 25.8018 64.2548 25.7749 64.2882 25.7445C64.3583 25.7782 64.4317 25.8119 64.5052 25.8456C65.1163 26.1221 65.7407 26.3716 66.3651 26.6143C67.0029 26.8638 67.644 27.1065 68.2751 27.3728C68.639 27.5313 69.003 27.6965 69.3503 27.8853C69.771 28.1111 70.175 28.3707 70.5657 28.6438C70.7794 28.7921 70.9898 28.9472 71.1968 29.1056C72.3288 29.9957 73.3405 31.034 74.2655 32.1398C74.5159 32.4398 74.7563 32.7432 74.9934 33.0534C75.8983 34.2401 76.7264 35.484 77.5311 36.7415C77.7582 37.0955 77.9819 37.4495 78.209 37.8035C78.3592 38.0395 78.6865 38.1574 78.9369 37.9956C79.0938 37.8945 79.1973 37.7124 79.2007 37.527C78.9703 37.2034 78.7365 36.8831 78.5095 36.5595C78.7365 36.8797 78.9703 37.2034 79.2007 37.527C79.2007 37.436 79.1806 37.345 79.1272 37.2607C78.4594 36.2055 77.7849 35.1503 77.077 34.1221C76.3491 33.0669 75.5811 32.0353 74.7463 31.0643C73.9482 30.1372 73.0834 29.2641 72.1351 28.4955C71.2102 27.747 70.2251 27.0829 69.1432 26.5941C68.048 26.0985 66.9127 25.7007 65.8008 25.2456C65.6739 25.195 65.547 25.1411 65.4201 25.0871C64.6888 24.7736 63.9442 24.4297 63.3064 23.951C63.1428 23.8195 62.9926 23.6712 62.8623 23.5094C62.7288 23.3206 62.6186 23.1149 62.5251 22.9025C62.3748 22.5283 62.2546 22.144 62.1244 21.7631C62.0777 21.6316 62.0042 21.517 61.8806 21.4428C61.8806 21.4428 61.874 21.4428 61.874 21.4394C62.5652 20.7517 63.0994 19.9123 63.4233 18.9885C63.607 18.4727 63.7071 17.9333 63.7539 17.3906C63.7773 17.1242 63.7906 16.8545 63.804 16.5882C64.1145 16.5949 64.4317 16.5612 64.7289 16.477C64.9159 16.423 65.0996 16.3488 65.2699 16.2612C65.4368 16.1769 65.5837 16.0657 65.7273 15.951C65.9777 15.7521 66.1848 15.4925 66.3484 15.2195C66.5153 14.943 66.6389 14.6362 66.7224 14.3261C66.886 13.7125 66.9027 13.0551 66.7658 12.4348C66.6422 11.8752 66.3617 11.3324 65.8843 11.002C65.5971 10.8065 65.2398 10.7492 64.8992 10.7661C64.8191 10.7694 64.7356 10.7795 64.6555 10.7897C64.8291 9.84233 64.9359 8.87816 64.9293 7.91398C64.9192 7.06105 64.8224 6.19127 64.5787 5.37206C64.395 4.74838 64.1279 4.12807 63.7439 3.60215C63.4233 3.15715 63.0427 2.76271 62.5752 2.47616C62.288 2.30085 61.9641 2.16937 61.6335 2.11543C61.0392 1.46478 60.2545 1.00966 59.4397 0.692767C59.0223 0.527576 58.5883 0.406211 58.1475 0.325301C57.6633 0.210678 57.1758 0.156738 56.6916 0.156738C56.2308 0.156738 55.7667 0.200565 55.3159 0.294959C55.0455 0.352271 54.7817 0.433181 54.5212 0.530947C54.1906 0.652312 53.8601 0.787162 53.5428 0.938868C53.1956 1.10406 52.8583 1.29285 52.5378 1.51535C52.1337 1.79516 51.7531 2.11206 51.4158 2.47616C51.0352 2.88408 50.7046 3.34594 50.4375 3.83814C50.1202 4.42137 49.8832 5.05179 49.7229 5.6957C49.5259 6.48457 49.4324 7.30716 49.4123 8.11963C49.389 9.05346 49.4658 9.9873 49.596 10.911C49.5426 10.9009 49.4858 10.8874 49.4324 10.8807C49.2688 10.8537 49.1051 10.8301 48.9382 10.82C48.7813 10.8133 48.6277 10.8267 48.4741 10.8503C48.3372 10.8706 48.2103 10.9245 48.0834 10.9852C47.8263 11.1099 47.6259 11.3291 47.4623 11.5617C47.3087 11.7808 47.2018 12.0404 47.1284 12.2966C46.9548 12.8933 46.9581 13.5406 47.0816 14.1474C47.2085 14.7677 47.5124 15.3746 47.9698 15.8128C48.5241 16.3421 49.2621 16.5916 50.0201 16.5848C50.0802 16.5848 50.1436 16.5815 50.2037 16.5781C50.2271 16.922 50.2505 17.2625 50.3039 17.6029C50.3807 18.1019 50.5143 18.5907 50.7046 19.056C50.9016 19.538 51.1353 19.9965 51.4292 20.4213C51.6429 20.7281 51.8733 21.018 52.1304 21.2877C52.1504 22.0463 51.9467 22.7104 51.5026 23.3509C51.3257 23.6071 51.0318 23.9207 50.7346 24.16C50.7346 24.16 50.6812 24.2005 50.6712 24.2072C50.6345 24.2342 50.5977 24.2612 50.561 24.2848C50.4942 24.332 50.4241 24.3758 50.3573 24.4162C50.2004 24.514 50.0368 24.6017 49.8698 24.6859C49.7763 24.7331 49.6828 24.777 49.586 24.8208C49.5626 24.8309 49.5392 24.841 49.5159 24.8511C49.5025 24.8545 49.419 24.8916 49.419 24.8916C49.232 24.9658 49.0417 25.0366 48.8514 25.1006C48.4607 25.2321 48.0633 25.3467 47.666 25.4512C46.8446 25.667 46.0165 25.8389 45.1884 26.0277C43.6791 26.3716 42.1698 26.766 40.8976 27.6965C39.6755 28.5932 38.7372 29.8001 38.0226 31.1351C37.3013 32.4836 36.7871 33.9333 36.3363 35.393C35.8355 37.0045 35.3613 38.6261 34.8638 40.2409C34.5299 41.3264 34.1926 42.4086 33.8587 43.4941C33.5315 44.5561 33.2209 45.6281 32.867 46.6833C32.2192 48.6117 31.3043 50.5367 31.3944 52.6201C31.4779 54.5721 32.3661 56.4195 33.6684 57.8422C34.6935 58.9648 35.9724 59.7874 37.3347 60.4347C36.8305 60.6403 36.3664 60.9235 35.959 61.3146C35.2812 61.9652 34.8504 62.8384 34.6067 63.7385C34.1025 65.6028 34.2694 67.6053 34.5165 69.4966C34.9573 72.8274 35.4982 76.1447 36.0291 79.462C36.5667 82.8366 37.0843 86.2146 37.6052 89.5892C38.1261 92.9605 38.647 96.3317 39.1679 99.703C39.2347 100.128 39.2981 100.549 39.3649 100.974C39.4017 101.2 39.6621 101.372 39.8758 101.368C40.7173 101.358 41.5587 101.348 42.4035 101.338C42.0295 101.793 41.6222 102.215 41.1914 102.612C40.7073 103.054 40.1964 103.462 39.6821 103.87C39.1713 104.274 38.6637 104.679 38.1829 105.121C37.6553 105.603 37.1678 106.129 36.7304 106.695C36.4866 107.015 36.2395 107.339 36.0425 107.689C35.8321 108.064 35.6852 108.458 35.6318 108.886C35.585 109.284 35.6652 109.678 35.8321 110.039C35.9891 110.38 36.2495 110.649 36.5434 110.875C36.8005 111.071 37.1043 111.212 37.4115 111.297C37.6553 111.361 37.9124 111.381 38.1662 111.394C38.647 111.425 39.1278 111.432 39.6087 111.428C40.1262 111.428 40.6438 111.411 41.158 111.347C41.3851 111.32 41.6188 111.29 41.8392 111.226C41.9861 111.182 42.1297 111.125 42.2766 111.081C42.4503 111.03 42.6239 110.983 42.7975 110.946C42.9311 110.916 43.0647 110.896 43.2016 110.875C43.9429 110.788 44.6808 110.852 45.4188 110.949C46.3604 111.078 47.2953 111.209 48.247 111.169C48.7011 111.152 49.1619 111.108 49.6094 111.02C50.0234 110.939 50.4441 110.804 50.8014 110.575C51.2255 110.302 51.5327 109.914 51.6963 109.432C51.9 108.836 51.7898 108.185 51.6763 107.582C51.4759 106.526 51.2155 105.485 50.9417 104.45C50.6745 103.435 50.4041 102.42 50.197 101.392C50.187 101.345 50.177 101.298 50.1703 101.247C50.187 101.247 50.2071 101.247 50.2238 101.247C50.4976 101.247 50.7714 101.004 50.7547 100.711C50.7079 99.8715 50.6645 99.0321 50.6245 98.196C50.5209 96.0822 50.4308 93.9685 50.3473 91.8513C50.2405 89.0633 50.1536 86.2753 50.0969 83.4873C50.0401 80.6284 50.0101 77.7696 50.0468 74.9108C50.0601 73.9702 50.0802 73.033 50.1102 72.0924C50.8682 72.116 51.6295 72.1396 52.3875 72.1599C53.4126 72.1868 54.4411 72.2104 55.4662 72.2273C56.5614 72.2441 57.66 72.2576 58.7552 72.261C59.797 72.261 60.8388 72.261 61.8806 72.2374C62.7321 72.2205 63.5803 72.1936 64.4284 72.1295C64.4618 72.1295 64.4985 72.1228 64.5319 72.1228C64.5319 72.143 64.5286 72.1632 64.5252 72.1801C64.4584 72.824 64.5453 73.4746 64.6321 74.1152C64.7222 74.7861 64.799 75.4772 64.8191 76.1818C64.8925 79.0372 64.2614 81.8522 63.7839 84.647C63.3666 87.081 62.9759 89.5218 62.6019 91.9626C62.2312 94.3764 61.8806 96.7969 61.5734 99.2209C61.54 99.4771 61.51 99.7333 61.4799 99.9895C61.4499 100.226 61.6669 100.445 61.8706 100.505C62.288 100.633 62.7087 100.762 63.1261 100.886C62.8189 101.77 62.5151 102.653 62.2079 103.539C61.8806 104.48 61.5567 105.424 61.2295 106.365C61.0692 106.823 60.909 107.282 60.752 107.743C60.6084 108.172 60.4949 108.613 60.4649 109.068C60.4381 109.527 60.5316 110.026 60.8021 110.407C60.9524 110.619 61.116 110.781 61.3263 110.933C61.5 111.057 61.697 111.142 61.894 111.216C62.2646 111.354 62.6687 111.401 63.0594 111.432C63.5001 111.465 63.9409 111.472 64.3816 111.489C65.37 111.526 66.3551 111.566 67.3434 111.603C67.8376 111.624 68.3352 111.644 68.8294 111.661C69.2835 111.678 69.7376 111.698 70.1917 111.664C70.7126 111.624 71.2135 111.523 71.6843 111.3C72.0716 111.118 72.4122 110.831 72.6727 110.494C72.9565 110.127 73.1335 109.695 73.1502 109.223C73.1669 108.795 73.0266 108.357 72.7996 108C72.5859 107.666 72.3087 107.376 72.0115 107.116C71.7377 106.874 71.4406 106.654 71.1734 106.405C71.0566 106.297 70.9497 106.179 70.8495 106.054C70.7393 105.903 70.6458 105.737 70.569 105.566C70.4689 105.309 70.4054 105.04 70.362 104.767C70.2919 104.187 70.2986 103.6 70.2752 103.017C70.2752 102.97 70.2719 102.926 70.2685 102.879C70.3186 102.892 70.372 102.906 70.4221 102.919C71.5007 103.196 72.5825 103.459 73.6744 103.688C73.9449 103.745 74.2621 103.61 74.3289 103.314C75.0969 99.767 75.8148 96.2103 76.5194 92.6537C77.1872 89.2622 77.8417 85.8707 78.5295 82.4826C79.1005 79.6609 79.7617 76.8493 80.2659 74.014C80.7701 71.1856 81.2008 68.2222 80.8168 65.3499C80.6565 64.1464 80.336 62.862 79.6014 61.8742C79.2541 61.4123 78.83 61.0145 78.3125 60.7549C77.7448 60.4751 77.1371 60.3436 76.5093 60.2998C76.1955 60.2762 75.8816 60.2796 75.5711 60.2931C75.6145 59.6087 75.6612 58.921 75.7046 58.2366C75.7781 57.1106 75.8515 55.9846 75.925 54.862C76.0051 53.6281 76.0853 52.3942 76.1654 51.1604C76.5594 51.1368 76.9501 51.0896 77.3341 51.0053C77.7281 50.921 78.1088 50.7861 78.4761 50.621C79.1873 50.3007 79.8151 49.8119 80.3861 49.2792C80.7066 48.9792 81.0205 48.669 81.3143 48.342C81.6082 48.015 81.8653 47.6509 82.059 47.2565C82.463 46.4372 82.64 45.5236 82.5999 44.61C82.5532 43.5481 82.2526 42.53 81.8219 41.5691L81.8152 41.5759ZM49.6728 15.4858C49.5159 15.4588 49.3589 15.4184 49.2087 15.3611C49.0784 15.3004 48.9515 15.2296 48.8347 15.1419C48.7245 15.0509 48.6243 14.9464 48.5308 14.8352C48.4206 14.6834 48.3305 14.5216 48.2537 14.3497C48.1702 14.1373 48.1134 13.9114 48.08 13.6856C48.0533 13.4327 48.05 13.1765 48.08 12.9203C48.1101 12.7382 48.1535 12.5596 48.2169 12.391C48.2637 12.2865 48.3205 12.1854 48.3839 12.0943C48.4206 12.0505 48.4607 12.01 48.5041 11.973C48.5342 11.9527 48.5676 11.9325 48.6009 11.9157C48.6343 11.9055 48.6677 11.8954 48.7011 11.8887C48.8313 11.8786 48.9649 11.8853 49.0951 11.8988C49.3222 11.9325 49.5526 11.9898 49.773 12.0606C49.8398 13.2102 50.0167 14.3531 50.1269 15.4993C49.9733 15.506 49.8231 15.4993 49.6695 15.4858H49.6728ZM64.759 11.8314C64.8859 11.8179 65.0161 11.8111 65.1463 11.8213C65.1797 11.828 65.2131 11.8381 65.2431 11.8482C65.2765 11.8651 65.3066 11.8853 65.34 11.9055C65.3834 11.9426 65.4201 11.9831 65.4568 12.0269C65.5236 12.1213 65.5804 12.2224 65.6271 12.3269C65.6939 12.5022 65.7407 12.6877 65.7674 12.8731C65.7974 13.136 65.7941 13.399 65.7674 13.662C65.7307 13.9013 65.6672 14.1373 65.5804 14.3632C65.5069 14.525 65.4235 14.6767 65.3199 14.8217C65.2231 14.9397 65.1196 15.0475 65.0027 15.1453C64.8859 15.2296 64.7623 15.3038 64.6321 15.3611C64.4818 15.4184 64.3282 15.4588 64.1713 15.4824C64.0611 15.4925 63.9542 15.4993 63.844 15.4993C63.9008 14.3396 63.9576 13.1799 64.0077 12.0202C64.2514 11.9359 64.5052 11.8718 64.759 11.8314ZM50.5009 7.59034C50.5143 7.37458 50.5343 7.16219 50.561 6.9498C50.6411 6.38006 50.768 5.82044 50.955 5.27766C50.9984 5.1563 51.0418 5.03493 51.0919 4.91694C51.2555 4.53936 51.4526 4.17527 51.683 3.83477C51.7364 3.75723 51.7898 3.68306 51.8466 3.6089C52.0837 3.30548 52.3508 3.02567 52.6413 2.7762C52.7014 2.72226 52.7648 2.67169 52.8283 2.62112C53.0219 2.47279 53.2223 2.33794 53.4293 2.2132C53.633 2.09183 53.84 1.98058 54.0537 1.87945C54.1506 1.83225 54.2507 1.78842 54.3509 1.7446C54.6514 1.61649 54.962 1.4985 55.2759 1.41084C55.4762 1.3569 55.6765 1.31308 55.8836 1.28274C56.4379 1.21531 57.0022 1.22205 57.5565 1.28948C58.1442 1.37376 58.7218 1.52884 59.2728 1.75808C59.6668 1.93339 60.0441 2.14577 60.3881 2.40536C60.5016 2.49638 60.6151 2.59415 60.7186 2.69866C60.7387 2.80654 60.7821 2.91105 60.8622 2.98522C60.9624 3.07961 61.0959 3.15041 61.2395 3.14366C61.2963 3.14366 61.3564 3.14366 61.4132 3.14704C61.5401 3.17063 61.6636 3.20772 61.7838 3.25492C61.9441 3.32908 62.0943 3.42348 62.2379 3.52799C62.4416 3.69318 62.6253 3.88534 62.7889 4.09099C62.9659 4.33034 63.1161 4.58656 63.2463 4.85626C63.2797 4.92368 63.3098 4.99448 63.3398 5.0619C63.5101 5.48331 63.6337 5.92157 63.7172 6.36658C63.7405 6.49131 63.7606 6.61605 63.7773 6.74079C63.8741 7.50606 63.8741 8.27808 63.814 9.04672C63.7973 9.25574 63.7739 9.46475 63.7505 9.67377C63.6203 9.47487 63.46 9.29282 63.2831 9.14112C63.036 8.92873 62.7655 8.74668 62.4817 8.58823C62.2346 8.45001 61.9808 8.31853 61.7371 8.17357C61.5 8.03197 61.2696 7.8769 61.0492 7.70833C60.6218 7.36447 60.2311 6.9734 59.8939 6.54188C59.6935 6.27555 59.5099 5.99237 59.3496 5.69907C59.2861 5.58445 59.1559 5.48668 59.0324 5.45297C58.9055 5.41926 58.7352 5.43274 58.6217 5.50691C58.5449 5.55748 58.4848 5.61816 58.4413 5.68896C58.3312 5.73615 58.2443 5.81032 58.1742 5.91483C58.1375 5.96877 58.1008 6.01934 58.064 6.06991C57.8236 6.37332 57.5465 6.64302 57.2493 6.88238C56.7885 7.23636 56.2809 7.52292 55.75 7.75553C55.4428 7.88364 55.1289 7.99152 54.8117 8.08254C55.1022 7.89712 55.3827 7.69485 55.6532 7.47572C55.9938 7.20265 56.3143 6.90261 56.6015 6.5756C56.695 6.46772 56.7584 6.34298 56.7584 6.19464C56.7584 6.06317 56.7017 5.90472 56.6015 5.81369C56.5013 5.7193 56.3677 5.65187 56.2242 5.65524C56.0873 5.66199 55.9403 5.70581 55.8468 5.81369C55.5563 6.14745 55.2324 6.45086 54.8852 6.72393C54.3776 7.11499 53.8267 7.44875 53.2523 7.72856C53.0954 7.8061 52.9385 7.8769 52.7782 7.94769C52.1938 8.19379 51.5895 8.38933 50.9717 8.53766C50.8048 8.57812 50.6345 8.6152 50.4642 8.64891C50.4608 8.2983 50.4642 7.94769 50.4909 7.59708L50.5009 7.59034ZM51.7297 18.7492C51.5327 18.2637 51.3991 17.758 51.3257 17.2389C51.2889 16.9287 51.2789 16.6185 51.2622 16.3084C51.2389 15.9308 51.2021 15.5566 51.1621 15.1824C51.0853 14.4609 50.9851 13.7429 50.915 13.0214C50.8715 12.5899 50.8415 12.155 50.8248 11.7201C50.8248 11.6358 50.8014 11.5549 50.7647 11.4808C50.7113 11.1807 50.6612 10.8773 50.6211 10.5739C50.5844 10.284 50.551 9.99404 50.5276 9.70074C50.5877 9.70411 50.6478 9.70074 50.7113 9.68726C51.5594 9.52544 52.3842 9.26922 53.1822 8.9321C53.1989 9.04335 53.2457 9.15123 53.3291 9.22877C53.426 9.31642 53.5696 9.40407 53.7065 9.38722C54.1606 9.3299 54.6114 9.24562 55.0555 9.12426C55.4829 9.00626 55.8969 8.85119 56.3043 8.67251C57.0256 8.35898 57.7034 7.93421 58.2877 7.40155C58.4781 7.22962 58.655 7.04083 58.8153 6.84192C59.0858 7.23636 59.393 7.61057 59.7302 7.94432C60.2478 8.45675 60.8388 8.89164 61.4733 9.23888C61.8139 9.42767 62.1645 9.60635 62.4783 9.83896C62.6052 9.94347 62.7221 10.0581 62.8256 10.1862C62.8891 10.2739 62.9425 10.3682 62.9892 10.466C63.0126 10.5334 63.0326 10.6042 63.046 10.675C63.046 10.7155 63.0493 10.7559 63.0493 10.793C63.0493 10.8267 63.0493 10.8571 63.0594 10.8908C63.0159 10.9683 62.9892 11.056 62.9859 11.1537C62.9525 11.9999 62.9158 12.8461 62.8757 13.6923C62.8356 14.5756 62.7922 15.4588 62.7455 16.3421C62.7254 16.7601 62.7154 17.1782 62.6687 17.5928C62.6019 18.048 62.4817 18.4963 62.3114 18.9245C62.1311 19.3391 61.9007 19.7336 61.6302 20.0977C61.3297 20.482 60.9824 20.8292 60.5984 21.1326C60.1844 21.4495 59.7336 21.7159 59.2561 21.9249C58.812 22.1069 58.3479 22.2418 57.8737 22.3126C57.453 22.3632 57.0222 22.3598 56.6015 22.3463C56.4746 22.3429 56.3511 22.3328 56.2242 22.316C55.7767 22.2485 55.3426 22.1238 54.9219 21.9519C54.4477 21.7428 54.0003 21.4765 53.5896 21.163C53.1822 20.836 52.8116 20.4651 52.4877 20.0538C52.1872 19.6493 51.9334 19.211 51.733 18.7492H51.7297ZM51.7798 24.6556C52.4009 24.0589 52.875 23.2801 53.0787 22.4339C53.1021 22.3396 53.1188 22.2452 53.1355 22.1508C53.6464 22.5216 54.204 22.8216 54.795 23.0475C55.1657 23.1891 55.5497 23.2936 55.9403 23.3509C56.1674 23.3846 56.3911 23.4116 56.6182 23.4184C56.7551 23.4217 56.8886 23.4184 57.0256 23.4184C57.1625 23.4184 57.296 23.4184 57.4329 23.4184C57.6733 23.4116 57.9104 23.3813 58.1442 23.3476C58.5515 23.2869 58.9522 23.179 59.3396 23.0374C59.9707 22.8014 60.5684 22.4778 61.1093 22.0766C61.2996 22.6295 61.4632 23.1992 61.7404 23.715C62.0276 24.251 62.455 24.6623 62.9525 24.9961C63.0026 25.0298 63.0527 25.0602 63.1028 25.0939C62.3214 25.377 61.5133 25.5861 60.6953 25.7378C60.4114 25.7917 60.1276 25.8355 59.8438 25.876C59.1092 25.9738 58.3712 26.0311 57.6333 26.0513C56.8686 26.0715 56.1006 26.0513 55.336 25.994C54.9353 25.9636 54.5346 25.9232 54.1372 25.8692C53.1188 25.7277 52.1037 25.5085 51.1253 25.1849C51.3557 25.0298 51.5761 24.8545 51.7798 24.659V24.6556ZM39.2781 39.3542C39.2881 39.334 39.3048 39.2632 39.2781 39.3542V39.3542ZM35.8522 63.3407C35.8355 63.3811 35.8421 63.3609 35.8522 63.3407V63.3407ZM50.4041 106.681C50.5243 107.207 50.6445 107.74 50.7213 108.276C50.7447 108.478 50.7547 108.681 50.738 108.879C50.7213 108.984 50.6946 109.085 50.6578 109.183C50.6211 109.257 50.581 109.331 50.531 109.399C50.4742 109.466 50.4141 109.527 50.3473 109.584C50.2338 109.668 50.1102 109.736 49.9833 109.796C49.6928 109.911 49.3856 109.979 49.0751 110.022C48.277 110.123 47.469 110.117 46.6709 110.032C46.4672 110.012 46.2602 109.985 46.0565 109.958C45.4087 109.867 44.7576 109.766 44.0998 109.753C43.3452 109.736 42.5838 109.85 41.8626 110.083C41.7257 110.127 41.5921 110.181 41.4519 110.215C41.3584 110.238 41.2649 110.255 41.168 110.268C40.7139 110.326 40.2565 110.343 39.8023 110.349C39.3315 110.356 38.8607 110.349 38.3899 110.329C38.2196 110.322 38.0493 110.312 37.879 110.295C37.7388 110.272 37.6019 110.235 37.4716 110.184C37.3514 110.127 37.2379 110.059 37.131 109.982C37.0442 109.911 36.9674 109.83 36.894 109.746C36.8405 109.668 36.7938 109.591 36.7537 109.507C36.7237 109.426 36.7003 109.341 36.6869 109.257C36.6769 109.153 36.6803 109.048 36.6869 108.944C36.7137 108.802 36.7537 108.66 36.8072 108.526C36.9841 108.128 37.2379 107.77 37.5017 107.423C38.1762 106.55 38.9776 105.798 39.8324 105.104C40.6438 104.443 41.4853 103.819 42.2399 103.088C42.7408 102.602 43.1916 102.076 43.609 101.513C43.6457 101.463 43.6691 101.392 43.6757 101.318C45.4288 101.298 47.1852 101.277 48.9382 101.257C48.9916 101.257 49.0417 101.257 49.0951 101.257C49.2754 102.194 49.4992 103.121 49.7396 104.045C49.97 104.922 50.2071 105.798 50.4107 106.681H50.4041ZM70.756 107.453C71.1233 107.757 71.504 108.06 71.8079 108.434C71.888 108.542 71.9548 108.66 72.0115 108.782C72.0416 108.869 72.0683 108.957 72.085 109.048C72.0917 109.129 72.0917 109.207 72.085 109.287C72.0683 109.375 72.0449 109.459 72.0149 109.544C71.9681 109.645 71.908 109.743 71.8446 109.837C71.7544 109.948 71.6509 110.049 71.5407 110.14C71.4072 110.238 71.2669 110.319 71.12 110.39C70.8929 110.477 70.6592 110.535 70.4188 110.572C69.9546 110.629 69.4838 110.616 69.0164 110.599C68.4888 110.579 67.9612 110.558 67.4336 110.538C66.3718 110.498 65.3066 110.454 64.2447 110.413C63.7606 110.393 63.2697 110.393 62.7889 110.333C62.5718 110.299 62.3548 110.248 62.1478 110.171C62.0476 110.123 61.9541 110.07 61.8673 110.009C61.8139 109.962 61.7604 109.911 61.7137 109.854C61.6736 109.796 61.6369 109.732 61.6068 109.668C61.5734 109.581 61.5501 109.49 61.5367 109.399C61.5234 109.254 61.5267 109.105 61.5434 108.96C61.6135 108.502 61.7705 108.064 61.9207 107.629C62.1077 107.089 62.2947 106.553 62.4783 106.014C62.849 104.945 63.2196 103.877 63.5869 102.808C63.7739 102.268 63.9609 101.729 64.1479 101.19C64.3015 101.234 64.4518 101.277 64.6054 101.325C66.128 101.77 67.654 102.201 69.1866 102.609C69.2467 103.472 69.2067 104.345 69.3603 105.198C69.4371 105.619 69.5807 106.038 69.801 106.408C69.9279 106.621 70.0849 106.823 70.2518 107.002C70.4088 107.167 70.5824 107.312 70.756 107.457V107.453ZM76.5027 61.382C76.5828 61.3887 76.6629 61.3955 76.7397 61.4056C76.7464 61.4056 76.7765 61.4089 76.7965 61.4123C76.8165 61.4123 76.8466 61.4191 76.8533 61.4224C76.9902 61.446 77.1237 61.473 77.2573 61.5101C77.3842 61.5438 77.5077 61.5843 77.6313 61.6315C77.6513 61.6382 77.6647 61.6449 77.6714 61.6449C77.678 61.6483 77.6881 61.655 77.7081 61.6652C77.7749 61.6989 77.8383 61.7292 77.9018 61.7663C78.0019 61.8236 78.0988 61.8877 78.1923 61.9517C78.1956 61.9517 78.2056 61.9618 78.2156 61.9686C78.2357 61.9854 78.2724 62.0158 78.2724 62.0158C78.3225 62.0596 78.3692 62.1034 78.416 62.1473C78.5061 62.2349 78.5896 62.3293 78.6698 62.4271C78.6731 62.4304 78.6831 62.4439 78.6898 62.4507C78.7032 62.4675 78.7132 62.4844 78.7265 62.5012C78.7666 62.5585 78.8067 62.6192 78.8467 62.6765C78.9903 62.9024 79.1439 63.2058 79.2274 63.4081C79.4311 63.8969 79.598 64.5274 79.6982 65.0937C79.7583 65.4376 79.775 65.5758 79.8084 65.923C79.8385 66.2467 79.8585 66.5703 79.8685 66.894C79.8919 67.5783 79.8752 68.2627 79.8351 68.9471C79.7483 70.4102 79.5646 71.7755 79.3209 73.2049C78.8568 75.9458 78.2156 78.6495 77.6613 81.3735C76.9802 84.7009 76.3357 88.0317 75.6812 91.3659C75.0067 94.8012 74.3222 98.2297 73.591 101.655C73.5275 101.952 73.4641 102.252 73.3973 102.548C71.5975 102.154 69.8111 101.679 68.0346 101.186C66.3851 100.731 64.7423 100.256 63.1061 99.7636C62.9325 99.7131 62.7588 99.6591 62.5885 99.6086C62.6386 99.2108 62.6887 98.813 62.7388 98.4185C62.8056 97.9196 62.8824 97.3397 62.9625 96.7801C63.1362 95.5428 63.3165 94.3056 63.5035 93.0717C63.8741 90.6141 64.2648 88.1598 64.6788 85.7089C65.143 82.9613 65.7607 80.2104 65.8742 77.419C65.9043 76.6537 65.8943 75.8851 65.8208 75.1232C65.7574 74.4523 65.6405 73.8354 65.5904 73.1746C65.547 72.5914 65.5403 72.0149 65.764 71.4991C65.8509 71.3002 65.9878 71.0945 66.1447 70.9294C66.2115 70.8586 66.2849 70.7945 66.3584 70.7304C66.3718 70.717 66.3885 70.7068 66.4018 70.6934C66.4018 70.6934 66.4052 70.6934 66.4085 70.6866C66.4519 70.6563 66.4953 70.6226 66.5387 70.5956C66.719 70.4742 66.9127 70.3664 67.1097 70.272C67.2032 70.2281 67.2967 70.1843 67.3902 70.1439C67.4002 70.1405 67.4737 70.1068 67.4937 70.1C67.5471 70.0798 67.6006 70.0562 67.654 70.036C68.0847 69.8674 68.5222 69.7224 68.9529 69.5573C69.7977 69.2336 70.6759 68.8426 71.1901 68.0503C71.3137 67.8615 71.4038 67.6458 71.4706 67.4266C71.671 66.7659 70.6458 66.4827 70.4455 67.1401C70.4321 67.1873 70.4154 67.2311 70.3988 67.2783C70.3921 67.2952 70.3821 67.312 70.3754 67.3289C70.332 67.4131 70.2785 67.494 70.2285 67.575C70.2285 67.5783 70.2218 67.5851 70.2218 67.5884C70.2151 67.5918 70.2084 67.6019 70.1984 67.612C70.165 67.6458 70.135 67.6828 70.1016 67.7166C70.0415 67.7772 69.9814 67.8312 69.9146 67.8851C69.9046 67.8919 69.8578 67.9256 69.8378 67.9424C69.7977 67.9728 69.7543 67.9997 69.7109 68.0267C69.6241 68.0807 69.5339 68.1346 69.4438 68.1818C69.3503 68.2324 69.2534 68.2795 69.1566 68.3234C69.1132 68.3436 69.0731 68.3605 69.0297 68.3807C69.0264 68.3807 69.023 68.3807 69.0197 68.3841C68.993 68.3942 68.9663 68.4077 68.9396 68.4178C68.068 68.7718 67.1498 69.0179 66.3217 69.4763C65.921 69.6988 65.5336 69.9787 65.2431 70.3394C65.0628 70.5653 64.9192 70.8046 64.8091 71.0575C64.7656 71.0473 64.7222 71.0406 64.6788 71.044C63.8641 71.1114 63.0427 71.1417 62.2246 71.162C61.1995 71.1889 60.1744 71.1957 59.1459 71.1957C58.0507 71.1957 56.9521 71.1822 55.8569 71.1653C54.8151 71.1485 53.7699 71.1283 52.7281 71.1013C51.8766 71.0811 51.0251 71.0575 50.1737 71.0271C50.1637 71.0271 50.1536 71.0271 50.1436 71.0271C50.2104 69.5977 50.3506 68.1683 50.2972 66.7355C50.2805 66.2534 50.2438 65.7713 50.1937 65.2926C50.1637 65.0061 49.97 64.7566 49.6628 64.7566C49.399 64.7566 49.1018 65.0027 49.1319 65.2926C49.2254 66.2332 49.2654 67.1772 49.2354 68.1245C49.212 68.8459 49.1552 69.5606 49.1152 70.2821C49.0484 71.5058 49.0083 72.7296 48.9849 73.9567C48.9315 76.7818 48.9516 79.6103 48.9983 82.4354C49.0484 85.2639 49.1285 88.0924 49.232 90.9209C49.3122 93.1493 49.4057 95.3776 49.5125 97.6027C49.5459 98.3039 49.5793 99.0017 49.616 99.703C49.6227 99.8614 49.6294 100.023 49.6361 100.185C48.661 100.195 47.6894 100.209 46.7143 100.219C44.8578 100.239 43.0012 100.263 41.1447 100.283C40.8642 100.283 40.587 100.29 40.3066 100.293C39.8157 97.1206 39.3249 93.9482 38.834 90.7759C38.3231 87.4754 37.8222 84.1716 37.3013 80.8745C36.7804 77.5775 36.2395 74.2837 35.7653 70.9833C35.7086 70.5754 35.6485 70.1674 35.595 69.7595C35.5817 69.6685 35.5683 69.5741 35.5583 69.4831C35.5583 69.4696 35.555 69.4561 35.5516 69.4426C35.5383 69.3314 35.5216 69.2201 35.5082 69.1055C35.4515 68.6436 35.4047 68.1818 35.3747 67.7199C35.3413 67.2513 35.3246 66.7794 35.3313 66.3074C35.3313 66.0646 35.3446 65.8219 35.3613 65.5826C35.368 65.4781 35.378 65.3735 35.388 65.269C35.3947 65.2083 35.4014 65.151 35.4081 65.0903C35.4114 65.06 35.4147 65.033 35.4181 65.0027C35.4181 65.0027 35.4181 64.9993 35.4181 64.996C35.4181 64.996 35.4181 64.996 35.4181 64.9892C35.4849 64.5476 35.575 64.1127 35.7153 63.6879C35.7486 63.5901 35.782 63.4924 35.8221 63.3946C35.8288 63.3778 35.8355 63.3609 35.8421 63.344C35.8421 63.3407 35.8455 63.3339 35.8488 63.3306C35.8755 63.2732 35.8989 63.2193 35.9256 63.162C36.0158 62.9732 36.1193 62.7912 36.2362 62.6159C36.2662 62.572 36.2963 62.5282 36.3263 62.4844C36.333 62.4743 36.343 62.4641 36.3497 62.454C36.3497 62.454 36.3497 62.454 36.3497 62.4507C36.4198 62.3698 36.4866 62.2855 36.5601 62.2079C36.6302 62.1338 36.7003 62.063 36.7771 61.9955C36.8172 61.9585 36.8606 61.9247 36.9006 61.8877C36.904 61.8877 36.9107 61.8809 36.9173 61.8742C36.9307 61.8641 36.9441 61.854 36.9574 61.8438C37.1411 61.709 37.3347 61.591 37.5384 61.4932C37.5818 61.473 37.6286 61.4494 37.672 61.4292C37.6987 61.4191 37.7288 61.4056 37.7555 61.3955C37.8723 61.3516 37.9925 61.3112 38.1128 61.2775C38.2296 61.2438 38.3498 61.2134 38.47 61.1898C38.5368 61.1763 38.6036 61.1628 38.6704 61.1527C38.6971 61.1494 38.8807 61.1224 38.7906 61.1325C38.8273 61.1291 38.8641 61.119 38.9008 61.1089C39.2013 61.2235 39.5052 61.3314 39.8124 61.4359C39.8491 61.4494 39.8858 61.4561 39.9226 61.4561C40.0494 61.7461 40.2531 61.9955 40.537 62.1911C40.8542 62.4068 41.2415 62.508 41.6222 62.5113C41.699 62.5113 41.7758 62.5113 41.8559 62.5113H57.3194C57.3194 63.1485 57.3227 63.7857 57.3294 64.4228C57.3328 64.7768 57.3361 65.1342 57.3394 65.4882C57.3394 65.9568 57.3428 66.422 57.3461 66.8906C57.3461 67.0288 57.4062 67.1738 57.5031 67.2715C57.5999 67.3693 57.7468 67.4334 57.8804 67.43C58.0173 67.4233 58.1609 67.3794 58.2577 67.2715C58.3545 67.167 58.4146 67.0389 58.4146 66.8906C58.4146 66.2399 58.4113 65.5859 58.4046 64.9353C58.4013 64.5813 58.3979 64.2239 58.3946 63.87C58.3946 63.4182 58.3913 62.9665 58.3879 62.5147H73.0567C73.3973 62.5147 73.7446 62.5349 74.0785 62.4709C74.606 62.3731 75.1203 62.009 75.3507 61.5101C75.3707 61.4663 75.3874 61.4224 75.4041 61.3786C75.4342 61.382 75.4642 61.3853 75.4943 61.3853C75.8248 61.3685 76.1554 61.3651 76.486 61.3887L76.5027 61.382ZM69.0164 68.3773C68.9663 68.4009 68.993 68.3874 69.0164 68.3773V68.3773ZM74.4291 61.0044C74.4224 61.0246 74.4024 61.0583 74.4124 61.0381C74.409 61.0482 74.4024 61.055 74.399 61.0651C74.389 61.0786 74.3556 61.1291 74.3423 61.146C74.3289 61.1595 74.3122 61.1797 74.3089 61.1831C74.2855 61.2067 74.2621 61.2269 74.2387 61.2505C74.2154 61.2674 74.1953 61.2808 74.172 61.2943C74.1352 61.3146 74.0985 61.3348 74.0618 61.355C74.0751 61.3449 73.9683 61.3887 73.9482 61.3921C73.9249 61.3988 73.8113 61.4224 73.8314 61.4224C73.5776 61.4528 73.3038 61.4292 73.05 61.4292H41.9561C41.8592 61.4292 41.7624 61.4292 41.6656 61.4292C41.6589 61.4292 41.6522 61.4292 41.6455 61.4292C41.6255 61.4292 41.6088 61.4292 41.5888 61.4292C41.5621 61.4292 41.5354 61.4292 41.5086 61.4224C41.5053 61.4224 41.4986 61.4224 41.4886 61.4191C41.4285 61.4056 41.3717 61.3887 41.3116 61.3719C41.3016 61.3719 41.2949 61.3685 41.2916 61.3651C41.2716 61.355 41.2515 61.3449 41.2282 61.3348C41.1847 61.3112 41.1447 61.2876 41.1046 61.2606C41.1046 61.2572 41.0512 61.2168 41.0378 61.2033C41.0145 61.1797 40.9944 61.1561 40.971 61.1325C40.971 61.1325 40.971 61.1291 40.9677 61.1258C40.9477 61.0954 40.931 61.0651 40.9143 61.0314C40.921 61.0415 40.8842 60.9572 40.8775 60.9302C40.8742 60.9201 40.8709 60.9066 40.8675 60.8965H73.404C73.7546 60.8965 74.1085 60.8999 74.4591 60.8965C74.4524 60.9302 74.4424 60.9639 74.4324 60.9977C74.4324 60.9977 74.4324 60.9977 74.4324 61.001L74.4291 61.0044ZM41.2816 61.3685C41.2315 61.355 41.2582 61.3618 41.2816 61.3685V61.3685ZM40.971 61.1325C40.9911 61.1662 41.0044 61.1696 40.971 61.1325V61.1325ZM75.8482 39.5531C75.8482 39.5531 75.8482 39.5801 75.8482 39.5902C75.8482 39.6475 75.8415 39.7049 75.8382 39.7622C75.8248 39.9914 75.8081 40.2206 75.7948 40.4499L75.6312 42.9783C75.5544 44.1751 75.4742 45.3719 75.3974 46.5687C75.3073 47.9307 75.2204 49.2927 75.1303 50.658C75.0435 51.9998 74.9567 53.3416 74.8698 54.6833C74.7964 55.816 74.7229 56.9488 74.6495 58.0782C74.6127 58.6614 74.5727 59.248 74.5359 59.8312H41.9093C41.5354 59.8312 41.1614 59.8278 40.7874 59.8312C40.7874 59.8177 40.7874 59.8042 40.7874 59.7907C40.7206 58.921 40.6538 58.0478 40.5904 57.178C40.4969 55.9678 40.4067 54.7541 40.3132 53.5438C40.2097 52.1717 40.1062 50.7996 39.9994 49.4275C39.8992 48.0959 39.7957 46.7642 39.6955 45.4326C39.612 44.3235 39.5252 43.2109 39.4417 42.1018C39.3883 41.4006 39.3349 40.6994 39.2814 39.9948C39.2714 39.8566 39.2581 39.7217 39.2514 39.5835C39.2514 39.5734 39.2514 39.5633 39.2514 39.5531C39.2514 39.5531 39.2514 39.5531 39.2514 39.5498C39.2514 39.5228 39.2581 39.4722 39.2581 39.4655C39.2681 39.4318 39.2748 39.3981 39.2848 39.3644C39.2948 39.3441 39.3048 39.3239 39.3182 39.3037C39.3315 39.2834 39.3916 39.2059 39.3816 39.216C39.4083 39.189 39.435 39.1621 39.4618 39.1351C39.4618 39.1351 39.4718 39.125 39.4785 39.1183C39.4951 39.1081 39.5219 39.0879 39.5285 39.0845C39.5719 39.0576 39.6154 39.034 39.6588 39.0104C39.6588 39.0104 39.6621 39.0104 39.6654 39.0104C39.6654 39.0104 39.6688 39.0104 39.6721 39.0104C39.6955 39.0003 39.7222 38.9935 39.7456 38.9868C39.789 38.9733 39.8357 38.9632 39.8791 38.9531C39.8925 38.9531 39.9125 38.9463 39.9192 38.9463C39.9559 38.9463 39.9927 38.9463 40.0294 38.943H74.7296C74.8331 38.943 74.9333 38.943 75.0368 38.943C75.0602 38.943 75.0802 38.943 75.1036 38.943C75.1269 38.943 75.2572 38.9598 75.2271 38.9531C75.2705 38.9632 75.3173 38.9733 75.3607 38.9868C75.3907 38.9969 75.4175 39.0036 75.4442 39.0171C75.4442 39.0171 75.4442 39.0171 75.4475 39.0171C75.5076 39.0475 75.5644 39.0812 75.6211 39.1183C75.6345 39.1317 75.6512 39.1419 75.6645 39.1553C75.6812 39.1722 75.7447 39.243 75.7413 39.2362C75.7614 39.2666 75.7781 39.3003 75.7981 39.3306C75.8048 39.3374 75.8148 39.361 75.8181 39.3711C75.8248 39.388 75.8282 39.4048 75.8348 39.4217C75.8415 39.4486 75.8549 39.5161 75.8549 39.5026C75.8549 39.5228 75.8549 39.543 75.8549 39.5633C75.8549 39.5633 75.8549 39.5666 75.8549 39.57L75.8482 39.5531Z" fill="#232B65"/>
</svg>
