<svg width="50" height="52" viewBox="0 0 50 52" fill="none" xmlns="http://www.w3.org/2000/svg">
<g clip-path="url(#clip0_477_863)">
<path d="M11.75 8.62012H38.31V38.8301C38.31 40.1801 37.21 41.2801 35.86 41.2801H14.2C12.85 41.2801 11.75 40.1801 11.75 38.8301V8.62012Z" fill="white" stroke="#323232" stroke-width="1.5" stroke-linecap="round" stroke-linejoin="round"/>
<path d="M38.3 4.75H11.75V9.59H38.3V4.75Z" fill="white" stroke="#323232" stroke-width="1.5" stroke-linecap="round" stroke-linejoin="round"/>
<path d="M16.02 15.3799H33.98" stroke="#C0BBB7" stroke-width="1.5" stroke-linecap="round" stroke-linejoin="round"/>
<path d="M16.02 20.3198H33.98" stroke="#C0BBB7" stroke-width="1.5" stroke-linecap="round" stroke-linejoin="round"/>
<path d="M16.02 25.27H33.98" stroke="#C0BBB7" stroke-width="1.5" stroke-linecap="round" stroke-linejoin="round"/>
<path d="M16.02 30.2202H33.98" stroke="#C0BBB7" stroke-width="1.5" stroke-linecap="round" stroke-linejoin="round"/>
<path d="M16.02 35.1602H33.98" stroke="#C0BBB7" stroke-width="1.5" stroke-linecap="round" stroke-linejoin="round"/>
<path d="M45.9701 11.46C47.3101 12.23 47.7701 13.95 47.0001 15.29L29.2801 45.99L24.4301 43.19L42.1401 12.49C42.9101 11.15 44.6301 10.69 45.9701 11.46Z" fill="#FFD151" stroke="#323232" stroke-width="1.5" stroke-linecap="round" stroke-linejoin="round"/>
<path d="M29.27 45.9899C29.27 45.9899 28.77 44.5199 27.41 43.7399C26.05 42.9599 24.42 43.1899 24.42 43.1899L22.97 49.6999C22.8 50.4599 23.9 51.0899 24.47 50.5499L29.28 45.9899H29.27Z" fill="white" stroke="#323232" stroke-width="1.5" stroke-linecap="round" stroke-linejoin="round"/>
</g>
<defs>
<clipPath id="clip0_477_863">
<rect width="37.12" height="47.5" fill="white" transform="translate(11 4)"/>
</clipPath>
</defs>
</svg>
