<svg width="122" height="124" viewBox="0 0 122 124" fill="none" xmlns="http://www.w3.org/2000/svg">
<g clip-path="url(#clip0_273_1964)">
<path d="M63.4222 117.436C63.4159 118.13 63.9295 118.906 64.5763 119.166L74.8803 123.281C75.5208 123.536 76.0598 123.18 76.0788 122.486L76.1676 118.619C76.1866 117.926 75.7554 117.004 75.2101 116.571L64.5382 108.049C63.9993 107.616 63.5491 107.832 63.5364 108.526L63.4222 117.436Z" fill="#FFD151"/>
<path d="M63.4222 117.436C63.4159 118.13 63.9295 118.906 64.5763 119.166L74.8803 123.281C75.5208 123.536 76.0598 123.18 76.0788 122.486L76.1676 118.619C76.1866 117.926 75.7554 117.004 75.2101 116.571L64.5382 108.049C63.9993 107.616 63.5491 107.832 63.5364 108.526L63.4222 117.436Z" stroke="#323232" stroke-width="2" stroke-linecap="round" stroke-linejoin="round"/>
<path d="M58.5778 117.436C58.5841 118.13 58.0705 118.906 57.4237 119.166L47.1197 123.281C46.4792 123.536 45.9403 123.18 45.9212 122.486L45.8325 118.619C45.8134 117.926 46.2446 117.004 46.7899 116.571L57.4618 108.049C58.0008 107.616 58.451 107.832 58.4636 108.526L58.5778 117.436Z" fill="#FFD151"/>
<path d="M58.5778 117.436C58.5841 118.13 58.0705 118.906 57.4237 119.166L47.1197 123.281C46.4792 123.536 45.9403 123.18 45.9212 122.486L45.8325 118.619C45.8134 117.926 46.2446 117.004 46.7899 116.571L57.4618 108.049C58.0008 107.616 58.451 107.832 58.4636 108.526L58.5778 117.436Z" stroke="#323232" stroke-width="2" stroke-linecap="round" stroke-linejoin="round"/>
<path d="M104.493 78.594C104.493 79.3763 104.753 80.6039 105.07 81.3162L105.862 82.1113C106.573 82.4293 107.739 82.4293 108.449 82.1113L109.242 81.3162C109.559 80.6039 109.819 79.3763 109.819 78.594V72.7362C109.819 71.9539 109.559 70.7264 109.242 70.014L108.449 69.219C107.739 68.901 106.573 68.901 105.862 69.219L105.07 70.014C104.753 70.7264 104.493 71.9539 104.493 72.7362V78.594Z" fill="#FFD151"/>
<path d="M104.493 78.594C104.493 79.3763 104.753 80.6039 105.07 81.3162L105.862 82.1113C106.573 82.4293 107.739 82.4293 108.449 82.1113L109.242 81.3162C109.559 80.6039 109.819 79.3763 109.819 78.594V72.7362C109.819 71.9539 109.559 70.7264 109.242 70.014L108.449 69.219C107.739 68.901 106.573 68.901 105.862 69.219L105.07 70.014C104.753 70.7264 104.493 71.9539 104.493 72.7362V78.594Z" stroke="#323232" stroke-width="2" stroke-linecap="round" stroke-linejoin="round"/>
<path d="M81.3418 62.9542C81.3418 63.8446 81.6398 65.2375 82.0013 66.0453L82.9017 66.9548C83.7133 67.3173 85.0322 67.3173 85.8439 66.9548L86.7443 66.0453C87.1057 65.2311 87.4037 63.8446 87.4037 62.9542V56.3013C87.4037 55.4109 87.1057 54.018 86.7443 53.2102L85.8439 52.3071C85.0322 51.9445 83.7133 51.9445 82.9017 52.3071L82.0013 53.2102C81.6398 54.0243 81.3418 55.4109 81.3418 56.3013V62.9542Z" fill="#FFD151"/>
<path d="M81.3418 62.9542C81.3418 63.8446 81.6398 65.2375 82.0013 66.0453L82.9017 66.9548C83.7133 67.3173 85.0322 67.3173 85.8439 66.9548L86.7443 66.0453C87.1057 65.2311 87.4037 63.8446 87.4037 62.9542V56.3013C87.4037 55.4109 87.1057 54.018 86.7443 53.2102L85.8439 52.3071C85.0322 51.9445 83.7133 51.9445 82.9017 52.3071L82.0013 53.2102C81.6398 54.0243 81.3418 55.4109 81.3418 56.3013V62.9542Z" stroke="#323232" stroke-width="2" stroke-linecap="round" stroke-linejoin="round"/>
<path d="M68.2414 69.2762C68.2414 69.9695 68.7677 70.7581 69.4081 71.0316L120.206 92.6757C120.84 92.9492 121.366 92.5993 121.366 91.9061V85.1514C121.366 84.4582 120.903 83.5614 120.339 83.1607L69.1291 46.7735C68.5648 46.3728 68.1082 46.6145 68.1082 47.3078L68.2414 69.2698V69.2762Z" fill="white"/>
<path d="M68.2414 69.2762C68.2414 69.9695 68.7677 70.7581 69.4081 71.0316L120.206 92.6757C120.84 92.9491 121.366 92.5993 121.366 91.9061V85.1514C121.366 84.4582 120.903 83.5614 120.339 83.1607L69.1291 46.7735C68.5648 46.3728 68.1082 46.6145 68.1082 47.3078L68.2414 69.2698V69.2762Z" stroke="#323232" stroke-width="2" stroke-linecap="round" stroke-linejoin="round"/>
<path d="M69.6047 65.7463L117.428 89.3684C118.05 89.6737 118.557 90.3606 118.557 90.8949V91.868" stroke="#323232" stroke-width="2" stroke-linecap="round" stroke-linejoin="round"/>
<path d="M82.2549 72.011V76.6413" stroke="#323232" stroke-width="2" stroke-linecap="round" stroke-linejoin="round"/>
<path d="M98.7731 80.2222V83.5041" stroke="#323232" stroke-width="2" stroke-linecap="round" stroke-linejoin="round"/>
<path d="M40.6582 62.9542C40.6582 63.8446 40.3602 65.2375 39.9987 66.0453L39.0983 66.9548C38.2867 67.3173 36.9678 67.3173 36.1561 66.9548L35.2557 66.0453C34.8943 65.2311 34.5963 63.8446 34.5963 62.9542V56.3013C34.5963 55.4109 34.8943 54.018 35.2557 53.2102L36.1561 52.3071C36.9678 51.9445 38.2867 51.9445 39.0983 52.3071L39.9987 53.2102C40.3602 54.0243 40.6582 55.4109 40.6582 56.3013V62.9542Z" fill="#FFD151"/>
<path d="M40.6582 62.9542C40.6582 63.8446 40.3602 65.2375 39.9987 66.0453L39.0983 66.9548C38.2867 67.3173 36.9678 67.3173 36.1561 66.9548L35.2557 66.0453C34.8943 65.2311 34.5963 63.8446 34.5963 62.9542V56.3013C34.5963 55.4109 34.8943 54.018 35.2557 53.2102L36.1561 52.3071C36.9678 51.9445 38.2867 51.9445 39.0983 52.3071L39.9987 53.2102C40.3602 54.0243 40.6582 55.4109 40.6582 56.3013V62.9542Z" stroke="#323232" stroke-width="2" stroke-linecap="round" stroke-linejoin="round"/>
<path d="M17.5074 78.594C17.5074 79.3763 17.2474 80.6039 16.9303 81.3162L16.1377 82.1113C15.4275 82.4293 14.2608 82.4293 13.5506 82.1113L12.758 81.3162C12.4409 80.6039 12.181 79.3763 12.181 78.594V72.7362C12.181 71.9539 12.4409 70.7264 12.758 70.014L13.5506 69.219C14.2608 68.901 15.4275 68.901 16.1377 69.219L16.9303 70.014C17.2474 70.7264 17.5074 71.9539 17.5074 72.7362V78.594Z" fill="#FFD151"/>
<path d="M17.5074 78.594C17.5074 79.3763 17.2474 80.6039 16.9303 81.3162L16.1377 82.1113C15.4275 82.4293 14.2608 82.4293 13.5506 82.1113L12.758 81.3162C12.4409 80.6039 12.181 79.3763 12.181 78.594V72.7362C12.181 71.9539 12.4409 70.7264 12.758 70.014L13.5506 69.219C14.2608 68.901 15.4275 68.901 16.1377 69.219L16.9303 70.014C17.2474 70.7264 17.5074 71.9539 17.5074 72.7362V78.594Z" stroke="#323232" stroke-width="2" stroke-linecap="round" stroke-linejoin="round"/>
<path d="M53.7586 69.2762C53.7586 69.9695 53.2323 70.7581 52.5919 71.0316L1.79449 92.6757C1.16039 92.9492 0.634094 92.5993 0.634094 91.9061V85.1514C0.634094 84.4582 1.09698 83.5614 1.66133 83.1607L52.8709 46.7735C53.4352 46.3728 53.8918 46.6145 53.8918 47.3078L53.7586 69.2698V69.2762Z" fill="white"/>
<path d="M53.7586 69.2762C53.7586 69.9695 53.2323 70.7581 52.5919 71.0316L1.79449 92.6757C1.16039 92.9491 0.634094 92.5993 0.634094 91.9061V85.1514C0.634094 84.4582 1.09698 83.5614 1.66133 83.1607L52.8709 46.7735C53.4352 46.3728 53.8918 46.6145 53.8918 47.3078L53.7586 69.2698V69.2762Z" stroke="#323232" stroke-width="2" stroke-linecap="round" stroke-linejoin="round"/>
<path d="M52.3953 65.7463L4.56546 89.3621C3.94404 89.6673 3.43677 90.3543 3.43677 90.8885V91.8616" stroke="#323232" stroke-width="2" stroke-linecap="round" stroke-linejoin="round"/>
<path d="M39.7451 72.011V76.6413" stroke="#323232" stroke-width="2" stroke-linecap="round" stroke-linejoin="round"/>
<path d="M23.2269 80.2222V83.5041" stroke="#323232" stroke-width="2" stroke-linecap="round" stroke-linejoin="round"/>
<path d="M65.9333 115.693C64.4115 120.616 62.617 120.845 61.0254 120.845C59.2943 120.845 57.4998 120.464 56.257 115.541C56.257 115.541 53.2133 104.773 52.6617 99.621C52.11 94.4692 51.8944 18.3239 51.8944 18.3239C51.5647 8.84075 55.6419 0.635986 61.0254 0.635986C66.4089 0.635986 70.4861 8.84075 70.1564 18.3239C70.1564 18.3239 69.8139 94.9971 69.2876 99.6973C68.736 104.62 65.9333 115.693 65.9333 115.693Z" fill="white" stroke="#323232" stroke-width="2" stroke-linecap="round" stroke-linejoin="round"/>
<path d="M61.1459 105.485H60.702C60.2117 105.485 59.8143 105.884 59.8143 106.376V117.653C59.8143 118.144 60.2117 118.543 60.702 118.543H61.1459C61.6362 118.543 62.0336 118.144 62.0336 117.653V106.376C62.0336 105.884 61.6362 105.485 61.1459 105.485Z" fill="#FFD151" stroke="#323232" stroke-width="2" stroke-linecap="round" stroke-linejoin="round"/>
</g>
<defs>
<clipPath id="clip0_273_1964">
<rect width="122" height="124" fill="white"/>
</clipPath>
</defs>
</svg>
