<svg width="165" height="80" viewBox="0 0 165 80" fill="none" xmlns="http://www.w3.org/2000/svg">
<g clip-path="url(#clip0_273_2193)">
<path d="M4.69885 78.89H78.0792H162.385V25.9184L113.47 1.11035L39.5668 2.14541L4.69885 25.9184V78.89Z" fill="white"/>
<path d="M81.4913 30.3253L38.5041 6.54402L1.28677 30.3253L1.10413 25.918L38.5041 2.14502L81.3003 25.918L81.4913 30.3253Z" fill="#50C0DC"/>
<path d="M163.904 30.3257H84.92H82.28L36.5615 4.04858L41.2023 1.11035H124.395L163.904 24.3658V30.3257Z" fill="#50C0DC"/>
<path d="M63.7336 35.8516H12.6271V42.4125H63.7336V35.8516Z" fill="white"/>
<path d="M63.7336 43.5225H12.6272C12.0211 43.5225 11.523 43.03 11.523 42.4123V35.8514C11.523 35.242 12.0128 34.7412 12.6272 34.7412H63.7336C64.3396 34.7412 64.8377 35.2337 64.8377 35.8514V42.4123C64.8377 43.0217 64.3479 43.5225 63.7336 43.5225ZM13.7313 41.3021H62.6294V36.9616H13.7313V41.3021Z" fill="#323232"/>
<path d="M60.4211 42.4126H15.9396V78.84H60.4211V42.4126Z" fill="white"/>
<path d="M60.4211 79.95H15.9396C15.3336 79.95 14.8354 79.4575 14.8354 78.8398V42.4124C14.8354 41.8031 15.3253 41.3022 15.9396 41.3022H60.4211C61.0271 41.3022 61.5253 41.7947 61.5253 42.4124V78.8398C61.5253 79.4492 61.0354 79.95 60.4211 79.95ZM17.0438 77.7296H59.3253V43.5143H17.0438V77.7296Z" fill="#323232"/>
<path d="M95.4717 41.0938H86.7381V56.82H95.4717V41.0938Z" fill="white"/>
<path d="M95.4717 57.93H86.7381C86.1321 57.93 85.634 57.4375 85.634 56.8198V41.0936C85.634 40.4842 86.1238 39.9834 86.7381 39.9834H95.4717C96.0777 39.9834 96.5759 40.4759 96.5759 41.0936V56.8198C96.5759 57.4291 96.086 57.93 95.4717 57.93ZM87.834 55.718H94.3676V42.2038H87.834V55.718Z" fill="#323232"/>
<path d="M106.081 41.0938H97.3479V56.82H106.081V41.0938Z" fill="white"/>
<path d="M106.09 57.93H97.3562C96.7502 57.93 96.2521 57.4375 96.2521 56.8198V41.0936C96.2521 40.4842 96.7419 39.9834 97.3562 39.9834H106.09C106.696 39.9834 107.194 40.4759 107.194 41.0936V56.8198C107.194 57.4291 106.704 57.93 106.09 57.93ZM98.4521 55.718H104.986V42.2038H98.4521V55.718Z" fill="#323232"/>
<path d="M120.934 41.0938H112.2V56.82H120.934V41.0938Z" fill="white"/>
<path d="M120.934 57.93H112.2C111.594 57.93 111.096 57.4375 111.096 56.8198V41.0936C111.096 40.4842 111.586 39.9834 112.2 39.9834H120.934C121.54 39.9834 122.038 40.4759 122.038 41.0936V56.8198C122.038 57.4291 121.548 57.93 120.934 57.93ZM113.296 55.718H119.829V42.2038H113.296V55.718Z" fill="#323232"/>
<path d="M131.543 41.0938H122.81V56.82H131.543V41.0938Z" fill="white"/>
<path d="M131.552 57.93H122.818C122.212 57.93 121.714 57.4375 121.714 56.8198V41.0936C121.714 40.4842 122.204 39.9834 122.818 39.9834H131.552C132.158 39.9834 132.656 40.4759 132.656 41.0936V56.8198C132.656 57.4291 132.166 57.93 131.552 57.93ZM123.914 55.718H130.448V42.2038H123.914V55.718Z" fill="#323232"/>
<path d="M144.635 41.0938H135.902V56.82H144.635V41.0938Z" fill="white"/>
<path d="M144.644 57.93H135.91C135.304 57.93 134.806 57.4375 134.806 56.8198V41.0936C134.806 40.4842 135.296 39.9834 135.91 39.9834H144.644C145.25 39.9834 145.748 40.4759 145.748 41.0936V56.8198C145.748 57.4291 145.258 57.93 144.644 57.93ZM137.006 55.718H143.54V42.2038H137.006V55.718Z" fill="#323232"/>
<path d="M155.254 41.0938H146.52V56.82H155.254V41.0938Z" fill="white"/>
<path d="M155.254 57.93H146.52C145.914 57.93 145.416 57.4375 145.416 56.8198V41.0936C145.416 40.4842 145.906 39.9834 146.52 39.9834H155.254C155.86 39.9834 156.358 40.4759 156.358 41.0936V56.8198C156.358 57.4291 155.868 57.93 155.254 57.93ZM147.616 55.718H154.149V42.2038H147.616V55.718Z" fill="#323232"/>
<path d="M81.3004 27.0285C81.1177 27.0285 80.9351 26.9868 80.7691 26.8866L38.5457 3.43088L1.69359 26.8533C1.17887 27.1788 0.498117 27.0285 0.174344 26.511C-0.14943 25.9935 4.14765e-06 25.309 0.514721 24.9835L37.923 1.21051C38.2634 0.993485 38.6951 0.985138 39.0438 1.17712L81.84 24.9501C82.3713 25.2422 82.5623 25.9184 82.2717 26.4526C82.0725 26.8199 81.6906 27.0285 81.3087 27.0285H81.3004Z" fill="#323232"/>
<path d="M81.4913 31.4273C81.3087 31.4273 81.126 31.3856 80.96 31.2938L38.5456 7.83803L1.88451 31.2604C1.36979 31.5859 0.689035 31.4357 0.365262 30.9182C0.0414882 30.4006 0.190922 29.7162 0.705639 29.3906L37.9147 5.60932C38.2551 5.39229 38.6868 5.37559 39.0354 5.57593L82.0143 29.3489C82.5456 29.641 82.7449 30.3172 82.446 30.8514C82.2468 31.2187 81.8649 31.4273 81.483 31.4273H81.4913Z" fill="#323232"/>
<path d="M78.0793 79.9998H4.69888C4.09284 79.9998 3.59473 79.5073 3.59473 78.8896V31.494C3.59473 30.8846 4.08454 30.3838 4.69888 30.3838C5.31322 30.3838 5.80303 30.8763 5.80303 31.494V77.7878H76.9751V31.494C76.9751 30.8846 77.4649 30.3838 78.0793 30.3838C78.6936 30.3838 79.1834 30.8763 79.1834 31.494V78.8896C79.1834 79.499 78.6936 79.9998 78.0793 79.9998Z" fill="#323232"/>
<path d="M162.385 24.5827C162.194 24.5827 162.003 24.5326 161.829 24.4324L124.097 2.21207H41.2023C40.5963 2.21207 40.0981 1.71958 40.0981 1.10188C40.0981 0.484187 40.588 -0.00830078 41.2023 -0.00830078H124.396C124.595 -0.00830078 124.786 0.0417827 124.952 0.14195L162.949 22.5126C163.472 22.8214 163.647 23.4975 163.34 24.0234C163.132 24.374 162.767 24.5743 162.385 24.5743V24.5827Z" fill="#323232"/>
<path d="M163.904 27.2121H84.92C84.314 27.2121 83.8159 26.7196 83.8159 26.1019C83.8159 25.4842 84.3057 24.9917 84.92 24.9917H163.904C164.51 24.9917 165.008 25.4842 165.008 26.1019C165.008 26.7196 164.518 27.2121 163.904 27.2121Z" fill="#323232"/>
<path d="M163.904 31.4274H84.92C84.314 31.4274 83.8159 30.9349 83.8159 30.3172C83.8159 29.6995 84.3057 29.207 84.92 29.207H163.904C164.51 29.207 165.008 29.6995 165.008 30.3172C165.008 30.9349 164.518 31.4274 163.904 31.4274Z" fill="#323232"/>
<path d="M162.385 79.9998H81.483C80.877 79.9998 80.3788 79.5073 80.3788 78.8896C80.3788 78.2719 80.8687 77.7794 81.483 77.7794H161.281V32.554C161.281 31.9447 161.771 31.4438 162.385 31.4438C162.999 31.4438 163.489 31.9363 163.489 32.554V78.8812C163.489 79.4906 162.999 79.9914 162.385 79.9914V79.9998Z" fill="#323232"/>
<path d="M55.7555 49.2736H20.6053C19.9993 49.2736 19.5012 48.7811 19.5012 48.1634C19.5012 47.5457 19.991 47.0532 20.6053 47.0532H55.7555C56.3615 47.0532 56.8596 47.5457 56.8596 48.1634C56.8596 48.7811 56.3698 49.2736 55.7555 49.2736Z" fill="#323232"/>
<path d="M55.7555 53.4059H20.6053C19.9993 53.4059 19.5012 52.9134 19.5012 52.2957C19.5012 51.678 19.991 51.1855 20.6053 51.1855H55.7555C56.3615 51.1855 56.8596 51.678 56.8596 52.2957C56.8596 52.9134 56.3698 53.4059 55.7555 53.4059Z" fill="#323232"/>
<path d="M55.7555 57.5294H20.6053C19.9993 57.5294 19.5012 57.037 19.5012 56.4193C19.5012 55.8016 19.991 55.3091 20.6053 55.3091H55.7555C56.3615 55.3091 56.8596 55.8016 56.8596 56.4193C56.8596 57.037 56.3698 57.5294 55.7555 57.5294Z" fill="#323232"/>
<path d="M55.7555 61.6613H20.6053C19.9993 61.6613 19.5012 61.1688 19.5012 60.5511C19.5012 59.9334 19.991 59.4409 20.6053 59.4409H55.7555C56.3615 59.4409 56.8596 59.9334 56.8596 60.5511C56.8596 61.1688 56.3698 61.6613 55.7555 61.6613Z" fill="#323232"/>
<path d="M55.7555 65.7848H20.6053C19.9993 65.7848 19.5012 65.2923 19.5012 64.6746C19.5012 64.0569 19.991 63.5645 20.6053 63.5645H55.7555C56.3615 63.5645 56.8596 64.0569 56.8596 64.6746C56.8596 65.2923 56.3698 65.7848 55.7555 65.7848Z" fill="#323232"/>
<path d="M55.7555 69.9167H20.6053C19.9993 69.9167 19.5012 69.4242 19.5012 68.8065C19.5012 68.1888 19.991 67.6963 20.6053 67.6963H55.7555C56.3615 67.6963 56.8596 68.1888 56.8596 68.8065C56.8596 69.4242 56.3698 69.9167 55.7555 69.9167Z" fill="#323232"/>
<path d="M55.7555 74.0402H20.6053C19.9993 74.0402 19.5012 73.5477 19.5012 72.93C19.5012 72.3123 19.991 71.8198 20.6053 71.8198H55.7555C56.3615 71.8198 56.8596 72.3123 56.8596 72.93C56.8596 73.5477 56.3698 74.0402 55.7555 74.0402Z" fill="#323232"/>
</g>
<defs>
<clipPath id="clip0_273_2193">
<rect width="165" height="80" fill="white"/>
</clipPath>
</defs>
</svg>
