<svg width="120" height="235" viewBox="0 0 120 235" fill="none" xmlns="http://www.w3.org/2000/svg">
<path d="M69.9263 46.3829C69.3572 46.5406 68.7416 46.2158 68.583 45.6404C68.4058 45.0279 68.8442 44.3783 68.9748 43.8029C68.9748 43.7844 68.9841 43.738 68.9934 43.6915C68.8815 43.7658 68.9375 43.7287 68.7696 43.8864C68.7509 43.905 68.7323 43.9236 68.7136 43.9421C68.5177 44.1741 68.3218 44.3876 68.1446 44.601C67.3704 45.5012 65.8032 44.2948 66.4935 43.3389C66.6334 43.144 66.8013 42.9305 66.9786 42.7357C67.1185 42.5686 67.2491 42.3923 67.3797 42.216C67.4357 42.1324 67.4636 42.0953 67.4823 42.0767C67.4636 42.0396 67.445 42.0025 67.417 41.9654C67.3517 41.854 67.2584 41.7612 67.1651 41.6684C66.9506 41.687 66.792 41.8076 66.6241 41.9375C66.1764 42.2902 65.7753 42.5872 65.2436 42.8099C64.4134 43.1626 63.5458 41.9747 64.0589 41.2786C64.9824 40.0165 65.9898 38.8007 66.9506 37.5664C67.6409 36.6848 68.6203 35.6083 68.9188 34.5688C68.8535 34.5688 68.639 34.606 68.7323 34.5781C68.7136 34.5781 68.6949 34.5781 68.6763 34.5874C68.5737 34.6153 68.4804 34.6431 68.3871 34.6802C68.3871 34.6895 68.1539 34.8009 68.098 34.8287C68.098 34.8287 68.0793 34.8287 68.07 34.8473C68.0233 34.8844 67.986 34.9308 67.9394 34.9679C66.7454 36.1187 65.57 37.2973 64.3667 38.4481C63.266 39.4968 62.1746 40.5826 60.9806 41.5292C59.8892 42.3923 58.49 42.8749 57.2121 43.3667C56.7643 43.5431 56.2699 43.2368 56.0274 42.8841C55.6729 42.3552 55.3184 41.8262 54.9733 41.2972C54.4416 40.4712 54.0125 39.5896 53.4435 38.7915C53.2383 38.513 53.0051 38.2532 52.7532 38.0212C52.7532 38.0212 52.7346 38.0119 52.7252 38.0026C52.6786 37.9748 52.632 37.9377 52.5853 37.9098C52.5667 37.9005 52.5387 37.882 52.52 37.8727C52.576 37.9098 52.52 37.8727 52.4827 37.8541C52.4734 37.8541 52.4361 37.8541 52.3987 37.8356C52.3987 37.8356 52.3894 37.8356 52.3801 37.8356C52.3335 37.8541 52.2495 37.882 52.2029 37.882C52.1935 37.882 52.1935 37.882 52.1749 37.9005C52.0909 37.9469 52.007 37.9841 51.9323 38.0305C51.7831 38.1325 51.8297 38.0954 51.7551 38.2161C51.8297 38.0861 51.7924 38.2439 51.7738 38.2625C51.7738 38.346 51.7831 38.4945 51.7738 38.4666C51.8204 38.8286 51.979 39.2369 52.1096 39.5896C52.4734 40.5826 52.9305 41.5292 53.3316 42.5036C53.742 43.4967 54.0312 44.4804 54.1338 45.5476C54.255 46.8191 54.1804 48.0905 54.0778 49.3619C53.9845 50.4848 53.9286 51.6078 53.6301 52.7122C53.3409 53.7794 52.9584 54.8188 52.576 55.8582C52.576 55.8768 52.5573 55.8861 52.5573 55.9046C52.3521 56.4058 51.8577 56.7399 51.2887 56.5821C51.1021 56.5357 50.9342 56.4151 50.8036 56.2759C50.6171 56.712 50.3839 57.1204 50.132 57.538C50.2999 57.7793 50.3746 58.0856 50.2626 58.4196C50.3559 58.4289 50.4492 58.4475 50.5331 58.4661C50.4398 58.2062 50.4398 57.9092 50.6078 57.6215C50.8689 57.1761 51.5872 56.9069 52.0443 57.2503C53.2942 58.1876 54.6935 58.9765 56.13 59.589C57.5012 60.1737 59.003 60.6377 60.4209 60.647C60.5608 60.647 60.6821 60.6748 60.794 60.7212C60.8967 60.3964 60.9993 60.0623 61.0832 59.7096C60.7567 59.4405 60.5702 59.0043 60.7101 58.5867C60.7567 58.4475 60.8407 58.3083 60.9713 58.1784C62.9582 56.1831 64.7492 54.0114 66.4375 51.7563C67.2025 50.7447 67.9487 49.7146 68.6949 48.6844C69.0214 48.2297 69.3666 47.7935 69.7117 47.3666C69.8423 47.2088 69.9636 47.0511 70.0848 46.884C70.1315 46.8191 70.1781 46.7448 70.2248 46.6706C70.2341 46.652 70.3087 46.485 70.318 46.4757C70.346 46.3736 70.3647 46.2715 70.3833 46.1694C70.2527 46.253 70.1315 46.3365 69.9729 46.3829H69.9263Z" fill="white"/>
<path d="M32.4739 232.818C32.5591 232.827 32.5213 232.818 32.4739 232.818Z" fill="#2CB0E0"/>
<path d="M49.619 222.294C50.4678 221.134 51.5592 219.157 50.6077 217.765C49.9268 218.276 49.3671 218.916 48.9567 219.686C48.5649 220.419 47.5575 220.308 47.147 219.686C45.8504 217.756 43.5464 216.587 41.2423 216.484C41.0371 216.484 40.8785 216.419 40.7293 216.336C40.2162 217.422 39.6192 218.47 38.9943 219.491C37.9775 221.162 36.8768 222.767 35.7294 224.345C36.401 224.206 37.1006 224.15 37.7909 224.224C39.7498 224.419 41.6154 225.375 42.8281 226.944C43.1732 227.389 43.2665 227.983 42.8281 228.419C42.4643 228.781 41.6901 228.865 41.3449 228.419C40.4681 227.296 39.2181 226.489 37.7909 226.312C36.2798 226.127 34.7313 226.656 33.6306 227.677C33.3881 227.899 33.1175 227.983 32.8564 227.964C32.6232 228.233 32.39 228.493 32.1568 228.762C31.6437 229.338 31.14 229.923 30.7575 230.591C30.7016 230.693 30.6456 230.795 30.5896 230.906C30.5803 230.934 30.571 230.953 30.5616 230.971C30.5616 230.971 30.5616 230.99 30.543 231.018C30.5243 231.073 30.459 231.361 30.4497 231.333C30.4497 231.407 30.4497 231.528 30.4497 231.547C30.4777 231.732 30.5337 231.927 30.599 232.094C30.6363 232.206 30.6269 232.206 30.7575 232.382C30.6363 232.224 30.8601 232.419 30.8135 232.4C30.8601 232.428 30.9068 232.456 30.9441 232.475C30.9534 232.475 30.9534 232.475 30.9628 232.484C30.9721 232.484 30.9814 232.484 31.0001 232.493C31.14 232.54 31.2799 232.577 31.4198 232.614C31.6344 232.67 31.8396 232.707 32.0541 232.744C32.1661 232.762 32.278 232.781 32.39 232.799C32.3993 232.799 32.4086 232.799 32.4273 232.799C32.7164 232.827 33.0149 232.846 33.3041 232.855C34.9832 232.911 36.6716 232.799 38.332 232.632C39.0222 232.558 39.4607 232.503 40.2069 232.354C41.0931 232.168 42.0259 231.983 42.8468 231.593C43.7049 231.194 44.1993 230.619 44.731 229.867C45.3001 229.069 45.8597 228.252 46.3168 227.38C46.7739 226.498 47.1004 225.598 47.6787 224.772C48.285 223.909 48.9847 223.129 49.6003 222.275L49.619 222.294Z" fill="white"/>
<path d="M50.9622 42.2993C50.8689 42.6149 50.7756 42.9304 50.673 43.2366C50.9529 43.3666 51.2234 43.4872 51.5032 43.6171C51.3353 43.1717 51.1488 42.7355 50.9622 42.2993Z" fill="white"/>
<path d="M50.9062 222.949C50.9252 222.892 50.9252 222.883 50.9062 222.949Z" fill="#2CB0E0"/>
<path d="M73.4337 22.1606C73.499 22.3741 73.4803 22.2256 73.4337 22.1606Z" fill="#2CB0E0"/>
<path d="M71.1576 24.6108C71.1296 25.7616 71.1203 26.9495 71.083 28.1466C71.1389 28.1188 71.1856 28.091 71.2415 28.0538C71.4654 27.9146 71.5027 27.8775 71.6706 27.729C72.0251 27.4042 72.2676 27.1165 72.5102 26.7267C72.9952 25.975 73.2284 25.3068 73.387 24.4159C73.4243 24.2303 73.4523 24.0354 73.4803 23.8405C73.4803 23.8127 73.4803 23.8034 73.4803 23.7848C73.4803 23.7663 73.4803 23.757 73.4803 23.7291C73.4896 23.6363 73.4989 23.5342 73.5083 23.4414C73.5269 23.2651 73.5363 23.0981 73.5363 22.9217C73.5363 22.8289 73.5363 22.7361 73.5363 22.6526C73.5363 22.634 73.5269 22.5412 73.5176 22.4855C73.5083 22.4299 73.4896 22.3556 73.4896 22.3463C73.471 22.2814 73.4523 22.2257 73.4337 22.17C73.4057 22.17 73.2844 22.0679 73.415 22.1422C73.415 22.1422 73.4337 22.1515 73.4337 22.17C73.443 22.17 73.4336 22.17 73.3963 22.1236C73.3963 22.1236 73.3963 22.1236 73.387 22.1143C73.387 22.1143 73.3777 22.1143 73.3684 22.105C73.3684 22.105 73.3684 22.105 73.359 22.105C73.3124 22.105 73.1725 22.0865 73.2098 22.0865C73.1351 22.0865 73.0699 22.0865 72.9952 22.0865C72.7714 22.0958 72.5661 22.0215 72.3982 21.9009C71.9505 22.6433 71.5027 23.3765 71.0457 24.1096C71.1203 24.2488 71.1669 24.4159 71.1669 24.6201L71.1576 24.6108Z" fill="white"/>
<path d="M44.4325 21.2139C44.3579 21.2513 44.2833 21.3543 44.4325 21.2139Z" fill="#2CB0E0"/>
<path d="M49.2739 226.192C49.2739 226.192 49.2272 226.266 49.2086 226.294C49.3858 226.21 49.5537 226.127 49.7216 226.034C49.8988 225.932 50.0667 225.82 50.2346 225.7C50.2533 225.691 50.2626 225.681 50.272 225.672C50.272 225.672 50.272 225.672 50.2906 225.653C50.3652 225.588 50.4399 225.533 50.5052 225.468C50.5705 225.403 50.6358 225.338 50.7011 225.273C50.7197 225.254 50.7384 225.236 50.7477 225.217C50.785 225.162 50.8316 225.097 50.8596 225.041C50.869 225.013 50.8876 224.995 50.8876 224.976C50.9249 224.818 50.9716 224.67 50.9996 224.512C50.9996 224.484 50.9996 224.475 51.0089 224.466C51.0089 224.447 51.0089 224.438 51.0089 224.41C51.0089 224.308 51.0275 224.206 51.0369 224.104C51.0369 224.02 51.0369 223.937 51.0369 223.862C50.4305 224.642 49.7869 225.384 49.2459 226.21L49.2739 226.192Z" fill="white"/>
<path d="M43.9288 22.402C43.9382 22.3278 43.9288 22.3463 43.9288 22.402Z" fill="#2CB0E0"/>
<path d="M92.4163 231.027C92.4163 231.027 92.4258 231.018 92.4353 231.008C92.4353 231.008 92.4258 231.018 92.4163 231.027Z" fill="#2CB0E0"/>
<path d="M92.4446 231C92.4446 231 92.4446 230.99 92.4542 230.98C92.4542 230.98 92.435 230.99 92.435 231C92.435 231 92.435 231 92.435 231.009C92.435 231.009 92.435 231.009 92.4446 231Z" fill="#2CB0E0"/>
<path d="M41.7554 213.71C41.6808 213.951 41.6062 214.183 41.5222 214.424C43.9755 214.601 46.2889 215.658 47.9679 217.412C48.5836 216.661 49.3392 216.02 50.1973 215.538C50.4958 215.362 50.7943 215.362 51.0462 215.454C51.0462 215.436 51.0462 215.417 51.0462 215.389V212.624C49.4884 213.06 47.8653 213.255 46.2236 213.116C44.4046 212.958 42.7069 212.41 40.9532 211.965C40.9252 212.123 40.8879 212.271 40.8412 212.429C41.4289 212.494 41.9699 212.986 41.7554 213.71Z" fill="white"/>
<path d="M65.4674 213.31C65.6913 213.199 65.9525 213.171 66.2137 213.218C67.3797 213.459 68.3405 214.229 68.9841 215.204C69.2267 215.566 69.4132 215.955 69.5532 216.364C70.9337 214.888 72.9113 214.006 74.9821 213.951C75.3179 213.951 75.5698 214.062 75.7377 214.248C75.8123 214.155 75.9056 214.09 75.9989 214.025C75.6724 213.459 75.3926 212.865 75.0754 212.271C74.553 212.29 74.0306 212.308 73.5083 212.317C70.2901 212.419 67.0719 212.522 63.8444 212.633C63.863 212.726 63.8817 212.819 63.9097 212.902C64.4227 212.587 65.2063 212.716 65.4674 213.292V213.31Z" fill="white"/>
<path d="M50.1413 58.5958C49.6376 59.4775 49.1432 60.3591 48.6395 61.2407C46.4754 65.0643 44.3112 68.8878 42.1471 72.7021L38.0614 79.9223C37.3991 81.0917 35.5801 80.043 36.2518 78.8644C36.7555 77.9827 37.2499 77.1011 37.7536 76.2194C39.9177 72.3959 42.0818 68.5723 44.246 64.758C45.4959 62.54 46.7552 60.3313 48.0052 58.1132C47.9306 58.0668 47.8466 58.0111 47.7813 57.9462C47.8466 58.0111 47.9212 58.0668 48.0052 58.1132C48.1171 57.9183 48.2291 57.7234 48.3317 57.5286C48.7701 56.7583 49.7029 56.9532 50.104 57.51C50.3652 57.1017 50.5984 56.684 50.7756 56.2479C50.5331 55.988 50.4025 55.6075 50.5331 55.2734C50.8782 54.3454 51.2327 53.3987 51.5032 52.4429C51.298 52.3593 51.0835 52.2665 50.8782 52.1737C49.0406 51.3756 47.1004 50.4104 45.6638 48.972C44.7124 48.0161 46.1955 46.5405 47.147 47.4964C48.369 48.7121 50.1506 49.5845 51.7924 50.3084C51.8204 50.3176 51.8484 50.3269 51.8763 50.3455C51.895 50.0763 51.9137 49.8072 51.9323 49.5381C51.9976 48.74 52.0629 47.9418 52.0629 47.1344C52.0629 46.6704 52.0536 46.2157 52.0069 45.7702C51.7271 45.863 51.4099 45.8352 51.1208 45.7052C49.7495 45.0927 48.3783 44.4617 47.0444 43.7656C46.9884 43.8863 46.9231 43.9976 46.8672 44.1183C46.606 44.6658 46.3354 45.2041 46.0743 45.7516C45.7758 46.3734 45.5426 47.0324 45.0575 47.5335C44.19 48.443 43.1825 49.2225 42.1378 49.9279C39.8711 51.4499 37.3525 52.5913 34.8059 53.5936C33.6772 54.0391 32.4646 54.3546 31.4012 54.9486C30.4683 55.4683 29.6288 56.1922 29.0038 57.0645C28.3509 57.9647 27.9218 58.9856 27.7072 60.0714C27.4927 61.1572 27.6233 62.2152 27.8005 63.2917C28.6867 68.5445 29.1531 73.8622 29.7221 79.1613C30.0019 81.8434 30.3004 84.5162 30.6549 87.1889C30.8228 88.4418 31.0094 89.6947 31.2239 90.9382C31.3918 91.922 31.5317 92.9243 31.9049 93.8523C31.9235 93.8894 32.0168 94.0936 32.0261 94.1214C32.0541 94.1864 32.0914 94.2514 32.1194 94.3163C32.222 94.5019 32.3246 94.6876 32.4366 94.8732C32.5485 95.0588 32.6698 95.2351 32.8004 95.4021C32.8563 95.4764 32.9683 95.6063 33.1082 95.7734C33.7052 96.4508 34.2835 96.9334 34.9645 97.3696C36.3637 98.2605 37.9681 98.7988 39.5446 98.8545C41.1677 98.9194 42.6602 98.5575 43.9941 97.5366C43.9941 97.5274 44.1993 97.3603 44.2273 97.3325C44.3112 97.2582 44.3952 97.184 44.4792 97.1005C44.6471 96.9427 44.8056 96.7664 44.9549 96.5993C45.1788 96.3395 45.4213 95.9868 45.6265 95.6156C45.9437 95.068 46.2328 94.5019 46.522 93.9358C47.9772 91.0867 49.1805 88.1819 50.3559 85.3328C51.8297 81.7506 53.2382 78.1498 54.6281 74.5304C55.2904 72.7949 55.9527 71.0502 56.6057 69.3148C53.8446 69.0549 51.1674 68.0712 48.9193 66.4378C48.4623 66.1037 48.2291 65.5376 48.5462 65.0086C48.8074 64.5539 49.5257 64.3033 49.9827 64.6374C52.1375 66.2151 54.6934 67.1431 57.3706 67.2823C57.9489 65.7325 58.518 64.1734 59.0776 62.6143C57.7904 62.4286 56.5404 62.011 55.3464 61.5099C53.7886 60.8602 52.2868 60.0528 50.9342 59.0413C50.7197 58.8835 50.5611 58.6793 50.4771 58.4566C50.3932 58.438 50.2999 58.4195 50.2066 58.4102C50.188 58.4752 50.16 58.5401 50.1227 58.6051L50.1413 58.5958ZM30.1325 62.7071C29.7128 62.3173 29.7407 61.6212 30.1325 61.2315C30.543 60.8231 31.2053 60.851 31.6157 61.2315C34.1623 63.5887 36.7088 65.9459 39.2554 68.3032C39.6752 68.693 39.6472 69.389 39.2554 69.7788C38.845 70.1871 38.1827 70.1593 37.7722 69.7788C35.2257 67.4215 32.6791 65.0643 30.1325 62.7071Z" fill="white"/>
<path d="M69.7863 50.661C67.5009 53.7886 65.1596 56.8882 62.4171 59.6445C61.9787 60.09 61.4283 60.0065 61.0552 59.7002C60.9713 60.0529 60.8687 60.3777 60.766 60.7118C60.9339 60.7767 61.0739 60.8788 61.1765 60.9995C61.4843 61.2593 61.6709 61.6862 61.5309 62.0853C61.503 62.1781 61.4657 62.2616 61.4377 62.3544C59.4974 67.7093 57.4919 73.0548 55.4304 78.3632C54.7401 80.1358 54.0405 81.8991 53.3315 83.6531C53.3689 83.6717 53.3968 83.6995 53.4248 83.7273C53.714 83.9779 53.9938 84.2378 54.2737 84.4976C54.4323 84.6461 54.6002 84.7946 54.7681 84.9431C54.852 85.0173 54.936 85.0916 55.0199 85.1565C55.0666 85.1937 55.1132 85.2308 55.1599 85.2772C55.1878 85.305 55.3464 85.4071 55.2065 85.3143C55.0572 85.2122 55.2531 85.3421 55.2811 85.37C55.3278 85.3978 55.3651 85.4349 55.4117 85.4628C55.5236 85.537 55.6263 85.6113 55.7382 85.6855C55.9527 85.8247 56.1673 85.9454 56.3912 86.0567C56.5031 86.1124 56.6244 86.1588 56.7363 86.2145C56.755 86.2145 56.7736 86.2331 56.8016 86.2423C56.8576 86.2609 56.9229 86.2888 56.9788 86.3073C57.2027 86.3816 57.4359 86.4465 57.6598 86.5022C57.8277 86.3444 58.0609 86.2424 58.3594 86.2516C63.9189 86.3908 69.4785 86.5208 75.0474 86.66C75.0007 86.5486 74.9821 86.4187 74.9914 86.298C75.1407 84.9988 75.3272 83.6995 75.5138 82.4095C75.9429 79.4676 76.4186 76.535 76.8757 73.5931C77.0996 72.1732 77.3141 70.7532 77.5193 69.3333C77.6966 68.1362 77.7992 67.403 77.9298 66.2337C77.9951 65.6676 78.3589 65.185 78.9838 65.185C79.5062 65.185 80.0939 65.6676 80.0379 66.2337C79.8887 67.5329 79.7021 68.8322 79.5155 70.1222C79.0864 73.0641 78.6107 75.9967 78.1536 78.9386C77.9298 80.3585 77.7152 81.7784 77.51 83.1984C77.3328 84.3955 77.2302 85.1287 77.0996 86.298C77.0716 86.5393 76.9876 86.7621 76.8477 86.9384C77.4727 87.4952 77.2581 88.8038 76.1854 88.7759C70.8124 88.646 65.4394 88.5161 60.0664 88.3861C60.0664 88.3954 60.0664 88.4047 60.0664 88.414C60.253 90.3722 60.2717 92.3489 59.9265 94.2885C59.7306 95.4022 59.3482 96.5251 58.7232 97.4717C62.2585 97.7872 65.7939 98.177 69.3292 98.474C72.2583 98.7246 75.1873 98.9566 78.1163 99.1329C79.3849 99.2072 80.6536 99.2814 81.9222 99.3278C83.2934 99.3742 84.59 99.1144 85.6907 98.242C86.7448 97.3975 87.4911 96.1168 87.6123 94.7618C87.7429 93.2584 87.6496 91.7085 87.6683 90.2051C87.7056 86.7249 87.7709 83.2355 87.8455 79.7553C87.9202 76.3215 88.0134 72.8878 88.1254 69.454C88.172 68.0155 88.2373 66.577 88.2933 65.1386C88.3586 63.5238 88.0321 61.9368 87.5284 60.4055C87.0153 58.8742 86.2971 57.343 85.2803 56.0715C84.3195 54.8651 83.0509 54.0298 81.605 53.5101C80.1032 52.9626 78.5268 52.6563 76.9969 52.183C75.3086 51.6633 73.7414 50.9302 72.3609 49.8165C71.9971 49.5288 71.9878 48.972 72.193 48.5822C72.0344 48.4244 71.9038 48.2388 71.7732 48.0532C71.6053 48.276 71.4281 48.4987 71.2602 48.7121C70.7471 49.3432 70.2714 50.0021 69.7956 50.661H69.7863ZM62.4078 83.384C62.3612 84.7296 60.2623 84.7296 60.309 83.384C60.5049 77.9178 60.8313 72.433 60.7007 66.9575C60.6728 65.6119 62.7716 65.6119 62.7996 66.9575C62.9302 72.433 62.6037 77.9178 62.4078 83.384ZM80.4857 68.8879C82.0714 66.3636 83.6479 63.83 85.2337 61.3057C85.5322 60.8231 86.1665 60.6375 86.6702 60.9345C87.1459 61.2129 87.3511 61.8811 87.0433 62.3637C85.4575 64.888 83.8811 67.4216 82.2953 69.9458C81.9968 70.4284 81.3625 70.614 80.8588 70.3171C80.3831 70.0386 80.1778 69.3705 80.4857 68.8879Z" fill="white"/>
<path d="M45.0668 21.1304C45.0015 21.1397 44.9456 21.1489 44.8803 21.1489C44.787 21.1489 44.703 21.1489 44.6098 21.1489C44.5818 21.1489 44.5538 21.1582 44.5351 21.1675C44.5258 21.1675 44.5165 21.1675 44.5165 21.1675C44.4978 21.1675 44.4885 21.1861 44.4698 21.1953C44.4698 21.1953 44.4512 21.1953 44.4418 21.2046C44.4045 21.2417 44.3579 21.2881 44.3113 21.3253C44.3113 21.3253 44.3113 21.3253 44.3019 21.3345C44.2926 21.3531 44.2739 21.3717 44.2646 21.381C44.2273 21.4459 44.19 21.5016 44.162 21.5666C44.1527 21.5851 44.1433 21.6037 44.134 21.6315C44.078 21.7893 44.0314 21.9471 43.9941 22.1048C43.9754 22.1976 43.9568 22.2904 43.9381 22.3832C43.9381 22.4018 43.9381 22.4296 43.9288 22.4668C43.8915 22.8287 43.8915 23.1999 43.9101 23.5619C43.9101 23.6918 43.9288 23.8217 43.9475 23.9516C43.9475 23.9424 43.9941 24.2393 44.0128 24.3136C44.0967 24.7126 44.2086 24.9911 44.3579 25.2973C44.5911 25.7521 44.8336 26.1418 45.1508 26.4759C45.3187 26.6615 45.5239 26.8379 45.6452 26.9307C45.7385 26.9956 45.8317 27.0513 45.9343 27.107C45.9903 27.1348 46.037 27.1627 46.0929 27.1812C46.0743 27.172 46.1022 27.1812 46.1955 27.2091C46.4754 27.3019 46.6992 27.4875 46.8298 27.7195C46.7832 26.7543 46.7366 25.7892 46.6339 24.8333C46.578 24.3229 47.0537 23.8867 47.5201 23.8032C47.1657 23.0236 46.7366 22.2533 46.3821 21.4738C46.3355 21.4923 46.2888 21.5202 46.2328 21.5294C45.8317 21.6408 45.3094 21.4645 45.0668 21.1118V21.1304Z" fill="white"/>
<path d="M46.7739 28.8052C46.7739 28.8052 46.8392 28.8331 46.8765 28.8516C46.8765 28.7867 46.8765 28.7217 46.8672 28.6475C46.8392 28.7031 46.8112 28.7495 46.7739 28.8052Z" fill="#2CB0E0"/>
<path d="M48.7235 24.8521C49.0779 28.1002 48.6955 31.6268 49.9921 34.6986C50.216 35.2369 50.5145 35.738 50.8596 36.2021C51.1394 36.0257 51.4473 35.8958 51.7551 35.8123C53.3222 35.4039 54.5255 36.6939 55.3184 37.8447C55.8595 38.615 56.2792 39.4595 56.7923 40.2576C57.3146 40.4154 57.8557 40.536 58.3967 40.601C58.5646 40.5268 58.7325 40.4432 58.9097 40.3504C59.087 40.2669 59.2549 40.1741 59.4228 40.072C59.4694 40.0442 59.5067 40.0163 59.5441 39.9885C59.8052 39.7565 60.0758 39.543 60.3369 39.311C61.7548 38.0489 63.1167 36.731 64.4786 35.4132C65.0756 34.8286 65.682 34.2439 66.2789 33.6499C66.82 33.1117 67.4263 32.7033 68.1912 32.5456C68.2752 32.527 68.3591 32.5177 68.4431 32.4992C69.0681 29.9285 68.9841 27.2093 69.0494 24.5829C69.0494 24.4994 69.0587 24.4159 69.0774 24.3416C68.9841 24.1746 68.9281 23.989 68.9095 23.8034C68.7975 22.3649 68.6856 20.9264 68.583 19.4787C68.0793 19.1817 67.6315 18.7826 67.2024 18.3557C66.9039 18.7733 66.2696 18.9033 65.8312 18.6341C64.5719 17.8639 63.4992 16.7966 62.613 15.6273C62.3891 15.3396 62.1839 15.024 61.9973 14.6992C60.1877 17.4834 57.0535 19.6921 53.7513 18.7362C53.1077 18.5506 52.7625 17.7247 53.1357 17.1771C52.5853 17.372 52.0163 17.5205 51.4473 17.6411C51.4006 17.8267 51.3073 18.0123 51.1861 18.1608C51.1301 18.2258 50.9435 18.5042 51.1115 18.2444C51.0648 18.3186 51.0088 18.3836 50.9529 18.4578C50.8409 18.6156 50.7383 18.7826 50.6357 18.9497C50.4305 19.2931 50.2439 19.655 50.0854 20.0262C50.0667 20.0633 50.0574 20.1005 50.0387 20.1376C50.0014 20.2397 49.9548 20.3325 49.9175 20.4345C49.8428 20.6202 49.7775 20.8058 49.7216 21.0007C49.6003 21.3533 49.507 21.7153 49.4137 22.0865C49.3205 22.5134 48.9473 22.7732 48.5462 22.8289C48.4623 23.2187 48.369 23.5992 48.285 23.989C48.5369 24.1839 48.6861 24.4901 48.7235 24.8335V24.8521ZM63.6484 21.1955C65.001 21.1955 65.001 23.2837 63.6484 23.2837C62.2958 23.2837 62.2958 21.1955 63.6484 21.1955ZM58.1822 28.258C58.2288 28.1281 58.2941 28.0167 58.3967 27.9239C58.49 27.8218 58.6019 27.7476 58.7325 27.7104C58.8538 27.6455 58.9937 27.6176 59.1336 27.6176C59.1429 27.6176 59.1523 27.6176 59.1709 27.6176C59.2456 27.6176 59.3295 27.6176 59.4041 27.6083C59.5907 27.6083 59.7679 27.6548 59.9358 27.7476C60.0105 27.8032 60.0758 27.8589 60.1504 27.9146C60.281 28.0445 60.3743 28.2023 60.4209 28.3786C60.4302 28.4714 60.4489 28.5642 60.4582 28.657C60.4582 28.8055 60.4302 28.9355 60.3649 29.0561C60.3183 29.186 60.253 29.2974 60.1504 29.3902C60.0571 29.4923 59.9452 29.5665 59.8146 29.6036C59.6933 29.6686 59.5534 29.6965 59.4135 29.6965C59.4041 29.6965 59.3948 29.6965 59.3762 29.6965C59.3015 29.6965 59.2176 29.6965 59.143 29.7057C58.9564 29.7057 58.7792 29.6593 58.6112 29.5665C58.5366 29.5108 58.4713 29.4552 58.3967 29.3995C58.2661 29.2696 58.1728 29.1118 58.1262 28.9355C58.1169 28.8427 58.0982 28.7498 58.0889 28.657C58.0889 28.5178 58.1169 28.3786 58.1822 28.258ZM56.8016 32.462C56.8576 32.4992 56.9229 32.527 56.9788 32.5548C56.9788 32.5548 56.9975 32.5641 57.0161 32.5734C57.0535 32.592 57.1094 32.6105 57.1187 32.6105C57.1654 32.6291 57.212 32.6384 57.2587 32.6569C57.5012 32.7404 57.7531 32.7961 58.0049 32.8425C58.0702 32.8518 58.1355 32.8611 58.2008 32.8797C58.3407 32.8889 58.4713 32.9075 58.6112 32.9168C58.8724 32.9353 59.1429 32.9353 59.4041 32.9353C59.6747 32.9353 59.9545 32.9075 60.225 32.8797C60.2437 32.8797 60.253 32.8797 60.2717 32.8797C60.3183 32.8797 60.3743 32.8611 60.4209 32.8611C60.5328 32.8425 60.6448 32.824 60.7567 32.7961C60.9899 32.7497 61.2138 32.6848 61.4377 32.6105C61.475 32.6012 61.5216 32.5827 61.5589 32.5641C61.6336 32.527 61.7082 32.4899 61.7828 32.4435C62.2958 32.1558 62.9115 32.3414 63.2193 32.8147C63.5272 33.288 63.3219 33.9748 62.8462 34.2439C61.8294 34.8286 60.5608 34.9863 59.4135 35.0142C58.1728 35.042 56.8389 34.8657 55.7475 34.2532C55.2345 33.9655 55.1039 33.3158 55.3744 32.824C55.6449 32.3228 56.3352 32.1836 56.8109 32.4528L56.8016 32.462ZM54.2364 21.1955C55.5889 21.1955 55.5889 23.2837 54.2364 23.2837C52.8838 23.2837 52.8838 21.1955 54.2364 21.1955Z" fill="white"/>
<path d="M40.9158 209.812C40.8692 209.506 40.8132 209.199 40.7573 208.893V209.812C40.8039 209.812 40.8599 209.812 40.9158 209.812Z" fill="#2CB0E0"/>
<path d="M53.5741 207.621C53.658 202.916 53.9006 198.202 54.1897 193.506C54.8054 183.316 55.6169 173.144 56.3445 162.964C56.9975 153.915 57.6785 144.848 57.837 135.781C57.8557 134.575 59.5534 134.454 59.8799 135.419C60.6448 135.206 61.4097 134.992 62.1839 134.788C62.1839 134.584 62.1839 134.38 62.1839 134.185C62.2026 132.31 62.2212 130.436 62.2399 128.561C59.7959 128.774 57.3426 128.7 54.9546 128.292C48.9567 127.271 43.8449 123.401 40.2069 118.64C39.6752 120.97 38.6491 123.188 37.8656 125.424C37.7723 125.684 37.6044 125.897 37.3805 126.037C37.4458 126.204 37.5018 126.371 37.5671 126.529C38.1734 126.306 39.0222 126.621 39.0782 127.466C39.0969 127.772 39.1155 128.088 39.1248 128.394C39.3581 132.876 39.526 137.368 39.7125 141.86C39.983 148.597 40.2349 155.335 40.4868 162.073C40.7573 169.237 41.0185 176.392 41.2703 183.557C41.4755 189.209 41.6714 194.851 41.8766 200.503C41.9606 202.814 42.0445 205.134 42.1192 207.445C42.1472 208.271 41.3729 208.577 40.7479 208.392V208.921C40.8039 209.227 40.8599 209.524 40.9065 209.839C40.9532 209.839 40.9998 209.839 41.0464 209.858C42.7162 210.257 44.4325 210.879 46.0743 211.027C48.6488 211.268 51.1208 210.656 53.3968 209.459C53.7513 209.273 54.0965 209.301 54.367 209.459L54.5162 208.661C54.0125 208.633 53.5461 208.299 53.5554 207.658L53.5741 207.621Z" fill="#2CB0E0"/>
<path d="M40.7666 208.902V208.373C40.7666 208.373 40.7013 208.354 40.6733 208.345C40.7013 208.531 40.7386 208.716 40.7666 208.902Z" fill="#2CB0E0"/>
<path d="M37.0074 126.464L37.166 126.817C37.2686 126.677 37.4178 126.585 37.5764 126.52C37.5111 126.362 37.4551 126.195 37.3898 126.028C37.3339 126.065 37.2779 126.093 37.2126 126.121C37.166 126.251 37.0913 126.362 36.998 126.464H37.0074Z" fill="#2CB0E0"/>
<path d="M36.429 101.648C36.2611 103.968 36.2145 106.307 36.2331 108.627C36.2704 113.1 36.4943 117.592 36.8861 122.056C37.054 121.62 37.2126 121.183 37.3618 120.747C37.623 120.014 37.8656 119.272 38.0614 118.52C38.1547 118.177 38.2293 117.833 38.304 117.49C38.332 117.332 38.3599 117.183 38.3879 117.026C38.3973 116.951 38.3973 116.951 38.3879 117.026C38.3879 116.989 38.3879 116.951 38.3973 116.914C38.3973 116.84 38.4066 116.766 38.4159 116.701C38.4439 116.395 38.5745 116.116 38.7797 115.921C39.0502 115.235 40.1696 114.901 40.7013 115.717C42.6136 118.641 45.0762 121.267 47.9959 123.216C50.4865 124.877 53.3409 126.009 56.2792 126.38C58.9657 126.715 61.7268 126.622 64.3854 126.148C69.6091 125.22 75.1127 122.891 78.2656 118.446C78.5921 117.982 79.1797 117.768 79.7021 118.074C80.0472 118.269 80.2618 118.705 80.2245 119.105C80.5136 118.761 80.8122 118.427 81.1013 118.093C81.1013 117.518 81.0827 116.942 81.0733 116.376C81.008 111.959 80.9521 107.541 80.8868 103.124C80.8774 102.149 81.9688 101.889 82.5752 102.316L82.5565 101.407C81.9968 101.425 81.4371 101.407 80.8681 101.379C79.4969 101.314 78.1163 101.23 76.7451 101.138C73.7041 100.933 70.6632 100.683 67.6222 100.414C63.9749 100.098 60.3183 99.7548 56.6803 99.3743C56.2886 99.3372 55.9434 99.1423 55.7662 98.8267C55.7009 98.7432 55.6449 98.6504 55.5983 98.5576C53.3222 98.1678 51.1208 96.85 49.9828 94.8176C49.7775 94.4463 49.8149 94.0287 50.0294 93.7132C49.8055 93.4255 49.6003 93.1192 49.3951 92.813C49.2552 93.11 49.1246 93.3977 48.994 93.6946C48.397 94.9475 47.8 96.2839 46.9791 97.4161C44.5818 100.72 40.3562 101.676 36.5596 100.423C36.0839 100.265 35.6175 100.08 35.1604 99.8661V100.627C35.2257 100.618 35.291 100.609 35.3656 100.609C35.9066 100.609 36.457 101.091 36.4197 101.657L36.429 101.648ZM62.5477 102.14C62.557 103.031 62.5664 103.912 62.5757 104.803C62.6223 108.673 62.6597 112.553 62.7063 116.422C62.7343 118.854 62.7623 121.285 62.7903 123.717C62.8089 125.063 60.7008 125.063 60.6914 123.717C60.6821 122.826 60.6728 121.944 60.6634 121.053C60.6168 117.183 60.5795 113.304 60.5328 109.434C60.5049 107.003 60.4769 104.571 60.4489 102.14C60.4302 100.794 62.5384 100.794 62.5477 102.14Z" fill="white"/>
<path d="M51.438 6.1146C51.4846 6.56934 51.2701 7.03336 50.6917 7.16329C48.0892 7.7758 46.0556 9.89174 45.7385 12.5831C45.5706 14.003 46.009 15.2187 46.2982 16.5737C46.5594 17.7894 46.7646 19.0237 46.9511 20.258C47.0258 20.7685 46.8485 21.2789 46.3635 21.483C46.7273 22.2626 47.147 23.0329 47.5015 23.8124C47.5575 23.8032 47.6134 23.7939 47.6601 23.7939C47.9026 23.7939 48.1078 23.8681 48.2664 23.9981C48.3504 23.6083 48.4436 23.2185 48.5276 22.838C48.3877 22.8566 48.2477 22.8566 48.1078 22.8194C47.5388 22.6895 47.2496 22.0677 47.3709 21.5295C47.6787 20.1931 48.1918 18.8474 48.9474 17.6781C48.8074 17.5574 48.7048 17.3996 48.6489 17.1955C48.5089 16.6943 48.8261 15.9983 49.3858 15.9055C50.9716 15.6549 52.5667 15.3301 53.9006 14.532C55.1879 13.7524 56.1113 12.4717 56.8296 11.0796C57.0721 10.6063 57.6785 10.4671 58.1449 10.6527C58.6486 10.8569 58.8538 11.3766 58.7512 11.887C58.3781 13.6875 57.5572 15.3115 56.4285 16.7222C58.7232 16.0818 60.6261 13.5204 61.2511 11.4416C61.4004 10.959 61.7828 10.7363 62.1746 10.7084C62.3239 10.6806 62.4824 10.6806 62.641 10.7084C63.21 10.8384 63.4992 11.4601 63.3779 11.9984C63.3779 12.0077 63.3686 12.0448 63.3593 12.0912C63.3873 11.9613 63.3593 12.1562 63.3593 12.2026C63.3593 12.2675 63.3593 12.3325 63.3593 12.3975C63.3593 12.4346 63.3593 12.6759 63.3593 12.4903C63.3593 12.3139 63.3686 12.546 63.3779 12.5831C63.3966 12.648 63.4059 12.7223 63.4246 12.7872C63.4619 12.9265 63.5272 13.0564 63.5645 13.1956C63.5645 13.1956 63.5645 13.2049 63.5738 13.2234C63.6111 13.2884 63.6391 13.3626 63.6764 13.4276C63.7511 13.5668 63.8257 13.706 63.9096 13.8359C63.9936 13.9751 64.0869 14.1144 64.1708 14.2443C64.2175 14.3092 64.2641 14.3742 64.3107 14.4485C64.3201 14.467 64.3947 14.5598 64.4227 14.5877C64.46 14.6341 64.5253 14.7083 64.5346 14.7269C64.5906 14.7918 64.6466 14.8568 64.6932 14.9125C64.8051 15.0331 64.9171 15.163 65.029 15.2837C65.2529 15.5157 65.4861 15.7384 65.7193 15.9612C65.8312 16.0633 65.9525 16.1653 66.0644 16.2581C66.1204 16.3045 66.1764 16.3509 66.2323 16.3974C66.251 16.4159 66.2697 16.4252 66.2883 16.4438C66.3816 16.518 66.3629 16.4994 66.2417 16.4066C66.2883 16.4902 66.4842 16.583 66.5681 16.6386C66.6708 16.7036 66.7734 16.7686 66.876 16.8335C67.3797 17.1398 67.5196 17.7523 67.2491 18.2627C67.2304 18.2998 67.2025 18.3277 67.1838 18.3555C67.6129 18.7824 68.0606 19.1815 68.5644 19.4785C68.5364 19.0516 68.4991 18.6339 68.4804 18.207C68.4431 17.6224 68.9935 17.1862 69.5345 17.1584C70.1222 17.1305 70.5513 17.6595 70.5886 18.207C70.6259 18.7732 70.6632 19.3485 70.7098 19.9146C70.7285 20.1095 70.7378 20.2951 70.7471 20.49C71.055 19.9796 71.3628 19.4692 71.6706 18.9588C71.68 18.9402 71.6986 18.9309 71.7079 18.9124C71.7266 18.8474 71.7452 18.7824 71.7732 18.7268C72.6687 16.6572 72.9486 14.1886 72.4542 11.9798C72.0904 10.3558 71.1856 8.48111 69.4319 8.04493C68.9095 7.91501 68.695 7.52523 68.6856 7.11689C68.1633 7.19113 67.7155 6.84775 67.5289 6.36517C67.0905 5.21439 66.0924 4.19354 65.029 3.4975C63.9843 2.81075 62.8183 2.33744 61.5869 2.13327C60.3929 1.93838 59.3389 2.16112 58.1542 2.61586C56.755 3.14485 55.4397 3.86872 54.0312 4.36987C52.5107 4.90813 50.9622 5.09374 49.3671 4.82461C49.2738 4.80605 49.1899 4.76893 49.1059 4.72252C49.1899 4.9731 49.3018 5.17727 49.4324 5.34432C49.6563 5.27007 49.8895 5.20511 50.1227 5.14943C50.8596 4.9731 51.3633 5.52993 51.4286 6.1146H51.438Z" fill="#747474"/>
<path d="M50.3745 93.3883C50.8409 93.0914 51.5405 93.2863 51.8111 93.7596C51.8764 93.8802 51.951 94.0008 52.0256 94.1215C52.0536 94.1679 52.1749 94.3999 52.2215 94.3999C52.1469 94.2978 52.1282 94.2793 52.1749 94.3442C52.1935 94.3628 52.2122 94.3813 52.2215 94.3999C52.2588 94.4463 52.3054 94.502 52.3521 94.5484C52.436 94.6505 52.5293 94.7433 52.6226 94.8361C52.7066 94.9196 52.7905 95.0031 52.8838 95.0774C52.9304 95.1238 52.9864 95.1609 53.033 95.2073C53.033 95.2073 53.061 95.2259 53.089 95.2537C53.117 95.2723 53.1916 95.328 53.2009 95.3372C53.2569 95.3744 53.3129 95.4115 53.3689 95.4486C53.4715 95.5136 53.5741 95.5785 53.6767 95.6435C53.9099 95.7827 54.1431 95.9126 54.3856 96.024C54.4323 96.0426 54.4789 96.0704 54.5349 96.089C54.5535 96.089 54.5535 96.0982 54.5629 96.1075C54.5629 96.1075 54.5629 96.1075 54.5722 96.1075C54.6841 96.1539 54.7961 96.191 54.908 96.2374C55.1412 96.321 55.3837 96.3859 55.6263 96.4416C55.7568 96.4695 55.8781 96.4973 56.0087 96.5159C56.0274 96.5159 56.1113 96.5251 56.1393 96.5344C56.158 96.5344 56.1766 96.5344 56.1859 96.5344C56.3632 96.553 56.5311 96.6087 56.6803 96.6829C56.7083 96.6551 56.727 96.6272 56.7643 96.5994C56.8296 96.5251 56.8855 96.4509 56.9882 96.2931C57.1001 96.1168 57.2027 95.9405 57.2867 95.7549C57.5852 95.1423 57.809 94.2514 57.9303 93.4719C58.1728 91.922 58.1169 90.1216 57.9583 88.479C57.7437 88.5625 57.5012 88.5903 57.268 88.5439C56.0927 88.3026 54.9919 87.7644 54.0405 87.0405C53.4901 86.6229 52.9864 86.1403 52.4734 85.6763C51.979 86.8734 51.4752 88.0799 50.9715 89.2678C50.4678 90.4464 49.9361 91.625 49.3951 92.7944C49.6003 93.1006 49.8055 93.4069 50.0294 93.6946C50.1133 93.5739 50.2253 93.4626 50.3559 93.3698L50.3745 93.3883Z" fill="white"/>
<path d="M64.8891 144.18C64.8891 144.18 64.8891 144.254 64.8891 144.292C64.9264 147.011 64.7771 149.739 64.7212 152.458C64.5999 158.064 64.4879 163.678 64.3667 169.284C64.2268 175.78 64.0962 182.267 63.9562 188.764C63.8443 194.146 63.7324 199.538 63.6204 204.921C63.5831 206.805 63.5458 208.689 63.4992 210.573C63.6671 210.573 63.835 210.563 64.0122 210.554C67.361 210.443 70.7191 210.341 74.0679 210.229C74.1892 205.19 74.3851 200.16 74.6276 195.13C75.0101 187.195 75.4485 179.223 76.5399 171.353C76.5958 170.936 76.6518 170.518 76.7171 170.11C76.7171 170.063 76.7451 169.952 76.7451 169.915C76.7451 169.841 76.7637 169.776 76.7731 169.701C76.8384 169.117 76.913 168.532 76.9783 167.947C77.2488 165.627 77.51 163.298 77.7618 160.978C78.5361 153.925 79.2637 146.862 79.8607 139.791C80.1592 136.32 80.4204 132.839 80.6069 129.359C80.7468 126.705 80.8774 124.042 80.7935 121.387C80.7748 120.682 81.3438 120.348 81.8942 120.385C81.9315 120.005 81.9781 119.633 82.0341 119.253C81.5584 119.197 81.12 118.872 81.1106 118.251C81.1106 118.195 81.1106 118.148 81.1106 118.093C80.8215 118.427 80.523 118.761 80.2338 119.104C80.2151 119.244 80.1778 119.383 80.0939 119.503C78.163 122.223 75.4858 124.301 72.4915 125.749C69.9449 126.983 67.1838 127.837 64.3574 128.292C64.3574 128.515 64.3574 128.737 64.3574 128.96C64.3387 130.705 64.32 132.459 64.3014 134.204C65.4861 133.879 66.6614 133.554 67.8461 133.22C69.152 132.858 69.7024 134.872 68.4058 135.234C68.0233 135.336 67.6502 135.447 67.2677 135.549C64.945 136.19 62.6317 136.83 60.309 137.47C60.5981 137.842 60.9433 138.231 61.1485 138.668C61.447 138.166 62.0626 138.129 62.557 138.333C64.7025 139.243 66.848 140.143 68.9934 141.053C69.5345 141.285 69.6091 142.036 69.3665 142.482C69.0774 143.02 68.4337 143.067 67.93 142.853C66.3163 142.176 64.7025 141.489 63.0981 140.811C63.4898 141.572 63.6764 142.38 63.751 143.178C64.3107 143.122 64.917 143.447 64.9077 144.18H64.8891Z" fill="#2CB0E0"/>
<path d="M63.2753 224.559C63.2847 224.661 63.294 224.763 63.3033 224.874C63.3033 224.874 63.3313 225.06 63.3313 225.069C63.3313 225.097 63.3313 225.115 63.3406 225.143C63.3593 225.264 63.3779 225.385 63.3966 225.505C63.4152 225.598 63.4339 225.7 63.4526 225.793C63.4619 225.839 63.5179 225.969 63.5179 225.997C63.5645 226.081 63.6111 226.173 63.6671 226.257C63.6951 226.294 63.7044 226.313 63.7044 226.331C63.7137 226.331 63.7324 226.359 63.7697 226.396C63.919 226.554 64.0775 226.702 64.2454 226.842C64.2734 226.86 64.3294 226.907 64.3481 226.916C64.404 226.953 64.46 226.99 64.516 227.027C64.6279 227.101 64.7492 227.166 64.8704 227.241C64.973 227.296 65.085 227.352 65.1969 227.408C65.2156 227.417 65.4208 227.51 65.4581 227.528C65.9712 227.742 66.5215 227.9 67.0719 228.011C67.1558 228.029 67.2398 228.039 67.3331 228.057C67.3424 228.057 67.4077 228.067 67.445 228.076C67.4823 228.076 67.5476 228.085 67.5569 228.085C67.6036 228.085 67.6595 228.085 67.7062 228.094C67.958 228.113 68.2099 228.122 68.4618 228.094C68.4897 228.094 68.5177 228.094 68.5457 228.094C68.5737 228.076 68.6017 228.057 68.639 228.039C67.2211 227.426 65.8406 226.749 64.6186 225.756C64.1708 225.394 63.7138 224.995 63.2753 224.568V224.559Z" fill="white"/>
<path d="M92.4257 231.008C92.4257 231.008 92.435 230.999 92.4443 230.99C92.4443 230.971 92.4443 230.971 92.4257 231.008Z" fill="#2CB0E0"/>
<path d="M92.4163 230.925C92.407 230.823 92.323 230.507 92.2671 230.331C91.6048 228.503 89.3474 227.296 87.6496 226.479C86.409 225.876 85.1777 225.394 84.049 224.577C83.8438 224.428 83.6479 224.28 83.452 224.131C83.1908 224.187 82.8923 224.15 82.6405 224.039C82.8923 224.15 82.5658 224.02 82.5099 224.002C82.4352 223.974 82.3513 223.955 82.2767 223.937C82.202 223.918 82.1181 223.899 82.0435 223.89C82.0248 223.89 82.0248 223.89 82.0155 223.89C82.0155 223.89 82.0155 223.89 82.0061 223.89C81.8196 223.881 81.633 223.862 81.4371 223.872C81.3532 223.872 81.2786 223.881 81.1946 223.89C81.1853 223.89 81.1853 223.89 81.1759 223.89C81.1759 223.89 81.1666 223.89 81.1573 223.89C80.9894 223.927 80.8121 223.964 80.6442 224.011C80.551 224.039 80.467 224.076 80.3737 224.104C80.3737 224.104 80.3737 224.104 80.3644 224.104C80.3551 224.104 80.3457 224.104 80.3364 224.122C80.1965 224.196 80.0472 224.271 79.9167 224.354C79.9073 224.354 79.814 224.419 79.7674 224.456C79.7301 224.493 79.6648 224.54 79.6461 224.558C79.5155 224.679 79.3943 224.8 79.2823 224.93C79.2823 224.93 79.273 224.939 79.2637 224.948C79.2637 224.948 79.2637 224.957 79.245 224.976C79.1984 225.041 79.1517 225.106 79.1144 225.18C79.0305 225.319 78.9279 225.477 78.8719 225.635C78.8719 225.663 78.8532 225.691 78.8439 225.728C78.8159 225.802 78.788 225.876 78.7693 225.96C78.7227 226.117 78.6947 226.275 78.6667 226.433C78.6667 226.47 78.6667 226.517 78.6574 226.554C78.6574 226.637 78.6574 226.711 78.6574 226.795C78.6574 226.943 78.6387 227.129 78.6853 227.268C78.6947 227.305 78.704 227.333 78.704 227.352C78.7227 227.445 78.7506 227.537 78.7693 227.621C78.9279 228.187 78.5734 228.735 78.0324 228.911C77.4913 229.087 76.8943 228.707 76.7358 228.178C76.2227 226.377 76.7824 224.261 78.2283 223.027C78.9279 222.424 79.7861 222.006 80.7002 221.858C80.6256 221.793 80.5416 221.719 80.467 221.654C79.4409 220.763 78.3495 219.918 77.4913 218.86C76.7171 217.914 76.1201 216.883 75.747 215.733C75.5791 215.918 75.3365 216.048 75.0101 216.057C72.9579 216.104 70.8311 217.403 70.1221 219.324C69.9636 219.76 69.5998 220.094 69.1054 220.094C68.6856 220.094 68.1632 219.77 68.0886 219.324C67.8461 217.719 67.5196 215.612 65.6726 215.241C65.5794 215.222 65.4954 215.185 65.4114 215.139C65.2342 215.955 64.9264 216.735 64.5439 217.496C64.0682 218.443 63.5178 219.25 63.2846 220.178C63.2753 220.224 63.266 220.28 63.2567 220.326C63.2567 220.345 63.2567 220.364 63.2567 220.41C63.2567 220.512 63.2567 220.614 63.2567 220.726C63.2567 220.763 63.2567 220.79 63.2567 220.809C63.266 220.865 63.2753 220.93 63.294 220.985C63.322 221.097 63.3593 221.208 63.3966 221.31C63.5552 221.7 63.9936 222.229 64.3387 222.609C65.2622 223.621 66.2976 224.54 67.5009 225.208C69.721 226.442 72.221 227.101 74.441 228.345C75.4765 228.929 76.4373 229.644 77.454 230.275C78.2656 230.776 78.9559 231.129 79.7861 231.389C80.3084 231.556 80.8495 231.686 81.3905 231.788C81.717 231.853 82.0528 231.918 82.3886 231.964C82.4725 231.983 82.5658 231.992 82.6498 232.001C82.6871 232.001 82.7244 232.011 82.7431 232.011C83.536 232.094 84.3288 232.131 85.1311 232.14C86.9874 232.159 88.8623 232.076 90.5693 231.714C90.9518 231.63 91.3249 231.537 91.6887 231.407C91.7447 231.389 91.81 231.361 91.866 231.342C91.9033 231.324 91.9592 231.305 91.9779 231.296C92.1085 231.231 92.2298 231.157 92.3603 231.083C92.3697 231.073 92.379 231.064 92.3977 231.055C92.3977 231.055 92.3977 231.055 92.407 231.045C92.407 231.045 92.407 231.036 92.4256 231.018C92.4256 230.98 92.4256 230.953 92.4256 230.925H92.4163Z" fill="white"/>
<path d="M92.4816 230.963C92.4816 230.963 92.5008 230.944 92.5008 230.934C92.5008 230.934 92.4912 230.944 92.4816 230.953V230.963Z" fill="#2CB0E0"/>
<path d="M92.4166 231.036C92.4166 231.036 92.4071 231.055 92.3976 231.055C92.3976 231.055 92.4071 231.055 92.4166 231.036Z" fill="#2CB0E0"/>
<path d="M92.4355 231.009C92.4355 231.009 92.4355 231.009 92.4355 230.999C92.4355 230.999 92.4259 231.009 92.4163 231.018C92.4163 231.018 92.4163 231.018 92.4163 231.028C92.4163 231.028 92.4259 231.018 92.4355 231.009Z" fill="#323232"/>
<path d="M93.9554 229.004C93.3771 227.89 92.4256 227.018 91.4275 226.284C90.5134 225.607 89.5152 225.05 88.4798 224.568C87.8269 224.261 87.1366 224.011 86.5023 223.667C85.8307 223.315 85.2057 222.86 84.6087 222.396C83.34 221.421 82.1554 220.345 80.9427 219.306C79.9166 218.433 78.9465 217.533 78.2749 216.354C77.9577 215.788 77.7432 215.204 77.5753 214.582C77.3701 213.784 76.5399 213.691 75.9988 214.034C76.4186 214.758 76.8943 215.436 77.6033 215.965C76.8943 215.436 76.4186 214.767 75.9988 214.034C75.8962 214.099 75.8123 214.164 75.7376 214.257C75.5697 214.071 75.3179 213.951 74.9821 213.96C72.9112 214.006 70.9337 214.897 69.5531 216.373C69.4039 215.965 69.2266 215.575 68.9841 215.213C68.3404 214.238 67.3797 213.468 66.2136 213.227C65.9525 213.171 65.6913 213.208 65.4674 213.32C65.2062 212.744 64.4226 212.614 63.9096 212.93C63.6484 213.088 63.4618 213.366 63.4525 213.765C63.4245 215.927 61.8294 217.44 61.2884 219.463C61.2418 219.649 61.2044 219.825 61.1858 220.011C61.0179 220.178 60.9059 220.419 60.9153 220.725C60.9433 221.496 60.9806 222.266 61.0365 223.036C61.0832 223.686 61.1392 224.336 61.2138 224.985C61.2791 225.542 61.3257 226.145 61.5309 226.674C61.9973 227.871 63.0794 228.725 64.2174 229.263C65.4208 229.83 66.7453 230.192 68.0793 230.21C68.4244 230.21 68.8348 230.21 69.1613 230.117C69.3665 230.062 69.5531 229.932 69.7303 229.83C70.0848 229.625 70.4393 229.412 70.7937 229.208C70.8777 229.161 70.943 229.106 71.0083 229.041C71.2322 229.134 71.4467 229.226 71.6706 229.319C72.8832 229.848 73.9653 230.507 75.066 231.231C75.9429 231.806 76.8197 232.4 77.7712 232.836C81.4651 234.544 86.0079 234.507 89.963 233.941C91.3809 233.737 93.489 233.412 94.2633 232.02C94.7856 231.082 94.3938 229.876 93.9368 228.994L93.9554 229.004ZM68.5457 228.094C68.5457 228.094 68.4897 228.094 68.4617 228.094C68.2099 228.113 67.958 228.094 67.7061 228.094C67.6595 228.094 67.6035 228.094 67.5569 228.085C67.5476 228.085 67.4823 228.085 67.4449 228.076C67.4076 228.076 67.3423 228.057 67.333 228.057C67.2491 228.038 67.1651 228.029 67.0718 228.011C66.5215 227.909 65.9804 227.751 65.4581 227.528C65.4208 227.509 65.2155 227.417 65.1969 227.407C65.0849 227.352 64.9823 227.296 64.8704 227.24C64.7491 227.175 64.6372 227.101 64.5159 227.027C64.46 226.99 64.404 226.953 64.348 226.915C64.3294 226.906 64.2734 226.869 64.2454 226.841C64.0775 226.702 63.9189 226.554 63.7697 226.396C63.7324 226.359 63.7137 226.34 63.7044 226.331C63.7044 226.322 63.6857 226.303 63.6671 226.257C63.6111 226.173 63.5645 226.09 63.5178 225.997C63.5178 225.969 63.4618 225.839 63.4525 225.793C63.4245 225.7 63.4152 225.598 63.3966 225.505C63.3779 225.384 63.3592 225.264 63.3406 225.143C63.3406 225.115 63.3406 225.097 63.3313 225.069C63.3313 225.059 63.3033 224.883 63.3033 224.874C63.2939 224.772 63.2846 224.67 63.2753 224.558C63.7137 224.985 64.1708 225.384 64.6185 225.746C65.8312 226.739 67.2117 227.426 68.6389 228.029C68.611 228.048 68.583 228.066 68.5457 228.085V228.094ZM92.4163 231.045C92.4163 231.045 92.4163 231.129 92.4163 231.157C92.4163 231.129 92.4163 231.082 92.4163 231.045ZM92.4443 230.999C92.4443 230.999 92.4443 230.999 92.4349 231.008C92.4349 231.008 92.4256 231.027 92.4163 231.027C92.407 231.036 92.3976 231.045 92.3976 231.045C92.3976 231.045 92.3976 231.045 92.3883 231.055C92.3696 231.073 92.3603 231.073 92.351 231.082C92.2204 231.157 92.0991 231.231 91.9685 231.296C91.9499 231.296 91.8939 231.324 91.8566 231.342C91.8006 231.361 91.7353 231.389 91.6794 231.407C91.3156 231.537 90.9331 231.63 90.56 231.713C88.8623 232.075 86.9873 232.168 85.1217 232.14C84.3195 232.131 83.5266 232.094 82.7337 232.01C82.7151 232.01 82.6777 232.01 82.6404 232.001C82.5565 231.992 82.4632 231.973 82.3793 231.964C82.0434 231.908 81.717 231.853 81.3811 231.788C80.8401 231.676 80.2991 231.556 79.7767 231.389C78.9465 231.129 78.2562 230.767 77.4447 230.275C76.4279 229.653 75.4671 228.929 74.4317 228.345C72.2116 227.101 69.721 226.442 67.4916 225.208C66.2883 224.54 65.2528 223.621 64.3294 222.609C63.9842 222.229 63.5551 221.7 63.3872 221.31C63.3406 221.208 63.3126 221.097 63.2846 220.985C63.266 220.93 63.2566 220.874 63.2473 220.809C63.2473 220.79 63.2473 220.763 63.2473 220.725C63.2473 220.623 63.2473 220.521 63.2473 220.41C63.2473 220.363 63.2473 220.345 63.2473 220.326C63.2473 220.28 63.266 220.224 63.2753 220.178C63.4992 219.25 64.0495 218.442 64.5346 217.496C64.917 216.735 65.2249 215.955 65.4021 215.139C65.486 215.185 65.57 215.222 65.6633 215.241C67.5009 215.612 67.8367 217.719 68.0793 219.324C68.1446 219.77 68.6669 220.094 69.096 220.094C69.5811 220.094 69.9449 219.76 70.1128 219.324C70.8217 217.394 72.9485 216.094 75.0007 216.057C75.3272 216.057 75.5697 215.918 75.7376 215.733C76.1108 216.874 76.7078 217.913 77.482 218.86C78.3495 219.918 79.4316 220.763 80.4577 221.653C80.5323 221.718 80.6162 221.793 80.6909 221.858C79.7767 222.006 78.9185 222.424 78.2189 223.027C76.7824 224.261 76.2134 226.377 76.7264 228.178C76.8757 228.707 77.4727 229.078 78.023 228.911C78.5641 228.734 78.9185 228.187 78.7599 227.621C78.732 227.528 78.7133 227.444 78.6946 227.352C78.6946 227.333 78.6853 227.305 78.676 227.268C78.6294 227.129 78.648 226.943 78.648 226.795C78.648 226.711 78.648 226.637 78.648 226.554C78.648 226.516 78.648 226.47 78.6573 226.433C78.6853 226.275 78.7133 226.117 78.7599 225.96C78.7786 225.885 78.8066 225.802 78.8346 225.728C78.8439 225.69 78.8532 225.663 78.8626 225.635C78.9185 225.477 79.0211 225.319 79.1051 225.18C79.1517 225.115 79.1984 225.05 79.2357 224.976C79.2357 224.967 79.245 224.957 79.2543 224.948C79.2543 224.948 79.2543 224.948 79.273 224.929C79.3849 224.8 79.5062 224.67 79.6368 224.558C79.6461 224.549 79.7114 224.493 79.7581 224.456C79.8047 224.419 79.898 224.363 79.9073 224.354C80.0472 224.271 80.1871 224.196 80.3271 224.122C80.3457 224.122 80.3457 224.113 80.355 224.104C80.355 224.104 80.3551 224.104 80.3644 224.104C80.4577 224.076 80.5416 224.039 80.6349 224.011C80.8028 223.955 80.9707 223.927 81.1479 223.89C81.1573 223.89 81.1573 223.89 81.1666 223.89C81.1666 223.89 81.1759 223.89 81.1853 223.89C81.2692 223.89 81.3438 223.881 81.4278 223.872C81.6143 223.872 81.8009 223.872 81.9968 223.89C81.9968 223.89 81.9968 223.89 82.0061 223.89C82.0155 223.89 82.0248 223.89 82.0341 223.89C82.1087 223.909 82.1927 223.918 82.2673 223.936C82.3419 223.955 82.4259 223.974 82.5005 224.001C82.5472 224.02 82.883 224.15 82.6311 224.039C82.883 224.15 83.1815 224.187 83.4427 224.131C83.6385 224.28 83.8344 224.438 84.0397 224.577C85.1684 225.394 86.3997 225.876 87.6403 226.479C89.338 227.296 91.5861 228.502 92.2577 230.331C92.323 230.507 92.3976 230.813 92.407 230.925C92.407 230.953 92.407 230.98 92.407 231.017C92.407 230.99 92.4256 230.98 92.4256 230.999C92.4256 230.999 92.4349 230.99 92.4443 230.98C92.4443 230.98 92.4443 230.99 92.4349 230.999H92.4443ZM92.4816 230.962C92.4816 230.962 92.4909 230.953 92.5002 230.943C92.5002 230.943 92.4816 230.962 92.4816 230.971V230.962Z" fill="#323232"/>
<path d="M92.3976 231.046C92.3976 231.046 92.4072 231.036 92.4168 231.027C92.3976 231.046 92.3976 231.056 92.3976 231.056V231.046Z" fill="#323232"/>
<path d="M82.9016 121.378C82.883 120.738 82.3979 120.413 81.9035 120.376C81.7543 121.721 81.661 123.067 81.3905 124.422C81.661 123.076 81.7543 121.731 81.9035 120.376C81.3532 120.339 80.7842 120.673 80.8028 121.378C80.8868 124.032 80.7562 126.696 80.6163 129.35C80.4297 132.83 80.1592 136.31 79.87 139.781C79.273 146.853 78.5454 153.915 77.7712 160.969C77.5193 163.289 77.2581 165.618 76.9876 167.938C76.9223 168.523 76.8477 169.108 76.7824 169.692C76.7824 169.766 76.7638 169.831 76.7544 169.906C76.7544 169.943 76.7358 170.054 76.7264 170.101C76.6611 170.518 76.6052 170.936 76.5492 171.344C75.4578 179.214 75.0194 187.186 74.6369 195.121C74.3944 200.151 74.1985 205.181 74.0773 210.22C70.7285 210.331 67.3704 210.433 64.0216 210.545C63.8537 210.545 63.6858 210.554 63.5085 210.563C63.5458 208.679 63.5831 206.796 63.6298 204.912C63.7417 199.529 63.8537 194.137 63.9656 188.754C64.1055 182.258 64.2361 175.771 64.376 169.275C64.4973 163.669 64.6092 158.055 64.7305 152.449C64.7865 149.73 64.9357 147.001 64.8984 144.282C64.8984 144.245 64.8984 144.208 64.8984 144.171C64.9171 143.447 64.3107 143.113 63.7417 143.169C63.8537 144.338 63.7417 145.498 63.7417 146.565C63.7417 145.507 63.8443 144.338 63.7417 143.169C63.2567 143.215 62.8089 143.549 62.7903 144.171L62.6503 150.899C62.5384 156.282 62.4265 161.674 62.3145 167.057C62.1746 173.553 62.044 180.04 61.9041 186.536C61.7828 192.142 61.6709 197.756 61.5496 203.362C61.4936 206.081 61.3444 208.809 61.3817 211.529C61.3817 211.566 61.3817 211.603 61.3817 211.64C61.3724 212.187 61.8761 212.707 62.4358 212.689C62.9115 212.67 63.3779 212.661 63.8537 212.642C67.0719 212.54 70.2901 212.438 73.5176 212.327C74.0399 212.308 74.5623 212.29 75.0847 212.28C74.8422 211.826 74.5717 211.371 74.2545 210.944C74.5717 211.371 74.8422 211.816 75.0847 212.28C75.0847 212.28 75.0847 212.28 75.094 212.28C75.6724 212.262 76.1294 211.816 76.1481 211.232C76.2414 206.786 76.4093 202.35 76.6052 197.914C76.9596 189.924 77.3794 181.915 78.3122 173.971C78.5174 172.263 78.76 170.722 78.9745 168.959C79.2077 166.973 79.4316 164.987 79.6555 163.001C80.4204 156.171 81.1293 149.331 81.745 142.482C82.3233 135.995 82.939 129.471 82.939 122.956C82.939 122.436 82.939 121.907 82.9203 121.387L82.9016 121.378Z" fill="#323232"/>
<path d="M40.9159 209.812C39.7032 209.672 39.2275 211.547 40.4961 211.844C40.6454 211.881 40.7946 211.918 40.9532 211.955C40.9998 211.705 41.0278 211.445 41.0465 211.166C41.0371 210.693 40.9905 210.248 40.9252 209.802L40.9159 209.812Z" fill="#323232"/>
<path d="M53.4155 209.431C51.1394 210.628 48.6675 211.25 46.0929 210.999C44.4512 210.842 42.7348 210.22 41.0651 209.83C41.0184 209.821 40.9718 209.821 40.9252 209.811C40.9904 210.248 41.0371 210.702 41.0464 211.176C41.0371 211.454 40.9998 211.714 40.9531 211.965C42.7068 212.401 44.4045 212.958 46.2235 213.115C47.8653 213.255 49.4884 213.06 51.0461 212.623V215.389C51.0461 215.389 51.0461 215.426 51.0461 215.454C50.7943 215.361 50.5051 215.37 50.1973 215.538C49.3484 216.02 48.5835 216.66 47.9679 217.412C46.2888 215.658 43.9754 214.6 41.5222 214.424C41.6061 214.192 41.6807 213.951 41.7554 213.709C41.9699 212.985 41.4289 212.494 40.8412 212.429C40.6826 213.023 40.4494 213.598 40.2069 214.303C40.4401 213.598 40.6733 213.023 40.8412 212.429C40.3841 212.373 39.8991 212.586 39.7312 213.152C39.1808 215.027 38.2013 216.772 37.1846 218.433C36.0652 220.28 34.8246 222.052 33.5559 223.797C33.0242 224.521 32.5672 225.171 32.0914 225.718C31.5038 226.386 30.8788 227.017 30.3004 227.695C29.1251 229.059 27.9404 230.646 28.5374 232.521C28.78 233.31 29.2464 233.978 30.0113 234.33C30.7762 234.683 31.6717 234.822 32.5112 234.906C34.2369 235.082 36.0279 234.943 37.7536 234.785C39.5539 234.627 41.4009 234.386 43.0986 233.746C44.1154 233.365 45.0948 232.827 45.7944 231.964C46.4754 231.119 47.1004 230.191 47.6694 229.273C47.772 229.096 47.8746 228.92 47.9679 228.744C48.9287 228.66 49.8521 228.335 50.701 227.862C51.5126 227.417 52.3521 226.767 52.7625 225.913C53.1916 225.022 53.2009 223.927 53.1823 222.953C53.1636 222.006 53.061 221.069 52.9211 220.131C53.1823 218.841 53.0237 217.514 52.2122 216.382C52.7345 216.308 53.1543 215.899 53.1543 215.352V211.835C53.602 211.64 54.0498 211.426 54.4882 211.204C55.6822 210.572 54.6281 208.772 53.4248 209.403L53.4155 209.431ZM32.4739 232.818C32.5578 232.827 32.5205 232.818 32.4739 232.818ZM47.6974 224.781C47.119 225.607 46.7925 226.507 46.3355 227.389C45.8784 228.261 45.3187 229.068 44.7497 229.876C44.218 230.628 43.7236 231.203 42.8654 231.602C42.0352 231.992 41.1117 232.187 40.2255 232.363C39.4793 232.511 39.0409 232.567 38.3506 232.641C36.6809 232.818 34.9925 232.929 33.3227 232.864C33.0336 232.855 32.7351 232.836 32.4459 232.808C32.4272 232.808 32.4179 232.808 32.4086 232.808C32.2967 232.79 32.1847 232.771 32.0728 232.753C31.8582 232.716 31.6437 232.669 31.4385 232.623C31.2985 232.586 31.1586 232.549 31.0187 232.502C31 232.502 30.9907 232.502 30.9814 232.493C30.9814 232.493 30.9814 232.493 30.9627 232.484C30.9161 232.456 30.8695 232.428 30.8321 232.409C30.8788 232.428 30.6549 232.224 30.7762 232.391C30.6456 232.215 30.6549 232.215 30.6176 232.103C30.5523 231.927 30.5057 231.741 30.4683 231.556C30.4683 231.546 30.4683 231.426 30.4683 231.342C30.4683 231.37 30.543 231.082 30.5616 231.027C30.571 230.999 30.571 230.989 30.5803 230.98C30.5803 230.962 30.5989 230.943 30.6083 230.915C30.6549 230.804 30.7202 230.702 30.7762 230.6C31.1586 229.932 31.6623 229.347 32.1754 228.771C32.4086 228.502 32.6418 228.242 32.875 227.973C33.1362 227.992 33.4067 227.918 33.6492 227.686C34.7593 226.656 36.3077 226.136 37.8096 226.321C39.2368 226.498 40.4867 227.305 41.3636 228.428C41.7087 228.874 42.4829 228.79 42.8467 228.428C43.2852 227.983 43.1919 227.398 42.8467 226.952C41.6341 225.393 39.7685 224.437 37.8096 224.233C37.1193 224.159 36.4197 224.215 35.7481 224.354C36.8954 222.776 37.9961 221.161 39.0129 219.5C39.6285 218.479 40.2255 217.431 40.7479 216.345C40.8878 216.428 41.0557 216.484 41.261 216.493C43.5743 216.595 45.869 217.765 47.1657 219.695C47.5854 220.317 48.5929 220.428 48.9753 219.695C49.3857 218.925 49.9454 218.285 50.6264 217.774C51.5778 219.157 50.4865 221.143 49.6376 222.303C49.0126 223.147 48.313 223.936 47.716 224.799L47.6974 224.781ZM50.9062 224.948C50.9249 224.892 50.9249 224.883 50.9062 224.948ZM51.0555 224.085C51.0555 224.187 51.0368 224.289 51.0275 224.391C51.0275 224.419 51.0275 224.428 51.0275 224.447C51.0275 224.465 51.0275 224.475 51.0182 224.493C50.9809 224.651 50.9435 224.809 50.9062 224.957C50.9062 224.976 50.8876 224.994 50.8782 225.022C50.8409 225.087 50.8036 225.143 50.7663 225.198C50.757 225.217 50.7383 225.236 50.7197 225.254C50.6544 225.319 50.5984 225.384 50.5238 225.449C50.4585 225.514 50.3839 225.579 50.3092 225.635C50.2906 225.653 50.2906 225.653 50.2906 225.653C50.2812 225.653 50.2719 225.672 50.2533 225.681C50.0854 225.802 49.9174 225.913 49.7402 226.015C49.5723 226.108 49.4044 226.191 49.2272 226.275C49.2458 226.238 49.2645 226.201 49.2925 226.173C49.8335 225.347 50.4771 224.595 51.0835 223.825C51.0835 223.908 51.0835 223.992 51.0835 224.066L51.0555 224.085Z" fill="#323232"/>
<path d="M41.886 200.485C41.6901 194.833 41.4849 189.19 41.2797 183.539C41.0185 176.374 40.7573 169.21 40.4961 162.054C40.2442 155.317 39.9924 148.579 39.7219 141.841C39.5446 137.35 39.3674 132.867 39.1342 128.375C39.1155 128.069 39.0969 127.754 39.0876 127.447C39.0409 126.603 38.1827 126.287 37.5764 126.51C37.2219 126.64 36.9514 126.946 36.9794 127.447C37.2126 131.549 37.3619 135.661 37.5298 139.763C37.8003 146.324 38.0428 152.894 38.2947 159.456C38.5652 166.667 38.8264 173.887 39.0876 181.098C39.3021 187.019 39.5167 192.94 39.7219 198.87C39.8245 201.682 39.8618 204.494 40.0204 207.306C40.0204 207.343 40.0204 207.389 40.0204 207.427C40.039 207.9 40.3095 208.206 40.6547 208.345C40.5054 207.436 40.4122 206.526 40.6174 205.524C40.4122 206.536 40.5054 207.445 40.6547 208.345C41.2797 208.596 42.1472 208.299 42.1192 207.427C42.0352 205.116 41.9606 202.796 41.8767 200.485H41.886Z" fill="#323232"/>
<path d="M67.8368 133.22C66.6521 133.545 65.4768 133.87 64.2921 134.204C64.3108 132.459 64.3294 130.705 64.3481 128.96C64.3481 128.737 64.3481 128.515 64.3481 128.292C63.6485 128.403 62.9489 128.487 62.2399 128.552C62.2213 130.426 62.2026 132.301 62.1839 134.176C62.1839 134.38 62.1839 134.584 62.1839 134.779C61.419 134.992 60.6541 135.206 59.8799 135.41C59.5534 134.445 57.8557 134.556 57.8371 135.772C57.6785 144.839 56.9975 153.906 56.3446 162.955C55.6076 173.135 54.7961 183.307 54.1898 193.497C53.9099 198.202 53.6581 202.907 53.5741 207.612C53.5555 208.689 54.8894 208.902 55.4397 208.252C55.4677 207.872 55.4397 207.51 55.3371 207.176C55.4491 207.51 55.4677 207.872 55.4397 208.252C55.5797 208.095 55.6636 207.881 55.6729 207.612C55.8315 198.545 56.5125 189.478 57.1654 180.43C57.9023 170.249 58.7139 160.078 59.3202 149.888C59.5628 145.786 59.7773 141.684 59.8892 137.582L60.2903 137.47C62.613 136.83 64.9264 136.19 67.2491 135.549C67.6316 135.447 68.0047 135.336 68.3871 135.234C69.6837 134.872 69.1334 132.858 67.8275 133.22H67.8368Z" fill="#323232"/>
<path d="M54.2364 21.1953C52.8838 21.1953 52.8838 23.2834 54.2364 23.2834C55.5889 23.2834 55.5889 21.1953 54.2364 21.1953Z" fill="#323232"/>
<path d="M63.6485 21.1953C62.2959 21.1953 62.2959 23.2834 63.6485 23.2834C65.001 23.2834 65.001 21.1953 63.6485 21.1953Z" fill="#323232"/>
<path d="M45.0668 21.1306C45.3094 21.4833 45.8317 21.6596 46.2328 21.5483C46.2888 21.5297 46.3355 21.5111 46.3821 21.4926C46.2049 21.1028 46.037 20.713 45.9064 20.314C45.8131 20.713 45.4773 21.0564 45.0668 21.1214V21.1306Z" fill="#323232"/>
<path d="M51.4379 6.1149C51.3726 5.53951 50.8782 4.98268 50.132 5.14973C49.8988 5.20541 49.6656 5.27037 49.4417 5.34462C49.9174 5.96641 50.6544 6.08705 51.4379 6.10562V6.1149Z" fill="#323232"/>
<path d="M49.4511 5.35352C47.259 6.06811 45.3561 7.67363 44.4046 9.78958C43.8542 11.0146 43.5651 12.3417 43.6117 13.6874C43.6583 14.9495 44.0688 16.091 44.3206 17.3068C44.4419 17.8914 44.5538 18.4668 44.6564 19.0515C44.7311 19.0515 44.8057 19.0515 44.8803 19.0515C45.4493 19.07 45.9344 19.5155 45.9344 20.1002C45.9344 20.1744 45.9251 20.2487 45.9064 20.3229C46.037 20.7127 46.2049 21.1025 46.3821 21.5015C46.8672 21.2881 47.0444 20.7869 46.9698 20.2765C46.7833 19.0422 46.5874 17.8172 46.3168 16.5922C46.0183 15.2372 45.5893 14.0122 45.7572 12.6016C46.0743 9.91023 48.1078 7.79428 50.7104 7.18177C51.2887 7.04256 51.5033 6.57854 51.4566 6.13308C50.6731 6.11451 49.9455 5.99387 49.4604 5.37208L49.4511 5.35352Z" fill="#323232"/>
<path d="M70.7192 19.9428C70.6819 19.3767 70.6352 18.8013 70.5979 18.2352C70.5699 17.6877 70.1408 17.168 69.5438 17.1865C69.0028 17.2144 68.4618 17.6505 68.4897 18.2352C68.5177 18.6621 68.5457 19.0797 68.5737 19.5066C69.1894 19.8686 69.8796 20.0635 70.7005 19.9428H70.7192Z" fill="#323232"/>
<path d="M74.4597 11.3118C73.9094 9.02878 72.4262 6.66227 70.0102 6.05904C69.8703 6.02191 69.7397 6.02191 69.6184 6.03119C69.6184 5.96623 69.5998 5.90127 69.5718 5.8363C68.5457 3.14497 66.0551 1.27031 63.35 0.425791C62.016 0.00817043 60.5795 -0.131037 59.1989 0.138097C57.6505 0.435072 56.2046 1.21463 54.7868 1.8457C53.2756 2.52318 51.6339 3.10785 49.9548 2.82015C49.3951 2.72735 48.8261 2.96864 48.6582 3.55331C48.5463 3.97093 48.7421 4.5092 49.1339 4.74121C49.2179 4.78761 49.3018 4.82473 49.3951 4.84329C50.9902 5.11243 52.5387 4.9361 54.0592 4.38855C55.4677 3.88741 56.783 3.16353 58.1822 2.63454C59.3669 2.18908 60.4209 1.95707 61.6149 2.15196C62.8462 2.35613 64.0123 2.82943 65.057 3.51619C66.1204 4.21222 67.1185 5.24235 67.5569 6.38385C67.7435 6.86644 68.1912 7.20981 68.7136 7.13557C68.7136 7.54391 68.9375 7.93369 69.4599 8.06362C71.2042 8.4998 72.1184 10.3745 72.4822 11.9985C72.9766 14.2073 72.6967 16.6759 71.8012 18.7454C71.7732 18.8104 71.7546 18.8661 71.7359 18.931C71.7266 18.9496 71.7079 18.9589 71.6986 18.9774C71.4001 19.4879 71.083 19.9983 70.7751 20.5087C70.7565 20.3138 70.7471 20.1282 70.7378 19.9333C69.9169 20.054 69.2173 19.8591 68.611 19.4972C68.7136 20.9356 68.8256 22.3741 68.9375 23.8219C68.9561 24.0075 69.0121 24.1931 69.1054 24.3601C69.3293 23.4414 70.6539 23.3485 71.055 24.091C71.5027 23.3578 71.9598 22.6154 72.4075 21.8822C72.137 21.6873 71.9598 21.3532 71.9598 21.0284C71.9598 20.4438 72.4449 20.0169 73.0139 19.9797C73.1911 19.9705 73.3683 19.9797 73.5362 20.0076C73.5736 19.9426 73.5922 19.8869 73.6109 19.822C73.6109 19.822 73.6109 19.8127 73.6202 19.8034C74.7676 17.1492 75.1593 14.1423 74.4784 11.3118H74.4597Z" fill="#323232"/>
<path d="M66.904 16.8524C66.8013 16.7874 66.6987 16.7225 66.5961 16.6575C66.5215 16.6018 66.3163 16.509 66.2696 16.4255C66.3909 16.5183 66.4002 16.5276 66.3163 16.4626C66.2976 16.4441 66.279 16.4348 66.2603 16.4162C66.2043 16.3698 66.1484 16.3234 66.0924 16.277C65.9711 16.1749 65.8592 16.0821 65.7473 15.98C65.5047 15.7666 65.2715 15.5346 65.057 15.3026C64.9451 15.1819 64.8331 15.0613 64.7212 14.9314C64.6652 14.8664 64.6092 14.8014 64.5626 14.7457C64.5533 14.7365 64.4973 14.6622 64.4507 14.6065C64.4227 14.5694 64.3481 14.4766 64.3387 14.4673C64.2921 14.4024 64.2454 14.3374 64.1988 14.2632C64.1055 14.1332 64.0216 13.994 63.9376 13.8548C63.8537 13.7156 63.779 13.5857 63.7044 13.4465C63.6671 13.3815 63.6391 13.3073 63.6018 13.2423C63.6018 13.233 63.6018 13.2237 63.5925 13.2145C63.5552 13.0753 63.4899 12.9453 63.4526 12.8061C63.4339 12.7412 63.4152 12.6669 63.4059 12.602C63.3966 12.5556 63.3779 12.3235 63.3873 12.5091C63.3873 12.6948 63.3873 12.4535 63.3873 12.4163C63.3873 12.3514 63.3873 12.2864 63.3873 12.2215C63.3873 12.1751 63.4246 11.9894 63.3873 12.1101C63.3873 12.073 63.4059 12.0358 63.4059 12.0173C63.5272 11.4883 63.238 10.8572 62.669 10.7273C62.5197 10.6902 62.3612 10.6902 62.2026 10.7273C61.8108 10.7459 61.4284 10.9686 61.2791 11.4605C60.6541 13.5393 58.7512 16.1007 56.4565 16.741C57.5852 15.3304 58.4061 13.697 58.7792 11.9059C58.8818 11.3955 58.6766 10.8758 58.1729 10.6716C57.7158 10.486 57.1001 10.6252 56.8576 11.0985C56.1393 12.4906 55.2252 13.7713 53.9286 14.5509C52.5946 15.3583 50.9995 15.6738 49.4138 15.9244C48.8541 16.0172 48.5462 16.7132 48.6768 17.2143C48.7328 17.4185 48.8447 17.5763 48.9753 17.6969C48.2198 18.8663 47.7067 20.2119 47.3989 21.5483C47.2776 22.0773 47.5668 22.7084 48.1358 22.8383C48.2757 22.8662 48.4157 22.8754 48.5556 22.8569C48.7235 22.133 48.8821 21.4184 49.05 20.7595C48.8821 21.4091 48.7235 22.1237 48.5556 22.8569C48.9567 22.8012 49.3298 22.5321 49.4231 22.1144C49.507 21.7525 49.6097 21.3906 49.7309 21.0286C49.7962 20.843 49.8615 20.6481 49.9268 20.4625C49.9641 20.3604 50.0014 20.2583 50.0481 20.1655C50.0667 20.1284 50.0761 20.0913 50.0947 20.0542C50.2626 19.683 50.4399 19.3303 50.6451 18.9776C50.7477 18.8106 50.8503 18.6528 50.9622 18.4858C51.0089 18.4115 51.0742 18.3466 51.1208 18.2723C50.9622 18.5322 51.1395 18.2538 51.1954 18.1888C51.326 18.0403 51.41 17.864 51.4566 17.6691C52.0256 17.5484 52.5946 17.3907 53.145 17.2051C52.7719 17.7619 53.117 18.5786 53.7607 18.7642C57.0628 19.7201 60.1971 17.5113 62.0067 14.7272C62.1933 15.052 62.3985 15.3583 62.6224 15.6552C63.5085 16.8246 64.5813 17.8918 65.8406 18.6621C66.279 18.9312 66.9133 18.8013 67.2118 18.3837C66.8853 18.0589 66.5775 17.7248 66.2603 17.4092C66.5681 17.7155 66.8853 18.0589 67.2118 18.3837C67.2304 18.3558 67.2584 18.3187 67.2771 18.2909C67.5476 17.7805 67.3983 17.1679 66.904 16.8617V16.8524Z" fill="#323232"/>
<path d="M58.6112 29.5573C58.7791 29.6501 58.9564 29.6965 59.1429 29.6965C59.2176 29.6965 59.3015 29.6965 59.3761 29.6872C59.3855 29.6872 59.3948 29.6872 59.4135 29.6872C59.5627 29.6872 59.6933 29.6594 59.8146 29.5944C59.9452 29.548 60.0571 29.4831 60.1504 29.381C60.253 29.2882 60.3276 29.1768 60.3649 29.0469C60.4302 28.9262 60.4582 28.787 60.4582 28.6478C60.4489 28.555 60.4302 28.4622 60.4209 28.3694C60.3743 28.1931 60.281 28.0353 60.1504 27.9054C60.0758 27.8497 60.0105 27.794 59.9358 27.7383C59.7679 27.6455 59.5907 27.5991 59.4041 27.5991C59.3295 27.5991 59.2456 27.5991 59.1709 27.6084C59.1616 27.6084 59.1523 27.6084 59.1336 27.6084C58.9937 27.6084 58.8538 27.6362 58.7325 27.7012C58.6019 27.7476 58.49 27.8126 58.3967 27.9147C58.2941 28.0075 58.2195 28.1188 58.1821 28.2488C58.1169 28.3694 58.0889 28.5086 58.0889 28.6478C58.0982 28.7406 58.1169 28.8334 58.1262 28.9262C58.1728 29.1026 58.2661 29.2603 58.3967 29.3903C58.4713 29.4459 58.5366 29.5016 58.6112 29.5573Z" fill="#323232"/>
<path d="M55.7475 34.2716C56.8482 34.8841 58.1728 35.0511 59.4135 35.0326C60.5608 35.0047 61.8294 34.8469 62.8462 34.2623C63.3219 33.9931 63.5272 33.3064 63.2193 32.8331C62.9115 32.3505 62.2958 32.1649 61.7828 32.4619C61.7082 32.5083 61.6335 32.5361 61.5589 32.5825C61.5216 32.5918 61.475 32.6104 61.4377 32.6289C61.2138 32.7032 60.9899 32.7681 60.7567 32.8145C60.6448 32.8424 60.5328 32.8609 60.4209 32.8795C60.3743 32.8795 60.3183 32.898 60.2716 32.898C60.2623 32.898 60.2437 32.898 60.225 32.898C59.9545 32.9259 59.6746 32.9444 59.4041 32.9537C59.1429 32.9537 58.8724 32.9537 58.6112 32.9352C58.4713 32.9352 58.3407 32.9073 58.2008 32.898C58.1355 32.8795 58.0702 32.8795 58.0049 32.8609C57.7531 32.8145 57.5012 32.7588 57.2587 32.6753C57.212 32.6568 57.1654 32.6475 57.1187 32.6289C57.1187 32.6289 57.0534 32.6011 57.0161 32.5918C56.9975 32.5918 56.9881 32.5732 56.9788 32.5732C56.9229 32.5454 56.8576 32.5083 56.8016 32.4804C56.3259 32.2113 55.6356 32.3505 55.3651 32.8516C55.1039 33.3435 55.2345 33.9931 55.7382 34.2808L55.7475 34.2716Z" fill="#323232"/>
<path d="M73.415 22.1328C73.2844 22.0579 73.415 22.1515 73.4336 22.1609C73.4336 22.1515 73.415 22.1422 73.415 22.1328Z" fill="#323232"/>
<path d="M70.4396 45.3994C70.4112 45.3428 70.4018 45.3428 70.4396 45.3994Z" fill="white"/>
<path d="M71.1389 45.7422C71.1389 45.7422 71.0923 45.7609 71.0457 45.7703C71.0923 45.7703 71.1296 45.7703 71.1389 45.7422Z" fill="white"/>
<path d="M70.6445 45.4824C70.6445 45.5659 70.6259 45.5567 70.6445 45.4824Z" fill="white"/>
<path d="M52.4556 37.854C52.4556 37.854 52.4462 37.854 52.4367 37.854C52.4367 37.854 52.4273 37.854 52.4083 37.854C52.4083 37.854 52.3989 37.854 52.3894 37.854C52.4083 37.854 52.4273 37.8635 52.4462 37.873L52.4556 37.854Z" fill="white"/>
<path d="M52.4081 37.8262C52.4081 37.8262 52.4273 37.8262 52.4369 37.8454C52.4273 37.8454 52.4177 37.8358 52.4081 37.8262Z" fill="white"/>
<path d="M52.4734 37.8633C52.4829 37.8633 52.5018 37.8728 52.5112 37.8823C52.5112 37.8823 52.4923 37.8823 52.4829 37.8633H52.4734Z" fill="white"/>
<path d="M68.9941 34.4949C68.9941 34.4949 68.9941 34.4949 68.9841 34.4849V34.4949H68.9941Z" fill="white"/>
<path d="M68.0606 34.8472C68.0047 34.8843 67.958 34.94 68.0606 34.8472Z" fill="white"/>
<path d="M68.9562 34.457C68.9562 34.457 68.9373 34.457 68.9562 34.4759V34.457Z" fill="white"/>
<path d="M68.2472 44.4615C68.3218 44.3779 68.3498 44.3408 68.3685 44.3223C68.3311 44.3687 68.2938 44.4151 68.2472 44.4615Z" fill="white"/>
<path d="M52.4547 37.8542C52.4547 37.8542 52.4174 37.8354 52.3988 37.8354C52.3894 37.8354 52.3801 37.8354 52.3708 37.8354C52.4174 37.8448 52.4454 37.8542 52.4547 37.8542Z" fill="#323232"/>
<path d="M52.5019 37.873C52.5019 37.873 52.4735 37.8635 52.4641 37.854C52.5114 37.8826 52.5587 37.9111 52.5019 37.873Z" fill="#323232"/>
<path d="M50.0947 57.5284C49.6936 56.9716 48.7608 56.7674 48.3224 57.547C48.2105 57.7419 48.0985 57.9368 47.9959 58.1317C48.425 58.3915 48.9847 58.3822 49.5444 58.3822C49.7309 58.0945 49.9175 57.8161 50.0947 57.5377V57.5284Z" fill="#323232"/>
<path d="M50.2253 58.41C50.3373 58.0851 50.272 57.7696 50.0947 57.5283C49.9175 57.816 49.7309 58.0944 49.5444 58.3728C49.7776 58.3728 50.0014 58.3728 50.2253 58.4007V58.41Z" fill="#323232"/>
<path d="M49.5443 58.3731C48.9473 59.2826 48.369 60.2107 48.1918 61.2965C48.3783 60.2107 48.9473 59.2826 49.5443 58.3731C48.9846 58.3731 48.425 58.3824 47.9959 58.1226C46.7459 60.3406 45.4866 62.5493 44.2366 64.7674C42.0725 68.5909 39.9084 72.4145 37.7443 76.2287C37.2406 77.1104 36.7462 77.992 36.2425 78.8737C35.5802 80.043 37.3898 81.101 38.0521 79.9317L42.1378 72.7115C44.3019 68.8879 46.4661 65.0643 48.6302 61.2501C49.1339 60.3684 49.6283 59.4868 50.132 58.6051C50.1693 58.5402 50.1973 58.4752 50.216 58.4103C50.0014 58.3824 49.7682 58.3824 49.535 58.3824L49.5443 58.3731Z" fill="#323232"/>
<path d="M48.285 24.0074C48.1171 23.8775 47.9213 23.8032 47.6787 23.8032C47.6228 23.8032 47.5761 23.8032 47.5201 23.8218C47.7254 24.258 47.8933 24.6941 48.0332 25.1303C48.1171 24.7591 48.2011 24.3879 48.2944 24.0074H48.285Z" fill="#323232"/>
<path d="M90.1682 62.3359C89.5806 58.9299 87.9482 55.1899 85.1217 53.0554C82.4259 51.023 78.9652 50.9394 75.9615 49.6123C75.2153 49.2782 74.4784 48.8699 73.8441 48.3502C73.4056 47.9975 72.79 47.9233 72.3609 48.3502C72.2956 48.4152 72.2396 48.4987 72.193 48.5915C71.9878 48.9813 71.9971 49.5381 72.3609 49.8258C73.7415 50.9394 75.2992 51.6726 76.997 52.1923C78.5268 52.6656 80.1032 52.9719 81.605 53.5194C83.0416 54.0484 84.3195 54.8744 85.2803 56.0808C86.2878 57.3522 87.0153 58.8835 87.5284 60.4148C88.0414 61.9461 88.3586 63.533 88.2933 65.1478C88.2373 66.5863 88.1814 68.0248 88.1254 69.4633C88.0135 72.897 87.9202 76.3308 87.8455 79.7646C87.7709 83.2447 87.7056 86.7342 87.6683 90.2144C87.6497 91.7178 87.7429 93.2677 87.6123 94.7711C87.4911 96.1168 86.7542 97.4067 85.6908 98.2513C84.5994 99.1236 83.2934 99.3835 81.9222 99.3371C80.6536 99.2907 79.385 99.2257 78.1163 99.1422C75.1873 98.9566 72.249 98.7339 69.3293 98.4833C65.7939 98.1863 62.2586 97.7965 58.7232 97.481C59.3575 96.5344 59.7306 95.4114 59.9265 94.2978C60.2717 92.3582 60.253 90.3721 60.0664 88.4232C60.0664 88.414 60.0664 88.4047 60.0664 88.3954C65.4394 88.5253 70.8124 88.6553 76.1854 88.7852C77.2582 88.813 77.4727 87.5045 76.8477 86.9477C76.9783 86.7713 77.0716 86.5486 77.0996 86.3073C77.2302 85.138 77.3421 84.4048 77.51 83.2076C77.7152 81.7877 77.9391 80.3678 78.1536 78.9479C78.6107 76.006 79.0771 73.0734 79.5156 70.1314C79.7021 68.8322 79.8887 67.5422 80.0379 66.2429C80.1032 65.6768 79.5062 65.1942 78.9839 65.1942C78.3589 65.1942 77.9951 65.6768 77.9298 66.2429C77.7992 67.4123 77.6872 68.1454 77.5193 69.3426C77.3141 70.7625 77.0902 72.1824 76.8757 73.6023C76.4186 76.5443 75.9522 79.4769 75.5138 82.4188C75.3272 83.7181 75.1407 85.008 74.9914 86.3073C74.9728 86.4372 74.9914 86.5579 75.0474 86.6692C69.4878 86.53 63.9283 86.4001 58.3594 86.2609C58.0609 86.2609 57.8277 86.3537 57.6598 86.5115C57.4266 86.4558 57.2027 86.4001 56.9788 86.3166C56.9229 86.298 56.8576 86.2795 56.8016 86.2516C56.783 86.2516 56.7643 86.2331 56.7363 86.2238C56.6244 86.1681 56.5031 86.1217 56.3912 86.066C56.1673 85.9546 55.9434 85.8247 55.7382 85.6948C55.6263 85.6205 55.5143 85.5463 55.4117 85.4721C55.3651 85.4442 55.3278 85.4071 55.2811 85.3793C55.2531 85.3607 55.0573 85.2215 55.2065 85.3236C55.3464 85.4257 55.1972 85.3143 55.1599 85.2865C55.1132 85.2493 55.0666 85.2122 55.0199 85.1658C54.936 85.0916 54.852 85.0266 54.7681 84.9524C54.6002 84.8039 54.4416 84.6554 54.2737 84.5069C53.9939 84.247 53.7233 83.9779 53.4248 83.7366C53.3969 83.7088 53.3595 83.6902 53.3316 83.6624C54.0405 81.8991 54.7401 80.1358 55.4304 78.3725C57.5012 73.0641 59.4974 67.7278 61.4377 62.3637C61.4657 62.2709 61.503 62.1874 61.531 62.0946C61.6709 61.7048 61.4843 61.2686 61.1765 61.0087C61.0739 60.8788 60.934 60.7767 60.7661 60.7211C60.6541 60.6747 60.5329 60.6468 60.3929 60.6468C58.9751 60.6282 57.4732 60.1642 56.102 59.5888C54.6561 58.9763 53.2663 58.1968 52.0163 57.2502C51.5592 56.9068 50.841 57.1759 50.5798 57.6214C50.4119 57.9091 50.4025 58.1968 50.5051 58.4659C50.7477 58.5216 50.9622 58.6237 51.1395 58.8C50.9622 58.6237 50.7383 58.5216 50.5051 58.4659C50.5891 58.6886 50.7477 58.8928 50.9622 59.0506C52.3148 60.0621 53.8166 60.8695 55.3744 61.5192C56.5684 62.0203 57.8184 62.4379 59.1057 62.6236C58.5366 64.1827 57.9676 65.7325 57.3986 67.2916C54.7308 67.1617 52.1749 66.2244 50.0108 64.6467C49.5537 64.3126 48.8354 64.5724 48.5742 65.0179C48.2664 65.5469 48.4903 66.113 48.9473 66.4471C51.1861 68.0897 53.8726 69.0642 56.6337 69.324C55.9807 71.0688 55.3278 72.8042 54.6561 74.5397C53.2756 78.1498 51.8577 81.7599 50.3839 85.3421C49.2085 88.2005 47.9959 91.096 46.55 93.9451C46.2609 94.5112 45.9717 95.0773 45.6545 95.6249C45.44 95.9868 45.2068 96.3395 44.9829 96.6086C44.8337 96.7849 44.6751 96.952 44.5072 97.1098C44.4232 97.184 44.3393 97.2675 44.2553 97.3418C44.2273 97.3696 44.0314 97.5367 44.0221 97.5459C42.6882 98.5761 41.1957 98.9287 39.5726 98.8638C38.0055 98.8081 36.3917 98.2698 34.9925 97.3789C34.3022 96.9427 33.7332 96.4601 33.1362 95.7827C32.987 95.6156 32.8843 95.4857 32.8284 95.4114C32.6978 95.2351 32.5765 95.0588 32.4646 94.8825C32.3526 94.6968 32.2407 94.5205 32.1474 94.3256C32.1101 94.2607 32.0821 94.1957 32.0541 94.1307C32.0448 94.1029 31.9515 93.908 31.9329 93.8616C31.5598 92.9336 31.4198 91.922 31.2519 90.9475C31.0374 89.704 30.8508 88.4511 30.6829 87.1982C30.3191 84.5255 30.0299 81.8527 29.7501 79.1706C29.1904 73.8715 28.7147 68.5538 27.8285 63.301C27.6513 62.2245 27.5207 61.1665 27.7352 60.0807C27.9498 58.9949 28.3789 57.974 29.0318 57.0738C29.6568 56.2015 30.4964 55.4869 31.4292 54.9579C32.4926 54.3639 33.7052 54.0484 34.8339 53.6029C37.3712 52.6099 39.8991 51.4684 42.1658 49.9372C43.2106 49.2318 44.218 48.4523 45.0855 47.5428C45.5612 47.0416 45.8038 46.3735 46.1023 45.7609C46.3635 45.2134 46.6246 44.6751 46.8952 44.1276C46.9511 44.0069 47.0164 43.8956 47.0724 43.7749C48.4063 44.471 49.7775 45.102 51.1488 45.7145C51.438 45.8445 51.7551 45.8723 52.0349 45.7795C52.0816 46.225 52.1002 46.6704 52.0909 47.1437C52.0909 47.9511 52.0256 48.7493 51.9603 49.5474C51.9417 49.8165 51.923 50.0856 51.9044 50.3548C51.8764 50.3455 51.8484 50.3362 51.8204 50.3177C50.1693 49.5938 48.3877 48.7307 47.175 47.5057C46.2235 46.5498 44.731 48.0254 45.6918 48.9813C47.1284 50.4197 49.0593 51.3756 50.9062 52.183C51.1115 52.2758 51.326 52.3594 51.5312 52.4522C51.2607 53.408 50.8969 54.3547 50.5611 55.2827C50.4398 55.6261 50.5611 55.9973 50.8036 56.2571C51.0275 55.7374 51.1674 55.1899 51.1674 54.6052C51.1674 55.1992 51.0275 55.7374 50.8036 56.2571C50.9342 56.4056 51.1115 56.517 51.2887 56.5634C51.8577 56.7212 52.3521 56.3871 52.5573 55.8859C52.5573 55.8674 52.576 55.8581 52.576 55.8395C52.9584 54.8001 53.3409 53.7607 53.6301 52.6935C53.9192 51.5984 53.9845 50.4754 54.0778 49.3432C54.1804 48.0718 54.255 46.8004 54.1338 45.5289C54.0312 44.4617 53.742 43.4779 53.3316 42.4849C52.9304 41.5105 52.4734 40.5639 52.1096 39.5709C51.979 39.2182 51.8204 38.8099 51.7738 38.4479C51.7738 38.4758 51.7738 38.3273 51.7738 38.2438C51.7924 38.2345 51.8297 38.0674 51.7551 38.1974C51.8204 38.0767 51.7738 38.1138 51.9323 38.0118C52.007 37.9561 52.0909 37.9282 52.1749 37.8818C52.1842 37.8818 52.1935 37.8818 52.2029 37.8633C52.2402 37.8633 52.3335 37.8354 52.3801 37.8169C52.3801 37.8169 52.3894 37.8169 52.3987 37.8169C52.3987 37.8169 52.3987 37.8169 52.3894 37.8169C52.3987 37.8169 52.4081 37.8169 52.4174 37.8169C52.4174 37.8169 52.4267 37.8169 52.4361 37.8169C52.4547 37.8169 52.4547 37.8169 52.464 37.8169C52.4547 37.8169 52.4361 37.8076 52.4361 37.7983C52.4454 37.7983 52.4547 37.8076 52.464 37.8169C52.4734 37.8169 52.4827 37.8169 52.4827 37.8169C52.4827 37.8169 52.4827 37.8169 52.492 37.8169C52.5014 37.8169 52.5107 37.8261 52.52 37.8354C52.5387 37.8447 52.5667 37.854 52.5853 37.8725C52.6319 37.9004 52.6786 37.9282 52.7252 37.9653C52.7346 37.9653 52.7439 37.9839 52.7532 37.9839C53.0144 38.2159 53.2476 38.4665 53.4435 38.7542C54.0218 39.5523 54.4509 40.434 54.9733 41.2599C55.3184 41.7982 55.6729 42.3272 56.0274 42.8469C56.2699 43.1995 56.7643 43.4965 57.2121 43.3295C58.4993 42.8283 59.8985 42.355 60.9806 41.4919C62.1746 40.5453 63.266 39.4595 64.3667 38.4108C65.57 37.26 66.7454 36.0907 67.9394 34.9306C67.986 34.8935 68.0233 34.8471 68.07 34.81C68.07 34.81 68.0886 34.8007 68.0979 34.7914C68.1539 34.7636 68.3871 34.6522 68.3871 34.6429C68.4804 34.6151 68.583 34.578 68.6763 34.5501C68.6949 34.5501 68.7136 34.5501 68.7323 34.5409C68.6483 34.5594 68.8629 34.5409 68.9188 34.5316C68.6203 35.5617 67.6409 36.6475 66.9506 37.5292C65.9805 38.7635 64.9824 39.9699 64.0589 41.2414C63.5458 41.9374 64.4134 43.1253 65.2436 42.7726C65.7753 42.5499 66.1764 42.2622 66.6241 41.9003C66.792 41.7703 66.9506 41.6497 67.1651 41.6311C67.2584 41.7239 67.3517 41.8167 67.417 41.9281C67.445 41.9652 67.4636 42.0024 67.4823 42.0395C67.4636 42.058 67.445 42.1044 67.3797 42.1787C67.2491 42.355 67.1092 42.5313 66.9786 42.6984C66.8013 42.9026 66.6334 43.1067 66.4935 43.3016C65.8032 44.2575 67.3704 45.464 68.1446 44.5638C68.3218 44.3596 68.527 44.1369 68.7136 43.9048C68.7323 43.8863 68.7509 43.8677 68.7696 43.8492C68.9468 43.6821 68.8815 43.7192 68.9934 43.6543C68.9934 43.7007 68.9841 43.7471 68.9748 43.7656C68.8442 44.3503 68.4058 44.9999 68.583 45.6032C68.7416 46.1693 69.3572 46.5034 69.9263 46.3456C70.0848 46.2992 70.2154 46.2157 70.3367 46.1322C70.318 46.2342 70.2994 46.3363 70.2714 46.4384C70.2621 46.4384 70.1968 46.6055 70.1781 46.6333C70.1315 46.7075 70.0848 46.7725 70.0382 46.8468C69.9263 47.0138 69.7957 47.1716 69.6651 47.3293C69.3106 47.7655 68.9748 48.2017 68.6483 48.6472C67.9021 49.6773 67.1558 50.6981 66.3909 51.719C64.7025 53.9649 62.9115 56.1458 60.9246 58.1411C60.794 58.271 60.7101 58.4102 60.6634 58.5494C60.5235 58.967 60.7194 59.4032 61.0366 59.6724C61.1299 59.264 61.2045 58.8278 61.2045 58.3453C61.2045 58.8278 61.1392 59.264 61.0366 59.6724C61.4097 59.9786 61.9601 60.0621 62.3985 59.6167C65.1409 56.8604 67.4823 53.77 69.7677 50.6332C70.2434 49.9743 70.7191 49.3246 71.2322 48.6843C71.4094 48.4708 71.5867 48.2481 71.7452 48.0254C71.5587 47.7377 71.4001 47.4129 71.2788 47.0602C71.4001 47.4221 71.5587 47.7377 71.7452 48.0254C71.9784 47.7006 72.1743 47.3572 72.2769 46.9674C72.4542 46.2806 72.6314 45.4732 72.4355 44.7772C72.2583 44.1554 71.7266 43.6821 71.0736 43.645C71.1109 42.819 70.7938 42.0209 70.0009 41.6219C69.8237 41.529 69.6371 41.4734 69.4599 41.4455C69.3013 40.9629 68.9934 40.5175 68.6203 40.1555C68.3871 39.9235 68.1539 39.7658 67.8834 39.6637C68.098 39.3945 68.3125 39.1254 68.527 38.8563C69.3572 37.789 70.2994 36.7032 70.8031 35.4411C71.1296 34.6337 71.1296 33.6592 70.4673 33.0096C70.6818 32.1279 70.8218 31.2185 70.9057 30.2997C71.0456 30.3182 71.1856 30.309 71.3161 30.2626C73.6762 29.418 75.0381 27.0051 75.4298 24.6572C75.5884 23.6827 75.7563 22.6062 75.4578 21.641C75.1687 20.6944 74.4131 20.1005 73.4803 19.9798C73.3124 19.9612 73.1351 19.9427 72.9579 19.952C72.3889 19.9798 71.9038 20.4067 71.9038 21.0007C71.9038 21.3348 72.0811 21.6596 72.3516 21.8545C72.5195 21.9844 72.734 22.0586 72.9486 22.0401C73.0232 22.0401 73.0885 22.0401 73.1631 22.0401C73.1258 22.0401 73.275 22.0493 73.3124 22.0586C73.3124 22.0586 73.3124 22.0586 73.3217 22.0586C73.3217 22.0586 73.331 22.0586 73.3403 22.0679C73.3403 22.0679 73.3403 22.0679 73.3497 22.0772C73.387 22.1143 73.3963 22.1236 73.387 22.1236C73.4523 22.337 73.4243 22.1886 73.387 22.1236C73.4056 22.1793 73.4243 22.2442 73.443 22.2999C73.443 22.3185 73.4616 22.3927 73.4709 22.4391C73.4709 22.4948 73.4896 22.5876 73.4896 22.6062C73.4896 22.699 73.4896 22.7918 73.4896 22.8753C73.4896 23.0516 73.4803 23.228 73.4616 23.395C73.4616 23.4878 73.443 23.5899 73.4336 23.6827C73.4336 23.7106 73.4336 23.7198 73.4336 23.7384C73.4336 23.757 73.4336 23.7662 73.4336 23.7941C73.4056 23.989 73.3683 24.1746 73.3403 24.3695C73.1818 25.2604 72.9486 25.9286 72.4635 26.6803C72.221 27.0608 71.9784 27.3485 71.624 27.6826C71.4561 27.8311 71.4188 27.8682 71.1949 28.0074C71.1389 28.0352 71.0923 28.0631 71.0363 28.1002C71.0829 26.903 71.0829 25.7151 71.1109 24.5644C71.1109 24.3602 71.0736 24.1931 70.9897 24.0539C70.5886 23.3115 69.264 23.4043 69.0401 24.3231C69.0214 24.3973 69.0121 24.4808 69.0121 24.5644C68.9468 27.1814 69.0214 29.9099 68.4058 32.4806C68.3218 32.4899 68.2379 32.5084 68.1539 32.527C67.389 32.6848 66.7827 33.0838 66.2417 33.6314C65.6447 34.2253 65.0477 34.81 64.4413 35.3947C63.0794 36.7125 61.7175 38.0396 60.2997 39.2925C60.0385 39.5245 59.768 39.7379 59.5068 39.9699C59.4695 39.9978 59.4228 40.0256 59.3855 40.0535C59.2176 40.1555 59.0497 40.2483 58.8725 40.3319C58.6952 40.4247 58.5273 40.4989 58.3594 40.5824C57.8184 40.5268 57.2773 40.4061 56.755 40.2391C56.2513 39.4409 55.8222 38.5964 55.2811 37.8261C54.4789 36.6754 53.2756 35.3761 51.7178 35.7937C51.41 35.8772 51.1021 36.0072 50.8223 36.1835C50.4772 35.7195 50.188 35.209 49.9548 34.6801C48.6582 31.5989 49.0406 28.0817 48.6862 24.8335C48.6488 24.4901 48.4996 24.1839 48.2477 23.989C48.1638 24.3695 48.0798 24.75 47.9866 25.1119C48.0518 25.3254 48.1078 25.5388 48.1545 25.743C48.1078 25.5295 48.0518 25.3161 47.9866 25.1119C47.8466 24.6757 47.6694 24.2395 47.4735 23.8034C46.9978 23.8869 46.5314 24.3231 46.5873 24.8335C46.6899 25.7894 46.7366 26.7545 46.7832 27.7197C46.6526 27.4877 46.4194 27.3021 46.1489 27.2093C46.065 27.1722 46.0276 27.1629 46.0463 27.1814C45.9903 27.1536 45.9437 27.135 45.8877 27.1072C45.7851 27.0515 45.6918 26.9958 45.5986 26.9309C45.4773 26.8473 45.2721 26.6617 45.1042 26.4761C44.7963 26.142 44.5445 25.7615 44.3113 25.2975C44.1527 24.9913 44.0501 24.7221 43.9661 24.3138C43.9475 24.2395 43.9102 23.9426 43.9008 23.9518C43.8822 23.8219 43.8729 23.692 43.8635 23.5621C43.8449 23.2001 43.8449 22.8289 43.8822 22.467C43.8822 22.4391 43.8822 22.4113 43.8915 22.3834C43.9102 22.2906 43.9195 22.1978 43.9475 22.105C43.9848 21.938 44.0314 21.7895 44.0874 21.6317C44.0967 21.6132 44.1061 21.5946 44.1154 21.5668C44.1527 21.5018 44.19 21.4461 44.218 21.3812C44.2273 21.3626 44.2367 21.344 44.2553 21.3348C44.2553 21.3348 44.2553 21.3348 44.2646 21.3255C44.3113 21.2883 44.3486 21.2419 44.3952 21.2048C44.4046 21.2048 44.4139 21.1955 44.4232 21.1955C44.4419 21.1955 44.4512 21.177 44.4699 21.1677C44.4699 21.1677 44.4792 21.1677 44.4885 21.1677C44.5072 21.1584 44.5352 21.1491 44.5631 21.1491C44.6564 21.1491 44.7404 21.1399 44.8337 21.1491C44.8989 21.1491 44.9642 21.1491 45.0202 21.1306C45.4307 21.0563 45.7665 20.7222 45.8597 20.3232C45.8784 20.2489 45.8877 20.1747 45.8877 20.1004C45.8877 19.5158 45.4027 19.0796 44.8337 19.0518C44.759 19.0518 44.6844 19.0518 44.6098 19.0518C43.8262 19.0889 43.0986 19.4323 42.6042 20.0633C42.0912 20.7222 41.8953 21.5111 41.7927 22.3185C41.6061 23.859 41.9233 25.446 42.7255 26.7824C43.3878 27.8868 44.3393 28.8241 45.5799 29.2324C46.009 29.3716 46.4754 29.1582 46.7273 28.7962C46.3448 28.6199 45.981 28.4436 45.6265 28.2673C45.981 28.4436 46.3355 28.6199 46.7273 28.7962C46.7646 28.7498 46.7926 28.6942 46.8205 28.6385C46.8205 28.7034 46.8205 28.7684 46.8299 28.8426C46.9231 30.8008 47.0817 32.759 47.6974 34.6244C48.0985 35.8401 48.7328 36.9352 49.5257 37.9004C49.5164 38.1881 49.4977 38.4851 49.4697 38.7727C49.4604 38.8656 49.4511 38.9584 49.4417 39.0512C49.4417 39.0697 49.4417 39.079 49.4417 39.0883C49.4417 39.0883 49.4417 39.0883 49.4417 39.0976C49.4138 39.2461 49.3951 39.4038 49.3671 39.5523C49.2738 40.1277 49.1432 40.6938 49.0033 41.2599C48.9194 41.6033 48.8261 41.9467 48.7235 42.29C48.1731 42.0116 47.6228 41.7239 47.0911 41.427C46.6246 41.1671 45.9064 41.2878 45.6545 41.7982C45.4213 42.2715 45.1881 42.7448 44.9549 43.2181C44.6937 43.7564 44.4325 44.3039 44.1714 44.8422C44.0128 45.1763 43.8729 45.5475 43.677 45.863C43.5184 46.1229 43.2759 46.3456 43.0427 46.5591C41.1304 48.3502 38.7144 49.6123 36.3357 50.6889C35.1417 51.2271 33.9291 51.7097 32.6978 52.1459C31.4198 52.6099 30.2258 53.0925 29.1344 53.937C27.1569 55.4683 25.8789 57.742 25.5525 60.2106C25.3846 61.5006 25.5711 62.7164 25.7857 63.9785C25.9815 65.1386 26.1495 66.3079 26.308 67.4865C26.6718 70.2428 26.961 73.0084 27.2502 75.7647C27.8285 81.2587 28.3322 86.7806 29.3117 92.219C29.6662 94.1957 30.3751 95.9033 31.7556 97.3975C32.7071 98.4183 33.8638 99.235 35.1324 99.8289C35.5895 100.042 36.0559 100.228 36.5316 100.386C40.3282 101.639 44.5538 100.673 46.9511 97.3789C47.772 96.256 48.369 94.9103 48.966 93.6574C49.1059 93.3697 49.2365 93.0728 49.3671 92.7758C49.9081 91.6065 50.4305 90.4371 50.9436 89.2492C51.4566 88.052 51.951 86.8549 52.4454 85.6577C52.9584 86.1217 53.4528 86.595 54.0125 87.0219C54.964 87.7458 56.0647 88.284 57.24 88.5253C57.4732 88.5717 57.7158 88.5439 57.9303 88.4604C58.0889 90.103 58.1542 91.9034 57.9023 93.4533C57.7811 94.2328 57.5572 95.133 57.2587 95.7363C57.1654 95.9219 57.0721 96.0982 56.9602 96.2745C56.8576 96.4416 56.8016 96.5158 56.7363 96.5808C56.7083 96.6179 56.6803 96.6365 56.6524 96.6643C56.5031 96.5901 56.3445 96.5344 56.158 96.5158C56.158 96.5158 56.1393 96.5158 56.1113 96.5158C56.074 96.5158 55.9994 96.4973 55.9807 96.4973C55.8501 96.4787 55.7289 96.4509 55.5983 96.423C55.3558 96.3673 55.1132 96.2931 54.88 96.2188C54.7681 96.1817 54.6561 96.1353 54.5442 96.0889C54.5442 96.0889 54.5442 96.0889 54.5349 96.0889C54.5256 96.0889 54.5162 96.0889 54.5069 96.0704C54.4603 96.0518 54.4136 96.0239 54.3576 96.0054C54.1151 95.894 53.8726 95.7641 53.6487 95.6249C53.5461 95.5599 53.4435 95.495 53.3409 95.43C53.2849 95.3929 53.2289 95.3558 53.173 95.3186C53.1543 95.3094 53.089 95.2537 53.061 95.2351C53.0331 95.2166 53.0051 95.1887 53.0051 95.1887C52.9584 95.1423 52.9025 95.1052 52.8558 95.0588C52.7625 94.9845 52.6786 94.901 52.5946 94.8175C52.5014 94.7247 52.4081 94.6319 52.3241 94.5298C52.2775 94.4834 52.2402 94.4277 52.1935 94.3813C52.1749 94.3627 52.1562 94.3442 52.1469 94.3256C52.1002 94.2699 52.1096 94.2885 52.1935 94.3813C52.1376 94.3813 52.0256 94.1493 51.9976 94.1029C51.923 93.9823 51.8484 93.8709 51.7831 93.741C51.5126 93.2677 50.813 93.0635 50.3466 93.3697C50.2066 93.4533 50.104 93.5646 50.0201 93.6946C49.8055 94.0194 49.7682 94.437 49.9734 94.7989C51.1115 96.8314 53.3129 98.1492 55.589 98.539C55.6356 98.641 55.6916 98.7339 55.7569 98.8081C55.9341 99.1236 56.2886 99.3092 56.671 99.3556C60.3183 99.7361 63.9656 100.07 67.6129 100.395C70.6539 100.664 73.6948 100.905 76.7358 101.119C78.107 101.212 79.4782 101.295 80.8588 101.36C82.3326 101.425 83.7692 101.462 85.1684 100.896C86.7075 100.265 88.0228 99.1422 88.8157 97.6759C89.6365 96.1632 89.7018 94.5948 89.7112 92.9243C89.7392 89.4998 89.7858 86.0753 89.8511 82.6601C89.9164 79.05 90.0097 75.4399 90.1123 71.8391C90.1589 70.2335 90.2149 68.628 90.2709 67.0318C90.3362 65.4448 90.4015 63.9043 90.1309 62.3266L90.1682 62.3359ZM71.1389 45.7424C71.1389 45.7424 71.0923 45.7702 71.0456 45.7702C71.0923 45.7609 71.1389 45.7517 71.1389 45.7424ZM70.6445 45.4825C70.6445 45.566 70.6259 45.5568 70.6445 45.4825ZM70.4393 45.3897C70.4113 45.334 70.402 45.3248 70.4393 45.3897ZM68.3685 44.3225C68.3685 44.3225 68.3218 44.3782 68.2472 44.4617C68.2845 44.4153 68.3218 44.3689 68.3685 44.3225ZM68.9934 34.4945C68.9934 34.4945 68.9934 34.4945 68.9934 34.4852C68.9934 34.4852 68.9934 34.4852 69.0028 34.4945H68.9934ZM68.9561 34.4295C68.9561 34.4295 68.9561 34.4295 68.9561 34.4388V34.4202V34.4295ZM68.9561 34.4573V34.4759C68.9468 34.4481 68.9468 34.4295 68.9561 34.4573ZM68.0606 34.8471C68.0047 34.8842 67.958 34.9399 68.0606 34.8471ZM52.6786 37.9746L52.6599 37.9561C52.6599 37.9561 52.6599 37.9561 52.6786 37.9746ZM50.9622 42.2993C51.1488 42.7355 51.3353 43.1717 51.5032 43.6172C51.2234 43.4965 50.9529 43.3666 50.673 43.2367C50.7757 42.9304 50.8689 42.6149 50.9622 42.2993ZM44.6191 21.1491C44.731 21.1491 44.6844 21.1491 44.6191 21.1491ZM44.4325 21.2141C44.3579 21.2512 44.2833 21.3533 44.4325 21.2141ZM43.9288 22.402C43.9382 22.3278 43.9288 22.3463 43.9288 22.402Z" fill="#323232"/>
<path d="M79.7114 118.074C79.1891 117.768 78.6014 117.991 78.2749 118.445C75.122 122.891 69.6278 125.22 64.3947 126.148C61.7362 126.622 58.9751 126.714 56.2886 126.38C53.3502 126.018 50.4958 124.877 48.0052 123.216C45.0762 121.267 42.6229 118.64 40.7106 115.717C40.1696 114.9 39.0596 115.234 38.789 115.921C38.5838 116.116 38.4532 116.394 38.4252 116.701C38.4252 116.775 38.4159 116.849 38.4066 116.914C38.4066 116.951 38.4066 116.988 38.3973 117.026C38.4066 116.951 38.4066 116.951 38.3973 117.026C38.3786 117.183 38.3506 117.332 38.3133 117.49C38.248 117.833 38.1641 118.176 38.0708 118.52C37.8749 119.271 37.6324 120.014 37.3712 120.747C37.2126 121.183 37.054 121.619 36.8954 122.056C36.5037 117.592 36.2798 113.1 36.2425 108.627C36.2238 106.297 36.2704 103.968 36.4384 101.648C36.4757 101.082 35.9253 100.599 35.3843 100.599C35.3097 100.599 35.2444 100.599 35.1791 100.618C34.694 100.71 34.3675 101.147 34.3395 101.639C33.8078 109.044 34.2929 116.552 34.9832 123.93C35.0391 124.552 35.1044 125.165 35.1697 125.786C35.235 126.343 35.6082 126.835 36.2238 126.835C36.6342 126.835 37.0913 126.529 37.2312 126.12C37.2965 126.093 37.3525 126.065 37.4085 126.028C37.623 125.888 37.8003 125.675 37.8935 125.415C38.6771 123.178 39.7032 120.96 40.2349 118.631C43.8729 123.392 48.9753 127.262 54.9826 128.283C57.3706 128.691 59.8332 128.765 62.2679 128.552C62.9675 128.487 63.6764 128.403 64.376 128.292C67.2025 127.837 69.9636 126.983 72.5101 125.749C75.5045 124.301 78.1816 122.223 80.1125 119.503C80.1965 119.383 80.2431 119.244 80.2525 119.104C79.6555 119.8 79.0585 120.487 78.4615 121.072C79.0585 120.478 79.6555 119.791 80.2525 119.104C80.2898 118.705 80.0752 118.269 79.7301 118.074H79.7114Z" fill="#323232"/>
<path d="M83.0323 104.998C83.0323 104.376 83.0136 103.745 83.0043 103.124C82.9856 101.778 80.8868 101.778 80.9055 103.124C80.9708 107.541 81.0267 111.959 81.092 116.376C81.092 116.951 81.1107 117.527 81.12 118.093C81.4931 117.675 81.8663 117.267 82.2301 116.896C81.8569 117.267 81.4838 117.675 81.12 118.093C81.12 118.149 81.12 118.195 81.12 118.251C81.12 118.863 81.5678 119.197 82.0435 119.253C82.6125 119.318 83.2282 118.984 83.2188 118.251C83.1535 113.833 83.0976 109.416 83.0323 104.998Z" fill="#323232"/>
<path d="M61.2231 139.893C61.3724 139.438 61.3071 139.039 61.1392 138.677C61.1392 138.695 61.1205 138.705 61.1112 138.723C60.878 139.169 60.9526 139.92 61.4843 140.152C62.016 140.375 62.5477 140.607 63.0794 140.83C62.9208 140.514 62.7249 140.199 62.4824 139.902C62.0626 141.155 61.6429 139.067 61.2231 139.902V139.893Z" fill="#323232"/>
<path d="M68.9748 141.053C66.8293 140.143 64.6838 139.243 62.5384 138.334C62.0533 138.129 61.4283 138.167 61.1298 138.668C61.2977 139.03 61.3724 139.429 61.2138 139.883C61.6335 139.048 62.0533 141.136 62.4731 139.883C62.7156 140.18 62.9115 140.496 63.0701 140.811C64.6838 141.489 66.2976 142.176 67.902 142.853C68.4057 143.067 69.0494 143.02 69.3386 142.482C69.5718 142.036 69.4971 141.285 68.9654 141.053H68.9748Z" fill="#323232"/>
<path d="M82.3047 69.9365C83.8904 67.4122 85.4669 64.8787 87.0527 62.3544C87.3512 61.8718 87.1553 61.2036 86.6795 60.9252C86.1758 60.6282 85.5415 60.8231 85.243 61.2964C83.6572 63.8207 82.0808 66.3543 80.495 68.8786C80.1965 69.3611 80.3924 70.0293 80.8681 70.3078C81.3719 70.6047 82.0062 70.4098 82.3047 69.9365Z" fill="#323232"/>
<path d="M39.2555 69.7788C39.6472 69.389 39.6752 68.6837 39.2555 68.3032C36.7089 65.9459 34.1623 63.5887 31.6157 61.2315C31.196 60.851 30.543 60.8231 30.1326 61.2315C29.7221 61.6398 29.7128 62.3265 30.1326 62.707C32.6791 65.0643 35.2257 67.4215 37.7723 69.7788C38.192 70.1593 38.845 70.1871 39.2555 69.7788Z" fill="#323232"/>
<path d="M62.4078 83.3839C62.6037 77.9177 62.9302 72.433 62.7996 66.9575C62.7716 65.6118 60.6635 65.6118 60.7008 66.9575C60.8314 72.433 60.5049 77.9177 60.309 83.3839C60.2624 84.7296 62.3612 84.7296 62.4078 83.3839Z" fill="#323232"/>
<path d="M62.5477 102.14C62.5291 100.794 60.4303 100.794 60.4489 102.14C60.4769 104.571 60.5049 107.003 60.5329 109.434C60.5795 113.304 60.6168 117.183 60.6635 121.053C60.6728 121.935 60.6821 122.826 60.6914 123.717C60.7101 125.062 62.8089 125.062 62.7903 123.717C62.7623 121.285 62.7343 118.854 62.7063 116.422C62.6597 112.552 62.6224 108.673 62.5757 104.803C62.5664 103.912 62.5571 103.031 62.5477 102.14Z" fill="#323232"/>
</svg>
