<svg width="164" height="213" viewBox="0 0 164 213" fill="none" xmlns="http://www.w3.org/2000/svg">
<path d="M100.981 167.287C100.593 167.462 100.23 167.668 99.8795 167.906V166.662C100.249 166.868 100.612 167.075 100.981 167.287Z" fill="#FFD151"/>
<path d="M37.9577 202.156C25.9627 195.098 13.974 188.045 1.97906 180.986V179.017C3.53164 178.21 5.05917 177.341 6.58672 176.472C6.61176 177.472 6.54289 178.485 6.58672 179.479C6.64932 180.161 7.08754 180.367 7.59464 180.661C13.3793 183.925 19.07 187.413 24.9047 190.571C25.0737 190.952 25.4181 191.127 25.8125 191.352C27.7094 192.447 29.6 193.534 31.4969 194.629C35.2657 196.804 39.0407 198.98 42.8095 201.15C43.11 201.325 43.4919 201.325 43.7924 201.15C48.206 198.693 52.5445 196.11 56.9143 193.584C58.3479 192.759 59.913 192.021 61.2715 191.071C61.572 190.858 61.6972 190.627 61.7535 190.365C62.2168 190.727 62.7928 190.696 63.2561 190.346C67.5758 187.951 71.8203 185.406 76.1024 182.937C77.5361 182.111 79.1012 181.374 80.4597 180.423C80.804 180.186 80.923 179.917 80.9668 179.61C81.3737 179.823 81.812 179.667 82.1625 179.423C87.221 176.647 92.1103 173.583 97.1813 170.82C96.2673 172.339 95.6475 173.896 95.5724 175.734C81.3299 183.574 67.0874 191.409 52.845 199.249C51.2736 199.38 49.9151 200.349 48.8446 201.45C46.7661 202.594 44.6876 203.738 42.6092 204.882C41.0628 203.97 39.5103 203.063 37.9639 202.15L37.9577 202.156Z" fill="#FFD151"/>
<path d="M0.0382767 178.385C0.0320206 178.085 0.169754 177.785 0.514076 177.591C2.53619 176.465 4.55832 175.346 6.58669 174.221C6.58669 162.36 6.58669 150.499 6.58669 138.639C6.57417 131.924 6.59296 125.203 6.58669 118.481C6.58669 117.912 6.56793 117.456 7.11259 117.074C12.8096 113.729 18.5629 110.428 24.3162 107.158C24.5478 107.021 24.8233 106.852 25.08 106.864C25.3241 106.846 25.5996 107.002 25.8187 107.133C25.8751 106.871 26.0003 106.639 26.3008 106.427C27.6593 105.483 29.2244 104.745 30.658 103.913C34.9401 101.444 39.1847 98.899 43.5044 96.5043C43.7361 96.3668 44.0115 96.1917 44.2682 96.2105C44.4059 96.2105 44.5499 96.2417 44.7001 96.3167C44.744 96.0104 44.8629 95.7415 45.2072 95.5039C46.5657 94.5598 48.1309 93.8221 49.5645 92.9905C53.8466 90.5208 58.0912 87.9761 62.4109 85.5815C62.6425 85.4439 62.918 85.2689 63.1747 85.2876C63.3312 85.2876 63.5002 85.3189 63.6755 85.4189C64.7084 86.0129 65.7414 86.6069 66.7681 87.2008V80.836C66.7681 80.4921 66.7556 80.1419 66.7681 79.7981C66.8495 78.0474 68.5899 77.1533 70.0987 77.9661C81.0419 84.2622 91.9601 90.6084 102.897 96.9107C104.506 97.8423 106.14 98.6239 106.177 100.812C106.177 122.126 106.177 143.441 106.177 164.761C106.177 166.012 104.23 166.012 104.23 164.761V102.538C104.23 101.481 104.487 100.168 103.473 99.5117C101.97 98.5363 100.349 97.7048 98.7964 96.8107C88.9363 91.1211 79.0824 85.4127 69.2222 79.7293C68.9154 79.5792 68.7527 79.5855 68.7088 79.9544C68.5461 82.7304 68.7902 85.5565 68.7088 88.345C72.6905 90.6396 76.6784 92.9405 80.66 95.2351C81.0481 95.4602 81.3925 95.6352 81.5678 96.0104C87.3962 99.1803 93.0932 102.657 98.8841 105.927C99.3974 106.22 99.8294 106.427 99.892 107.115C99.8983 113.898 99.892 120.695 99.892 127.485C99.8983 139.795 99.892 152.113 99.892 164.43C101.795 165.505 103.692 166.58 105.595 167.662C106.328 168.094 106.015 169.063 106.077 169.763C106.152 170.138 106.196 170.526 106.203 170.913C106.171 173.471 104.932 176.022 103.166 177.841C101.182 180.023 97.2752 181.261 95.8916 177.791C82.3754 185.231 68.8591 192.665 55.3366 200.106C56.188 200.925 56.501 202.125 56.5136 203.294C56.4823 205.851 55.2427 208.402 53.4773 210.222C51.9873 211.76 49.3454 213.254 47.3358 211.729C45.2886 210.153 45.7331 206.971 46.6409 204.889C45.7456 205.382 44.8504 205.87 43.9552 206.364C43.3541 206.695 42.7845 207.152 42.0833 206.827C28.711 198.968 15.345 191.083 1.97277 183.224C1.27786 182.812 0.138451 182.405 0.044548 181.511C-0.0556183 180.492 0.044548 179.41 0.044548 178.385H0.0382767ZM48.8383 201.456C49.9088 200.356 51.2673 199.387 52.8387 199.255C67.0812 191.415 81.3236 183.581 95.5661 175.74C95.6412 173.902 96.261 172.345 97.175 170.826C92.1041 173.589 87.2147 176.653 82.1563 179.429C81.8057 179.673 81.3674 179.829 80.9605 179.617C80.9167 179.923 80.7977 180.192 80.4534 180.429C79.0949 181.374 77.5298 182.111 76.0962 182.943C71.814 185.413 67.5695 187.957 63.2498 190.352C62.7928 190.702 62.2105 190.74 61.7473 190.371C61.6909 190.633 61.5657 190.865 61.2652 191.077C59.9067 192.021 58.3416 192.759 56.908 193.591C52.5382 196.117 48.1934 198.705 43.7861 201.156C43.4856 201.331 43.1037 201.331 42.8032 201.156C39.0344 198.98 35.2594 196.804 31.4907 194.635C29.5938 193.541 27.7031 192.453 25.8062 191.359C25.4118 191.133 25.0675 190.958 24.8984 190.577C19.0637 187.426 13.373 183.937 7.58835 180.667C7.07499 180.373 6.64303 180.167 6.58043 179.479C6.53661 178.479 6.60547 177.472 6.58043 176.472C5.05914 177.341 3.52535 178.204 1.97277 179.016V180.986C15.5141 188.951 29.0554 196.923 42.5966 204.889C44.6751 203.744 46.7535 202.6 48.832 201.456H48.8383ZM48.3062 210.009C49.3829 211.085 51.067 209.834 51.9309 209.009C53.4272 207.546 54.5227 205.414 54.5478 203.3C54.5227 202.6 54.4539 201.856 53.8466 201.381C53.9843 201.487 53.5086 201.218 53.6776 201.287C50.3471 200.431 46.4343 207.402 48.2999 210.009H48.3062ZM97.9951 177.622C99.0719 178.698 100.756 177.447 101.62 176.622C103.116 175.159 104.212 173.027 104.237 170.913C104.212 170.213 104.143 169.469 103.536 168.994C103.673 169.1 103.198 168.831 103.367 168.9C100.036 168.044 96.1232 175.015 97.9888 177.622H97.9951ZM100.981 167.287C100.612 167.081 100.249 166.868 99.8795 166.662V167.906C100.23 167.668 100.593 167.462 100.981 167.287ZM97.9325 109.609V107.627C96.5615 106.839 95.1967 106.052 93.8257 105.258C88.2163 108.596 82.4568 111.735 76.7973 115.011C77.8553 115.618 78.9071 116.23 79.9651 116.837C80.4785 117.131 80.9104 117.337 80.973 118.019C80.9855 124.19 80.9668 130.367 80.973 136.538C81.1108 136.613 81.2422 136.694 81.38 136.769C86.8954 133.587 92.4108 130.411 97.9262 127.228V109.597L97.9325 109.609ZM81.3862 98.0862C75.8708 101.269 70.3553 104.445 64.8399 107.627V108.115C66.0231 108.796 67.2126 109.484 68.3958 110.166C68.6775 109.603 69.3912 109.397 69.8983 109.078C74.9881 106.139 80.0778 103.207 85.1738 100.268C83.9154 99.5429 82.6508 98.8114 81.3925 98.0862H81.3862ZM75.6141 94.5723C70.0048 97.9111 64.2452 101.05 58.5858 104.326C59.6438 104.932 60.6955 105.545 61.7535 106.152C62.1417 106.377 62.486 106.552 62.6613 106.927C62.7427 106.946 62.8303 106.971 62.918 107.014C62.9618 106.708 63.0807 106.439 63.425 106.202C64.7836 105.258 66.3487 104.52 67.7823 103.688C71.7201 101.419 75.6329 99.0865 79.5957 96.8607C78.2685 96.0979 76.9476 95.3351 75.6204 94.5661L75.6141 94.5723ZM44.2682 98.3175C38.7527 101.5 33.2373 104.676 27.7219 107.859V108.234C28.9239 108.928 30.1259 109.622 31.3279 110.309C31.6347 109.803 32.2983 109.609 32.7803 109.303C37.87 106.364 42.966 103.432 48.0557 100.493C46.7974 99.768 45.5328 99.0365 44.2744 98.3112L44.2682 98.3175ZM26.7515 189.645C32.267 192.828 37.7824 196.004 43.2978 199.186C48.8132 196.004 54.3287 192.828 59.8441 189.645V171.489C54.5165 174.396 49.3767 177.591 44.0616 180.523C43.6922 180.78 43.2164 180.942 42.8032 180.686C41.3633 179.854 39.9172 179.023 38.4773 178.191V183.799C38.4773 184.55 37.6572 184.987 37.0123 184.637C34.89 183.481 32.7678 182.318 30.6455 181.161C30.345 180.998 30.1635 180.655 30.1635 180.323C30.1572 178.01 30.1822 175.703 30.1447 173.389C29.0115 172.733 27.8784 172.083 26.7453 171.426V189.652L26.7515 189.645ZM62.486 188.545C68.0014 185.363 73.5169 182.186 79.0323 179.004V160.847C73.7047 163.754 68.5649 166.949 63.2498 169.882C62.8115 170.207 62.2481 170.282 61.8036 169.932C61.7786 176.003 61.8036 182.074 61.7974 188.151C62.029 188.282 62.2543 188.414 62.486 188.545ZM13.8989 128.21C15.3701 129.016 16.8475 129.817 18.3187 130.623V125.459C18.3187 125.121 18.5065 124.79 18.8008 124.621C24.1785 121.557 29.5624 118.488 34.9401 115.424C33.4314 114.449 31.9226 113.473 30.4201 112.498C24.9109 115.674 19.408 118.85 13.8989 122.026V128.216V128.21ZM71.9079 110.166C71.3382 110.491 70.7748 110.822 70.2051 111.147V111.21C71.7702 112.11 73.3353 113.01 74.8941 113.917C80.2844 110.71 85.8123 107.696 91.2464 104.551C89.7376 103.576 88.2289 102.6 86.7264 101.625C81.7869 104.476 76.8474 107.321 71.9079 110.172V110.166ZM32.1167 179.742C33.5879 180.548 35.0654 181.349 36.5366 182.155V177.066C35.0654 176.215 33.5879 175.365 32.1167 174.515V179.742ZM28.4543 128.21C27.8846 128.535 27.3212 128.866 26.7515 129.192V148.799C32.267 151.981 37.7824 155.157 43.2978 158.34C48.8132 155.157 54.3287 151.981 59.8441 148.799V129.192C58.4731 128.404 57.1083 127.616 55.7373 126.822C50.0465 130.204 44.2118 133.393 38.4773 136.707V142.947C38.4773 143.697 37.6572 144.135 37.0123 143.784C34.89 142.628 32.7678 141.465 30.6455 140.308C30.345 140.146 30.1635 139.802 30.1635 139.47V133.349C30.1635 132.624 29.9944 131.767 30.6706 131.292C36.1359 128.135 41.6137 124.99 47.0791 121.833C45.8208 121.107 44.5562 120.376 43.2978 119.65C38.3521 122.502 33.4001 125.359 28.4543 128.21ZM41.6075 177.741C42.1709 178.066 42.7344 178.391 43.2978 178.716C48.8132 175.534 54.3287 172.358 59.8441 169.175V151.112C54.5165 154.02 49.3767 157.215 44.0616 160.147C43.6922 160.403 43.2164 160.566 42.8032 160.309C41.3633 159.478 39.9172 158.646 38.4773 157.815V163.329C38.4773 164.08 37.6572 164.517 37.0123 164.167C34.89 163.01 32.7678 161.847 30.6455 160.691C30.345 160.528 30.1635 160.184 30.1635 159.853C30.1509 157.571 30.1885 155.295 30.1447 153.013C29.0115 152.356 27.8784 151.706 26.7453 151.05V169.181C31.6973 172.039 36.6492 174.89 41.6012 177.747L41.6075 177.741ZM62.486 168.075C68.0014 164.892 73.5169 161.716 79.0323 158.534V140.471C73.7047 143.378 68.5649 146.573 63.2498 149.505C62.8178 149.83 62.2544 149.906 61.8036 149.555C61.7723 155.595 61.8036 161.635 61.7911 167.681C62.0227 167.812 62.2481 167.944 62.4798 168.075H62.486ZM79.0323 120.526V118.544C77.6613 117.756 76.2965 116.968 74.9255 116.174C69.3474 119.494 63.6254 122.62 57.9973 125.872C58.9301 126.409 59.8566 126.947 60.7894 127.478C61.3028 127.772 61.7347 127.979 61.7974 128.666C61.8099 134.875 61.7911 141.09 61.7974 147.298C62.029 147.43 62.2543 147.561 62.486 147.692C68.0014 144.51 73.5169 141.334 79.0323 138.151V120.52V120.526ZM62.486 109.003C56.9706 112.185 51.4551 115.361 45.9397 118.544V118.919C47.1417 119.613 48.3437 120.307 49.5457 120.995C49.8525 120.488 50.5161 120.294 50.9981 119.988C56.0878 117.049 61.1776 114.117 66.2736 111.179C65.0152 110.453 63.7506 109.722 62.4922 108.996L62.486 109.003ZM32.1167 132.705V138.895C33.5879 139.702 35.0654 140.502 36.5366 141.309V136.144C36.5366 135.806 36.7243 135.475 37.0186 135.306C42.3963 132.243 47.7803 129.173 53.158 126.109C51.6492 125.134 50.1404 124.158 48.6379 123.183C43.1288 126.359 37.6259 129.535 32.1167 132.712V132.705ZM56.2005 124.665C61.5782 121.601 66.9622 118.531 72.3399 115.468C70.8312 114.492 69.3224 113.517 67.8199 112.542C62.3295 115.711 56.8328 118.875 51.3424 122.045C52.9201 122.952 54.4914 123.865 56.069 124.771C56.1129 124.734 56.1504 124.696 56.2005 124.671V124.665ZM36.5366 156.689C35.0654 155.839 33.5879 154.989 32.1167 154.138V159.272C33.5879 160.078 35.0654 160.885 36.5366 161.685V156.683V156.689ZM43.4731 117.568C43.6672 117.593 43.855 117.725 44.0303 117.825C44.0866 117.562 44.2118 117.331 44.5123 117.118C45.8708 116.174 47.4359 115.436 48.8696 114.605C52.8074 112.335 56.7202 110.003 60.683 107.777C59.3558 107.014 58.0348 106.252 56.7076 105.483C51.1296 108.803 45.4076 111.929 39.7795 115.18C40.7123 115.718 41.6388 116.255 42.5716 116.787C42.9597 117.012 43.3041 117.187 43.4794 117.562L43.4731 117.568ZM37.9827 113.973C43.3604 110.91 48.7444 107.84 54.1221 104.776L49.6021 101.85C44.1117 105.02 38.615 108.184 33.1246 111.354C34.7023 112.26 36.2736 113.173 37.8512 114.08C37.8951 114.042 37.9326 114.005 37.9827 113.98V113.973ZM51.981 100.518C53.5461 101.419 55.1112 102.319 56.6701 103.226C62.0603 100.018 67.5882 97.0045 73.0223 93.8596L68.5023 90.9335C62.9931 94.1097 57.4902 97.2859 51.981 100.462V100.525V100.518ZM13.8989 163.829V169.056C15.3701 169.863 16.8475 170.663 18.3187 171.47V166.38C16.8475 165.53 15.3701 164.68 13.8989 163.829ZM8.53368 158.49C13.9552 161.616 19.383 164.742 24.8045 167.875V149.712C23.2582 148.918 21.787 147.974 20.2657 147.129V152.644C20.2657 153.394 19.4456 153.832 18.8008 153.482C16.6785 152.325 14.5562 151.162 12.4339 150.006C12.1334 149.843 11.9519 149.499 11.9519 149.168C11.9394 146.886 11.9769 144.61 11.9331 142.328C10.7999 141.671 9.66681 141.021 8.53368 140.364V158.496V158.49ZM13.8989 143.453V148.586C15.3701 149.393 16.8475 150.193 18.3187 151V145.998C16.8475 145.147 15.3701 144.297 13.8989 143.447V143.453ZM95.0026 131.18C90.7205 133.649 86.4759 136.194 82.1563 138.589C81.8119 138.82 81.3925 138.983 80.9918 138.789C80.973 144.835 80.9918 150.881 80.9856 156.927C81.1233 157.002 81.2547 157.083 81.3925 157.158C86.9079 153.976 92.4233 150.8 97.9388 147.617V129.554C96.9684 130.117 95.9605 130.63 95.0026 131.18ZM8.53368 176.978V178.96C13.9552 182.086 19.383 185.212 24.8045 188.345V170.088C23.2582 169.294 21.787 168.35 20.2657 167.506V173.114C20.2657 173.864 19.4456 174.302 18.8008 173.952C16.6785 172.795 14.5562 171.632 12.4339 170.476C12.1334 170.313 11.9519 169.969 11.9519 169.638C11.9456 167.325 11.9706 165.017 11.9331 162.704C10.7999 162.048 9.66681 161.397 8.53368 160.741V176.984V176.978ZM8.53368 138.114C13.9552 141.24 19.383 144.366 24.8045 147.498V129.173C24.8045 128.604 24.7857 128.147 25.3304 127.766C30.6768 124.609 36.1109 121.532 41.5011 118.431C40.1739 117.668 38.8529 116.906 37.5257 116.137C31.835 119.519 26.0002 122.708 20.2657 126.022V132.261C20.2657 133.012 19.4456 133.449 18.8008 133.099C16.6785 131.943 14.5562 130.78 12.4339 129.623C12.1334 129.46 11.9519 129.117 11.9519 128.785V122.664C11.9519 121.939 11.7891 121.082 12.459 120.607C17.9243 117.45 23.4022 114.305 28.8676 111.147C27.6092 110.422 26.3446 109.69 25.0862 108.965C19.5708 112.148 14.0554 115.324 8.53994 118.506V138.114H8.53368ZM63.1684 87.4009C57.653 90.5834 52.1375 93.7595 46.6221 96.942V97.4297L50.178 99.4804C50.4597 98.9177 51.1734 98.7114 51.6805 98.3925C56.7702 95.4539 61.8599 92.5216 66.9559 89.583C65.6976 88.8577 64.433 88.1262 63.1747 87.4009H63.1684ZM97.9325 149.931C92.6049 152.838 87.4651 156.033 82.15 158.965C81.8057 159.196 81.38 159.359 80.9856 159.165C80.973 165.243 80.9856 171.32 80.9793 177.397C81.117 177.472 81.2485 177.553 81.3862 177.628C86.9016 174.446 92.4171 171.27 97.9325 168.087V149.931Z" fill="#232B65"/>
<path d="M97.9325 168.087C92.4171 171.27 86.9016 174.446 81.3862 177.628C81.2485 177.553 81.117 177.472 80.9793 177.397C80.9793 171.32 80.973 165.242 80.9855 159.165C81.3862 159.365 81.8057 159.203 82.15 158.965C87.4588 156.033 92.6049 152.844 97.9325 149.93V168.087Z" fill="white"/>
<path d="M97.9325 147.617C92.4171 150.8 86.9016 153.976 81.3862 157.158C81.2485 157.083 81.117 157.002 80.9793 156.927C80.9793 150.881 80.9668 144.835 80.9855 138.789C81.3862 138.983 81.8057 138.826 82.15 138.589C87.4588 135.656 92.6049 132.468 97.9325 129.554V147.617Z" fill="white"/>
<path d="M61.7974 187.088C61.7974 181.367 61.7849 175.646 61.8037 169.932C62.2544 170.282 62.8116 170.207 63.2498 169.882C68.5587 166.949 73.7047 163.761 79.0323 160.847V179.004C73.5169 182.186 68.0015 185.363 62.486 188.545C62.2544 188.414 62.029 188.282 61.7974 188.151V187.094V187.088Z" fill="white"/>
<path d="M61.7973 166.618C61.8035 160.928 61.7785 155.245 61.8098 149.555C62.2605 149.899 62.8177 149.831 63.256 149.505C68.5648 146.573 73.7108 143.384 79.0385 140.471V158.534C73.523 161.716 68.0076 164.892 62.4922 168.075C62.2605 167.944 62.0352 167.812 61.8035 167.681V166.624L61.7973 166.618Z" fill="white"/>
<path d="M8.53362 160.735C9.66675 161.391 10.7999 162.041 11.933 162.698C11.9706 165.011 11.9393 167.318 11.9518 169.632C11.9518 169.969 12.1334 170.307 12.4339 170.47C14.5562 171.626 16.6784 172.789 18.8007 173.946C19.4455 174.296 20.2656 173.858 20.2656 173.108V167.5C21.7869 168.344 23.2644 169.288 24.8044 170.082V188.339C19.3829 185.213 13.9551 182.086 8.53362 178.954V160.728V160.735Z" fill="white"/>
<path d="M18.3187 171.47C16.8475 170.663 15.3701 169.863 13.8989 169.056V163.829C15.3701 164.68 16.8475 165.53 18.3187 166.38V171.47Z" fill="#FFD151"/>
<path d="M26.7516 171.426C27.8848 172.083 29.0179 172.733 30.151 173.389C30.1886 175.703 30.1573 178.01 30.1698 180.323C30.1698 180.661 30.3513 180.998 30.6518 181.161C32.7741 182.318 34.8964 183.481 37.0187 184.637C37.6635 184.987 38.4836 184.55 38.4836 183.799V178.191C39.9235 179.023 41.3697 179.854 42.8096 180.686C43.229 180.942 43.6986 180.786 44.0679 180.523C49.3768 177.591 54.5228 174.402 59.8505 171.489V189.645C54.335 192.828 48.8196 196.004 43.3042 199.186C37.7887 196.004 32.2733 192.828 26.7579 189.645V171.42L26.7516 171.426Z" fill="white"/>
<path d="M36.5366 182.155C35.0654 181.349 33.588 180.548 32.1168 179.742V174.515C33.588 175.365 35.0654 176.215 36.5366 177.066V182.155Z" fill="#FFD151"/>
<path d="M8.53362 140.358C9.66675 141.015 10.7999 141.665 11.933 142.321C11.9706 144.604 11.933 146.879 11.9518 149.161C11.9518 149.499 12.1334 149.837 12.4339 149.999C14.5562 151.156 16.6784 152.319 18.8007 153.476C19.4455 153.826 20.2656 153.388 20.2656 152.638V147.123C21.7869 147.967 23.2644 148.911 24.8044 149.705V167.868C19.3829 164.742 13.9551 161.616 8.53362 158.484V140.352V140.358Z" fill="white"/>
<path d="M13.8989 148.58V143.447C15.3701 144.297 16.8475 145.148 18.3187 145.998V151C16.8475 150.193 15.3701 149.393 13.8989 148.586V148.58Z" fill="#FFD151"/>
<path d="M26.7516 169.175V151.043C27.8848 151.7 29.0179 152.35 30.151 153.007C30.1886 155.289 30.151 157.565 30.1698 159.847C30.1698 160.184 30.3513 160.522 30.6518 160.685C32.7741 161.841 34.8964 163.004 37.0187 164.161C37.6635 164.511 38.4836 164.073 38.4836 163.323V157.808C39.9235 158.64 41.3697 159.472 42.8096 160.303C43.229 160.56 43.6986 160.403 44.0679 160.141C49.3768 157.208 54.5228 154.02 59.8505 151.106V169.169C54.335 172.351 48.8196 175.528 43.3042 178.71C37.7887 175.528 32.2733 172.351 26.7579 169.169L26.7516 169.175Z" fill="white"/>
<path d="M32.1168 159.272V154.138C33.588 154.989 35.0654 155.839 36.5366 156.689V161.691C35.0654 160.885 33.588 160.078 32.1168 159.278V159.272Z" fill="#FFD151"/>
<path d="M67.7697 103.694C66.3361 104.52 64.771 105.257 63.4125 106.208C63.0682 106.445 62.9492 106.714 62.9054 107.021C62.8178 106.977 62.7363 106.952 62.6487 106.933C62.4797 106.558 62.1353 106.383 61.7409 106.158C60.6829 105.551 59.6312 104.939 58.5732 104.332C64.2326 101.062 69.9859 97.9172 75.6015 94.5785C76.9287 95.3413 78.2497 96.1041 79.5769 96.8731C75.6078 99.0989 71.7013 101.431 67.7635 103.701L67.7697 103.694Z" fill="white"/>
<path d="M66.9496 89.5829C61.8599 92.5215 56.7702 95.4539 51.6742 98.3925C51.1671 98.7114 50.4534 98.9177 50.1717 99.4804L46.6157 97.4296V96.9419C52.1312 93.7595 57.6466 90.5833 63.162 87.4009C64.4204 88.1261 65.685 88.8577 66.9434 89.5829H66.9496Z" fill="white"/>
<path d="M68.5022 90.9335L73.0222 93.8596C67.5882 97.0045 62.0602 100.018 56.67 103.226C55.1049 102.325 53.5398 101.425 51.9809 100.518V100.456C57.4901 97.2796 62.993 94.1034 68.5022 90.9272V90.9335Z" fill="#FFD151"/>
<path d="M85.1675 100.268C80.0778 103.207 74.9818 106.139 69.892 109.078C69.3849 109.397 68.6713 109.603 68.3896 110.166C67.2063 109.484 66.0168 108.797 64.8336 108.115V107.627C70.349 104.445 75.8645 101.269 81.3799 98.0863C82.6383 98.8116 83.9029 99.5431 85.1612 100.268H85.1675Z" fill="white"/>
<path d="M97.9325 127.241C92.417 130.423 86.9016 133.599 81.3861 136.782C81.2484 136.707 81.117 136.625 80.9792 136.55C80.973 130.379 80.9918 124.196 80.9792 118.031C80.9166 117.35 80.4784 117.143 79.9713 116.849C78.9133 116.243 77.8616 115.63 76.8035 115.024C82.463 111.754 88.2163 108.609 93.8319 105.27C95.2029 106.058 96.5677 106.846 97.9387 107.64V127.247L97.9325 127.241Z" fill="white"/>
<path d="M90.4701 104.989C85.2927 107.984 80.0277 110.853 74.8941 113.911C73.329 113.01 71.7639 112.11 70.2051 111.204V111.141C75.7142 107.965 81.2172 104.789 86.7263 101.612C88.2351 102.588 89.7438 103.563 91.2463 104.539C90.9897 104.689 90.7267 104.832 90.4701 104.982V104.989Z" fill="#FFD151"/>
<path d="M41.1255 114.423C46.3029 111.422 51.5804 108.559 56.714 105.489C58.0412 106.252 59.3621 107.014 60.6893 107.783C56.7202 110.009 52.8137 112.341 48.8759 114.611C47.4423 115.436 45.8772 116.174 44.5187 117.124C44.2182 117.337 44.093 117.568 44.0366 117.831C43.8613 117.731 43.6735 117.606 43.4794 117.575C43.3104 117.2 42.9661 117.024 42.5717 116.799C41.6389 116.262 40.7123 115.724 39.7795 115.193C40.2303 114.936 40.6748 114.68 41.1255 114.43V114.423Z" fill="white"/>
<path d="M45.9585 99.293C46.6534 99.6931 47.3545 100.1 48.0494 100.5C42.9597 103.438 37.87 106.371 32.774 109.309C32.292 109.616 31.6284 109.809 31.3216 110.316C30.1196 109.622 28.9176 108.928 27.7156 108.24V107.865C33.231 104.682 38.7465 101.506 44.2619 98.3239C44.8253 98.649 45.3888 98.9741 45.9522 99.2992L45.9585 99.293Z" fill="white"/>
<path d="M33.1246 111.347C38.615 108.177 44.1117 105.014 49.6021 101.844L54.1221 104.77C48.7068 107.884 43.2352 110.922 37.845 114.073C36.2673 113.167 34.696 112.254 33.1184 111.347H33.1246Z" fill="#FFD151"/>
<path d="M79.0323 138.157C73.5169 141.34 68.0015 144.516 62.486 147.698C62.2544 147.567 62.029 147.436 61.7974 147.305C61.7911 141.096 61.8099 134.881 61.7974 128.673C61.7348 127.991 61.2966 127.785 60.7895 127.485C59.8567 126.947 58.9301 126.409 57.9973 125.878C63.6254 122.627 69.3475 119.5 74.9255 116.18C76.2965 116.968 77.6613 117.756 79.0323 118.55V138.157Z" fill="white"/>
<path d="M64.1762 109.978C64.8711 110.378 65.5723 110.778 66.2672 111.185C61.1775 114.123 56.0878 117.056 50.9918 119.994C50.5097 120.301 49.8461 120.494 49.5393 121.001C48.3373 120.307 47.1353 119.613 45.9333 118.925V118.55C51.4488 115.368 56.9642 112.191 62.4797 109.009C63.0431 109.334 63.6065 109.659 64.1699 109.984L64.1762 109.978Z" fill="white"/>
<path d="M55.1049 124.208C53.8528 123.483 52.5944 122.764 51.3424 122.039C56.8328 118.869 62.3294 115.705 67.8198 112.535C69.3286 113.511 70.8373 114.486 72.3398 115.461C66.9246 118.575 61.453 121.614 56.0627 124.765C55.7435 124.577 55.4242 124.396 55.0986 124.208H55.1049Z" fill="#FFD151"/>
<path d="M8.53374 118.5C14.0492 115.318 19.5646 112.141 25.08 108.959C26.3384 109.684 27.603 110.416 28.8613 111.141C23.396 114.298 17.9119 117.443 12.4528 120.601C11.7829 121.076 11.9457 121.933 11.9457 122.658V128.779C11.9457 129.117 12.1272 129.454 12.4277 129.617C14.55 130.773 16.6723 131.936 18.7946 133.093C19.4394 133.443 20.2595 133.005 20.2595 132.255V126.015C26.0003 122.695 31.8288 119.513 37.5195 116.13C38.8467 116.893 40.1677 117.656 41.4949 118.425C36.1047 121.532 30.6706 124.602 25.3242 127.76C24.7795 128.141 24.7983 128.598 24.7983 129.167V147.492C19.3768 144.366 13.949 141.24 8.52747 138.107V118.5H8.53374Z" fill="white"/>
<path d="M30.4202 112.492C31.9289 113.467 33.4377 114.442 34.9402 115.418C29.5625 118.481 24.1785 121.551 18.8008 124.615C18.5066 124.784 18.3188 125.115 18.3188 125.453V130.617C16.8476 129.811 15.3701 129.01 13.8989 128.204V122.014C19.4081 118.838 24.911 115.662 30.4202 112.485V112.492Z" fill="#FFD151"/>
<path d="M43.3042 119.65C44.5625 120.376 45.8271 121.107 47.0855 121.832C41.6201 124.99 36.136 128.135 30.6769 131.292C30.007 131.767 30.1698 132.624 30.1698 133.349V139.47C30.1698 139.808 30.3513 140.146 30.6518 140.308C32.7741 141.465 34.8964 142.628 37.0187 143.784C37.6635 144.135 38.4836 143.697 38.4836 142.947V136.707C44.2244 133.387 50.0529 130.204 55.7436 126.822C57.1147 127.61 58.4794 128.397 59.8505 129.191V148.799C54.335 151.981 48.8196 155.157 43.3042 158.34C37.7887 155.157 32.2733 151.981 26.7579 148.799V129.191C32.2733 126.009 37.7887 122.833 43.3042 119.65Z" fill="white"/>
<path d="M33.8196 131.724C38.7591 128.873 43.6986 126.028 48.638 123.177C50.1468 124.152 51.6556 125.127 53.1581 126.103C47.7804 129.166 42.3964 132.236 37.0187 135.3C36.7245 135.469 36.5367 135.8 36.5367 136.138V141.302C35.0655 140.496 33.588 139.695 32.1168 138.889V132.699C32.6865 132.374 33.2499 132.043 33.8196 131.717V131.724Z" fill="#FFD151"/>
<path d="M98.2331 172.939C99.0344 171.17 101.144 168.3 103.373 168.894C103.204 168.825 103.68 169.094 103.542 168.988C104.149 169.463 104.218 170.207 104.243 170.907C104.218 173.021 103.116 175.153 101.626 176.616C100.762 177.447 99.072 178.698 98.0014 177.616C97.0999 176.378 97.6133 174.271 98.2393 172.933L98.2331 172.939Z" fill="white"/>
<path d="M48.5441 205.326C49.3454 203.557 51.4552 200.687 53.6839 201.281C53.5148 201.212 53.9906 201.481 53.8529 201.375C54.4602 201.85 54.529 202.594 54.5541 203.294C54.529 205.408 53.4272 207.54 51.9372 209.003C51.0733 209.834 49.383 211.085 48.3125 210.003C47.411 208.765 47.9243 206.658 48.5504 205.32L48.5441 205.326Z" fill="white"/>
<path d="M111.091 53.1849C111.097 53.6038 111.385 53.979 111.798 54.1165C113.407 54.6542 115.029 55.1607 116.631 55.7109C116.644 55.7421 116.656 55.7609 116.669 55.7734C116.7 55.8922 116.75 55.986 116.794 56.0985C116.713 56.5424 116.9 57.0051 117.476 57.1177C122.579 58.0868 127.624 59.3497 132.576 60.9003C133.084 63.7701 134.235 66.5149 135.463 69.1597C129.29 68.5094 123.117 67.7466 117.044 66.4586C114.69 65.9272 112.268 65.4208 110.089 64.3454C108.461 63.5826 108.211 62.8698 108.468 61.1317C108.718 58.3431 109.839 55.6796 111.091 53.1912V53.1849Z" fill="white"/>
<path d="M149.229 20.9168L149.216 20.9295C149.216 20.9295 149.21 20.9295 149.204 20.9295C149.204 20.9295 149.204 20.9295 149.198 20.9295C149.21 20.9231 149.223 20.9168 149.229 20.9105V20.9168Z" fill="white"/>
<path d="M150.65 23.0989C150.494 23.4615 150.294 23.7866 150.062 24.0992C149.768 24.4681 149.43 24.8182 149.06 25.1059C148.822 25.2809 148.584 25.4247 148.315 25.556C148.134 25.6373 147.965 25.6748 147.771 25.7123C147.132 25.6248 146.537 26.0124 146.525 26.6814C146.569 27.8506 148.008 27.7756 148.804 27.4442C148.81 28.282 148.822 29.1199 148.829 29.9514C146.462 31.6771 144.064 33.3965 141.454 34.7345C141.009 34.7157 140.546 34.972 140.427 35.4097C140.183 35.5223 139.964 35.6911 139.751 35.8536C139.989 34.4594 139.594 33.0588 139.45 31.6708C140.509 31.5395 141.535 31.2081 142.468 30.6392C143.539 29.9889 142.556 28.3071 141.485 28.9573C140.809 29.3699 140.058 29.6138 139.281 29.7201C139.119 28.0945 139.15 25.9562 137.165 25.5185C135.901 25.1996 134.48 25.8436 134.085 27.1316C133.472 26.125 132.583 24.9746 131.525 24.4931C131.143 22.3861 131.763 20.1915 132.226 18.1282C132.777 15.6586 133.484 13.2264 134.217 10.8068C135.794 11.1757 137.41 11.2757 138.837 11.9447C141.617 13.489 143.282 20.204 147.339 18.1658C147.207 18.791 147.076 19.4162 146.944 20.0477C146.719 20.8855 147.695 21.6296 148.428 21.1044C148.691 21.1544 148.966 21.0981 149.192 20.9293C149.198 20.9293 149.204 20.9293 149.21 20.923C149.21 20.923 149.217 20.923 149.223 20.923C149.223 20.923 149.223 20.923 149.236 20.923C149.317 20.9043 149.367 20.9043 149.417 20.8855C149.63 20.873 149.849 20.8605 150.062 20.8855C150.087 20.8855 150.137 20.9043 150.187 20.9168C150.187 20.9168 150.2 20.923 150.206 20.9293C150.294 20.9981 150.362 21.0794 150.438 21.1419C150.494 21.2419 150.582 21.3982 150.644 21.492C150.707 21.6921 150.776 21.9109 150.807 22.1297C150.819 22.2735 150.832 22.4361 150.807 22.5737C150.807 22.6049 150.801 22.6049 150.807 22.5737C150.807 22.5612 150.813 22.5424 150.826 22.5111C150.782 22.7175 150.744 22.8925 150.663 23.0989H150.65ZM135.162 14.5081C133.91 14.5081 133.91 16.4526 135.162 16.4526C136.414 16.4526 136.414 14.5081 135.162 14.5081ZM141.009 17.4968C139.757 17.4968 139.757 19.4412 141.009 19.4412C142.261 19.4412 142.261 17.4968 141.009 17.4968Z" fill="white"/>
<path d="M148.015 9.38748C145.748 7.45551 142.95 5.6861 139.951 5.12339C141.21 3.9542 142.618 2.86004 144.146 2.17229C146.581 1.20943 150.175 4.16053 151.965 5.6736C153.18 6.75525 154.313 7.93069 155.358 9.1749C156.084 10.0377 156.178 11.1882 156.228 12.2761C156.272 13.2889 156.253 14.4956 155.972 15.421C155.483 16.24 154.87 16.9841 154.356 17.7906C153.123 14.5144 150.632 11.6071 148.021 9.38748H148.015Z" fill="#FFD151"/>
<path d="M136.984 6.91773C142.606 6.54259 147.295 10.7567 150.569 14.927C149.192 15.1521 147.827 15.5585 146.65 16.315C146.306 16.5463 146.118 16.6901 145.886 16.6339C145.204 16.4713 144.571 15.6648 144.121 15.1145C142.787 13.5515 141.792 11.6445 140.089 10.4378C137.954 9.2186 135.325 9.31238 133.059 8.44331C134.179 7.94312 135.356 7.58048 136.527 7.21159C136.727 7.14907 136.877 7.04278 136.984 6.91773Z" fill="#FFD151"/>
<path d="M150.801 22.136C150.801 22.136 150.801 22.136 150.801 22.1423C150.813 22.237 150.801 22.1739 150.801 22.136Z" fill="white"/>
<path d="M149.16 18.9535C149.26 18.3533 149.467 17.7593 149.492 17.1591C150.225 16.9277 150.982 16.7964 151.721 16.7277C152.347 17.7093 152.56 18.8785 153.042 19.7225C152.823 20.0414 152.61 20.3603 152.391 20.6791C151.852 19.3349 150.563 18.7097 149.16 18.9535Z" fill="white"/>
<path d="M140.878 163.045C140.915 164.777 140.803 166.534 140.922 168.253C140.533 168.478 140.17 168.747 139.845 169.066C139.895 166.884 140.233 164.739 140.615 162.601C140.715 162.657 140.815 162.726 140.922 162.776C140.897 162.864 140.878 162.951 140.878 163.045Z" fill="#232B65"/>
<path d="M145.767 163.651C145.961 164.983 146.149 166.321 146.343 167.653C145.172 167.365 143.958 167.309 142.819 167.54V163.507C143.764 163.758 144.809 163.82 145.767 163.658V163.651Z" fill="white"/>
<path d="M128.05 70.2727C130.823 70.6353 133.603 70.9417 136.376 71.198C137.685 74.0553 139.669 77.4754 143.213 77.1502C145.723 76.9189 147.301 74.7431 148.997 73.1362C150.682 71.5482 152.522 69.9038 153.593 67.8093C154.438 65.8648 155.195 63.8703 156.341 62.0634C155.408 67.9218 154.087 73.7115 153.161 79.5637C152.891 82.6461 153.336 85.7597 153.311 88.8421C145.304 91.7995 136.195 93.7815 127.8 91.3305C127.055 84.3467 127.418 77.244 128.05 70.2664V70.2727Z" fill="#FFD151"/>
<path d="M147.414 92.7874C149.405 92.2809 151.358 91.6494 153.273 90.9304C153.261 91.1242 153.305 91.2931 153.38 91.4244C153.468 96.0448 152.485 100.647 151.921 105.211C149.974 122.992 151.583 140.918 150.312 158.731C149.154 159.919 147.814 161.057 146.23 161.532C146.656 147.37 146.725 133.202 146.256 119.047C146.199 114.545 146.468 110.138 147.001 105.673C147.508 101.391 147.495 97.0827 147.414 92.7811V92.7874Z" fill="white"/>
<path d="M125.778 90.5053C123.806 89.555 121.978 88.242 120.431 86.7414C120.632 80.8955 120.832 75.0495 121.032 69.2036C122.729 69.5037 124.425 69.7726 126.135 70.0164C125.515 76.8065 125.145 83.709 125.784 90.5116L125.778 90.5053Z" fill="#FFD151"/>
<path d="M150.488 170.11C149.918 169.397 149.192 168.853 148.384 168.428C148.19 166.646 147.877 164.877 147.639 163.095C148.221 162.845 148.772 162.532 149.304 162.17C149.805 164.796 150.663 167.422 150.488 170.11Z" fill="#232B65"/>
<path d="M145.198 169.372C147.145 169.654 149.192 170.773 149.755 172.773C147.908 176.85 141.053 176.494 140.07 171.998C140.233 171.873 140.364 171.692 140.446 171.485C141.172 169.672 143.369 169.097 145.198 169.372Z" fill="white"/>
<path d="M141.404 176.675C144.165 178.125 148.027 177.832 150.181 175.449C148.372 179.526 142.249 180.551 140.333 175.937C140.659 176.212 141.009 176.469 141.404 176.669V176.675Z" fill="white"/>
<path d="M149.128 20.967C149.128 20.967 149.16 20.948 149.192 20.9354C149.192 20.9354 149.185 20.9354 149.179 20.9417C149.147 20.9544 149.122 20.967 149.122 20.967H149.128Z" fill="white"/>
<path d="M117.439 158.681C121.896 158.512 126.047 156.436 130.028 154.623C131.312 154.004 132.808 153.748 133.929 152.847C133.979 154.56 133.209 154.848 131.719 155.261C128.97 156.155 126.222 157.055 123.474 157.949C121.37 158.543 115.924 160.856 114.703 158.18C115.523 158.531 116.462 158.706 117.439 158.681Z" fill="white"/>
<path d="M133.528 150.021C133.384 151.191 132.251 151.709 131.187 152.06C128.451 152.991 125.947 154.517 123.198 155.448C123.123 154.723 122.923 154.01 122.635 153.329C124.857 151.522 127.136 149.659 128.945 147.439C130.373 147.264 131.731 146.701 133.033 146.039C133.278 147.32 133.697 148.727 133.54 150.021H133.528Z" fill="#232B65"/>
<path d="M116.838 151.009C116.994 151.034 117.207 151.009 117.357 151.04C117.664 151.09 117.965 151.197 118.259 151.303C118.672 151.484 119.067 151.716 119.436 151.972C119.58 152.097 119.718 152.21 119.837 152.366C120.6 153.504 121.314 154.679 121.308 156.08C119.248 156.593 116.688 157.324 114.803 156.092C113.952 155.398 113.633 153.941 114.246 152.997C114.866 152.072 115.93 151.591 116.844 151.009H116.838Z" fill="white"/>
<path d="M133.891 143.369C130.842 145.119 127.756 146.858 124.763 143.994C123.386 125.8 121.946 107.587 120.575 89.3799C127.387 95.3634 137.109 94.982 145.479 93.2376C145.548 97.9893 145.435 102.672 144.834 107.393C143.714 116.215 144.565 125.193 144.64 134.053C144.759 143.3 144.427 152.553 144.321 161.794C142.474 161.726 140.84 160.625 139.582 159.35C139.457 159.225 139.325 159.15 139.187 159.106C137.691 142.956 136.715 126.694 134.229 110.663C133.922 109.337 133.096 108.137 132.576 106.886C131.894 105.23 131.268 103.541 130.698 101.841C130.304 100.659 128.426 101.166 128.82 102.36C129.797 105.198 130.824 108.043 132.22 110.7C132.965 113.814 133.196 116.928 133.572 120.135C134.242 126.131 134.83 132.14 135.381 138.154L134.743 143.338C134.492 143.219 134.198 143.206 133.885 143.375L133.891 143.369Z" fill="#FFD151"/>
<path d="M132.207 110.637C132.195 110.601 132.195 110.607 132.207 110.637V110.637Z" fill="white"/>
<path d="M123.737 145.67C124.582 146.351 125.509 146.926 126.523 147.239C125.001 148.802 123.38 150.284 121.677 151.628C121.095 150.684 120.156 150.009 119.142 149.59C120.788 148.471 122.61 147.339 123.737 145.67Z" fill="white"/>
<path d="M121.884 44.0817C123.561 44.4693 125.246 44.8507 126.923 45.2383C126.773 45.9011 126.623 46.5576 126.466 47.2203C124.789 46.8327 123.104 46.4513 121.427 46.0637C121.577 45.4009 121.727 44.7444 121.884 44.0817Z" fill="white"/>
<path d="M142.33 49.9775C142.261 49.8337 142.192 49.6837 142.117 49.5399C142.243 49.0022 142.361 48.4645 142.487 47.9268C144.521 48.3894 146.55 48.8584 148.584 49.321C148.434 49.9838 148.284 50.6403 148.127 51.303C146.193 50.8591 144.258 50.4152 142.33 49.9775Z" fill="white"/>
<path d="M127.387 40.2365C127.963 41.2306 128.789 42.1434 129.359 43.1125C129.622 44.7882 129.885 46.5013 130.304 48.1582C129.302 51.2218 128.801 54.4355 128.144 57.5867C125.684 56.9177 123.205 56.3175 120.707 55.7923C120.819 53.2226 121.345 50.6591 121.921 48.1707C123.593 48.5521 125.264 48.9335 126.936 49.3211C127.43 49.4337 128.013 49.171 128.132 48.6396C128.426 47.3454 128.726 46.0574 129.021 44.7632C129.133 44.2692 128.87 43.6877 128.338 43.569C128.044 43.5002 127.75 43.4377 127.462 43.3689C125.44 42.9062 123.424 42.4435 121.402 41.9809C120.907 41.8683 120.325 42.1309 120.206 42.6624C119.912 43.9566 119.611 45.2446 119.317 46.5388C119.167 47.0765 119.542 47.6955 120.112 47.7643C119.286 50.1589 119.004 52.7787 118.785 55.3046C118.703 55.2671 118.616 55.2421 118.522 55.2296C118.29 54.4293 117.664 53.9666 116.888 53.7415C115.36 53.2413 113.839 52.7411 112.312 52.2409C112.024 52.1472 111.723 52.2284 111.485 52.3973C112.9 49.6712 114.496 47.0515 115.88 44.3067C116.537 43 117.151 41.6557 117.639 40.274C118.09 39.0173 118.797 38.0481 119.655 37.0353C120.538 35.9911 121.37 35.2346 122.735 34.8845C123.555 34.6719 124.394 34.6031 125.239 34.5844C125.415 36.6164 126.26 38.4858 127.374 40.2302L127.387 40.2365Z" fill="#FFD151"/>
<path d="M147.871 33.0275C148.497 32.5899 149.116 32.1459 149.73 31.6958C149.937 31.7333 150.143 31.6708 150.312 31.5582C150.769 32.8962 151.114 34.303 151.639 35.6097C149.085 37.4292 146.525 39.2486 143.97 41.068C143.507 39.4862 143.038 37.9044 142.574 36.3163C144.44 35.4034 146.174 34.203 147.871 33.015V33.0275Z" fill="#FFD151"/>
<path d="M131.237 52.1971C131.744 54.3542 131.932 56.5863 132.226 58.7683C131.493 58.5433 130.761 58.3244 130.022 58.1119C130.423 56.1424 130.786 54.1604 131.237 52.1971Z" fill="#FFD151"/>
<path d="M116.619 55.674C116.619 55.674 116.587 55.6361 116.574 55.6172C116.587 55.6172 116.606 55.6487 116.619 55.674Z" fill="white"/>
<path d="M132.62 8.66211C132.62 8.66211 132.601 8.69366 132.589 8.68104C132.589 8.68104 132.608 8.67473 132.62 8.66211Z" fill="white"/>
<path d="M149.198 20.9354C149.198 20.9354 149.198 20.9354 149.204 20.9354C149.198 20.9354 149.192 20.9354 149.186 20.9415C149.186 20.9415 149.192 20.9415 149.198 20.9354Z" fill="#232B65"/>
<path d="M135.162 16.4525C133.91 16.4525 133.91 14.5081 135.162 14.5081C136.414 14.5081 136.414 16.4525 135.162 16.4525Z" fill="#232B65"/>
<path d="M141.009 19.4412C139.757 19.4412 139.757 17.4967 141.009 17.4967C142.261 17.4967 142.261 19.4412 141.009 19.4412Z" fill="#232B65"/>
<path d="M108.68 53.7352C110.07 50.6716 111.842 47.8018 113.426 44.8382C114.309 43.1938 115.147 41.5244 115.773 39.7675C116.318 38.242 117.119 37.0728 118.152 35.8348C119.179 34.6031 120.218 33.6527 121.783 33.1463C122.917 32.7837 124.119 32.6649 125.314 32.6461C125.565 30.958 126.786 29.5199 128.276 28.7634C128.031 27.3066 127.956 25.2246 129.546 24.5118C129.233 22.286 129.803 20.0602 130.279 17.8906C130.842 15.3209 131.569 12.795 132.339 10.2815C131.249 9.8376 130.423 9.13733 130.805 7.9744C131.155 6.9115 132.533 6.54887 133.459 6.19874C134.436 5.90488 135.437 5.35467 136.452 5.3109C136.639 5.07331 137.003 4.95452 137.341 4.96703C139.356 2.93502 141.71 0.796717 144.515 0.00266986C148.822 -0.116125 152.923 3.75407 155.734 6.67391C156.748 7.78058 157.637 8.75594 157.937 10.2628C158.338 12.3073 158.551 15.0708 157.324 16.8715L153.931 21.8671C153.624 22.3173 153.129 22.386 152.729 22.2297C152.748 23.7615 151.871 25.1933 150.725 26.225C150.732 27.0253 150.744 27.8193 150.75 28.6196C151.12 28.6321 151.483 28.8384 151.627 29.2949C152.184 31.0643 152.748 32.8337 153.305 34.6031C156.429 36.9477 159.628 39.1986 162.614 41.7183C163.09 42.1872 163.19 42.8187 163.309 43.4564C164.273 48.7646 161.5 53.654 158.808 58.0181C158.933 59.0747 158.576 60.3252 158.426 61.3068C157.53 67.084 156.003 74.1366 155.108 79.5699C154.895 83.3338 155.383 87.0915 155.22 90.8554C155.646 95.1132 154.563 99.4773 154.062 103.71C153.417 108.399 153.236 113.145 153.029 117.872C152.453 131.452 153.361 145.051 152.247 158.612C152.222 158.956 152.053 159.2 151.827 159.35C152.003 159.919 151.395 160.394 151.013 160.769C151.52 163.976 152.691 167.159 152.403 170.441C153.574 174.149 151.74 178.369 148.234 180.095C144.922 181.827 140.659 180.845 138.893 177.431C137.973 175.793 137.084 173.499 137.979 171.686C137.553 168.241 138.242 164.745 138.849 161.357C138.593 161.119 138.317 160.894 138.098 160.619C137.691 160.538 137.316 160.238 137.272 159.712C135.738 143.388 134.836 126.888 132.207 110.707C130.811 108.043 129.784 105.198 128.808 102.366C128.407 101.178 130.291 100.665 130.686 101.847C131.255 103.548 131.882 105.236 132.564 106.893C133.077 108.149 133.91 109.344 134.217 110.669C136.702 126.7 137.679 142.962 139.175 159.112C139.313 159.156 139.444 159.231 139.569 159.356C140.828 160.631 142.462 161.732 144.308 161.801C144.415 152.566 144.753 143.306 144.628 134.059C144.553 125.199 143.701 116.221 144.822 107.399C145.423 102.679 145.529 97.9955 145.467 93.2438C137.103 94.9882 127.374 95.3696 120.563 89.3861C121.934 107.593 123.374 125.8 124.751 144C127.743 146.864 130.836 145.126 133.879 143.375C135.024 142.756 135.982 144.544 134.793 145.094C135.099 146.726 135.588 148.589 135.394 150.228C135.995 151.641 136.189 154.004 135.337 155.354C134.755 156.286 133.685 156.667 132.689 156.993C131.318 157.443 129.941 157.887 128.57 158.337C126.147 159.131 123.73 160.012 121.264 160.675C119.442 161.169 117.119 161.788 115.266 161.138C113.1 160.375 112.305 158.074 112.368 155.955C111.022 152.854 113.2 150.797 115.742 149.396C118.027 148.014 120.356 146.676 122.147 144.65C122.328 144.444 122.535 144.357 122.741 144.344C122.748 144.263 122.773 144.188 122.804 144.113C121.414 125.193 119.811 106.267 118.484 87.3541C118.578 81.2018 118.916 75.0182 119.085 68.8534C115.767 68.0719 107.021 67.0215 106.508 62.9825C106.201 59.7938 107.403 56.6176 108.668 53.7415L108.68 53.7352ZM132.207 110.638C132.195 110.6 132.195 110.606 132.207 110.638V110.638ZM128.939 147.439C127.13 149.665 124.857 151.522 122.629 153.329C122.917 154.01 123.117 154.717 123.192 155.448C125.947 154.517 128.451 152.991 131.18 152.059C134.58 151.159 133.497 148.627 133.015 146.038C131.719 146.701 130.354 147.264 128.927 147.439H128.939ZM117.151 159.425C119.317 159.375 121.439 158.612 123.48 157.949C126.228 157.055 128.977 156.155 131.725 155.261C133.215 154.842 133.985 154.567 133.935 152.847C132.808 153.748 131.312 154.004 130.035 154.623C125.734 156.505 119.386 159.925 114.709 158.181C115.135 159.156 116.149 159.494 117.151 159.425ZM114.24 152.997C113.632 153.941 113.952 155.398 114.797 156.092C116.687 157.324 119.235 156.586 121.301 156.08C121.301 154.679 120.594 153.498 119.83 152.366C119.711 152.21 119.567 152.097 119.43 151.972C119.06 151.716 118.666 151.484 118.253 151.303C117.958 151.197 117.658 151.09 117.351 151.04C117.201 151.003 116.988 151.04 116.831 151.009C115.917 151.591 114.853 152.072 114.233 152.997H114.24ZM119.148 149.584C120.162 150.002 121.101 150.678 121.683 151.622C123.386 150.284 125.008 148.796 126.529 147.233C125.515 146.92 124.582 146.345 123.743 145.663C122.616 147.333 120.801 148.464 119.148 149.584ZM119.667 37.0415C117.714 39.086 117.22 41.8996 115.886 44.313C114.509 47.0578 112.906 49.6775 111.491 52.4035C111.729 52.2284 112.03 52.1534 112.318 52.2472C113.845 52.7474 115.367 53.2476 116.894 53.7477C117.67 53.9666 118.296 54.4293 118.528 55.2358C118.616 55.2483 118.703 55.2733 118.791 55.3108C119.01 52.7849 119.292 50.1652 120.118 47.7705C119.549 47.7017 119.173 47.0828 119.323 46.5451C119.617 45.2508 119.918 43.9628 120.212 42.6686C120.331 42.1434 120.913 41.8746 121.408 41.9871C123.43 42.4498 125.446 42.9125 127.468 43.3751C127.762 43.4439 128.056 43.5064 128.344 43.5752C128.87 43.694 129.139 44.2755 129.027 44.7694C128.733 46.0636 128.432 47.3516 128.138 48.6458C128.019 49.171 127.437 49.4399 126.942 49.3274C125.271 48.946 123.599 48.5646 121.927 48.1769C121.345 50.6654 120.819 53.2288 120.713 55.7985C123.211 56.3237 125.69 56.9239 128.15 57.5929C128.808 54.4418 129.309 51.2281 130.31 48.1644C129.891 46.5075 129.622 44.7882 129.365 43.1188C127.587 40.5491 125.483 37.8231 125.258 34.5968C123.079 34.5531 120.982 35.2346 119.674 37.0415H119.667ZM116.619 55.6735C116.619 55.6735 116.587 55.6172 116.575 55.6172C116.587 55.636 116.606 55.6547 116.619 55.6735ZM126.466 47.2203C126.617 46.5576 126.767 45.9011 126.923 45.2383C125.246 44.8507 123.561 44.4693 121.884 44.0816C121.733 44.7444 121.583 45.4009 121.427 46.0636C123.104 46.4513 124.788 46.8327 126.466 47.2203ZM143.97 41.0805C146.525 39.2611 149.085 37.4417 151.639 35.6222C151.114 34.3155 150.775 32.9087 150.312 31.5707C150.143 31.677 149.93 31.7458 149.73 31.7083C147.426 33.3589 145.122 35.072 142.574 36.3413C143.038 37.9231 143.507 39.5049 143.97 41.093V41.0805ZM161.312 43.1563C161.387 43.2376 161.343 43.2751 161.312 43.1563V43.1563ZM161.575 45.2633C161.575 44.5256 161.393 43.8441 161.274 43.125C158.682 40.918 155.897 38.9485 153.173 36.904C150.475 38.8234 147.777 40.7491 145.072 42.6686C144.684 42.9437 144.296 43.2251 143.908 43.5002C143.382 43.8753 142.643 43.4752 142.48 42.9187C141.942 41.093 141.41 39.2673 140.872 37.4417C140.477 37.8356 139.745 37.8105 139.419 37.3354C139.269 38.0857 138.737 38.7859 138.499 39.4799C138.868 41.8371 139.77 44.4068 140.79 46.6639C140.853 46.0636 141.46 45.6947 142.023 45.826C144.69 46.4388 147.351 47.0452 150.018 47.658C150.544 47.7768 150.813 48.3582 150.7 48.8522C150.406 50.1464 150.106 51.4344 149.811 52.7286C149.692 53.2538 149.11 53.5227 148.616 53.4101C146.888 53.0162 145.154 52.6161 143.426 52.2222C144.19 53.8103 144.947 55.4171 145.586 57.0615C148.772 57.9618 151.589 59.9251 154.281 61.8008C157.111 56.5551 161.694 51.5532 161.587 45.2696L161.575 45.2633ZM127.412 35.8286C128.094 38.267 129.828 40.0739 131.068 42.2184C131.393 42.7874 131.368 43.5689 131.475 44.2129C131.6 44.9632 131.75 45.7135 131.913 46.4575C132.526 49.2898 133.303 52.0909 133.697 54.9607C133.891 56.3737 133.96 57.8055 134.192 59.2185C134.905 63.714 136.902 67.8593 138.887 71.9045C140.177 74.5243 142.587 76.5938 145.229 74.1304C146.086 73.3488 146.869 72.4798 147.714 71.6795C149.348 70.1351 151.283 68.497 152.128 66.3525C152.51 65.3896 152.923 64.458 153.367 63.5389C151.17 61.9571 148.854 60.4253 146.362 59.3686C146.45 59.6687 146.543 59.9688 146.619 60.2752C146.925 61.4881 145.047 62.0071 144.74 60.7941C143.933 57.618 142.505 54.6418 141.053 51.6845C140.49 51.6095 139.907 51.3656 139.914 50.7716C139.864 50.4215 140.026 50.0526 140.083 49.7025C138.643 46.6826 137.222 43.6127 136.677 40.2927C136.564 39.5424 136.495 39.061 136.877 38.3795C137.604 37.0978 138.036 35.5347 137.835 34.0529C137.309 31.9396 137.46 29.6888 137.021 27.588C136.846 27.3817 136.351 27.3191 136.126 27.4692C135.851 27.6505 135.832 28.1632 135.776 28.4633C135.65 29.0823 135.556 29.7138 135.494 30.3453C135.381 31.5707 133.578 31.6207 133.547 30.3453C133.541 29.9951 133.221 29.5825 133.052 29.2949C132.658 28.6384 131.212 25.6435 130.248 26.3625C129.841 26.7689 130.116 27.9694 130.185 28.4571C130.329 29.4949 129.778 30.1139 128.97 30.6829C126.998 31.7333 126.823 33.8778 127.399 35.8411L127.412 35.8286ZM148.109 51.2968H148.134C148.284 50.6403 148.434 49.9838 148.591 49.3211C146.556 48.8584 144.528 48.3895 142.493 47.9268C142.368 48.4645 142.249 49.0022 142.124 49.5399C142.192 49.6837 142.261 49.8338 142.336 49.9776C144.258 50.4153 146.187 50.8592 148.109 51.2968ZM131.882 55.9736C131.738 54.7044 131.506 53.4476 131.237 52.1972C130.786 54.1604 130.429 56.1424 130.022 58.1119C130.761 58.3245 131.493 58.5433 132.226 58.7684C132.094 57.843 131.982 56.9177 131.882 55.9736ZM132.62 8.66216C132.62 8.66216 132.595 8.67466 132.589 8.68091C132.601 8.69967 132.614 8.68717 132.62 8.66216ZM134.774 7.78683C134.198 7.9869 133.616 8.18698 133.059 8.44958C135.331 9.31865 137.96 9.22487 140.089 10.4441C141.792 11.6445 142.787 13.5577 144.121 15.1208C144.571 15.671 145.204 16.4776 145.886 16.6401C146.118 16.6964 146.299 16.5464 146.65 16.3213C147.827 15.5647 149.192 15.1583 150.569 14.9332C147.301 10.7692 142.606 6.54887 136.984 6.92401C136.402 7.43045 135.475 7.47421 134.774 7.79308V7.78683ZM155.965 15.4272C156.247 14.4956 156.272 13.3014 156.222 12.2823C156.172 11.1881 156.078 10.0377 155.352 9.1811C154.306 7.93688 153.173 6.76145 151.959 5.67979C150.162 4.16047 146.587 1.21562 144.139 2.17848C142.606 2.85999 141.203 3.9604 139.945 5.12959C145.949 6.40506 152.103 12.151 154.35 17.8031C154.864 17.0028 155.477 16.2525 155.965 15.4334V15.4272ZM152.391 20.6854C152.61 20.3665 152.823 20.0477 153.042 19.7288C152.566 18.891 152.347 17.7093 151.721 16.7339C150.982 16.8027 150.225 16.934 149.492 17.1653C149.467 17.7718 149.26 18.3595 149.16 18.9598C150.563 18.7222 151.852 19.3474 152.391 20.6854ZM150.801 22.1359C150.801 22.1735 150.819 22.236 150.801 22.1422C150.801 22.1422 150.801 22.1422 150.801 22.1359ZM150.813 22.5111C150.801 22.5423 150.801 22.5611 150.794 22.5736C150.826 22.4361 150.807 22.2735 150.794 22.1297C150.763 21.9171 150.694 21.6983 150.632 21.492C150.569 21.3919 150.481 21.2419 150.425 21.1418C150.35 21.0793 150.281 20.998 150.193 20.9292C150.193 20.9292 150.181 20.923 150.174 20.9167C150.124 20.9042 150.074 20.8917 150.049 20.8855C149.836 20.8605 149.617 20.8792 149.404 20.8855C149.348 20.9042 149.304 20.9042 149.223 20.923C149.217 20.923 149.21 20.923 149.21 20.923C149.21 20.923 149.204 20.923 149.198 20.923C149.198 20.923 149.204 20.923 149.21 20.923C149.21 20.923 149.217 20.9167 149.223 20.9105C149.21 20.9167 149.204 20.923 149.192 20.9292C149.123 20.9417 149.098 20.9793 149.179 20.9355C148.954 21.0981 148.685 21.1543 148.415 21.1106C147.689 21.6358 146.706 20.8917 146.932 20.0539C147.063 19.4287 147.195 18.7972 147.326 18.172C143.263 20.2102 141.604 13.4952 138.824 11.9509C137.397 11.2819 135.788 11.1881 134.204 10.813C133.465 13.2326 132.764 15.6648 132.213 18.1344C131.75 20.1977 131.13 22.3923 131.512 24.4993C132.564 24.987 133.453 26.1374 134.073 27.1378C134.467 25.8561 135.888 25.2058 137.153 25.5247C139.131 25.9561 139.1 28.1007 139.269 29.7263C140.045 29.62 140.796 29.3761 141.473 28.9635C142.543 28.307 143.526 29.9889 142.455 30.6454C141.523 31.2143 140.496 31.5457 139.438 31.677C139.582 33.065 139.976 34.4655 139.738 35.8598C139.951 35.691 140.17 35.5284 140.414 35.4159C140.54 34.9782 140.997 34.7156 141.441 34.7407C144.052 33.4027 146.45 31.6833 148.816 29.9576C148.81 29.1198 148.797 28.282 148.791 27.4504C147.996 27.7755 146.556 27.8568 146.512 26.6876C146.525 26.0186 147.119 25.6247 147.758 25.7185C147.946 25.681 148.115 25.6435 148.303 25.5622C148.572 25.4309 148.81 25.2871 149.048 25.1121C149.417 24.8244 149.755 24.4743 150.049 24.1054C150.281 23.7866 150.481 23.4614 150.638 23.1051C150.719 22.8987 150.757 22.7237 150.801 22.5173L150.813 22.5111ZM147.639 163.095C147.871 164.877 148.19 166.646 148.384 168.428C149.192 168.86 149.918 169.397 150.488 170.11C150.663 167.421 149.805 164.796 149.304 162.17C148.778 162.526 148.221 162.845 147.639 163.095ZM140.446 171.492C140.364 171.698 140.233 171.873 140.07 172.004C141.053 176.5 147.908 176.85 149.755 172.78C148.747 169.141 142.142 167.803 140.446 171.498V171.492ZM145.473 178.951C147.62 178.682 149.311 177.275 150.181 175.456C147.733 178.138 143.069 178.226 140.333 175.943C141.166 178 143.257 179.288 145.473 178.951ZM139.845 168.997C139.845 168.997 139.845 169.041 139.845 169.06C140.17 168.741 140.533 168.472 140.922 168.247C140.84 166.44 140.84 164.577 140.922 162.77C140.815 162.713 140.715 162.651 140.615 162.595C140.233 164.714 139.901 166.834 139.845 168.991V168.997ZM142.825 163.508V167.54C143.958 167.315 145.179 167.371 146.349 167.653C146.155 166.321 145.967 164.983 145.773 163.651C144.816 163.82 143.77 163.758 142.825 163.501V163.508ZM147.007 105.68C145.805 114.564 146.418 123.511 146.575 132.44C146.694 142.143 146.475 151.847 146.237 161.544C147.821 161.069 149.154 159.931 150.318 158.743C151.589 140.924 149.98 122.999 151.927 105.223C152.491 100.653 153.474 96.0573 153.386 91.4368C153.311 91.2993 153.273 91.1367 153.28 90.9429C151.364 91.6619 149.411 92.2872 147.42 92.7999C147.501 97.1015 147.514 101.416 147.007 105.692V105.68ZM129.039 91.6994C137.134 93.5251 145.673 91.6994 153.311 88.8546C153.336 85.766 152.892 82.6586 153.161 79.5761C154.087 73.724 155.408 67.928 156.341 62.0759C155.202 63.8828 154.444 65.8773 153.593 67.8218C152.528 69.9163 150.682 71.5607 148.998 73.1488C147.301 74.7556 145.723 76.9377 143.213 77.1628C139.67 77.4879 137.685 74.0678 136.377 71.2105C133.603 70.9479 130.824 70.6478 128.05 70.2852C127.418 77.269 127.055 84.3654 127.8 91.3493C128.207 91.4869 128.62 91.6057 129.039 91.7057V91.6994ZM120.494 84.8719C120.475 85.4971 120.45 86.1161 120.431 86.7413C121.984 88.2419 123.806 89.5549 125.778 90.5052C125.139 83.7027 125.508 76.8001 126.128 70.0101C124.425 69.7662 122.723 69.4974 121.026 69.1973C120.844 74.418 120.669 79.6449 120.488 84.8656L120.494 84.8719ZM108.687 63.3263C112.111 66.8089 129.916 68.4845 135.469 69.1535C134.248 66.515 133.09 63.7702 132.583 60.8942C127.624 59.3373 122.585 58.0744 117.483 57.1115C116.907 57.0052 116.719 56.5363 116.8 56.0924C116.756 55.9798 116.706 55.8861 116.675 55.7673C116.662 55.7548 116.65 55.7297 116.637 55.7047C115.035 55.1545 113.413 54.6481 111.804 54.1104C111.391 53.9728 111.103 53.604 111.097 53.1788C109.845 55.6672 108.724 58.3307 108.474 61.1193C108.411 61.8008 108.255 62.7386 108.687 63.3201V63.3263Z" fill="#232B65"/>
<path d="M128.977 30.6704C129.784 30.1014 130.335 29.4825 130.191 28.4446C130.122 27.9569 129.847 26.7564 130.254 26.35C131.218 25.6248 132.664 28.6384 133.059 29.2824C133.228 29.57 133.547 29.9826 133.553 30.3328C133.584 31.6083 135.387 31.5582 135.5 30.3328C135.556 29.7013 135.657 29.0761 135.782 28.4508C135.844 28.157 135.857 27.638 136.132 27.4567C136.358 27.3066 136.852 27.3692 137.028 27.5755C137.466 29.6763 137.316 31.9334 137.842 34.0404C138.042 35.5222 137.61 37.0853 136.884 38.367C136.502 39.0423 136.571 39.53 136.683 40.2802C137.228 43.6002 138.649 46.6701 140.089 49.69C140.026 50.0339 139.87 50.409 139.92 50.7592C139.914 51.3531 140.49 51.597 141.059 51.672C142.512 54.6294 143.939 57.6055 144.747 60.7817C145.054 61.9946 146.932 61.4757 146.625 60.2627C146.55 59.9564 146.456 59.6562 146.368 59.3561C148.86 60.4128 151.176 61.9446 153.374 63.5264C152.929 64.4455 152.51 65.3771 152.134 66.34C151.289 68.4845 149.354 70.1227 147.72 71.667C146.124 73.0362 144.734 75.4934 142.337 75.1808C139.231 74.4805 138.042 69.735 136.721 67.2153C134.83 63.3826 134.041 59.1686 133.703 54.942C133.309 52.0659 132.533 49.2649 131.919 46.4388C131.756 45.6948 131.606 44.9445 131.481 44.1942C131.375 43.5565 131.4 42.7687 131.074 42.1997C129.834 40.0614 128.1 38.2482 127.418 35.8098C126.842 33.8591 127.011 31.6958 128.989 30.6516L128.977 30.6704Z" fill="white"/>
<path d="M155.101 60.3378C154.813 60.8192 154.532 61.3069 154.269 61.7946C151.577 59.9189 148.76 57.9557 145.573 57.0553C144.934 55.411 144.177 53.8041 143.413 52.216C145.141 52.6099 146.875 53.0101 148.603 53.404C149.098 53.5165 149.68 53.2539 149.799 52.7225C150.093 51.4282 150.394 50.1402 150.688 48.846C150.8 48.3521 150.538 47.7706 150.005 47.6518C149.667 47.5768 149.329 47.4955 148.991 47.4205C146.669 46.889 144.34 46.3576 142.017 45.8261C141.454 45.6886 140.84 46.0637 140.784 46.6639C139.77 44.4069 138.868 41.8371 138.492 39.48C138.73 38.7923 139.263 38.0857 139.413 37.3355C139.732 37.8106 140.471 37.8357 140.865 37.4418C141.404 39.2674 141.936 41.0931 142.474 42.9188C142.637 43.4753 143.376 43.8754 143.901 43.5003C144.29 43.2252 144.678 42.9438 145.066 42.6687C147.764 40.7492 150.462 38.8235 153.167 36.9041C155.89 38.9423 158.67 40.9181 161.268 43.1251C162.777 49.5338 158.169 55.1546 155.095 60.3441L155.101 60.3378Z" fill="#FFD151"/>
<path d="M161.311 43.1562C161.387 43.2383 161.343 43.2762 161.311 43.1562V43.1562Z" fill="white"/>
</svg>
